<svg width="27" height="27" viewBox="0 0 27 27" fill="none" xmlns="http://www.w3.org/2000/svg">
<mask id="mask0_1363_7734" style="mask-type:alpha" maskUnits="userSpaceOnUse" x="0" y="0" width="27" height="27">
<rect width="27" height="27" fill="#D9D9D9"/>
</mask>
<g mask="url(#mask0_1363_7734)">
<path d="M13.5 24.75C11.9438 24.75 10.4812 24.4547 9.1125 23.8641C7.74375 23.2734 6.55312 22.4719 5.54062 21.4594C4.52812 20.4469 3.72656 19.2563 3.13594 17.8875C2.54531 16.5188 2.25 15.0562 2.25 13.5C2.25 11.9438 2.54531 10.4812 3.13594 9.1125C3.72656 7.74375 4.52812 6.55312 5.54062 5.54062C6.55312 4.52812 7.74375 3.72656 9.1125 3.13594C10.4812 2.54531 11.9438 2.25 13.5 2.25C15.0562 2.25 16.5188 2.54531 17.8875 3.13594C19.2563 3.72656 20.4469 4.52812 21.4594 5.54062C22.4719 6.55312 23.2734 7.74375 23.8641 9.1125C24.4547 10.4812 24.75 11.9438 24.75 13.5V15.1312C24.75 16.2375 24.3703 17.1797 23.6109 17.9578C22.8516 18.7359 21.9187 19.125 20.8125 19.125C20.1562 19.125 19.5375 18.9844 18.9563 18.7031C18.375 18.4219 17.8875 18.0188 17.4938 17.4938C16.95 18.0375 16.3359 18.4453 15.6516 18.7172C14.9672 18.9891 14.25 19.125 13.5 19.125C11.9438 19.125 10.6172 18.5766 9.52031 17.4797C8.42344 16.3828 7.875 15.0562 7.875 13.5C7.875 11.9438 8.42344 10.6172 9.52031 9.52031C10.6172 8.42344 11.9438 7.875 13.5 7.875C15.0562 7.875 16.3828 8.42344 17.4797 9.52031C18.5766 10.6172 19.125 11.9438 19.125 13.5V15.1312C19.125 15.6187 19.2844 16.0313 19.6031 16.3688C19.9219 16.7063 20.325 16.875 20.8125 16.875C21.3 16.875 21.7031 16.7063 22.0219 16.3688C22.3406 16.0313 22.5 15.6187 22.5 15.1312V13.5C22.5 10.9875 21.6281 8.85938 19.8844 7.11563C18.1406 5.37188 16.0125 4.5 13.5 4.5C10.9875 4.5 8.85938 5.37188 7.11563 7.11563C5.37188 8.85938 4.5 10.9875 4.5 13.5C4.5 16.0125 5.37188 18.1406 7.11563 19.8844C8.85938 21.6281 10.9875 22.5 13.5 22.5H18C18.3187 22.5 18.5859 22.6078 18.8016 22.8234C19.0172 23.0391 19.125 23.3063 19.125 23.625C19.125 23.9437 19.0172 24.2109 18.8016 24.4266C18.5859 24.6422 18.3187 24.75 18 24.75H13.5ZM13.5 16.875C14.4375 16.875 15.2344 16.5469 15.8906 15.8906C16.5469 15.2344 16.875 14.4375 16.875 13.5C16.875 12.5625 16.5469 11.7656 15.8906 11.1094C15.2344 10.4531 14.4375 10.125 13.5 10.125C12.5625 10.125 11.7656 10.4531 11.1094 11.1094C10.4531 11.7656 10.125 12.5625 10.125 13.5C10.125 14.4375 10.4531 15.2344 11.1094 15.8906C11.7656 16.5469 12.5625 16.875 13.5 16.875Z" fill="#08658C"/>
</g>
</svg>
