<svg width="56" height="56" viewBox="0 0 56 56" fill="none" xmlns="http://www.w3.org/2000/svg">
<mask id="mask0_1230_7395" style="mask-type:alpha" maskUnits="userSpaceOnUse" x="0" y="0" width="56" height="56">
<rect width="56" height="56" fill="#D9D9D9"/>
</mask>
<g mask="url(#mask0_1230_7395)">
<path d="M10.8891 49C9.81964 49 8.904 48.6193 8.14217 47.8578C7.38072 47.096 7 46.1804 7 45.1109V20.4167C7 19.3472 7.38072 18.4318 8.14217 17.6703C8.904 16.9085 9.81964 16.5276 10.8891 16.5276H16.5276V10.8891C16.5276 9.81964 16.9085 8.904 17.6703 8.14217C18.4318 7.38072 19.3472 7 20.4167 7H35.5833C36.6528 7 37.5682 7.38072 38.3297 8.14217C39.0915 8.904 39.4724 9.81964 39.4724 10.8891V26.0557H45.1109C46.1804 26.0557 47.096 26.4365 47.8578 27.1979C48.6193 27.9594 49 28.8748 49 29.9442V45.1109C49 46.1804 48.6193 47.096 47.8578 47.8578C47.096 48.6193 46.1804 49 45.1109 49H30.8391V39.4724H25.1609V49H10.8891ZM10.8891 45.1109H16.5276V39.4724H10.8891V45.1109ZM10.8891 35.5833H16.5276V29.9442H10.8891V35.5833ZM10.8891 26.0557H16.5276V20.4167H10.8891V26.0557ZM20.4167 35.5833H26.0558V29.9442H20.4167V35.5833ZM20.4167 26.0557H26.0558V20.4167H20.4167V26.0557ZM20.4167 16.5276H26.0558V10.8891H20.4167V16.5276ZM29.9443 35.5833H35.5833V29.9442H29.9443V35.5833ZM29.9443 26.0557H35.5833V20.4167H29.9443V26.0557ZM29.9443 16.5276H35.5833V10.8891H29.9443V16.5276ZM39.4724 45.1109H45.1109V39.4724H39.4724V45.1109ZM39.4724 35.5833H45.1109V29.9442H39.4724V35.5833Z" fill="#08658C"/>
</g>
</svg>
