<svg width="57" height="57" viewBox="0 0 57 57" fill="none" xmlns="http://www.w3.org/2000/svg">
<mask id="mask0_1712_7410" style="mask-type:alpha" maskUnits="userSpaceOnUse" x="0" y="0" width="57" height="57">
<rect width="56.4682" height="56.4682" fill="#D9D9D9"/>
</mask>
<g mask="url(#mask0_1712_7410)">
<path d="M33.2732 19.9403L45.5668 7.70556C45.9197 7.35264 46.3609 7.17284 46.8903 7.16617C47.4196 7.1599 47.8804 7.3397 48.2725 7.70556C48.6514 8.05849 48.8408 8.50945 48.8408 9.05845C48.8408 9.60744 48.6514 10.0715 48.2725 10.4507L34.6455 24.1166C34.2533 24.5088 33.7959 24.7048 33.2732 24.7048C32.7501 24.7048 32.2924 24.5088 31.9003 24.1166L24.8812 17.0975C24.489 16.7054 24.2963 16.2478 24.303 15.7246C24.3092 15.2019 24.5085 14.7445 24.9006 14.3523C25.2927 13.9731 25.7568 13.7804 26.2929 13.7741C26.8289 13.7675 27.293 13.9602 27.6852 14.3523L33.2732 19.9403ZM35.3319 49.3314L49.7231 44.8216C49.658 44.1813 49.3607 43.6356 48.8313 43.1847C48.302 42.7337 47.6843 42.5212 46.9785 42.547H34.8219C34.0506 42.5733 33.3579 42.5341 32.7438 42.4294C32.1293 42.3251 31.5148 42.1682 30.9003 41.9588L27.1946 40.8024C26.6719 40.6322 26.2864 40.2922 26.0382 39.7824C25.7896 39.2727 25.7504 38.7564 25.9206 38.2337C26.0904 37.711 26.4203 37.3222 26.9105 37.0673C27.4007 36.8124 27.9071 36.783 28.4299 36.979L31.7632 38.0766C32.273 38.2468 32.8187 38.3776 33.4002 38.469C33.9822 38.5603 34.6586 38.6127 35.4296 38.626H37.8412C37.8412 37.9331 37.6157 37.3186 37.1648 36.7826C36.7138 36.2469 36.1682 35.8548 35.5278 35.6061L22.3913 30.6652H17.8421V44.3117L35.3319 49.3314ZM34.4102 53.096L17.8421 48.3903C17.6852 49.4358 17.1852 50.2593 16.3421 50.8608C15.499 51.4619 14.692 51.7625 13.9211 51.7625H8.62717C7.54211 51.7625 6.61725 51.3802 5.85258 50.6155C5.0879 49.8508 4.70557 48.926 4.70557 47.8409V30.6652C4.70557 29.5805 5.0879 28.6559 5.85258 27.8912C6.61725 27.1265 7.54211 26.7442 8.62717 26.7442H22.3519C22.5742 26.7442 22.803 26.7669 23.0383 26.8124C23.2736 26.8583 23.4958 26.9204 23.7048 26.9989L36.8613 31.9204C38.3906 32.4953 39.6094 33.3709 40.5176 34.5474C41.4262 35.7238 41.8805 37.0833 41.8805 38.626H46.9785C48.9651 38.626 50.6513 39.3252 52.0371 40.7236C53.4225 42.1223 54.1152 43.8413 54.1152 45.8804C54.1152 46.4557 53.9682 46.9425 53.6741 47.3409C53.38 47.7398 52.9453 48.0307 52.37 48.2138L36.6454 53.076C36.2925 53.1807 35.9199 53.233 35.5278 53.233C35.1357 53.233 34.7631 53.1874 34.4102 53.096ZM8.62717 47.8409H13.8816V30.6652H8.62717V47.8409Z" fill="#08658C"/>
</g>
</svg>
