<svg width="17" height="17" viewBox="0 0 17 17" fill="none" xmlns="http://www.w3.org/2000/svg">
<mask id="mask0_199_557" style="mask-type:alpha" maskUnits="userSpaceOnUse" x="0" y="0" width="17" height="17">
<rect width="16.9485" height="16.9485" fill="#D9D9D9"/>
</mask>
<g mask="url(#mask0_199_557)">
<path d="M10.8737 9.41003H3.42117C3.16129 9.41003 2.94038 9.31905 2.75841 9.13709C2.57645 8.95525 2.48547 8.73433 2.48547 8.47433C2.48547 8.21434 2.57645 7.99342 2.75841 7.81158C2.94038 7.62962 3.16129 7.53864 3.42117 7.53864H10.8737L7.8027 4.46744C7.61485 4.27971 7.52222 4.05838 7.52481 3.80345C7.52729 3.54863 7.62245 3.32736 7.81029 3.13963C7.99814 2.96356 8.21947 2.87422 8.47428 2.87163C8.7291 2.86905 8.95043 2.96167 9.13827 3.14952L13.7991 7.81034C13.8896 7.90097 13.9579 8.00407 14.0041 8.11965C14.0501 8.23535 14.0731 8.35358 14.0731 8.47433C14.0731 8.59509 14.0501 8.71332 14.0041 8.82902C13.9579 8.94459 13.8896 9.0477 13.7991 9.13833L9.12821 13.809C8.94554 13.9918 8.72715 14.0832 8.47304 14.0832C8.21905 14.0832 7.99814 13.9918 7.81029 13.809C7.62245 13.6213 7.52852 13.3987 7.52852 13.1413C7.52852 12.8839 7.62245 12.6613 7.81029 12.4735L10.8737 9.41003Z" fill="white"/>
</g>
</svg>
