<svg width="14" height="17" viewBox="0 0 14 17" fill="none" xmlns="http://www.w3.org/2000/svg">
<g clip-path="url(#clip0_1055_7479)">
<mask id="mask0_1055_7479" style="mask-type:alpha" maskUnits="userSpaceOnUse" x="-3" y="-2" width="20" height="21">
<rect x="-3" y="-1.5" width="20" height="20" fill="white"/>
</mask>
<g mask="url(#mask0_1055_7479)">
<path d="M6.99583 11.25C6.89583 11.25 6.80208 11.2327 6.71458 11.1979C6.62708 11.1632 6.5486 11.1111 6.47916 11.0417L2.52791 7.09044C2.37041 6.93294 2.29513 6.75349 2.30208 6.5521C2.30902 6.35071 2.38888 6.17363 2.54166 6.02085C2.69444 5.86808 2.87152 5.79169 3.07291 5.79169C3.2743 5.79169 3.45138 5.86808 3.60416 6.02085L6.99999 9.43752L10.4167 6.02085C10.5694 5.86808 10.7465 5.79516 10.9479 5.8021C11.1493 5.80905 11.3264 5.88891 11.4792 6.04169C11.6319 6.19446 11.7083 6.37155 11.7083 6.57294C11.7083 6.77433 11.6296 6.95335 11.4721 7.11002L7.52083 11.0417C7.44583 11.1111 7.36458 11.1632 7.27708 11.1979C7.18958 11.2327 7.09583 11.25 6.99583 11.25Z" fill="black"/>
</g>
</g>
<defs>
<clipPath id="clip0_1055_7479">
<rect width="14" height="17" fill="white"/>
</clipPath>
</defs>
</svg>
