<svg width="17" height="17" viewBox="0 0 17 17" fill="none" xmlns="http://www.w3.org/2000/svg">
<mask id="mask0_1796_7582" style="mask-type:alpha" maskUnits="userSpaceOnUse" x="0" y="0" width="17" height="17">
<rect width="16.9485" height="16.9485" fill="#D9D9D9"/>
</mask>
<g mask="url(#mask0_1796_7582)">
<path d="M10.8736 9.40991H3.42105C3.16117 9.40991 2.94025 9.31893 2.75829 9.13697C2.57633 8.95513 2.48535 8.73421 2.48535 8.47421C2.48535 8.21422 2.57633 7.9933 2.75829 7.81146C2.94025 7.6295 3.16117 7.53852 3.42105 7.53852H10.8736L7.80258 4.46731C7.61473 4.27959 7.5221 4.05826 7.52469 3.80332C7.52716 3.54851 7.62232 3.32724 7.81017 3.13951C7.99801 2.96343 8.21934 2.8741 8.47416 2.87151C8.72897 2.86892 8.9503 2.96155 9.13815 3.1494L13.799 7.81022C13.8895 7.90085 13.9578 8.00395 14.0039 8.11953C14.05 8.23523 14.073 8.35345 14.073 8.47421C14.073 8.59497 14.05 8.7132 14.0039 8.82889C13.9578 8.94447 13.8895 9.04758 13.799 9.1382L9.12809 13.8089C8.94542 13.9917 8.72703 14.0831 8.47292 14.0831C8.21893 14.0831 7.99801 13.9917 7.81017 13.8089C7.62232 13.6212 7.5284 13.3986 7.5284 13.1412C7.5284 12.8838 7.62232 12.6612 7.81017 12.4733L10.8736 9.40991Z" fill="black"/>
</g>
</svg>
