<svg width="47" height="47" viewBox="0 0 47 47" fill="none" xmlns="http://www.w3.org/2000/svg">
<rect width="47" height="47" rx="23.5" fill="white"/>
<mask id="mask0_1323_7412" style="mask-type:alpha" maskUnits="userSpaceOnUse" x="9" y="9" width="29" height="29">
<rect x="9.83246" y="9.83246" width="27.3351" height="27.3351" fill="#D9D9D9"/>
</mask>
<g mask="url(#mask0_1323_7412)">
<path d="M25.7366 23.5L20.3778 18.2534C20.1259 18.0067 19.9999 17.6928 19.9999 17.3117C19.9999 16.9305 20.1259 16.6166 20.3778 16.37C20.6297 16.1233 20.9503 16 21.3396 16C21.7289 16 22.0496 16.1233 22.3015 16.37L28.6221 22.5583C28.7595 22.6928 28.8568 22.8386 28.9141 22.9955C28.9713 23.1525 28.9999 23.3206 28.9999 23.5C28.9999 23.6794 28.9713 23.8475 28.9141 24.0045C28.8568 24.1614 28.7595 24.3072 28.6221 24.4417L22.3015 30.63C22.0496 30.8767 21.7289 31 21.3396 31C20.9503 31 20.6297 30.8767 20.3778 30.63C20.1259 30.3834 19.9999 30.0695 19.9999 29.6883C19.9999 29.3072 20.1259 28.9933 20.3778 28.7466L25.7366 23.5Z" fill="#08658C"/>
</g>
</svg>
