<svg width="28" height="28" viewBox="0 0 28 28" fill="none" xmlns="http://www.w3.org/2000/svg">
<mask id="mask0_1201_7395" style="mask-type:alpha" maskUnits="userSpaceOnUse" x="0" y="0" width="28" height="28">
<rect width="27.3351" height="27.3351" transform="matrix(-1 0 0 1 27.3351 0)" fill="#D9D9D9"/>
</mask>
<g mask="url(#mask0_1201_7395)">
<path d="M18.3942 14.8065L15.1481 18.0526C14.9204 18.2804 14.8112 18.5461 14.8207 18.8498C14.8302 19.1536 14.9393 19.4193 15.1481 19.6471C15.3759 19.8749 15.6464 19.9935 15.9597 20.003C16.2729 20.0125 16.5434 19.9034 16.7712 19.6756L21.9819 14.4648C22.2097 14.237 22.3236 13.9713 22.3236 13.6676C22.3236 13.3638 22.2097 13.0981 21.9819 12.8703L16.7712 7.65953C16.5434 7.43174 16.2729 7.32259 15.9597 7.33208C15.6464 7.34157 15.3759 7.46022 15.1481 7.68801C14.9393 7.9158 14.8302 8.18156 14.8207 8.48528C14.8112 8.789 14.9204 9.05476 15.1481 9.28255L18.3942 12.5286H5.69477C5.37206 12.5286 5.10156 12.6377 4.88326 12.856C4.66495 13.0743 4.5558 13.3449 4.5558 13.6676C4.5558 13.9903 4.66495 14.2608 4.88326 14.4791C5.10156 14.6974 5.37206 14.8065 5.69477 14.8065H18.3942Z" fill="white"/>
</g>
</svg>
