<svg width="24" height="24" viewBox="0 0 24 24" fill="none" xmlns="http://www.w3.org/2000/svg">
<mask id="mask0_1825_7397" style="mask-type:alpha" maskUnits="userSpaceOnUse" x="0" y="0" width="24" height="24">
<rect width="24" height="24" transform="matrix(-6.61776e-08 -1 -1 2.88721e-08 24 24)" fill="#D9D9D9"/>
</mask>
<g mask="url(#mask0_1825_7397)">
<path d="M15.6 7.99995L6.7 16.9C6.51667 17.0833 6.425 17.3166 6.425 17.6C6.425 17.8833 6.51667 18.1166 6.7 18.3C6.88333 18.4833 7.11667 18.575 7.4 18.575C7.68333 18.575 7.91667 18.4833 8.1 18.3L17 9.39995L17 17C17 17.2833 17.0958 17.5208 17.2875 17.7125C17.4792 17.9041 17.7167 18 18 18C18.2833 18 18.5208 17.9041 18.7125 17.7125C18.9042 17.5208 19 17.2833 19 17L19 6.99995C19 6.71662 18.9042 6.47912 18.7125 6.28745C18.5208 6.09578 18.2833 5.99995 18 5.99995L8 5.99995C7.71667 5.99995 7.47917 6.09578 7.2875 6.28745C7.09583 6.47912 7 6.71662 7 6.99995C7 7.28329 7.09583 7.52078 7.2875 7.71245C7.47917 7.90412 7.71667 7.99995 8 7.99995L15.6 7.99995Z" fill="#08658C"/>
</g>
</svg>
