<svg width="98" height="98" viewBox="0 0 98 98" fill="none" xmlns="http://www.w3.org/2000/svg">
<path d="M66 27.5L44.2238 48.3083C43.7615 48.7501 43.5 49.3617 43.5 50.0012C43.5 51.5244 44.9315 52.6421 46.4093 52.2727L46.6724 52.2069C47.2183 52.0704 47.73 51.8227 48.1756 51.4792L71.5 33.5L77 36.5L92.5 27L80 22L71.883 27.9317L71.883 27.9317C70.1091 29.228 69.2221 29.8761 69.0409 29.6737C68.8597 29.4712 69.6021 28.6614 71.0867 27.0418L71.0867 27.0418L78 19.5L75 6.5L63.5 20.5L66 27.5Z" fill="white"/>
<path d="M80.1296 20.4444L79.877 20.0655C79.7013 19.8019 79.6134 19.6702 79.6482 19.5393C79.6829 19.4085 79.8246 19.3377 80.1079 19.196L81.8761 18.3119C83.5767 17.4616 84.4271 17.0365 84.5733 17.2601C84.7196 17.4837 83.9892 18.0923 82.5286 19.3095L81.013 20.5725C80.7735 20.7721 80.6537 20.8719 80.5214 20.8527C80.389 20.8335 80.3025 20.7038 80.1296 20.4444Z" fill="white"/>
<path d="M44.5 12C51.1358 12 57.388 13.6391 62.8779 16.5303L60.1035 19.9092L61.4893 23.79C56.5456 20.7526 50.7277 19 44.5 19C26.5507 19 12 33.5507 12 51.5C12 69.4493 26.5507 84 44.5 84C62.4493 84 77 69.4493 77 51.5C77 46.8472 76.02 42.4237 74.2588 38.4219L77.0879 39.9648L81.3799 37.333C83.0704 41.731 84 46.5067 84 51.5C84 73.3152 66.3152 91 44.5 91C22.6848 91 5 73.3152 5 51.5C5 29.6848 22.6848 12 44.5 12ZM44.5 28C49.1876 28 53.5542 29.3732 57.2207 31.7383L51.9512 36.7744C49.7129 35.6396 47.1812 35 44.5 35C35.3873 35 28 42.3873 28 51.5C28 60.6127 35.3873 68 44.5 68C53.6127 68 61 60.6127 61 51.5C61 49.6023 60.6784 47.7799 60.0889 46.083L65.8398 41.6494C67.2252 44.6456 68 47.9821 68 51.5C68 64.4787 57.4787 75 44.5 75C31.5213 75 21 64.4787 21 51.5C21 38.5213 31.5213 28 44.5 28ZM42.1514 46.1396C41.0968 47.1474 40.5001 48.5423 40.5 50.001C40.5 53.4759 43.7655 56.0254 47.1367 55.1826L47.4004 55.1172C48.3468 54.8805 49.2342 54.451 50.0068 53.8555L51.9492 52.3574C51.5236 56.0957 48.3521 59 44.5 59C40.3579 59 37 55.6421 37 51.5C37 47.3957 40.2968 44.0625 44.3867 44.002L42.1514 46.1396ZM47.8857 44.8076C49.5604 45.6565 50.8739 47.1141 51.5332 48.8906L48.1758 51.4795L48.0059 51.6035C47.602 51.8829 47.1504 52.0876 46.6729 52.207L46.4092 52.2725C44.9314 52.6419 43.5 51.5242 43.5 50.001C43.5001 49.3617 43.7615 48.7503 44.2236 48.3086L47.8857 44.8076ZM59.667 33.5508C61.5045 35.1051 63.0993 36.9365 64.3887 38.9805L58.8096 43.2812C57.7247 41.3964 56.278 39.7468 54.5645 38.4258L59.667 33.5508ZM65.5127 18.0488C68.4077 19.8712 71.0482 22.0595 73.3721 24.5479L71.0869 27.042C69.6023 28.6616 68.8598 29.4713 69.041 29.6738L69.083 29.7021C69.3362 29.7931 70.2197 29.147 71.8828 27.9316L74.6113 25.9375C76.822 28.539 78.7013 31.4302 80.1846 34.5469L77 36.5L71.5957 33.5518C69.9687 31.1005 68.0201 28.8813 65.8066 26.958L63.5 20.5L65.5127 18.0488Z" fill="white"/>
</svg>
