<svg width="47" height="47" viewBox="0 0 47 47" fill="none" xmlns="http://www.w3.org/2000/svg">
<rect width="47" height="47" rx="23.5" transform="matrix(-1 0 0 1 47 0)" fill="white"/>
<mask id="mask0_1323_7416" style="mask-type:alpha" maskUnits="userSpaceOnUse" x="9" y="9" width="29" height="29">
<rect width="27.3351" height="27.3351" transform="matrix(-1 0 0 1 37.1675 9.83246)" fill="#D9D9D9"/>
</mask>
<g mask="url(#mask0_1323_7416)">
<path d="M21.2634 23.5L26.6222 18.2534C26.8741 18.0067 27.0001 17.6928 27.0001 17.3117C27.0001 16.9305 26.8741 16.6166 26.6222 16.37C26.3703 16.1233 26.0497 16 25.6604 16C25.2711 16 24.9504 16.1233 24.6985 16.37L18.3779 22.5583C18.2405 22.6928 18.1432 22.8386 18.0859 22.9955C18.0287 23.1525 18.0001 23.3206 18.0001 23.5C18.0001 23.6794 18.0287 23.8475 18.0859 24.0045C18.1432 24.1614 18.2405 24.3072 18.3779 24.4417L24.6985 30.63C24.9504 30.8767 25.2711 31 25.6604 31C26.0497 31 26.3703 30.8767 26.6222 30.63C26.8741 30.3834 27.0001 30.0695 27.0001 29.6883C27.0001 29.3072 26.8741 28.9933 26.6222 28.7466L21.2634 23.5Z" fill="#08658C"/>
</g>
</svg>
