<svg width="28" height="28" viewBox="0 0 28 28" fill="none" xmlns="http://www.w3.org/2000/svg">
<mask id="mask0_1201_7395" style="mask-type:alpha" maskUnits="userSpaceOnUse" x="0" y="0" width="28" height="28">
<rect width="27.3351" height="27.3351" fill="#D9D9D9"/>
</mask>
<g mask="url(#mask0_1201_7395)">
<path d="M8.94089 14.8065L12.1869 18.0526C12.4147 18.2804 12.5239 18.5461 12.5144 18.8498C12.5049 19.1536 12.3957 19.4193 12.1869 19.6471C11.9591 19.8749 11.6886 19.9935 11.3754 20.003C11.0622 20.0125 10.7917 19.9034 10.5639 19.6756L5.35316 14.4648C5.12537 14.237 5.01147 13.9713 5.01147 13.6676C5.01147 13.3638 5.12537 13.0981 5.35316 12.8703L10.5639 7.65953C10.7917 7.43174 11.0622 7.32259 11.3754 7.33208C11.6886 7.34157 11.9591 7.46022 12.1869 7.68801C12.3957 7.9158 12.5049 8.18156 12.5144 8.48528C12.5239 8.789 12.4147 9.05476 12.1869 9.28255L8.94089 12.5286H21.6403C21.963 12.5286 22.2335 12.6377 22.4518 12.856C22.6701 13.0743 22.7793 13.3449 22.7793 13.6676C22.7793 13.9903 22.6701 14.2608 22.4518 14.4791C22.2335 14.6974 21.963 14.8065 21.6403 14.8065H8.94089Z" fill="white"/>
</g>
</svg>
