<svg width="56" height="56" viewBox="0 0 56 56" fill="none" xmlns="http://www.w3.org/2000/svg">
<mask id="mask0_1230_7401" style="mask-type:alpha" maskUnits="userSpaceOnUse" x="0" y="0" width="56" height="56">
<rect width="56" height="56" fill="#D9D9D9"/>
</mask>
<g mask="url(#mask0_1230_7401)">
<path d="M10.8891 49C9.81964 49 8.904 48.6193 8.14217 47.8578C7.38072 47.096 7 46.1804 7 45.1109V10.8891C7 9.81964 7.38072 8.904 8.14217 8.14217C8.904 7.38072 9.81964 7 10.8891 7H22.1276C22.4259 5.62605 23.1228 4.50469 24.2183 3.63592C25.3134 2.76753 26.5739 2.33333 28 2.33333C29.4261 2.33333 30.6866 2.76753 31.7818 3.63592C32.8773 4.50469 33.5741 5.62605 33.8724 7H45.1109C46.1804 7 47.096 7.38072 47.8578 8.14217C48.6193 8.904 49 9.81964 49 10.8891V45.1109C49 46.1804 48.6193 47.096 47.8578 47.8578C47.096 48.6193 46.1804 49 45.1109 49H10.8891ZM10.8891 45.1109H45.1109V10.8891H10.8891V45.1109ZM18.2776 39.6667H30.45C31.0011 39.6667 31.4629 39.4796 31.8354 39.1055C32.208 38.7318 32.3943 38.2684 32.3943 37.7154C32.3943 37.1624 32.208 36.7012 31.8354 36.3318C31.4629 35.9623 31.0011 35.7776 30.45 35.7776H18.2776C17.7269 35.7776 17.2651 35.9646 16.8922 36.3388C16.5196 36.7129 16.3333 37.1762 16.3333 37.7288C16.3333 38.2818 16.5196 38.7431 16.8922 39.1125C17.2651 39.4819 17.7269 39.6667 18.2776 39.6667ZM18.2776 29.9443H37.7224C38.2731 29.9443 38.7349 29.7574 39.1078 29.3837C39.4804 29.0096 39.6667 28.546 39.6667 27.993C39.6667 27.4404 39.4804 26.9794 39.1078 26.6099C38.7349 26.2405 38.2731 26.0558 37.7224 26.0558H18.2776C17.7269 26.0558 17.2651 26.2426 16.8922 26.6163C16.5196 26.9904 16.3333 27.454 16.3333 28.007C16.3333 28.5596 16.5196 29.0206 16.8922 29.3901C17.2651 29.7595 17.7269 29.9443 18.2776 29.9443ZM18.2776 20.2224H37.7224C38.2731 20.2224 38.7349 20.0354 39.1078 19.6613C39.4804 19.2871 39.6667 18.8238 39.6667 18.2712C39.6667 17.7182 39.4804 17.2569 39.1078 16.8875C38.7349 16.5181 38.2731 16.3333 37.7224 16.3333H18.2776C17.7269 16.3333 17.2651 16.5204 16.8922 16.8945C16.5196 17.2682 16.3333 17.7316 16.3333 18.2846C16.3333 18.8376 16.5196 19.2988 16.8922 19.6683C17.2651 20.0377 17.7269 20.2224 18.2776 20.2224ZM28 9.64425C28.5316 9.64425 28.9886 9.45311 29.3708 9.07083C29.7531 8.68856 29.9443 8.23161 29.9443 7.7C29.9443 7.16839 29.7531 6.71144 29.3708 6.32917C28.9886 5.94689 28.5316 5.75575 28 5.75575C27.4684 5.75575 27.0114 5.94689 26.6292 6.32917C26.2469 6.71144 26.0558 7.16839 26.0558 7.7C26.0558 8.23161 26.2469 8.68856 26.6292 9.07083C27.0114 9.45311 27.4684 9.64425 28 9.64425Z" fill="#08658C"/>
</g>
</svg>
