<svg width="1017" height="792" viewBox="0 0 1017 792" fill="none" xmlns="http://www.w3.org/2000/svg">
<g clip-path="url(#clip0_1360_7563)">
<path d="M-240.273 -443.465L-217.692 -446.128L-195.995 -455.893L-174.3 -447.903L-150.39 -446.572L-119.395 -458.555L-87.0728 -455.449L-51.2079 -449.235L-14.0149 -450.566L-10.0298 -451.898L10.7807 -407.958L20.5215 -393.312L29.377 -376.002L33.3621 -356.029L41.775 -276.583L46.2027 -259.717L53.7297 -252.616L44.4315 -250.84L16.9794 -273.032L-9.14422 -294.78L-30.8403 -287.679L-52.5364 -278.802L-102.127 -278.358L-124.709 -246.846L-112.311 -215.777L-111.868 -181.158L-118.953 -165.624L-128.694 -152.752L-142.862 -150.533L-155.703 -147.87L-175.628 -133.667L-185.812 -109.7L-180.056 -67.9796L-171.2 -26.259L-193.782 -11.6124L-214.149 7.91634L-249.129 -11.1686L-284.551 -28.4782L-281.894 -68.8673L-285.436 -103.487L-295.62 -125.678L-282.78 -145.651L-265.069 -159.41L-255.77 -182.489L-281.008 -215.777L-309.789 -245.07L-291.635 -289.454L-255.77 -320.966L-246.915 -332.062L-238.059 -343.602L-238.502 -356.917L-247.8 -368.457L-248.243 -405.739L-240.273 -443.465Z" fill="#ECF4F8" stroke="#08658C" stroke-width="1.09237" stroke-linecap="round" stroke-linejoin="round"/>
<path d="M-214.15 7.91631L-193.782 -11.6125L-171.2 -26.2591L-148.176 -27.5906L-125.595 -36.0234L-100.799 -43.5686L-78.2175 -56.8837L-73.7898 -70.1988L-70.6903 -85.2893L-59.6209 -97.2729L-45.0094 -102.599L-29.5122 -89.2838L-24.6416 -55.5522L-7.81615 -43.5686L11.6658 -36.0234L39.1179 -18.27L68.3413 -8.06175L101.992 -4.95491L134.315 -13.8316L160.881 -18.27L188.333 -17.8261L191.433 -19.1577L192.318 -17.3823L198.517 -2.29187L213.129 10.1355L244.566 29.6643L259.62 25.6698L272.903 37.2095L285.301 52.7438L299.027 60.2891L306.554 69.1658L303.455 89.1384L291.5 122.87L287.072 140.623L286.187 149.944L287.072 160.152L290.172 165.922L299.027 177.462L301.241 182.344L301.684 183.232L297.256 185.451L273.789 188.558L268.033 206.755L253.864 230.278L234.825 247.144L225.969 258.24L217.999 269.78L214.9 287.089L211.8 303.955L167.523 323.928L116.604 325.703L71.8834 301.736L35.1331 263.122L5.46711 232.497L-31.7261 219.626L-61.8348 196.991L-88.4013 167.697L-103.456 148.169L-119.838 133.078L-156.589 105.116L-196.439 93.1329L-223.005 54.0753L-214.15 7.91631Z" fill="#ECF4F8" stroke="#08658C" stroke-width="1.09237" stroke-linecap="round" stroke-linejoin="round"/>
<path d="M268.033 206.755L273.789 188.558L297.256 185.451L301.684 183.232L306.554 191.221L318.509 202.76L332.235 212.969L341.534 217.407L371.2 219.182L384.483 222.733L395.552 228.947L420.348 251.139L423.89 252.914L422.119 261.791L416.363 271.999L410.607 282.651L375.627 294.635L341.091 291.084L329.136 272.443L318.067 252.026L294.599 224.509L268.033 206.755Z" fill="#ECF4F8" stroke="#08658C" stroke-width="1.09237" stroke-linecap="round" stroke-linejoin="round"/>
<path d="M410.607 282.651L416.363 271.999L422.119 261.791L423.89 252.914L433.631 257.796L468.167 262.234L497.833 271.555L513.773 272.886L526.614 270.223L564.692 254.245L581.075 251.582L659.446 254.245L665.202 260.015L668.302 266.673L670.516 272.886L673.615 279.1L686.013 294.191L698.853 306.174L713.022 314.163L775.011 327.478L786.966 334.58L794.493 347.895L802.905 368.755L813.532 388.284L827.258 396.717L841.87 402.487L854.71 416.246L864.894 434.443L871.536 453.084L878.62 527.648L883.491 535.194L889.247 552.059L892.789 570.701L890.575 583.128L877.292 557.386L863.123 535.194L845.855 515.221L811.761 487.259L797.592 479.27L782.095 473.5L751.101 469.062L725.42 460.629L711.694 458.854L703.724 459.742L694.425 463.736L688.227 465.511H661.66L649.705 470.394L626.238 489.922H612.512L607.642 485.928L598.786 471.281L593.473 465.511L585.946 462.405L568.235 459.298L550.523 449.533L536.798 457.079L513.773 477.939L518.644 499.243L499.162 519.216L471.267 533.862L425.661 544.07L385.368 567.594L332.678 587.122L320.28 596.443L294.157 625.736L282.202 634.169L274.675 643.934L272.903 663.462L276.888 687.873L277.331 697.638L240.138 711.841L233.496 726.043L235.267 744.241L244.566 762.438L250.765 769.095L260.506 776.641L265.819 783.742L268.476 793.063L264.933 798.389L257.849 802.827L245.894 814.367L240.581 817.03L235.267 820.58L230.397 829.901L227.298 840.553L226.855 848.986L230.397 866.739L238.367 886.268L240.581 896.476L237.481 907.128L231.283 913.786L225.969 918.224L222.427 923.107L221.099 931.539L221.984 936.866L224.641 941.304L226.412 947.074L225.527 953.287L222.87 957.282L211.358 965.271L207.373 978.142L207.816 983.912L211.358 990.126L208.258 1001.67L212.243 1014.09L228.183 1035.84L227.298 1043.39L217.556 1050.93L199.845 1061.14L182.577 1082L175.493 1054.93L172.836 1024.75L171.508 986.131L181.249 951.512L180.363 928.433L177.707 905.797L167.966 891.594L157.782 877.835L148.926 849.43L136.529 825.019L144.941 800.164L150.255 775.753L161.767 758.887L172.836 741.578L170.622 723.38L167.523 704.739L175.493 684.767L187.448 667.457L192.318 650.591L191.433 635.501L196.746 619.966L208.258 608.87L228.626 569.369L231.283 518.772L225.084 469.062L224.198 423.347L245.894 401.155L275.117 396.717L291.943 379.407L309.654 358.991L365.886 357.215L386.254 353.665L407.507 352.777L423.004 357.215L438.059 362.098L454.884 357.215L471.267 349.226L502.704 342.125L533.698 333.692L546.981 319.045L522.629 309.281L493.848 299.517L464.625 290.64L452.227 294.634L439.83 300.404L423.89 297.297L410.607 282.651ZM346.404 411.807L348.175 414.47L358.359 430.004L363.672 446.87L379.169 450.421L395.552 448.646L410.607 441.1L419.019 432.224L411.492 419.352L396.438 396.717L368.1 398.048L346.404 411.807ZM986.702 507.676L973.862 504.125L965.006 507.232L954.822 498.355L948.181 485.04L949.952 473.5L958.807 480.602L965.449 478.383L971.205 473.5H978.289L988.473 484.153L991.13 498.355L986.702 507.676ZM891.018 419.796L880.834 422.459L867.108 421.572L870.207 399.38L848.069 368.755V347.451L856.481 351.889L867.108 348.339L871.536 354.108L873.307 373.194L879.948 382.958L888.361 390.947L895.446 402.93L896.331 414.026L891.018 419.796Z" fill="#ECF4F8" stroke="#08658C" stroke-width="1.09237" stroke-linecap="round" stroke-linejoin="round"/>
<path d="M136.529 825.019L148.926 849.43L157.782 877.835L167.966 891.594L177.707 905.797L180.364 928.433L181.249 951.512L160.439 935.09L140.514 918.225L130.33 903.578L117.932 893.814L101.107 897.808L82.953 902.69L71.8836 900.027L59.9286 897.808L24.9492 894.701L-10.0298 888.931L-37.482 874.285L-63.6058 856.087L-88.4011 857.419L-111.425 860.082L-100.799 848.986L-91.9433 837.89L-91.5006 821.024L-90.615 811.26L-93.7145 803.715L-100.356 799.72L-108.326 801.052L-126.48 800.164L-141.534 796.17L-151.275 799.276L-174.742 780.191L-188.468 775.753L-227.875 769.096L-235.845 765.101L-241.159 752.674L-253.999 748.235L-269.496 745.572L-287.207 735.808L-290.307 736.696L-292.078 735.808L-292.52 728.263V718.942L-292.963 714.504L-294.734 712.728L-297.391 696.306L-296.063 684.767L-311.117 676.334L-373.106 659.468L-437.308 658.58L-431.552 620.854L-433.323 585.347L-436.865 554.279L-449.263 531.643L-440.407 504.125L-426.239 483.709L-398.786 490.366L-371.335 498.355L-342.997 515.221L-313.774 529.424L-289.864 540.964L-267.282 529.424L-247.358 506.788L-238.502 471.725L-204.851 489.923L-167.215 486.372L-160.573 519.66L-141.977 540.076L-120.281 560.492L-100.799 582.684L-81.3168 611.978L-61.3919 638.608L-37.482 645.709L-12.2437 647.928L20.5215 647.041L51.9587 652.367L68.7841 675.002L74.5401 705.183L88.2663 732.257L102.878 757.556L104.206 775.309L110.405 790.4L124.131 806.822L136.529 825.019Z" fill="#ECF4F8" stroke="#08658C" stroke-width="1.09237" stroke-linecap="round" stroke-linejoin="round"/>
<path d="M116.604 325.703L167.523 323.928L211.8 303.955L214.9 287.089L217.999 269.78L225.969 258.24L234.825 247.144L253.864 230.278L268.033 206.755L294.599 224.508L318.067 252.026L329.136 272.443L341.091 291.084L375.627 294.634L410.607 282.651L423.89 297.297L439.83 300.404L452.227 294.634L464.625 290.64L493.848 299.517L522.629 309.281L546.981 319.045L533.698 333.692L502.704 342.125L471.267 349.226L454.884 357.215L438.059 362.098L423.004 357.215L407.507 352.777L386.254 353.665L365.886 357.215L309.654 358.991L291.943 379.407L275.117 396.717L245.894 401.155L224.198 423.347L225.084 469.062L231.283 518.772L228.626 569.369L208.258 608.87L196.746 619.966L191.433 635.501L192.319 650.591L187.448 667.457L175.493 684.766L167.523 704.739L170.622 723.38L172.836 741.578L161.767 758.887L150.255 775.753L144.941 800.164L136.529 825.019L124.131 806.821L110.405 790.4L104.206 775.309L102.878 757.556L88.2663 732.257L74.5401 705.183L68.7841 675.002L51.9587 652.366L20.5215 647.04L-12.2437 647.928L-37.482 645.709L-61.392 638.607L-81.3168 611.977L-100.799 582.684L-120.281 560.492L-141.977 540.076L-160.573 519.659L-167.215 486.372L-143.305 495.692L-121.167 511.226L-107.883 519.659L-95.9284 505.9L-80.8739 490.366L-65.8197 474.832L-46.3375 454.415L-22.8704 446.87L-9.14425 432.667L1.48219 412.695L20.9644 400.711L42.6602 396.717L63.9137 387.396L83.3956 371.862L102.435 352.333L116.604 325.703ZM346.404 411.807L368.1 398.048L396.438 396.717L411.492 419.352L419.019 432.224L410.607 441.1L395.552 448.646L379.169 450.421L363.672 446.87L358.359 430.004L348.175 414.47L346.404 411.807Z" fill="#ECF4F8" stroke="#08658C" stroke-width="1.09237" stroke-linecap="round" stroke-linejoin="round"/>
<path d="M-196.438 93.1329L-156.588 105.116L-119.838 133.078L-103.455 148.169L-88.401 167.697L-61.8344 196.991L-31.7258 219.626L5.46744 232.497L35.1334 263.122L71.8837 301.736L116.604 325.703L102.435 352.333L83.3958 371.862L63.9138 387.396L42.6604 396.717L20.9646 400.711L1.48236 412.695L-9.14409 432.668L-22.8703 446.87L-46.3373 454.416L-65.8195 474.832L-80.8737 490.366L-95.9282 505.901L-107.883 519.66L-121.166 511.227L-143.305 495.692L-167.215 486.372L-204.851 489.922L-238.502 471.725L-265.954 474.832L-292.52 475.72L-296.948 461.961L-277.466 450.865L-265.511 440.657L-261.526 422.016L-253.556 406.037L-245.586 390.059L-241.158 374.969L-249.571 362.098L-252.67 349.226L-251.785 333.248L-253.999 313.719L-259.312 295.078V277.769L-262.412 262.678L-272.595 254.245L-279.237 242.706L-269.053 225.396L-256.656 208.086L-259.312 168.141L-250.457 129.971L-224.776 109.999L-196.438 93.1329Z" fill="#ECF4F8" stroke="#08658C" stroke-width="1.09237" stroke-linecap="round" stroke-linejoin="round"/>
<rect width="769.031" height="412.917" transform="matrix(1 0 0 -1 -2.18481 796.34)" fill="url(#paint0_linear_1360_7563)"/>
<rect x="-2.18481" y="-3.27722" width="769.031" height="373.592" fill="url(#paint1_linear_1360_7563)"/>
<mask id="mask0_1360_7563" style="mask-type:alpha" maskUnits="userSpaceOnUse" x="407" y="439" width="67" height="67">
<rect x="407.068" y="439.066" width="66.0748" height="66.0959" fill="#D9D9D9"/>
</mask>
<g mask="url(#mask0_1360_7563)">
<path d="M440.106 487.975C446.04 482.561 450.429 477.647 453.274 473.234C456.119 468.822 457.542 464.925 457.542 461.545C457.542 456.275 455.859 451.959 452.492 448.599C449.126 445.238 444.997 443.558 440.106 443.558C435.214 443.558 431.085 445.238 427.719 448.599C424.352 451.959 422.669 456.275 422.669 461.545C422.669 464.925 424.115 468.822 427.005 473.234C429.896 477.647 434.263 482.561 440.106 487.975ZM440.094 492.495C439.551 492.495 439.012 492.403 438.476 492.22C437.941 492.036 437.467 491.745 437.054 491.348C434.775 489.268 432.504 487.035 430.24 484.649C427.976 482.262 425.946 479.788 424.149 477.226C422.352 474.664 420.891 472.057 419.767 469.403C418.643 466.749 418.081 464.13 418.081 461.545C418.081 454.662 420.295 449.179 424.722 445.095C429.15 441.011 434.278 438.969 440.106 438.969C445.933 438.969 451.061 441.011 455.489 445.095C459.916 449.179 462.13 454.662 462.13 461.545C462.13 464.13 461.568 466.749 460.444 469.403C459.32 472.057 457.859 474.664 456.062 477.226C454.265 479.788 452.235 482.262 449.971 484.649C447.707 487.035 445.436 489.268 443.157 491.348C442.744 491.745 442.266 492.036 441.723 492.22C441.18 492.403 440.637 492.495 440.094 492.495ZM440.11 466.042C441.499 466.042 442.686 465.547 443.673 464.558C444.659 463.569 445.153 462.38 445.153 460.99C445.153 459.601 444.658 458.414 443.669 457.427C442.68 456.441 441.491 455.947 440.101 455.947C438.712 455.947 437.525 456.442 436.538 457.431C435.552 458.42 435.058 459.609 435.058 460.999C435.058 462.388 435.553 463.575 436.542 464.562C437.531 465.548 438.72 466.042 440.11 466.042Z" fill="#08658C"/>
</g>
<mask id="mask1_1360_7563" style="mask-type:alpha" maskUnits="userSpaceOnUse" x="448" y="402" width="34" height="34">
<rect x="448.329" y="402.317" width="33.4226" height="33.4333" fill="#D9D9D9"/>
</mask>
<g mask="url(#mask1_1360_7563)">
<path d="M465.041 427.056C468.043 424.318 470.263 421.832 471.702 419.6C473.141 417.368 473.86 415.397 473.86 413.687C473.86 411.021 473.009 408.838 471.306 407.139C469.604 405.439 467.515 404.589 465.041 404.589C462.566 404.589 460.478 405.439 458.775 407.139C457.072 408.838 456.221 411.021 456.221 413.687C456.221 415.397 456.952 417.368 458.414 419.6C459.877 421.832 462.085 424.318 465.041 427.056ZM465.035 429.343C464.76 429.343 464.488 429.296 464.217 429.203C463.946 429.111 463.706 428.964 463.497 428.762C462.345 427.71 461.196 426.581 460.051 425.374C458.906 424.167 457.878 422.915 456.97 421.619C456.06 420.323 455.322 419.004 454.753 417.662C454.184 416.32 453.9 414.995 453.9 413.687C453.9 410.206 455.02 407.432 457.26 405.366C459.499 403.301 462.093 402.268 465.041 402.268C467.988 402.268 470.582 403.301 472.822 405.366C475.062 407.432 476.182 410.206 476.182 413.687C476.182 414.995 475.897 416.32 475.329 417.662C474.76 419.004 474.021 420.323 473.112 421.619C472.203 422.915 471.176 424.167 470.031 425.374C468.886 426.581 467.737 427.71 466.584 428.762C466.375 428.964 466.133 429.111 465.859 429.203C465.584 429.296 465.31 429.343 465.035 429.343ZM465.043 415.962C465.745 415.962 466.346 415.712 466.845 415.211C467.344 414.711 467.594 414.11 467.594 413.407C467.594 412.704 467.344 412.103 466.843 411.604C466.343 411.105 465.741 410.856 465.039 410.856C464.336 410.856 463.735 411.106 463.236 411.606C462.737 412.107 462.488 412.708 462.488 413.411C462.488 414.113 462.738 414.714 463.238 415.213C463.739 415.712 464.34 415.962 465.043 415.962Z" fill="#4598BB"/>
</g>
<path d="M483.469 458.632L492.303 438.811H496.834L505.697 458.632H500.883L493.634 441.133H495.447L488.169 458.632H483.469ZM487.886 454.385L489.104 450.902H499.297L500.543 454.385H487.886ZM516.446 458.859C515.106 458.859 513.954 458.576 512.992 458.009C512.029 457.443 511.293 456.584 510.783 455.433C510.273 454.262 510.018 452.79 510.018 451.015C510.018 449.222 510.283 447.75 510.811 446.598C511.359 445.447 512.114 444.588 513.076 444.021C514.039 443.455 515.162 443.172 516.446 443.172C517.881 443.172 519.164 443.493 520.297 444.135C521.448 444.776 522.355 445.683 523.015 446.853C523.695 448.023 524.035 449.411 524.035 451.015C524.035 452.601 523.695 453.979 523.015 455.149C522.355 456.32 521.448 457.235 520.297 457.896C519.164 458.538 517.881 458.859 516.446 458.859ZM507.442 458.632V437.622H511.859V446.485L511.576 450.987L511.661 455.517V458.632H507.442ZM515.682 455.234C516.418 455.234 517.069 455.064 517.635 454.725C518.22 454.385 518.683 453.904 519.023 453.281C519.381 452.639 519.561 451.884 519.561 451.015C519.561 450.128 519.381 449.373 519.023 448.75C518.683 448.127 518.22 447.646 517.635 447.306C517.069 446.966 516.418 446.796 515.682 446.796C514.945 446.796 514.285 446.966 513.699 447.306C513.114 447.646 512.652 448.127 512.312 448.75C511.972 449.373 511.802 450.128 511.802 451.015C511.802 451.884 511.972 452.639 512.312 453.281C512.652 453.904 513.114 454.385 513.699 454.725C514.285 455.064 514.945 455.234 515.682 455.234ZM532.117 458.859C530.814 458.859 529.559 458.708 528.351 458.406C527.161 458.085 526.218 457.688 525.519 457.216L526.992 454.045C527.69 454.479 528.511 454.838 529.455 455.121C530.418 455.385 531.362 455.517 532.287 455.517C533.306 455.517 534.023 455.395 534.439 455.149C534.873 454.904 535.09 454.564 535.09 454.13C535.09 453.771 534.92 453.507 534.58 453.337C534.259 453.148 533.825 453.007 533.278 452.912C532.73 452.818 532.126 452.724 531.465 452.629C530.824 452.535 530.172 452.412 529.512 452.261C528.851 452.091 528.247 451.846 527.699 451.525C527.152 451.204 526.708 450.77 526.369 450.222C526.048 449.675 525.887 448.967 525.887 448.099C525.887 447.136 526.161 446.287 526.708 445.55C527.275 444.814 528.086 444.238 529.144 443.823C530.201 443.389 531.465 443.172 532.938 443.172C533.976 443.172 535.033 443.285 536.109 443.512C537.185 443.738 538.082 444.069 538.799 444.503L537.327 447.646C536.591 447.212 535.845 446.919 535.09 446.768C534.354 446.598 533.636 446.513 532.938 446.513C531.956 446.513 531.239 446.645 530.786 446.91C530.333 447.174 530.106 447.514 530.106 447.929C530.106 448.306 530.267 448.59 530.588 448.778C530.927 448.967 531.371 449.118 531.918 449.231C532.466 449.345 533.061 449.449 533.702 449.543C534.363 449.618 535.024 449.741 535.684 449.911C536.345 450.081 536.94 450.326 537.468 450.647C538.016 450.949 538.459 451.374 538.799 451.921C539.139 452.45 539.309 453.148 539.309 454.017C539.309 454.961 539.026 455.801 538.459 456.537C537.893 457.254 537.072 457.82 535.996 458.236C534.939 458.651 533.646 458.859 532.117 458.859ZM551.293 443.172C552.502 443.172 553.578 443.417 554.521 443.908C555.484 444.38 556.239 445.116 556.787 446.117C557.334 447.098 557.608 448.363 557.608 449.911V458.632H553.191V450.591C553.191 449.364 552.917 448.457 552.369 447.872C551.841 447.287 551.086 446.995 550.104 446.995C549.406 446.995 548.773 447.146 548.207 447.448C547.66 447.731 547.225 448.174 546.904 448.778C546.602 449.382 546.451 450.156 546.451 451.1V458.632H542.034V437.622H546.451V447.617L545.46 446.343C546.008 445.324 546.791 444.54 547.811 443.993C548.83 443.446 549.991 443.172 551.293 443.172ZM569.283 458.859C567.546 458.859 566.017 458.519 564.695 457.839C563.393 457.16 562.383 456.235 561.666 455.064C560.948 453.875 560.59 452.525 560.59 451.015C560.59 449.486 560.939 448.137 561.637 446.966C562.355 445.777 563.327 444.852 564.554 444.191C565.781 443.512 567.168 443.172 568.716 443.172C570.208 443.172 571.548 443.493 572.737 444.135C573.945 444.758 574.899 445.664 575.597 446.853C576.295 448.023 576.645 449.43 576.645 451.072C576.645 451.242 576.635 451.44 576.616 451.667C576.597 451.874 576.579 452.072 576.56 452.261H564.186V449.684H574.238L572.539 450.449C572.539 449.656 572.378 448.967 572.058 448.382C571.737 447.797 571.293 447.344 570.727 447.023C570.16 446.683 569.5 446.513 568.745 446.513C567.99 446.513 567.319 446.683 566.734 447.023C566.168 447.344 565.724 447.806 565.403 448.41C565.082 448.995 564.922 449.694 564.922 450.506V451.185C564.922 452.016 565.101 452.752 565.46 453.394C565.838 454.017 566.357 454.498 567.017 454.838C567.697 455.159 568.49 455.319 569.396 455.319C570.208 455.319 570.915 455.197 571.52 454.951C572.142 454.706 572.709 454.338 573.218 453.847L575.569 456.395C574.87 457.188 573.992 457.802 572.935 458.236C571.878 458.651 570.661 458.859 569.283 458.859ZM579.585 458.632V443.398H583.805V447.702L583.21 446.457C583.663 445.381 584.39 444.569 585.39 444.021C586.391 443.455 587.608 443.172 589.043 443.172V447.249C588.854 447.23 588.684 447.221 588.533 447.221C588.382 447.202 588.222 447.193 588.052 447.193C586.844 447.193 585.862 447.542 585.107 448.24C584.371 448.92 584.003 449.987 584.003 451.44V458.632H579.585ZM598.808 458.859C597.184 458.859 595.74 458.519 594.475 457.839C593.229 457.16 592.238 456.235 591.502 455.064C590.785 453.875 590.426 452.525 590.426 451.015C590.426 449.486 590.785 448.137 591.502 446.966C592.238 445.777 593.229 444.852 594.475 444.191C595.74 443.512 597.184 443.172 598.808 443.172C600.412 443.172 601.847 443.512 603.112 444.191C604.376 444.852 605.367 445.768 606.085 446.938C606.802 448.108 607.161 449.467 607.161 451.015C607.161 452.525 606.802 453.875 606.085 455.064C605.367 456.235 604.376 457.16 603.112 457.839C601.847 458.519 600.412 458.859 598.808 458.859ZM598.808 455.234C599.544 455.234 600.204 455.064 600.79 454.725C601.375 454.385 601.837 453.904 602.177 453.281C602.517 452.639 602.687 451.884 602.687 451.015C602.687 450.128 602.517 449.373 602.177 448.75C601.837 448.127 601.375 447.646 600.79 447.306C600.204 446.966 599.544 446.796 598.808 446.796C598.071 446.796 597.411 446.966 596.825 447.306C596.24 447.646 595.768 448.127 595.41 448.75C595.07 449.373 594.9 450.128 594.9 451.015C594.9 451.884 595.07 452.639 595.41 453.281C595.768 453.904 596.24 454.385 596.825 454.725C597.411 455.064 598.071 455.234 598.808 455.234ZM619.372 443.172C620.581 443.172 621.656 443.417 622.6 443.908C623.563 444.38 624.318 445.116 624.866 446.117C625.413 447.098 625.687 448.363 625.687 449.911V458.632H621.27V450.591C621.27 449.364 620.996 448.457 620.448 447.872C619.92 447.287 619.165 446.995 618.183 446.995C617.485 446.995 616.852 447.146 616.286 447.448C615.739 447.731 615.304 448.174 614.983 448.778C614.681 449.382 614.53 450.156 614.53 451.1V458.632H610.113V443.398H614.332V447.617L613.539 446.343C614.087 445.324 614.87 444.54 615.89 443.993C616.909 443.446 618.07 443.172 619.372 443.172ZM486.074 493.632V473.811H495.758C498.25 473.811 500.119 474.283 501.364 475.227C502.629 476.171 503.262 477.417 503.262 478.965C503.262 480.003 503.007 480.909 502.497 481.683C501.987 482.438 501.289 483.023 500.402 483.439C499.515 483.854 498.495 484.062 497.344 484.062L497.882 482.901C499.128 482.901 500.232 483.108 501.195 483.524C502.157 483.92 502.903 484.515 503.431 485.307C503.979 486.1 504.253 487.072 504.253 488.224C504.253 489.923 503.583 491.254 502.242 492.216C500.902 493.16 498.929 493.632 496.324 493.632H486.074ZM490.633 490.178H495.985C497.174 490.178 498.07 489.989 498.674 489.611C499.297 489.215 499.609 488.592 499.609 487.743C499.609 486.912 499.297 486.298 498.674 485.902C498.07 485.487 497.174 485.279 495.985 485.279H490.293V481.938H495.192C496.305 481.938 497.155 481.749 497.74 481.372C498.344 480.975 498.646 480.381 498.646 479.588C498.646 478.814 498.344 478.238 497.74 477.86C497.155 477.464 496.305 477.266 495.192 477.266H490.633V490.178ZM507.414 493.632V478.398H511.831V493.632H507.414ZM509.623 476.275C508.811 476.275 508.15 476.039 507.641 475.567C507.131 475.095 506.876 474.51 506.876 473.811C506.876 473.113 507.131 472.528 507.641 472.056C508.15 471.584 508.811 471.348 509.623 471.348C510.434 471.348 511.095 471.574 511.605 472.027C512.114 472.462 512.369 473.028 512.369 473.726C512.369 474.463 512.114 475.076 511.605 475.567C511.114 476.039 510.453 476.275 509.623 476.275ZM514.883 493.632V490.971L523.887 480.324L524.652 481.796H515.081V478.398H528.22V481.06L519.215 491.707L518.423 490.234H528.475V493.632H514.883ZM540.564 478.172C541.773 478.172 542.849 478.417 543.792 478.908C544.755 479.38 545.51 480.116 546.058 481.117C546.605 482.098 546.879 483.363 546.879 484.911V493.632H542.462V485.591C542.462 484.364 542.188 483.457 541.64 482.872C541.112 482.287 540.357 481.995 539.375 481.995C538.677 481.995 538.044 482.146 537.478 482.448C536.931 482.731 536.496 483.174 536.176 483.778C535.874 484.382 535.723 485.156 535.723 486.1V493.632H531.305V478.398H535.524V482.617L534.731 481.343C535.279 480.324 536.062 479.54 537.082 478.993C538.101 478.446 539.262 478.172 540.564 478.172ZM558.554 493.859C556.817 493.859 555.288 493.519 553.967 492.839C552.664 492.16 551.654 491.235 550.937 490.064C550.219 488.875 549.861 487.525 549.861 486.015C549.861 484.486 550.21 483.137 550.908 481.966C551.626 480.777 552.598 479.852 553.825 479.191C555.052 478.512 556.439 478.172 557.987 478.172C559.479 478.172 560.819 478.493 562.008 479.135C563.216 479.758 564.17 480.664 564.868 481.853C565.566 483.023 565.916 484.43 565.916 486.072C565.916 486.242 565.906 486.44 565.887 486.667C565.869 486.874 565.85 487.072 565.831 487.261H553.457V484.684H563.509L561.81 485.449C561.81 484.656 561.65 483.967 561.329 483.382C561.008 482.797 560.564 482.344 559.998 482.023C559.431 481.683 558.771 481.513 558.016 481.513C557.261 481.513 556.59 481.683 556.005 482.023C555.439 482.344 554.995 482.806 554.674 483.41C554.354 483.995 554.193 484.694 554.193 485.506V486.185C554.193 487.016 554.372 487.752 554.731 488.394C555.109 489.017 555.628 489.498 556.288 489.838C556.968 490.159 557.761 490.319 558.667 490.319C559.479 490.319 560.187 490.197 560.791 489.951C561.414 489.706 561.98 489.338 562.49 488.847L564.84 491.395C564.141 492.188 563.264 492.802 562.206 493.236C561.149 493.651 559.932 493.859 558.554 493.859ZM573.982 493.859C572.679 493.859 571.424 493.708 570.216 493.406C569.026 493.085 568.083 492.688 567.384 492.216L568.857 489.045C569.555 489.479 570.376 489.838 571.32 490.121C572.283 490.385 573.227 490.517 574.152 490.517C575.171 490.517 575.888 490.395 576.304 490.149C576.738 489.904 576.955 489.564 576.955 489.13C576.955 488.771 576.785 488.507 576.445 488.337C576.124 488.148 575.69 488.007 575.143 487.912C574.595 487.818 573.991 487.724 573.33 487.629C572.689 487.535 572.037 487.412 571.377 487.261C570.716 487.091 570.112 486.846 569.564 486.525C569.017 486.204 568.573 485.77 568.234 485.222C567.913 484.675 567.752 483.967 567.752 483.099C567.752 482.136 568.026 481.287 568.573 480.55C569.14 479.814 569.951 479.238 571.009 478.823C572.066 478.389 573.33 478.172 574.803 478.172C575.841 478.172 576.898 478.285 577.974 478.512C579.05 478.738 579.947 479.069 580.664 479.503L579.192 482.646C578.456 482.212 577.71 481.919 576.955 481.768C576.219 481.598 575.501 481.513 574.803 481.513C573.821 481.513 573.104 481.645 572.651 481.91C572.198 482.174 571.971 482.514 571.971 482.929C571.971 483.306 572.132 483.59 572.453 483.778C572.792 483.967 573.236 484.118 573.783 484.231C574.331 484.345 574.926 484.449 575.567 484.543C576.228 484.618 576.889 484.741 577.549 484.911C578.21 485.081 578.805 485.326 579.333 485.647C579.881 485.949 580.324 486.374 580.664 486.921C581.004 487.45 581.174 488.148 581.174 489.017C581.174 489.961 580.891 490.801 580.324 491.537C579.758 492.254 578.937 492.82 577.861 493.236C576.804 493.651 575.511 493.859 573.982 493.859ZM592.23 493.632V473.811H600.809C602.584 473.811 604.113 474.104 605.396 474.689C606.68 475.255 607.671 476.077 608.37 477.153C609.068 478.229 609.417 479.512 609.417 481.003C609.417 482.476 609.068 483.75 608.37 484.826C607.671 485.902 606.68 486.733 605.396 487.318C604.113 487.884 602.584 488.167 600.809 488.167H594.778L596.817 486.1V493.632H592.23ZM596.817 486.61L594.778 484.43H600.554C601.97 484.43 603.027 484.128 603.726 483.524C604.424 482.919 604.774 482.079 604.774 481.003C604.774 479.909 604.424 479.059 603.726 478.455C603.027 477.851 601.97 477.549 600.554 477.549H594.778L596.817 475.369V486.61ZM621.587 493.632V490.659L621.303 490.008V484.684C621.303 483.741 621.011 483.004 620.426 482.476C619.859 481.947 618.981 481.683 617.792 481.683C616.981 481.683 616.178 481.815 615.385 482.079C614.611 482.325 613.951 482.665 613.403 483.099L611.818 480.012C612.648 479.427 613.649 478.974 614.819 478.653C615.989 478.332 617.179 478.172 618.387 478.172C620.709 478.172 622.511 478.719 623.795 479.814C625.079 480.909 625.721 482.617 625.721 484.939V493.632H621.587ZM616.943 493.859C615.754 493.859 614.734 493.661 613.885 493.264C613.035 492.849 612.384 492.292 611.931 491.593C611.478 490.895 611.251 490.112 611.251 489.243C611.251 488.337 611.468 487.544 611.903 486.865C612.356 486.185 613.064 485.657 614.026 485.279C614.989 484.883 616.244 484.684 617.792 484.684H621.841V487.261H618.274C617.235 487.261 616.518 487.431 616.122 487.771C615.744 488.111 615.555 488.535 615.555 489.045C615.555 489.611 615.772 490.064 616.207 490.404C616.66 490.725 617.273 490.886 618.047 490.886C618.783 490.886 619.444 490.716 620.029 490.376C620.614 490.017 621.039 489.498 621.303 488.819L621.983 490.857C621.662 491.839 621.077 492.585 620.227 493.094C619.378 493.604 618.283 493.859 616.943 493.859ZM629.718 493.632V478.398H633.937V482.702L633.343 481.457C633.796 480.381 634.523 479.569 635.523 479.021C636.524 478.455 637.741 478.172 639.176 478.172V482.249C638.987 482.23 638.817 482.221 638.666 482.221C638.515 482.202 638.355 482.193 638.185 482.193C636.977 482.193 635.995 482.542 635.24 483.24C634.504 483.92 634.136 484.987 634.136 486.44V493.632H629.718ZM645.483 490.517L645.596 485.138L652.703 478.398H657.97L651.146 485.336L648.852 487.205L645.483 490.517ZM641.83 493.632V472.622H646.247V493.632H641.83ZM653.184 493.632L648.031 487.233L650.806 483.807L658.536 493.632H653.184Z" fill="#08658C"/>
<path d="M485.166 419.676V408.94H487.159V417.989H492.773V419.676H485.166ZM497.769 419.784C496.931 419.784 496.184 419.605 495.53 419.247C494.876 418.879 494.359 418.378 493.981 417.744C493.603 417.11 493.413 416.389 493.413 415.581C493.413 414.763 493.603 414.042 493.981 413.419C494.359 412.785 494.876 412.289 495.53 411.931C496.184 411.573 496.931 411.394 497.769 411.394C498.618 411.394 499.369 411.573 500.024 411.931C500.689 412.289 501.205 412.78 501.573 413.403C501.951 414.027 502.14 414.753 502.14 415.581C502.14 416.389 501.951 417.11 501.573 417.744C501.205 418.378 500.689 418.879 500.024 419.247C499.369 419.605 498.618 419.784 497.769 419.784ZM497.769 418.143C498.24 418.143 498.659 418.04 499.027 417.836C499.395 417.631 499.681 417.335 499.886 416.946C500.101 416.558 500.208 416.103 500.208 415.581C500.208 415.05 500.101 414.595 499.886 414.216C499.681 413.828 499.395 413.531 499.027 413.327C498.659 413.122 498.245 413.02 497.785 413.02C497.314 413.02 496.895 413.122 496.527 413.327C496.169 413.531 495.883 413.828 495.668 414.216C495.453 414.595 495.346 415.05 495.346 415.581C495.346 416.103 495.453 416.558 495.668 416.946C495.883 417.335 496.169 417.631 496.527 417.836C496.895 418.04 497.309 418.143 497.769 418.143ZM499.242 410.198C498.986 410.198 498.766 410.116 498.582 409.952C498.408 409.779 498.321 409.554 498.321 409.278C498.321 409.001 498.408 408.776 498.582 408.603C498.766 408.429 498.986 408.342 499.242 408.342C499.497 408.342 499.712 408.429 499.886 408.603C500.07 408.776 500.162 409.001 500.162 409.278C500.162 409.554 500.07 409.779 499.886 409.952C499.712 410.116 499.497 410.198 499.242 410.198ZM496.266 410.198C496.011 410.198 495.791 410.116 495.607 409.952C495.433 409.779 495.346 409.554 495.346 409.278C495.346 409.001 495.433 408.776 495.607 408.603C495.791 408.429 496.011 408.342 496.266 408.342C496.522 408.342 496.737 408.429 496.91 408.603C497.094 408.776 497.186 409.001 497.186 409.278C497.186 409.554 497.094 409.779 496.91 409.952C496.737 410.116 496.522 410.198 496.266 410.198ZM505.538 417.851L505.584 415.443L509.863 411.486H512.164L508.529 415.136L507.517 415.98L505.538 417.851ZM503.974 419.676V408.296H505.891V419.676H503.974ZM510.155 419.676L507.164 415.98L508.376 414.446L512.486 419.676H510.155ZM518.264 419.784C517.569 419.784 516.951 419.63 516.409 419.324C515.867 419.017 515.437 418.557 515.12 417.943C514.814 417.32 514.66 416.532 514.66 415.581C514.66 414.62 514.819 413.833 515.136 413.219C515.463 412.606 515.897 412.151 516.439 411.854C516.991 411.547 517.6 411.394 518.264 411.394C519.072 411.394 519.783 411.568 520.396 411.916C521.02 412.263 521.511 412.749 521.869 413.373C522.237 413.996 522.421 414.733 522.421 415.581C522.421 416.43 522.237 417.166 521.869 417.79C521.511 418.414 521.02 418.904 520.396 419.262C519.783 419.61 519.072 419.784 518.264 419.784ZM513.725 419.676V408.296H515.642V413.388L515.488 415.566L515.55 417.744V419.676H513.725ZM518.05 418.143C518.51 418.143 518.919 418.04 519.277 417.836C519.645 417.631 519.936 417.335 520.151 416.946C520.366 416.558 520.473 416.103 520.473 415.581C520.473 415.05 520.366 414.595 520.151 414.216C519.936 413.828 519.645 413.531 519.277 413.327C518.919 413.122 518.51 413.02 518.05 413.02C517.59 413.02 517.176 413.122 516.807 413.327C516.439 413.531 516.148 413.828 515.933 414.216C515.718 414.595 515.611 415.05 515.611 415.581C515.611 416.103 515.718 416.558 515.933 416.946C516.148 417.335 516.439 417.631 516.807 417.836C517.176 418.04 517.59 418.143 518.05 418.143ZM529.18 419.676V418.02L529.073 417.667V414.768C529.073 414.206 528.904 413.771 528.567 413.465C528.229 413.148 527.718 412.989 527.033 412.989C526.573 412.989 526.118 413.061 525.668 413.204C525.228 413.347 524.855 413.546 524.548 413.802L523.797 412.406C524.237 412.069 524.758 411.818 525.361 411.655C525.975 411.481 526.609 411.394 527.263 411.394C528.449 411.394 529.364 411.68 530.009 412.253C530.663 412.815 530.99 413.69 530.99 414.876V419.676H529.18ZM526.604 419.784C525.99 419.784 525.453 419.682 524.993 419.477C524.533 419.262 524.175 418.971 523.92 418.603C523.674 418.224 523.552 417.8 523.552 417.33C523.552 416.87 523.659 416.455 523.874 416.087C524.099 415.719 524.462 415.428 524.963 415.213C525.464 414.998 526.128 414.891 526.956 414.891H529.334V416.164H527.094C526.44 416.164 526 416.271 525.775 416.486C525.551 416.691 525.438 416.946 525.438 417.253C525.438 417.601 525.576 417.877 525.852 418.081C526.128 418.286 526.512 418.388 527.002 418.388C527.473 418.388 527.892 418.281 528.26 418.066C528.638 417.851 528.909 417.534 529.073 417.115L529.395 418.265C529.211 418.746 528.879 419.119 528.398 419.385C527.928 419.651 527.33 419.784 526.604 419.784ZM536.534 419.784C535.634 419.784 534.938 419.554 534.448 419.094C533.957 418.623 533.711 417.933 533.711 417.023V409.676H535.629V416.977C535.629 417.366 535.726 417.667 535.92 417.882C536.125 418.097 536.406 418.204 536.764 418.204C537.193 418.204 537.551 418.092 537.837 417.867L538.374 419.232C538.149 419.416 537.873 419.554 537.546 419.646C537.219 419.738 536.881 419.784 536.534 419.784ZM532.362 413.081V411.547H537.822V413.081H532.362ZM544.997 419.676V418.02L544.89 417.667V414.768C544.89 414.206 544.721 413.771 544.384 413.465C544.046 413.148 543.535 412.989 542.85 412.989C542.39 412.989 541.935 413.061 541.485 413.204C541.045 413.347 540.672 413.546 540.365 413.802L539.614 412.406C540.053 412.069 540.575 411.818 541.178 411.655C541.792 411.481 542.426 411.394 543.08 411.394C544.266 411.394 545.181 411.68 545.826 412.253C546.48 412.815 546.807 413.69 546.807 414.876V419.676H544.997ZM542.421 419.784C541.807 419.784 541.27 419.682 540.81 419.477C540.35 419.262 539.992 418.971 539.737 418.603C539.491 418.224 539.368 417.8 539.368 417.33C539.368 416.87 539.476 416.455 539.69 416.087C539.915 415.719 540.278 415.428 540.779 415.213C541.28 414.998 541.945 414.891 542.773 414.891H545.151V416.164H542.911C542.257 416.164 541.817 416.271 541.592 416.486C541.367 416.691 541.255 416.946 541.255 417.253C541.255 417.601 541.393 417.877 541.669 418.081C541.945 418.286 542.329 418.388 542.819 418.388C543.29 418.388 543.709 418.281 544.077 418.066C544.455 417.851 544.726 417.534 544.89 417.115L545.212 418.265C545.028 418.746 544.696 419.119 544.215 419.385C543.745 419.651 543.147 419.784 542.421 419.784ZM553.915 411.394C554.569 411.394 555.152 411.522 555.663 411.778C556.185 412.033 556.594 412.427 556.89 412.959C557.187 413.48 557.335 414.155 557.335 414.983V419.676H555.418V415.228C555.418 414.503 555.244 413.961 554.897 413.603C554.559 413.245 554.084 413.066 553.47 413.066C553.02 413.066 552.621 413.158 552.274 413.342C551.926 413.526 551.655 413.802 551.461 414.17C551.277 414.528 551.185 414.983 551.185 415.535V419.676H549.268V411.486H551.093V413.695L550.771 413.02C551.057 412.498 551.471 412.1 552.013 411.824C552.565 411.537 553.199 411.394 553.915 411.394ZM559.261 421.992L560.151 418.603L560.411 419.738C560.054 419.738 559.752 419.63 559.507 419.416C559.271 419.191 559.154 418.889 559.154 418.511C559.154 418.122 559.271 417.815 559.507 417.59C559.752 417.355 560.048 417.238 560.396 417.238C560.754 417.238 561.051 417.355 561.286 417.59C561.521 417.826 561.638 418.132 561.638 418.511C561.638 418.613 561.628 418.725 561.608 418.848C561.587 418.961 561.552 419.094 561.5 419.247C561.46 419.4 561.388 419.595 561.286 419.83L560.503 421.992H559.261ZM572.965 419.83C572.127 419.83 571.355 419.692 570.649 419.416C569.944 419.14 569.33 418.756 568.809 418.265C568.287 417.764 567.884 417.181 567.597 416.517C567.311 415.842 567.168 415.106 567.168 414.308C567.168 413.511 567.311 412.78 567.597 412.115C567.884 411.44 568.287 410.857 568.809 410.366C569.33 409.865 569.944 409.477 570.649 409.201C571.355 408.925 572.122 408.787 572.95 408.787C573.789 408.787 574.555 408.925 575.251 409.201C575.956 409.477 576.57 409.86 577.091 410.351C577.613 410.842 578.017 411.425 578.303 412.1C578.589 412.774 578.732 413.511 578.732 414.308C578.732 415.106 578.589 415.842 578.303 416.517C578.017 417.192 577.613 417.775 577.091 418.265C576.57 418.756 575.956 419.14 575.251 419.416C574.555 419.692 573.794 419.83 572.965 419.83ZM576.462 422.023C576.084 422.023 575.716 421.977 575.358 421.885C575.01 421.803 574.663 421.66 574.315 421.456C573.978 421.261 573.625 421.001 573.257 420.673C572.889 420.356 572.485 419.963 572.045 419.492L574.162 418.94C574.448 419.319 574.719 419.62 574.975 419.845C575.24 420.08 575.496 420.249 575.741 420.351C575.987 420.453 576.243 420.505 576.508 420.505C577.214 420.505 577.827 420.218 578.349 419.646L579.269 420.75C578.553 421.599 577.618 422.023 576.462 422.023ZM572.95 418.081C573.492 418.081 573.993 417.989 574.453 417.805C574.913 417.621 575.312 417.36 575.649 417.023C575.987 416.675 576.248 416.271 576.432 415.811C576.626 415.351 576.723 414.85 576.723 414.308C576.723 413.756 576.626 413.255 576.432 412.805C576.248 412.345 575.987 411.946 575.649 411.609C575.312 411.261 574.913 410.995 574.453 410.811C573.993 410.627 573.492 410.535 572.95 410.535C572.408 410.535 571.907 410.627 571.447 410.811C570.987 410.995 570.588 411.261 570.251 411.609C569.913 411.946 569.647 412.345 569.453 412.805C569.269 413.255 569.177 413.756 569.177 414.308C569.177 414.85 569.269 415.351 569.453 415.811C569.647 416.271 569.913 416.675 570.251 417.023C570.588 417.36 570.987 417.621 571.447 417.805C571.907 417.989 572.408 418.081 572.95 418.081ZM585.708 419.676V418.02L585.6 417.667V414.768C585.6 414.206 585.432 413.771 585.094 413.465C584.757 413.148 584.246 412.989 583.561 412.989C583.1 412.989 582.645 413.061 582.196 413.204C581.756 413.347 581.383 413.546 581.076 413.802L580.324 412.406C580.764 412.069 581.285 411.818 581.889 411.655C582.502 411.481 583.136 411.394 583.791 411.394C584.977 411.394 585.892 411.68 586.536 412.253C587.19 412.815 587.518 413.69 587.518 414.876V419.676H585.708ZM583.131 419.784C582.518 419.784 581.981 419.682 581.521 419.477C581.061 419.262 580.703 418.971 580.447 418.603C580.202 418.224 580.079 417.8 580.079 417.33C580.079 416.87 580.186 416.455 580.401 416.087C580.626 415.719 580.989 415.428 581.49 415.213C581.991 414.998 582.656 414.891 583.484 414.891H585.861V416.164H583.622C582.967 416.164 582.528 416.271 582.303 416.486C582.078 416.691 581.965 416.946 581.965 417.253C581.965 417.601 582.103 417.877 582.38 418.081C582.656 418.286 583.039 418.388 583.53 418.388C584 418.388 584.419 418.281 584.788 418.066C585.166 417.851 585.437 417.534 585.6 417.115L585.923 418.265C585.738 418.746 585.406 419.119 584.926 419.385C584.455 419.651 583.857 419.784 583.131 419.784ZM589.978 419.676V411.486H591.803V413.741L591.589 413.081C591.834 412.529 592.217 412.11 592.739 411.824C593.271 411.537 593.93 411.394 594.717 411.394V413.219C594.636 413.199 594.559 413.189 594.487 413.189C594.416 413.178 594.344 413.173 594.273 413.173C593.547 413.173 592.969 413.388 592.54 413.817C592.11 414.237 591.895 414.866 591.895 415.704V419.676H589.978ZM600.806 419.676V418.02L600.698 417.667V414.768C600.698 414.206 600.53 413.771 600.192 413.465C599.855 413.148 599.344 412.989 598.658 412.989C598.198 412.989 597.743 413.061 597.293 413.204C596.854 413.347 596.481 413.546 596.174 413.802L595.422 412.406C595.862 412.069 596.383 411.818 596.987 411.655C597.6 411.481 598.234 411.394 598.889 411.394C600.075 411.394 600.99 411.68 601.634 412.253C602.288 412.815 602.616 413.69 602.616 414.876V419.676H600.806ZM598.229 419.784C597.616 419.784 597.079 419.682 596.619 419.477C596.158 419.262 595.801 418.971 595.545 418.603C595.3 418.224 595.177 417.8 595.177 417.33C595.177 416.87 595.284 416.455 595.499 416.087C595.724 415.719 596.087 415.428 596.588 415.213C597.089 414.998 597.754 414.891 598.582 414.891H600.959V416.164H598.72C598.065 416.164 597.626 416.271 597.401 416.486C597.176 416.691 597.063 416.946 597.063 417.253C597.063 417.601 597.201 417.877 597.477 418.081C597.754 418.286 598.137 418.388 598.628 418.388C599.098 418.388 599.517 418.281 599.885 418.066C600.264 417.851 600.535 417.534 600.698 417.115L601.02 418.265C600.836 418.746 600.504 419.119 600.024 419.385C599.553 419.651 598.955 419.784 598.229 419.784ZM608.557 419.784C607.77 419.784 607.059 419.61 606.425 419.262C605.802 418.904 605.311 418.414 604.953 417.79C604.595 417.166 604.416 416.43 604.416 415.581C604.416 414.733 604.595 413.996 604.953 413.373C605.311 412.749 605.802 412.263 606.425 411.916C607.059 411.568 607.77 411.394 608.557 411.394C609.242 411.394 609.856 411.547 610.398 411.854C610.94 412.151 611.369 412.606 611.686 413.219C612.003 413.833 612.162 414.62 612.162 415.581C612.162 416.532 612.008 417.32 611.702 417.943C611.395 418.557 610.97 419.017 610.429 419.324C609.887 419.63 609.263 419.784 608.557 419.784ZM608.787 418.143C609.248 418.143 609.657 418.04 610.014 417.836C610.383 417.631 610.674 417.335 610.889 416.946C611.114 416.558 611.226 416.103 611.226 415.581C611.226 415.05 611.114 414.595 610.889 414.216C610.674 413.828 610.383 413.531 610.014 413.327C609.657 413.122 609.248 413.02 608.787 413.02C608.327 413.02 607.913 413.122 607.545 413.327C607.187 413.531 606.896 413.828 606.671 414.216C606.456 414.595 606.349 415.05 606.349 415.581C606.349 416.103 606.456 416.558 606.671 416.946C606.896 417.335 607.187 417.631 607.545 417.836C607.913 418.04 608.327 418.143 608.787 418.143ZM611.272 419.676V417.744L611.349 415.566L611.195 413.388V408.296H613.097V419.676H611.272ZM620.667 419.676V418.02L620.559 417.667V414.768C620.559 414.206 620.391 413.771 620.053 413.465C619.716 413.148 619.205 412.989 618.519 412.989C618.059 412.989 617.604 413.061 617.154 413.204C616.715 413.347 616.342 413.546 616.035 413.802L615.283 412.406C615.723 412.069 616.244 411.818 616.848 411.655C617.461 411.481 618.095 411.394 618.75 411.394C619.936 411.394 620.851 411.68 621.495 412.253C622.149 412.815 622.477 413.69 622.477 414.876V419.676H620.667ZM618.09 419.784C617.477 419.784 616.94 419.682 616.48 419.477C616.019 419.262 615.662 418.971 615.406 418.603C615.161 418.224 615.038 417.8 615.038 417.33C615.038 416.87 615.145 416.455 615.36 416.087C615.585 415.719 615.948 415.428 616.449 415.213C616.95 414.998 617.615 414.891 618.443 414.891H620.82V416.164H618.581C617.926 416.164 617.487 416.271 617.262 416.486C617.037 416.691 616.924 416.946 616.924 417.253C616.924 417.601 617.062 417.877 617.338 418.081C617.615 418.286 617.998 418.388 618.489 418.388C618.959 418.388 619.378 418.281 619.746 418.066C620.125 417.851 620.396 417.534 620.559 417.115L620.881 418.265C620.697 418.746 620.365 419.119 619.885 419.385C619.414 419.651 618.816 419.784 618.09 419.784ZM628.664 422.759C627.907 422.759 627.166 422.657 626.44 422.452C625.724 422.258 625.136 421.972 624.676 421.594L625.535 420.152C625.893 420.448 626.343 420.684 626.885 420.857C627.437 421.041 627.994 421.133 628.556 421.133C629.456 421.133 630.116 420.924 630.535 420.505C630.954 420.096 631.164 419.477 631.164 418.649V417.192L631.317 415.336L631.256 413.48V411.486H633.081V418.434C633.081 419.917 632.703 421.006 631.946 421.701C631.189 422.406 630.095 422.759 628.664 422.759ZM628.418 419.308C627.641 419.308 626.936 419.145 626.302 418.817C625.678 418.48 625.182 418.015 624.814 417.422C624.456 416.829 624.277 416.133 624.277 415.336C624.277 414.549 624.456 413.858 624.814 413.265C625.182 412.672 625.678 412.212 626.302 411.885C626.936 411.558 627.641 411.394 628.418 411.394C629.114 411.394 629.737 411.532 630.289 411.808C630.842 412.084 631.281 412.514 631.609 413.097C631.946 413.679 632.115 414.426 632.115 415.336C632.115 416.246 631.946 416.997 631.609 417.59C631.281 418.173 630.842 418.608 630.289 418.894C629.737 419.17 629.114 419.308 628.418 419.308ZM628.71 417.683C629.19 417.683 629.62 417.585 629.998 417.391C630.376 417.187 630.668 416.911 630.872 416.563C631.087 416.205 631.194 415.796 631.194 415.336C631.194 414.876 631.087 414.472 630.872 414.124C630.668 413.766 630.376 413.495 629.998 413.311C629.62 413.117 629.19 413.02 628.71 413.02C628.229 413.02 627.795 413.117 627.406 413.311C627.028 413.495 626.731 413.766 626.516 414.124C626.312 414.472 626.21 414.876 626.21 415.336C626.21 415.796 626.312 416.205 626.516 416.563C626.731 416.911 627.028 417.187 627.406 417.391C627.795 417.585 628.229 417.683 628.71 417.683ZM628.832 410.474C628.086 410.474 627.462 410.274 626.961 409.876C626.47 409.477 626.21 408.94 626.179 408.265H627.437C627.457 408.623 627.6 408.904 627.866 409.109C628.132 409.313 628.454 409.416 628.832 409.416C629.211 409.416 629.533 409.313 629.799 409.109C630.075 408.904 630.218 408.623 630.228 408.265H631.486C631.455 408.94 631.189 409.477 630.688 409.876C630.197 410.274 629.579 410.474 628.832 410.474Z" fill="#4598BB"/>
</g>
<defs>
<linearGradient id="paint0_linear_1360_7563" x1="384.516" y1="0" x2="384.516" y2="412.917" gradientUnits="userSpaceOnUse">
<stop offset="0.0769231" stop-color="#F6F7FB"/>
<stop offset="1" stop-color="#F6F7FB" stop-opacity="0"/>
</linearGradient>
<linearGradient id="paint1_linear_1360_7563" x1="382.331" y1="-3.27722" x2="382.331" y2="370.315" gradientUnits="userSpaceOnUse">
<stop offset="0.0721154" stop-color="#F6F7FB"/>
<stop offset="1" stop-color="#F6F7FB" stop-opacity="0"/>
</linearGradient>
<clipPath id="clip0_1360_7563">
<rect width="1017" height="791.971" fill="white"/>
</clipPath>
</defs>
</svg>
