<svg width="275" height="82" viewBox="0 0 275 82" fill="none" xmlns="http://www.w3.org/2000/svg">
<g clip-path="url(#clip0_1793_7559)">
<path d="M45.0714 20.2313C45.317 20.352 45.317 20.352 45.5676 20.4751C45.7462 20.5643 45.9248 20.6536 46.1088 20.7455C46.3014 20.8406 46.4941 20.9356 46.6868 21.0305C47.1101 21.2391 47.533 21.4485 47.9558 21.6582C48.6815 22.0182 49.4084 22.3756 50.1355 22.7326C50.3945 22.8598 50.6535 22.9871 50.9126 23.1143C51.0427 23.1782 51.1729 23.2421 51.3069 23.308C51.8429 23.5713 52.3787 23.835 52.9145 24.0987C54.5612 24.9091 56.2091 25.7169 57.8579 26.5231C59.1918 27.1754 60.5249 27.8295 61.8569 28.4858C62.0676 28.5896 62.0676 28.5896 62.2826 28.6955C62.9683 29.0332 63.6539 29.3711 64.3393 29.7095C65.5864 30.3243 66.8339 30.9341 68.1038 31.5C67.9518 31.9597 67.9518 31.9597 67.7037 32.1303C67.5965 32.1832 67.4893 32.2362 67.3788 32.2908C67.2575 32.3516 67.1363 32.4124 67.0114 32.4751C66.8796 32.5393 66.7479 32.6034 66.6122 32.6696C66.4778 32.7366 66.3434 32.8036 66.2049 32.8726C65.7745 33.0869 65.343 33.2991 64.9115 33.5111C64.4801 33.7247 64.049 33.9386 63.618 34.1529C63.3494 34.2862 63.0806 34.4191 62.8115 34.5514C62.6903 34.6113 62.5691 34.6711 62.4441 34.7328C62.3369 34.7855 62.2297 34.8382 62.1192 34.8925C61.8724 35.0077 61.8724 35.0077 61.7191 35.1774C61.8747 35.2531 62.0303 35.3288 62.1906 35.4068C62.7719 35.6897 63.3529 35.9731 63.9338 36.2567C64.1846 36.379 64.4354 36.5011 64.6862 36.6231C65.0483 36.7993 65.4101 36.9759 65.7719 37.1526C65.9382 37.2333 65.9382 37.2333 66.1079 37.3157C66.7901 37.6496 67.4492 38.009 68.1038 38.3952C67.7779 38.7539 67.4721 38.9713 67.0402 39.1859C66.919 39.2467 66.7978 39.3076 66.6729 39.3702C66.5427 39.4344 66.4126 39.4986 66.2784 39.5647C66.0775 39.6652 66.0775 39.6652 65.8725 39.7678C65.4449 39.9815 65.0167 40.1939 64.5884 40.4063C64.1592 40.6199 63.7301 40.8338 63.3011 41.048C63.0342 41.1813 62.767 41.3141 62.4997 41.4466C62.3794 41.5064 62.2592 41.5663 62.1353 41.628C62.029 41.6807 61.9227 41.7334 61.8131 41.7877C61.5683 41.9032 61.5683 41.9032 61.4151 42.0726C63.6435 43.1477 65.8729 44.2206 68.1038 45.2903C67.9518 45.75 67.9518 45.75 67.6932 45.9274C67.581 45.9836 67.4689 46.0397 67.3533 46.0976C67.2264 46.162 67.0996 46.2264 66.9689 46.2927C66.7621 46.3947 66.7621 46.3947 66.551 46.4988C66.4102 46.5696 66.2694 46.6403 66.1244 46.7132C65.8263 46.8627 65.5279 47.0114 65.2292 47.1595C64.7706 47.3868 64.3132 47.6164 63.8559 47.8464C63.5667 47.9911 63.2774 48.1356 62.9881 48.28C62.8505 48.349 62.7129 48.4179 62.5711 48.4889C62.3801 48.5834 62.3801 48.5834 62.1853 48.6797C62.073 48.7354 61.9607 48.7912 61.845 48.8487C61.5671 48.9678 61.5671 48.9678 61.263 48.9678C61.263 49.0689 61.263 49.17 61.263 49.2742C61.3953 49.3158 61.5276 49.3575 61.6638 49.4003C62.1541 49.5732 62.5968 49.7769 63.0593 50.014C63.2258 50.0987 63.3923 50.1835 63.5638 50.2708C63.7357 50.3591 63.9077 50.4474 64.0849 50.5383C65.413 51.2182 66.7472 51.8719 68.1038 52.4919C67.9141 53.0658 67.6715 53.1376 67.1546 53.4002C67.0403 53.4563 66.926 53.5124 66.8082 53.5703C66.6883 53.6306 66.5683 53.691 66.4448 53.7532C66.0456 53.9537 65.6454 54.152 65.2452 54.3504C64.966 54.4902 64.6868 54.6302 64.4077 54.7703C63.6692 55.1406 62.9299 55.5091 62.1903 55.8771C61.1587 56.3909 60.1283 56.907 59.0978 57.4229C58.5497 57.6973 58.0013 57.971 57.4526 58.2441C55.2042 59.365 52.9793 60.526 50.7893 61.7591C50.1064 62.1405 49.4172 62.5096 48.7275 62.8783C48.3657 63.0727 48.0077 63.2725 47.6515 63.4771C47.1279 63.7776 46.5953 64.0589 46.0613 64.34C45.9057 64.4328 45.7501 64.5256 45.5898 64.6212C44.9946 64.9211 44.4716 65.145 43.799 64.991C43.0477 64.7196 42.3582 64.3204 41.6619 63.9316C41.1459 63.6497 40.6228 63.3846 40.0965 63.1231C39.998 63.0742 39.8995 63.0252 39.7981 62.9748C39.5917 62.8723 39.3852 62.7697 39.1788 62.6672C38.6288 62.3933 38.0804 62.1162 37.5319 61.8391C37.3004 61.7223 37.0688 61.6054 36.8373 61.4885C36.6622 61.4001 36.6622 61.4001 36.4835 61.3099C35.8778 61.0041 35.2719 60.6987 34.6661 60.3933C33.5236 59.8173 32.3813 59.241 31.239 58.6645C29.9366 58.0073 28.6339 57.3504 27.3313 56.6935C24.656 55.3444 21.981 53.995 19.3062 52.6452C19.3062 52.4935 19.3062 52.3418 19.3062 52.1855C20.0387 51.8254 20.7714 51.4657 21.5042 51.1063C21.753 50.9842 22.0017 50.862 22.2503 50.7398C22.6099 50.5631 22.9696 50.3867 23.3293 50.2103C23.4933 50.1296 23.4933 50.1296 23.6606 50.0472C24.4313 49.6699 25.2101 49.3141 25.9949 48.9678C25.5987 48.655 25.2101 48.4002 24.7596 48.1746C24.5771 48.0826 24.5771 48.0826 24.3909 47.9888C24.261 47.9241 24.1311 47.8594 23.9973 47.7928C23.8632 47.7255 23.7291 47.6581 23.5909 47.5887C23.1637 47.3742 22.7361 47.1607 22.3085 46.9471C22.0183 46.8016 21.7281 46.6561 21.438 46.5105C20.7277 46.1542 20.017 45.7986 19.3062 45.4436C19.3062 45.2919 19.3062 45.1402 19.3062 44.9839C19.9465 44.6703 20.5871 44.357 21.2277 44.044C21.4449 43.9378 21.662 43.8316 21.8791 43.7253C25.5672 41.9194 25.5672 41.9194 25.9949 41.9194C25.9949 41.8182 25.9949 41.7171 25.9949 41.6129C25.8723 41.5761 25.7497 41.5393 25.6234 41.5014C24.9636 41.2635 24.3545 40.9585 23.7301 40.6397C23.6032 40.5755 23.4762 40.5113 23.3455 40.4452C22.9425 40.2413 22.54 40.0365 22.1375 39.8317C21.8634 39.6927 21.5892 39.5539 21.315 39.4151C20.6451 39.0758 19.9755 38.7357 19.3062 38.3952C19.3062 38.2435 19.3062 38.0918 19.3062 37.9355C20.1662 37.5201 21.0266 37.1055 21.8874 36.6917C22.1804 36.5507 22.4732 36.4095 22.766 36.268C23.1861 36.0652 23.6065 35.863 24.027 35.6611C24.1585 35.5974 24.2899 35.5337 24.4253 35.4681C24.547 35.4098 24.6687 35.3515 24.7942 35.2915C24.9015 35.2397 25.0089 35.188 25.1195 35.1347C25.3869 35.0242 25.3869 35.0242 25.6909 35.0242C25.6909 34.9231 25.6909 34.8219 25.6909 34.7178C25.5669 34.6803 25.443 34.6427 25.3152 34.6041C24.6795 34.3756 24.0938 34.0852 23.4926 33.778C23.3724 33.7173 23.2522 33.6565 23.1284 33.5939C22.7471 33.4009 22.3663 33.207 21.9855 33.0131C21.726 32.8816 21.4665 32.7501 21.207 32.6187C20.573 32.2975 19.9395 31.9756 19.3062 31.6532C19.3062 31.5015 19.3062 31.3499 19.3062 31.1936C21.4581 30.1384 23.6121 29.09 25.7859 28.0812C27.5272 27.2725 29.2521 26.4331 30.9747 25.5851C32.6155 24.7777 34.2638 23.9913 35.923 23.2227C37.6792 22.4058 39.4167 21.5507 41.1536 20.6931C41.2645 20.6385 41.3753 20.5839 41.4895 20.5276C41.698 20.4249 41.9064 20.3218 42.1147 20.2185C43.265 19.6516 43.9157 19.6581 45.0714 20.2313ZM42.3178 21.8534C42.219 21.9023 42.1202 21.9513 42.0183 22.0017C41.805 22.1076 41.5919 22.2139 41.379 22.3207C40.8092 22.6066 40.2374 22.8884 39.6658 23.1708C39.4924 23.2566 39.4924 23.2566 39.3154 23.3442C38.2837 23.8537 37.2433 24.3422 36.1991 24.8251C34.4714 25.6263 32.7604 26.459 31.0517 27.3004C29.3363 28.1447 27.6133 28.9691 25.8779 29.7708C24.7907 30.2742 23.7175 30.801 22.6505 31.3468C22.6505 31.4479 22.6505 31.549 22.6505 31.6532C23.2376 31.9669 23.8273 32.275 24.4177 32.5822C24.6673 32.7156 24.6673 32.7156 24.9219 32.8518C25.0836 32.9353 25.2452 33.0187 25.4118 33.1047C25.5599 33.1825 25.7079 33.2604 25.8605 33.3406C26.5028 33.5623 26.9536 33.4562 27.5629 33.1782C27.6723 33.1139 27.7818 33.0495 27.8946 32.9832C28.0171 32.9139 28.1397 32.8445 28.266 32.7731C28.5192 32.6266 28.7718 32.479 29.0237 32.3302C29.637 31.9858 29.9875 31.8045 30.7033 31.8172C31.1635 31.9597 31.1635 31.9597 31.4676 32.2661C30.2636 32.8729 29.0596 33.4797 27.8191 34.1049C28.2654 34.4422 28.6368 34.6911 29.1237 34.9427C29.2607 35.0137 29.3977 35.0847 29.5389 35.1579C29.6858 35.2331 29.8328 35.3082 29.9842 35.3857C30.1364 35.4637 30.2886 35.5416 30.4454 35.6219C30.767 35.7861 31.0887 35.9499 31.4106 36.1133C31.9028 36.364 32.3933 36.6179 32.8838 36.8719C33.1967 37.0311 33.5096 37.1901 33.8227 37.3489C33.969 37.4254 34.1153 37.5018 34.2661 37.5806C35.0464 37.975 35.0464 37.975 35.8977 38.0957C36.4815 37.8804 37.0302 37.6229 37.5833 37.3376C37.7025 37.2773 37.8216 37.217 37.9443 37.1549C38.3292 36.9598 38.7131 36.763 39.097 36.566C39.3618 36.4313 39.6266 36.2966 39.8915 36.162C41.168 35.5122 42.4416 34.8569 43.705 34.1815C43.8102 34.1253 43.9154 34.0692 44.0238 34.0113C44.1277 33.9559 44.2316 33.9004 44.3386 33.8433C44.4421 33.7881 44.5457 33.7328 44.6524 33.6759C44.9091 33.5389 45.1656 33.4017 45.4221 33.2643C45.8777 33.0216 46.3351 32.7824 46.7929 32.5439C46.9337 32.468 47.0746 32.3922 47.2198 32.314C48.2092 31.8036 48.2092 31.8036 48.8754 31.8178C49.2536 31.9597 49.2536 31.9597 49.5577 32.2661C46.6471 33.8076 43.7106 35.2964 40.7692 36.7767C40.6748 36.8242 40.5804 36.8717 40.4831 36.9207C39.3024 37.5148 38.1214 38.1085 36.9402 38.7016C37.492 39.1336 38.0755 39.4453 38.7009 39.7545C38.8122 39.8102 38.9236 39.8659 39.0383 39.9233C39.3933 40.1008 39.7486 40.2775 40.1041 40.4541C40.4578 40.6303 40.8115 40.8067 41.165 40.9834C41.3845 41.093 41.6041 41.2024 41.8239 41.3113C42.3275 41.5626 42.816 41.8233 43.2976 42.1154C43.7553 42.4292 43.7553 42.4292 44.2163 42.3072C44.3736 42.2298 44.531 42.1524 44.6931 42.0726C44.8464 42 44.8464 42 45.0027 41.926C45.3681 41.7506 45.7289 41.5677 46.0898 41.3831C46.2065 41.3242 46.3232 41.2654 46.4434 41.2047C47.0654 40.889 47.6841 40.5677 48.2986 40.2375C49.875 39.3914 51.4656 38.5764 53.0636 37.7727C53.1731 37.7176 53.2827 37.6625 53.3956 37.6057C54.3092 37.1464 55.2231 36.6878 56.1371 36.2293C56.9306 35.8312 57.7241 35.4327 58.5172 35.0338C58.6802 34.9518 58.6802 34.9518 58.8465 34.8682C60.4368 34.0678 62.0167 33.2502 63.5846 32.4058C63.973 32.1994 64.3658 32.0024 64.7594 31.8065C64.1425 31.3219 63.4876 30.9757 62.7927 30.619C62.6106 30.5215 62.6106 30.5215 62.4248 30.422C62.3066 30.3614 62.1883 30.3008 62.0665 30.2383C61.9597 30.1826 61.8529 30.127 61.7429 30.0697C61.1882 29.8972 60.7888 30.0597 60.2737 30.2955C60.1424 30.3663 60.0111 30.4371 59.8759 30.51C59.7309 30.5863 59.5859 30.6625 59.4364 30.7411C59.1335 30.9025 58.8311 31.0649 58.5291 31.2283C58.3841 31.3041 58.2391 31.38 58.0897 31.4581C57.9584 31.5286 57.8271 31.599 57.6918 31.6716C57.239 31.8318 57.003 31.8004 56.5505 31.6532C56.275 31.4138 56.275 31.4138 56.0944 31.1936C56.214 31.1592 56.3335 31.1248 56.4567 31.0894C57.1773 30.8243 57.833 30.4675 58.5077 30.1018C58.6414 30.0301 58.775 29.9584 58.9127 29.8846C59.2404 29.7086 59.5678 29.532 59.8949 29.3549C59.4099 28.866 58.7965 28.622 58.1847 28.3206C58.0559 28.2536 57.9272 28.1867 57.7945 28.1177C57.6685 28.0558 57.5425 27.994 57.4127 27.9303C57.2984 27.8729 57.1841 27.8155 57.0664 27.7563C56.2177 27.5535 55.4047 28.1594 54.6746 28.5528C54.4608 28.6651 54.2469 28.7772 54.033 28.8892C53.6992 29.0645 53.3661 29.2407 53.0344 29.4199C52.7117 29.5937 52.3871 29.7631 52.0618 29.9318C51.9638 29.9861 51.8657 30.0403 51.7647 30.0962C51.2169 30.3755 50.9449 30.4307 50.3323 30.3243C49.8617 30.121 49.8617 30.121 49.7097 29.8145C49.8378 29.775 49.9659 29.7354 50.0978 29.6946C50.6582 29.4951 51.1799 29.2462 51.7085 28.9754C51.8584 28.8995 51.8584 28.8995 52.0113 28.8221C52.3275 28.6619 52.6433 28.5008 52.9591 28.3397C53.1746 28.2303 53.3902 28.121 53.6057 28.0117C54.1316 27.745 54.6571 27.4776 55.1823 27.2097C55.1823 27.1086 55.1823 27.0074 55.1823 26.9032C55.0291 26.8283 54.8759 26.7534 54.718 26.6763C54.1429 26.3951 53.5677 26.1138 52.9926 25.8324C52.745 25.7113 52.4973 25.5902 52.2496 25.4691C52.009 25.3515 51.7684 25.2338 51.5279 25.116C51.293 25.0012 51.0578 24.8867 50.8225 24.7725C50.1996 24.4694 49.592 24.1491 48.9864 23.8118C48.5404 23.5903 48.4007 23.5253 47.8968 23.5849C47.7425 23.6687 47.5883 23.7524 47.4294 23.8387C47.1676 23.965 46.9058 24.0911 46.6438 24.217C46.3384 24.3711 46.0334 24.526 45.7287 24.6815C45.5652 24.7644 45.4016 24.8473 45.2331 24.9327C44.294 25.4105 43.3606 25.8978 42.4318 26.3957C41.9195 26.6684 41.4062 26.9392 40.8927 27.2097C40.7963 27.2606 40.7 27.3115 40.6007 27.364C39.9178 27.7245 39.2331 28.0814 38.5467 28.435C38.3133 28.5559 38.0804 28.6777 37.848 28.8005C37.519 28.9742 37.1883 29.1442 36.8571 29.3136C36.7587 29.3665 36.6603 29.4194 36.5589 29.4739C35.8659 29.8217 35.4076 29.8442 34.6599 29.6613C34.5596 29.6107 34.4593 29.5602 34.3559 29.5081C36.9181 28.0627 39.5293 26.7283 42.1581 25.4122C42.6864 25.1476 43.2144 24.8822 43.7424 24.6168C44.7684 24.1014 45.7947 23.5867 46.8214 23.0726C46.3242 22.5564 45.7944 22.2885 45.1587 21.9713C45.0498 21.9149 44.941 21.8585 44.8288 21.8004C44.7231 21.7472 44.6174 21.6939 44.5084 21.6391C44.4126 21.5907 44.3168 21.5422 44.2181 21.4923C43.487 21.2225 42.9576 21.5282 42.3178 21.8534ZM26.2877 36.2931C26.1837 36.3441 26.0798 36.3951 25.9727 36.4477C25.6408 36.6108 25.3096 36.7751 24.9783 36.9395C24.7534 37.0503 24.5284 37.1611 24.3034 37.2717C23.752 37.5431 23.2011 37.8156 22.6505 38.0887C22.6505 38.1899 22.6505 38.291 22.6505 38.3952C22.7341 38.4372 22.8176 38.4792 22.9036 38.5225C24.9498 39.552 26.9959 40.5819 29.0417 41.6122C30.0311 42.1104 31.0206 42.6086 32.0102 43.1064C32.8742 43.5411 33.7382 43.976 34.602 44.4112C35.058 44.6409 35.5141 44.8705 35.9703 45.0999C41.3187 47.7894 41.3187 47.7894 43.4609 49.0372C44.2264 49.2376 45.0696 48.6464 45.7448 48.3022C45.8446 48.2518 45.9444 48.2015 46.0473 48.1496C46.2589 48.0427 46.4703 47.9356 46.6816 47.8281C46.9938 47.6694 47.3064 47.5117 47.6192 47.3541C48.5876 46.8647 49.5516 46.3681 50.5082 45.8554C51.942 45.0872 53.3898 44.3487 54.8427 43.618C55.0033 43.5372 55.0033 43.5372 55.1671 43.4548C55.9447 43.0639 56.7226 42.6735 57.5006 42.2833C58.2823 41.8912 59.0638 41.4988 59.8451 41.106C60.1517 40.952 60.4584 40.7983 60.7652 40.6447C62.1096 39.9698 63.4376 39.2671 64.7594 38.5484C64.0124 37.9713 63.1949 37.5754 62.3557 37.1502C62.1121 37.0237 62.1121 37.0237 61.8637 36.8946C61.7053 36.8142 61.5468 36.7339 61.3836 36.651C61.1685 36.5411 61.1685 36.5411 60.949 36.4289C60.3097 36.1725 59.7857 35.9708 59.1093 36.2164C58.7122 36.412 58.3292 36.625 57.9448 36.845C57.6318 37.0167 57.3186 37.1879 57.0051 37.3587C56.835 37.4518 56.665 37.545 56.4899 37.641C55.6004 38.1233 54.6943 38.5733 53.7898 39.0262C53.4635 39.1896 53.1374 39.3534 52.8113 39.5174C52.145 39.8523 51.4784 40.1868 50.8118 40.5212C50.0284 40.9142 49.245 41.3074 48.4619 41.7012C48.1543 41.8557 47.8465 42.0099 47.5387 42.164C47.3473 42.2602 47.156 42.3564 46.9646 42.4526C46.7853 42.5427 46.606 42.6327 46.4212 42.7255C45.7998 43.0489 45.1969 43.4003 44.5985 43.7649C44.0261 43.9968 43.6546 43.8341 43.1049 43.5987C42.9749 43.5329 42.8448 43.4671 42.7109 43.3993C42.4875 43.2871 42.4875 43.2871 42.2597 43.1726C42.0198 43.0503 42.0198 43.0503 41.7751 42.9255C41.6075 42.8409 41.44 42.7564 41.2674 42.6692C40.8208 42.4435 40.3747 42.217 39.9287 41.9901C39.4858 41.7651 39.0422 41.5414 38.5987 41.3175C36.9529 40.4852 35.3129 39.6437 33.6858 38.7748C32.6014 38.196 31.5094 37.6333 30.4125 37.0789C30.0904 36.9158 29.7689 36.7514 29.4474 36.587C29.2404 36.4822 29.0333 36.3774 28.8263 36.2728C28.7313 36.2239 28.6363 36.1751 28.5384 36.1248C27.6146 35.6617 27.1691 35.8532 26.2877 36.2931ZM26.5252 43.2218C26.4145 43.2762 26.3038 43.3306 26.1897 43.3867C25.8362 43.5607 25.4833 43.736 25.1303 43.9113C24.8908 44.0295 24.6512 44.1476 24.4115 44.2656C23.8241 44.5552 23.2372 44.8459 22.6505 45.1371C22.6505 45.2382 22.6505 45.3394 22.6505 45.4436C25.3774 46.8752 28.1098 48.2954 30.8492 49.7025C32.1211 50.3561 33.391 51.0133 34.6567 51.6793C35.7603 52.26 36.8672 52.8336 37.9785 53.3991C38.5665 53.6986 39.1524 54.0014 39.7344 54.3126C42.0912 55.7446 42.0912 55.7446 44.6711 56.0853C45.2079 55.8643 45.6353 55.5346 46.079 55.1634C46.6027 54.7613 47.2027 54.506 47.7957 54.2239C48.0508 54.0964 48.3056 53.9682 48.5601 53.8394C48.6905 53.7738 48.8209 53.7082 48.9553 53.6406C49.8134 53.2089 50.6713 52.777 51.5291 52.3451C52.2757 51.9693 53.0222 51.5936 53.7689 51.2181C54.5003 50.8504 55.2315 50.4823 55.9626 50.1141C56.2372 49.9758 56.5119 49.8376 56.7866 49.6996C58.3111 48.9335 59.8285 48.1562 61.3331 47.3509C62.4649 46.7454 63.6105 46.1686 64.7594 45.5968C64.0232 45.0016 63.1749 44.605 62.337 44.1775C62.1404 44.0766 61.9444 43.9747 61.7489 43.8716C61.465 43.722 61.1796 43.5757 60.8937 43.4301C60.724 43.3423 60.5543 43.2546 60.3795 43.1642C59.6552 42.9068 59.174 43.0629 58.477 43.3627C58.2908 43.4554 58.1053 43.5495 57.9203 43.6446C57.7669 43.7217 57.7669 43.7217 57.6105 43.8003C57.2734 43.97 56.9372 44.1414 56.601 44.3129C56.3638 44.4328 56.1267 44.5526 55.8894 44.6723C55.3914 44.9239 54.8937 45.1763 54.3963 45.4293C53.7675 45.7492 53.1381 46.0678 52.5084 46.3859C50.2199 47.5421 47.9318 48.6985 45.6733 49.9135C45.5003 50.0059 45.3274 50.0983 45.1492 50.1936C44.9906 50.2853 44.832 50.377 44.6686 50.4715C44.151 50.6895 44.0094 50.6531 43.477 50.5C43.0939 50.3276 42.7218 50.1493 42.348 49.9584C42.1814 49.8746 42.1814 49.8746 42.0113 49.7891C41.6439 49.6042 41.2772 49.418 40.9105 49.2317C40.6527 49.1015 40.3948 48.9715 40.137 48.8414C39.5951 48.568 39.0536 48.294 38.5123 48.0195C37.8271 47.672 37.1414 47.3256 36.4555 46.9796C35.793 46.6453 35.1309 46.3105 34.4687 45.9757C34.3463 45.9138 34.2238 45.852 34.0977 45.7882C32.3943 44.9272 30.7032 44.0451 29.0202 43.1444C28.8772 43.0689 28.8772 43.0689 28.7312 42.9919C28.6281 42.9349 28.525 42.8779 28.4188 42.8191C27.7112 42.4993 27.1596 42.905 26.5252 43.2218ZM26.9522 50.2259C26.7983 50.3013 26.7983 50.3013 26.6413 50.3783C26.3117 50.5399 25.9823 50.7019 25.6529 50.8639C25.3257 51.0249 24.9984 51.1858 24.671 51.3463C24.467 51.4463 24.2631 51.5466 24.0593 51.6471C23.546 51.8988 23.0318 52.1333 22.4985 52.3387C22.967 52.7152 23.4492 52.994 23.9818 53.2697C24.0702 53.3156 24.1587 53.3616 24.2499 53.4089C24.5504 53.5648 24.8513 53.7197 25.1523 53.8746C25.3722 53.9882 25.5921 54.1018 25.8119 54.2154C26.5817 54.6126 27.3524 55.0081 28.1232 55.4032C28.2692 55.4781 28.4152 55.553 28.5657 55.6302C30.559 56.652 32.5545 57.6693 34.5526 58.6815C35.4394 59.1308 36.3257 59.5812 37.2109 60.0337C38.0821 60.479 38.9543 60.9218 39.8275 61.363C40.1568 61.53 40.4858 61.6977 40.8143 61.8664C41.269 62.0996 41.7251 62.3297 42.1817 62.5591C42.3824 62.6634 42.3824 62.6634 42.5872 62.7698C43.1212 63.0348 43.5015 63.2179 44.1021 63.217C44.6626 63.0223 45.1879 62.7794 45.7152 62.5088C45.8293 62.4515 45.9434 62.3941 46.061 62.3351C46.4376 62.1454 46.8132 61.9541 47.1889 61.7627C47.4533 61.6291 47.7178 61.4956 47.9822 61.3621C48.5376 61.0817 49.0925 60.8004 49.6472 60.5185C50.3495 60.1616 51.0524 59.8059 51.7556 59.4508C52.4347 59.1078 53.1135 58.7642 53.7922 58.4205C53.9178 58.3569 54.0434 58.2934 54.1728 58.2279C55.6523 57.4785 57.125 56.7178 58.5879 55.9357C59.8331 55.2705 61.0938 54.6373 62.3557 54.0051C62.5915 53.8866 62.8274 53.7681 63.0632 53.6495C63.6284 53.3655 64.1939 53.0818 64.7594 52.7984C64.3563 52.3193 63.8771 52.1009 63.3212 51.83C63.2258 51.7834 63.1304 51.7368 63.0321 51.6888C62.8307 51.5907 62.6291 51.4931 62.4272 51.3959C62.1196 51.2477 61.813 51.0975 61.5065 50.9471C61.3102 50.8518 61.1138 50.7567 60.9174 50.6616C60.7396 50.5755 60.5618 50.4893 60.3786 50.4006C59.5727 50.0423 59.5727 50.0423 58.7376 50.1867C58.5914 50.2664 58.4452 50.3461 58.2945 50.4282C58.0311 50.5688 58.0311 50.5688 57.7623 50.7122C57.6662 50.7646 57.5702 50.817 57.4713 50.871C56.9276 51.1674 56.3799 51.4561 55.8326 51.7456C55.6439 51.8456 55.6439 51.8456 55.4514 51.9477C54.2105 52.6027 52.9588 53.2352 51.7055 53.8656C51.5999 53.9187 51.4942 53.9719 51.3853 54.0267C50.5221 54.4607 49.6585 54.8941 48.7948 55.3273C48.1684 55.6415 47.542 55.9559 46.9159 56.2707C46.6286 56.415 46.3411 56.5589 46.0536 56.7028C45.881 56.7896 45.7083 56.8763 45.5305 56.9657C45.3792 57.0415 45.2279 57.1174 45.072 57.1955C44.6714 57.398 44.6714 57.398 44.2371 57.7016C43.5296 57.6548 42.9285 57.3026 42.3071 56.984C42.1936 56.9266 42.0801 56.8692 41.9631 56.8101C41.7219 56.6881 41.4809 56.5656 41.2401 56.4426C40.8827 56.2602 40.5246 56.0789 40.1664 55.8979C38.9743 55.294 37.789 54.6784 36.61 54.0487C35.0583 53.2207 33.4899 52.4269 31.9188 51.6368C31.4394 51.3956 30.9603 51.1537 30.4812 50.9118C30.1762 50.7581 29.8712 50.6045 29.5662 50.4509C29.423 50.3787 29.2799 50.3064 29.1325 50.2319C29.0018 50.1663 28.8711 50.1007 28.7365 50.0331C28.6213 49.9751 28.5062 49.9171 28.3875 49.8574C27.8558 49.609 27.4409 49.9847 26.9522 50.2259Z" fill="#46922E"/>
<path d="M61.1106 2.95537C61.4279 2.94083 61.7452 2.92926 62.0627 2.91876C62.4286 2.9057 62.7943 2.88687 63.1595 2.86046C63.8672 2.84046 64.2773 2.83639 64.8149 3.32981C65.3449 4.01466 65.7536 4.72785 66.0725 5.536C66.4415 6.39847 66.8665 7.1878 67.3564 7.98642C67.4573 8.15144 67.4573 8.15144 67.5602 8.31981C67.8299 8.75927 68.1007 9.19798 68.3716 9.6367C68.5599 9.94401 68.7453 10.253 68.93 10.5625C68.9872 10.6542 69.0444 10.7458 69.1033 10.8402C69.3486 11.2551 69.4768 11.5137 69.4427 12.0017C69.2939 12.4206 69.1024 12.7802 68.8736 13.1608C68.7938 13.2961 68.7141 13.4314 68.6319 13.5708C68.5211 13.7234 68.5211 13.7234 68.408 13.879C68.3077 13.879 68.2074 13.879 68.104 13.879C67.8899 13.5615 67.6966 13.2461 67.5066 12.9142C67.4478 12.8135 67.389 12.7129 67.3284 12.6092C67.1362 12.2797 66.9455 11.9493 66.7548 11.6189C66.6238 11.3939 66.4927 11.1689 66.3615 10.944C66.1003 10.4963 65.8396 10.0483 65.5793 9.60015C65.1055 8.78549 64.6248 7.9751 64.142 7.16582C64.0689 7.04272 63.9957 6.91961 63.9203 6.79278C63.6502 6.33919 63.3786 5.89196 63.0874 5.45161C62.6387 5.40955 62.2222 5.39891 61.7733 5.40705C61.6301 5.40771 61.4868 5.40836 61.3392 5.40904C60.8392 5.41175 60.3392 5.41768 59.8392 5.42347C59.1631 5.42844 58.4871 5.43229 57.811 5.43604C57.481 5.43796 57.1511 5.4402 56.8212 5.44245C54.8475 5.45493 52.874 5.44582 50.9003 5.43477C47.7467 5.41741 44.5934 5.41831 41.4398 5.43294C39.5916 5.44102 37.744 5.44161 35.8958 5.42591C34.2577 5.41201 32.6202 5.41156 30.9821 5.42719C30.1223 5.43495 29.2636 5.43625 28.4038 5.42114C25.056 5.20216 25.056 5.20216 22.0171 6.27919C21.2662 7.16574 20.8781 8.13139 20.5442 9.23607C20.2482 10.0976 19.7783 10.8584 19.3158 11.6381C19.2159 11.816 19.1166 11.9942 19.0184 12.173C18.9028 12.3811 18.9028 12.3811 18.7849 12.5934C18.2184 13.6143 17.6554 14.6373 17.0925 15.6603C16.3125 17.0778 15.5254 18.491 14.7323 19.9011C14.0027 21.2 13.2834 22.5046 12.5653 23.81C11.8399 25.1281 11.1101 26.4437 10.3786 27.7584C9.72507 28.9336 9.07575 30.1111 8.42753 31.2893C7.72667 32.5629 7.02135 33.8338 6.30879 35.1008C5.6122 36.3404 4.91849 37.5816 4.22997 38.8258C4.12837 39.0093 4.02661 39.1927 3.92468 39.376C3.78248 39.6318 3.64094 39.8879 3.49943 40.1441C3.41807 40.291 3.33671 40.4378 3.25288 40.5892C3.18277 40.7247 3.11265 40.8603 3.04041 41C2.9716 41.1264 2.90279 41.2528 2.8319 41.383C2.69446 41.7763 2.69446 41.7763 2.89808 42.1764C3.03819 42.3976 3.03819 42.3976 3.18114 42.6232C3.28539 42.7914 3.38964 42.9596 3.49705 43.1329C3.5541 43.2221 3.61115 43.3112 3.66993 43.4031C3.91318 43.7833 4.15034 44.1673 4.38798 44.5511C4.51232 44.7518 4.63698 44.9522 4.76195 45.1525C5.3465 46.0908 5.90286 47.0443 6.45421 48.0026C7.35111 49.561 8.26552 51.1076 9.19712 52.6452C10.1296 54.1841 11.042 55.7335 11.9429 57.2914C12.7365 58.6628 13.5448 60.0241 14.3657 61.379C15.2482 62.8358 16.1154 64.3006 16.969 65.7747C17.8836 67.3541 17.8836 67.3541 18.8099 68.9266C18.9013 69.0804 18.9926 69.2343 19.0868 69.3928C19.2704 69.6993 19.4558 70.0048 19.6428 70.3093C20.137 71.1197 20.595 71.9294 21.0131 72.7817C21.2409 73.2424 21.4792 73.6971 21.7184 74.1519C21.8316 74.3739 21.9401 74.5984 22.0432 74.8254C22.0924 74.9336 22.1417 75.0417 22.1925 75.1531C22.2547 75.2957 22.2547 75.2957 22.3181 75.4412C22.6269 75.9403 22.9294 76.3671 23.4108 76.7016C23.9467 76.8202 24.4613 76.7916 25.007 76.7629C25.2388 76.7566 25.2388 76.7566 25.4753 76.7502C25.7964 76.7415 26.1175 76.7309 26.4386 76.7185C27.0046 76.6981 27.5702 76.6919 28.1366 76.6874C28.8351 76.6817 29.5335 76.6699 30.232 76.6594C30.5471 76.6549 30.8623 76.6503 31.1774 76.6458C31.8484 76.6362 32.5194 76.6264 33.1904 76.6165C34.2564 76.6007 35.3224 76.5854 36.3885 76.5701C39.0359 76.5321 41.6833 76.4937 44.3307 76.455C46.3908 76.425 48.4509 76.3951 50.5111 76.3656C51.395 76.3529 52.2789 76.3402 53.1628 76.3271C56.8259 76.2728 60.488 76.2225 64.1515 76.2419C64.1982 76.0972 64.2449 75.9525 64.293 75.8034C64.4347 75.3844 64.5889 75.0436 64.8095 74.6636C64.8799 74.5409 64.9504 74.4182 65.023 74.2917C65.0991 74.161 65.1752 74.0303 65.2536 73.8957C65.4173 73.6115 65.5808 73.3272 65.7441 73.0427C65.8738 72.8169 65.8738 72.8169 66.0062 72.5866C66.2962 72.0759 66.5803 71.5621 66.8629 71.0472C66.9589 70.8726 67.0548 70.6979 67.1537 70.518C67.3421 70.1745 67.5298 69.8308 67.717 69.4866C67.8027 69.3307 67.8885 69.1747 67.9769 69.014C68.0529 68.8748 68.1288 68.7356 68.2071 68.5922C68.408 68.2742 68.408 68.2742 68.7121 68.121C68.9251 68.4316 69.1331 68.7442 69.3391 69.0595C69.3997 69.1468 69.4602 69.2341 69.5226 69.324C69.8015 69.758 69.9413 70.0206 69.8676 70.5397C69.5189 71.2453 69.1416 71.93 68.7501 72.6124C68.5719 72.9249 68.394 73.2376 68.2162 73.5503C68.1234 73.7134 68.0307 73.8766 67.9351 74.0446C67.6395 74.5715 67.3514 75.1022 67.0654 75.6344C66.9706 75.8095 66.8758 75.9845 66.7781 76.1648C66.5938 76.5058 66.411 76.8476 66.2297 77.1902C66.1037 77.4218 66.1037 77.4218 65.9751 77.6581C65.9017 77.7953 65.8283 77.9326 65.7527 78.074C65.4638 78.4622 65.3804 78.4646 64.9116 78.5403C64.4977 78.5598 64.0871 78.5715 63.673 78.5762C63.4839 78.5792 63.4839 78.5792 63.291 78.5823C62.8674 78.5888 62.4439 78.5944 62.0203 78.5999C61.7165 78.6044 61.4127 78.609 61.1088 78.6136C60.2796 78.626 59.4505 78.6374 58.6213 78.6487C57.7435 78.6607 56.8658 78.6735 55.9881 78.6861C54.5036 78.7073 53.019 78.728 51.5345 78.7483C50.0314 78.7688 48.5284 78.7901 47.0253 78.812C46.474 78.82 45.9226 78.8281 45.3713 78.8361C45.0059 78.8414 44.6404 78.8467 44.275 78.8521C42.2988 78.8808 40.3227 78.9075 38.3464 78.9284C38.0857 78.9312 38.0857 78.9312 37.8198 78.934C36.3755 78.9494 36.3755 78.9494 35.7561 78.9558C33.7906 78.9764 31.8265 79.0103 29.8618 79.0703C29.0013 79.0965 28.1408 79.1155 27.2801 79.132C26.7339 79.1429 26.1885 79.1577 25.6428 79.1831C22.3541 79.334 22.3541 79.334 21.3634 78.5339C20.2831 77.4531 19.7649 76.1516 19.3449 74.7016C19.1081 73.9034 18.6991 73.2529 18.2422 72.5645C18.0999 72.3291 17.959 72.0928 17.8194 71.8558C17.7441 71.7294 17.6689 71.603 17.5913 71.4728C16.9562 70.402 16.3259 69.3283 15.6945 68.2553C14.9757 67.0341 14.256 65.8135 13.5296 64.5968C12.7483 63.288 11.9749 61.9746 11.2019 60.6608C10.3346 59.1869 9.46514 57.7145 8.58905 56.246C7.71296 54.7774 6.84349 53.305 5.97625 51.8311C4.9159 50.0275 4.9159 50.0275 3.84826 48.2283C3.70996 47.9955 3.57288 47.7619 3.43711 47.5276C3.03982 46.8471 2.62123 46.1886 2.177 45.5387C-0.165321 42.0982 -0.165323 42.0982 0.0214304 41.0616C0.237639 40.5179 0.589615 40.0888 0.961966 39.6443C1.46781 38.9881 1.82379 38.2342 2.21381 37.5045C2.39834 37.1731 2.58363 36.8421 2.76963 36.5116C3.34986 35.4761 3.92236 34.4364 4.49408 33.3962C5.27404 31.9786 6.06118 30.5655 6.85428 29.1554C7.58396 27.8565 8.30317 26.5518 9.02135 25.2465C9.74672 23.9283 10.4765 22.6127 11.208 21.2981C11.8615 20.1228 12.5109 18.9453 13.1591 17.7671C13.9391 16.3496 14.7262 14.9364 15.5193 13.5263C16.1508 12.4021 16.7748 11.2739 17.3966 10.1441C17.5872 9.79799 17.7778 9.45184 17.9684 9.10568C18.0631 8.93367 18.1579 8.76166 18.2555 8.58443C18.3514 8.41019 18.4474 8.23596 18.5462 8.05644C18.5956 7.96663 18.6451 7.87682 18.696 7.78429C19.0381 7.16278 19.3811 6.54174 19.7243 5.92086C19.8576 5.67854 19.8576 5.67854 19.9936 5.43133C20.1178 5.20701 20.1178 5.20701 20.2445 4.97816C20.3168 4.84722 20.3891 4.71628 20.4635 4.58137C20.5331 4.46403 20.6027 4.34669 20.6745 4.2258C20.7298 4.11918 20.7852 4.01256 20.8423 3.90271C21.2021 3.54096 21.4656 3.53575 21.962 3.52304C22.1318 3.52331 22.1318 3.52331 22.3051 3.52358C22.4253 3.52137 22.5455 3.51915 22.6694 3.51686C23.072 3.51012 23.4746 3.50769 23.8773 3.5052C24.1649 3.50121 24.4524 3.49693 24.74 3.4924C25.3518 3.48323 25.9636 3.47582 26.5754 3.46976C27.4893 3.4605 28.403 3.44618 29.3167 3.43052C31.0733 3.4009 32.8299 3.3757 34.5866 3.35131C35.4674 3.33903 36.3483 3.32643 37.2292 3.31389C38.704 3.29294 40.1789 3.27225 41.6538 3.25172C43.3457 3.22816 45.0375 3.20414 46.7294 3.1799C48.1995 3.15884 49.6697 3.13804 51.1398 3.11743C52.0103 3.10523 52.8808 3.09295 53.7513 3.08044C53.9175 3.07807 54.0836 3.07569 54.2548 3.07324C54.5834 3.06855 54.9119 3.06382 55.2405 3.05906C56.0166 3.04801 56.7927 3.03812 57.5689 3.03104C57.8588 3.02831 58.1486 3.02556 58.4385 3.02277C58.6463 3.02079 58.6463 3.02079 58.8582 3.01877C59.6099 3.01009 60.3597 2.99049 61.1106 2.95537Z" fill="#47932F"/>
<path d="M187.286 35.1774C187.336 35.7336 187.386 36.2898 187.438 36.8629C187.767 36.6163 187.767 36.6163 188.103 36.3649C189.494 35.3953 190.741 34.934 192.454 35.1774C193.463 35.5018 194.133 35.9934 194.735 36.8629C194.843 36.7908 194.951 36.7187 195.063 36.6444C196.774 35.5235 198.134 35.0015 200.207 35.1774C201.183 35.429 201.778 35.8749 202.336 36.7096C202.588 37.2506 202.678 37.6767 202.681 38.2728C202.683 38.5051 202.683 38.5051 202.686 38.7422C202.686 38.9077 202.686 39.0733 202.687 39.2438C202.69 39.5954 202.694 39.9469 202.698 40.2985C202.703 40.852 202.706 41.4054 202.709 41.959C202.712 42.4936 202.718 43.0282 202.725 43.5629C202.725 43.8121 202.725 43.8121 202.725 44.0664C202.728 44.2973 202.728 44.2973 202.731 44.5329C202.732 44.6684 202.732 44.8039 202.733 44.9435C202.804 45.3626 202.915 45.4958 203.248 45.7499C203.627 45.8707 203.627 45.8707 204.036 45.9319C204.242 45.9683 204.242 45.9683 204.451 46.0055C204.556 46.0223 204.66 46.0391 204.768 46.0564C204.768 46.4104 204.768 46.7643 204.768 47.129C202.711 47.129 200.654 47.129 198.535 47.129C198.535 46.775 198.535 46.4211 198.535 46.0564C198.654 46.0285 198.773 46.0007 198.896 45.972C199.049 45.9335 199.203 45.895 199.362 45.8553C199.515 45.818 199.669 45.7806 199.827 45.7422C199.952 45.6942 200.078 45.6462 200.207 45.5967C200.35 45.1648 200.379 44.8973 200.381 44.45C200.382 44.3114 200.383 44.1728 200.384 44.03C200.385 43.8806 200.385 43.7312 200.385 43.5773C200.385 43.4233 200.386 43.2693 200.386 43.1107C200.387 42.7848 200.388 42.4589 200.388 42.1331C200.388 41.635 200.391 41.137 200.394 40.639C200.394 40.3224 200.394 40.0058 200.394 39.6891C200.396 39.466 200.396 39.466 200.398 39.2383C200.407 38.2402 200.407 38.2402 200.055 37.3225C199.361 36.8937 198.814 36.7824 198.01 36.9065C197.022 37.1864 196.061 37.6534 195.343 38.3951C195.242 38.3951 195.142 38.3951 195.039 38.3951C195.053 39.3933 195.069 40.3915 195.087 41.3897C195.093 41.7294 195.098 42.0692 195.103 42.409C195.11 42.8966 195.119 43.3842 195.128 43.8717C195.13 44.0243 195.131 44.1769 195.133 44.3341C195.136 44.4752 195.139 44.6163 195.142 44.7617C195.144 44.8862 195.146 45.0108 195.148 45.1391C195.165 45.4788 195.165 45.4788 195.495 45.7499C195.829 45.8536 195.829 45.8536 196.198 45.9223C196.322 45.948 196.446 45.9737 196.574 46.0001C196.717 46.028 196.717 46.028 196.863 46.0564C196.863 46.4104 196.863 46.7643 196.863 47.129C194.907 47.129 192.95 47.129 190.934 47.129C190.934 46.775 190.934 46.4211 190.934 46.0564C191.03 46.0378 191.125 46.0193 191.223 46.0001C191.347 45.9745 191.471 45.9488 191.599 45.9223C191.723 45.8974 191.846 45.8726 191.973 45.8469C192.331 45.7704 192.331 45.7704 192.606 45.4435C192.656 45.1085 192.656 45.1085 192.653 44.7176C192.656 44.5667 192.658 44.4158 192.66 44.2603C192.661 44.0967 192.662 43.9331 192.663 43.7646C192.664 43.5968 192.666 43.429 192.667 43.2561C192.669 42.9005 192.671 42.5448 192.671 42.1892C192.673 41.6453 192.68 41.1017 192.688 40.5579C192.69 40.2127 192.691 39.8674 192.691 39.5222C192.694 39.3595 192.697 39.1968 192.7 39.0292C192.697 38.0998 192.697 38.0998 192.257 37.3C191.618 36.8581 191.05 36.7882 190.307 36.9203C189.3 37.2107 188.182 37.7982 187.438 38.5483C187.421 38.752 187.415 38.9565 187.413 39.1608C187.412 39.2907 187.41 39.4207 187.409 39.5545C187.408 39.7666 187.408 39.7666 187.407 39.983C187.406 40.1999 187.406 40.1999 187.404 40.4211C187.403 40.7278 187.402 41.0345 187.401 41.3412C187.4 41.8104 187.395 42.2794 187.39 42.7486C187.389 43.0461 187.389 43.3437 187.388 43.6413C187.386 43.7818 187.384 43.9222 187.382 44.067C187.381 44.8291 187.381 44.8291 187.648 45.529C187.96 45.8089 188.197 45.8697 188.607 45.9415C188.729 45.9644 188.852 45.9873 188.979 46.0109C189.072 46.0259 189.166 46.0409 189.262 46.0564C189.262 46.4104 189.262 46.7643 189.262 47.129C187.255 47.129 185.249 47.129 183.181 47.129C183.181 46.775 183.181 46.4211 183.181 46.0564C183.3 46.0268 183.419 45.9971 183.542 45.9666C183.696 45.9267 183.85 45.8868 184.008 45.8457C184.161 45.8066 184.315 45.7675 184.473 45.7272C184.877 45.6387 184.877 45.6387 185.006 45.2903C185.024 45.0353 185.033 44.7796 185.037 44.5241C185.04 44.3646 185.043 44.2051 185.046 44.0407C185.05 43.7817 185.05 43.7817 185.054 43.5174C185.057 43.341 185.06 43.1646 185.063 42.9828C185.073 42.4176 185.082 41.8524 185.091 41.2872C185.098 40.9048 185.104 40.5223 185.111 40.1398C185.127 39.2008 185.143 38.2616 185.158 37.3225C184.505 37.3225 183.853 37.3225 183.181 37.3225C183.181 36.918 183.181 36.5135 183.181 36.0967C183.313 36.0689 183.446 36.041 183.582 36.0123C184.652 35.7868 184.652 35.7868 185.661 35.3785C186.229 35.0989 186.659 35.1447 187.286 35.1774Z" fill="#363334"/>
<path d="M94.5549 30.2744C98.4177 30.2744 102.28 30.2744 106.26 30.2744C106.26 31.6532 106.26 31.6532 105.847 32.1772C105.757 32.2949 105.666 32.4126 105.573 32.5339C105.474 32.6573 105.375 32.7808 105.272 32.908C105.17 33.0404 105.067 33.1729 104.961 33.3093C104.745 33.5889 104.527 33.8676 104.308 34.1455C103.787 34.811 103.281 35.4882 102.773 36.164C102.57 36.4327 102.367 36.7012 102.164 36.9697C102.062 37.1032 101.961 37.2368 101.857 37.3744C101.755 37.5091 101.653 37.6437 101.548 37.7825C99.5487 40.4218 97.5613 43.068 95.619 45.7502C96.2108 45.7356 96.8024 45.7193 97.394 45.7016C97.6916 45.693 97.9892 45.6857 98.2868 45.6784C100.467 45.6113 102.598 45.5153 104.275 43.9648C104.937 43.2047 105.442 42.3255 105.956 41.4599C106.83 41.594 106.83 41.594 107.172 41.7663C106.805 43.6194 105.994 45.355 105.348 47.1293C101.034 47.1293 96.7197 47.1293 92.2747 47.1293C92.2747 45.7509 92.2747 45.7509 92.6654 45.2828C92.7504 45.1773 92.8355 45.0718 92.9231 44.9631C93.0164 44.8531 93.1097 44.7431 93.2058 44.6298C93.4029 44.3865 93.5996 44.1428 93.796 43.8989C93.8972 43.7746 93.9984 43.6502 94.1026 43.5221C94.5777 42.9261 95.0218 42.3085 95.467 41.6897C96.2457 40.6149 97.0463 39.5603 97.8613 38.5133C98.5884 37.576 99.2885 36.6205 99.9849 35.6599C100.935 34.3542 101.923 33.0789 102.916 31.8067C98.866 31.5599 97 31.3142 95.3174 33.1588C94.7153 33.8188 94.2385 34.556 93.7948 35.3309C93.2818 35.247 93.0222 35.1692 92.5787 34.8712C93.1026 33.2869 93.8426 31.7821 94.5549 30.2744Z" fill="#363334"/>
<path d="M210.088 35.1775C210.139 35.7337 210.189 36.2899 210.24 36.863C210.356 36.7798 210.472 36.6967 210.591 36.611C212.241 35.4591 213.51 34.9665 215.561 35.1775C216.983 35.5369 218.105 36.6178 218.867 37.8464C219.799 39.7815 219.664 41.9055 219.057 43.9114C218.413 45.3802 217.377 46.5663 215.892 47.1764C214.448 47.6389 212.851 47.5784 211.457 46.9759C210.991 46.6835 210.538 46.3739 210.088 46.0565C210.103 46.7275 210.119 47.3983 210.137 48.0691C210.142 48.2974 210.148 48.5257 210.152 48.754C210.159 49.0819 210.168 49.4097 210.177 49.7375C210.185 50.0336 210.185 50.0336 210.192 50.3357C210.192 50.8226 210.192 50.8226 210.544 51.113C210.949 51.1839 210.949 51.1839 211.4 51.2088C211.552 51.2202 211.704 51.2317 211.862 51.2435C212.037 51.2547 212.037 51.2547 212.217 51.2662C212.217 51.6707 212.217 52.0752 212.217 52.492C210.16 52.492 208.103 52.492 205.984 52.492C205.984 52.0875 205.984 51.683 205.984 51.2662C206.887 51.1904 206.887 51.1904 207.808 51.113C207.858 46.5622 207.908 42.0114 207.96 37.3227C207.308 37.3227 206.656 37.3227 205.984 37.3227C205.984 36.9181 205.984 36.5136 205.984 36.0969C206.144 36.0743 206.144 36.0743 206.307 36.0514C207.026 35.9372 207.654 35.8272 208.293 35.4648C208.913 35.1154 209.386 35.127 210.088 35.1775ZM210.088 38.5485C210.018 39.0481 210.018 39.0481 210.028 39.6228C210.027 39.7281 210.027 39.8334 210.026 39.9419C210.026 40.1648 210.027 40.3878 210.029 40.6107C210.031 40.9484 210.029 41.2858 210.026 41.6235C210.007 43.4179 210.007 43.4179 210.795 44.9875C210.925 45.0901 210.925 45.0901 211.057 45.1946C211.143 45.2654 211.229 45.3361 211.318 45.4089C212.232 45.9996 213.136 46.0115 214.193 45.9033C215.398 45.5792 216.139 44.6252 216.758 43.5858C217.318 42.0312 217.148 40.236 216.625 38.7017C216.204 37.898 215.632 37.2352 214.801 36.863C213.326 36.5545 211.013 37.2643 210.088 38.5485Z" fill="#363334"/>
<path d="M108.389 30.274C109.527 30.2668 110.664 30.2614 111.802 30.2581C112.331 30.2565 112.86 30.2544 113.388 30.2509C113.998 30.2468 114.608 30.2454 115.218 30.2441C115.404 30.2425 115.591 30.2409 115.784 30.2393C117.809 30.239 119.736 30.4103 121.291 31.8445C122.347 33.0266 122.507 34.2292 122.443 35.7733C122.376 36.6109 122.092 37.2515 121.614 37.9353C121.527 38.0686 121.527 38.0686 121.437 38.2046C120.576 39.3795 119.386 39.7927 117.997 40.005C116.283 40.2061 114.52 40.1148 112.797 40.0804C112.811 40.7648 112.828 41.449 112.845 42.1332C112.851 42.3658 112.857 42.5984 112.861 42.831C112.868 43.1661 112.877 43.5012 112.886 43.8363C112.893 44.1384 112.893 44.1384 112.901 44.4466C112.946 44.9524 113.013 45.3051 113.253 45.7498C113.652 45.9088 113.652 45.9088 114.108 45.9509C114.261 45.9724 114.413 45.994 114.57 46.0161C114.746 46.036 114.746 46.036 114.925 46.0562C114.925 46.4102 114.925 46.7641 114.925 47.1288C112.768 47.1288 110.611 47.1288 108.389 47.1288C108.389 46.7749 108.389 46.4209 108.389 46.0562C108.495 46.0377 108.601 46.0191 108.711 46C108.849 45.9743 108.987 45.9486 109.13 45.9222C109.267 45.8973 109.405 45.8724 109.547 45.8467C109.934 45.7758 109.934 45.7758 110.213 45.4433C110.241 45.0048 110.251 44.5812 110.247 44.1426C110.247 44.0081 110.247 43.8735 110.248 43.7349C110.247 43.2888 110.245 42.8428 110.243 42.3968C110.242 42.088 110.242 41.7793 110.241 41.4705C110.24 40.6569 110.237 39.8433 110.234 39.0296C110.231 38.1998 110.229 37.3699 110.228 36.5401C110.224 34.911 110.219 33.282 110.213 31.653C109.611 31.6024 109.009 31.5519 108.389 31.4998C108.389 31.0953 108.389 30.6908 108.389 30.274ZM112.797 31.653C112.797 33.9284 112.797 36.2038 112.797 38.5482C113.5 38.5577 114.202 38.5671 114.925 38.5769C115.145 38.5811 115.364 38.5853 115.589 38.5896C117.262 38.6014 117.262 38.6014 118.724 37.8521C119.486 36.8988 119.882 35.9933 119.833 34.7534C119.708 33.7614 119.358 33.0513 118.574 32.4191C117.015 31.2653 114.572 31.653 112.797 31.653Z" fill="#363334"/>
<path d="M82.8739 30.2593C83.2598 30.2628 83.6457 30.2663 84.0315 30.2698C84.1933 30.2713 84.3551 30.2727 84.5218 30.2742C85.4092 32.5415 86.2502 34.8253 87.0871 37.1119C87.2171 37.4669 87.3471 37.8218 87.4772 38.1767C87.5413 38.3518 87.6055 38.5268 87.6716 38.7071C87.8633 39.2298 88.0556 39.7523 88.2478 40.2748C88.5032 40.9692 88.7555 41.6647 89.0059 42.361C89.1267 42.6938 89.2476 43.0267 89.3685 43.3595C89.4227 43.5123 89.477 43.6651 89.5328 43.8225C89.8005 44.5548 90.0353 45.195 90.6025 45.75C91.1535 45.9582 91.1535 45.9582 91.6666 46.0565C91.6666 46.4105 91.6666 46.7644 91.6666 47.1291C89.7101 47.1291 87.7537 47.1291 85.7379 47.1291C85.7379 46.0565 85.7379 46.0565 85.8899 45.9033C86.2446 45.8522 86.5994 45.8011 86.9541 45.75C87.0042 45.6995 87.0544 45.6489 87.1061 45.5968C87.041 44.5659 86.7479 43.6564 86.4125 42.6855C86.2401 42.1799 86.0676 41.6742 85.8899 41.1533C82.9552 41.0774 82.9552 41.0774 79.9612 41C79.8107 41.5563 79.6603 42.1125 79.5052 42.6855C79.3115 43.2433 79.1048 43.794 78.8953 44.3459C78.7546 44.8 78.7001 45.1261 78.7451 45.5968C78.9831 45.8368 79.2658 45.8437 79.5907 45.9128C79.7791 45.9534 79.7791 45.9534 79.9713 45.9948C80.0683 46.0152 80.1653 46.0355 80.2653 46.0565C80.2653 46.4105 80.2653 46.7644 80.2653 47.1291C78.5596 47.1291 76.854 47.1291 75.0967 47.1291C75.0967 46.7751 75.0967 46.4212 75.0967 46.0565C75.1831 46.0518 75.2695 46.047 75.3586 46.0421C75.8102 45.9631 76.0789 45.853 76.4648 45.5968C76.6725 45.2277 76.8316 44.895 76.985 44.5043C77.0523 44.3408 77.0523 44.3408 77.1211 44.1739C77.2605 43.8323 77.3955 43.4892 77.529 43.1452C77.5694 43.0413 77.6099 42.9373 77.6515 42.8302C77.9334 42.0999 78.2028 41.3652 78.4708 40.6296C78.556 40.3973 78.6412 40.1651 78.7266 39.933C78.9483 39.3292 79.1692 38.7251 79.3899 38.1209C79.6574 37.3891 79.9258 36.6577 80.1941 35.9262C80.403 35.3567 80.6118 34.7872 80.82 34.2175C81.1787 33.2367 81.54 32.2568 81.9083 31.2796C81.969 31.1186 82.0296 30.9577 82.0921 30.7919C82.3032 30.2771 82.3032 30.2771 82.8739 30.2593ZM82.8496 32.8791C82.5242 33.7897 82.1995 34.7007 81.8753 35.6118C81.7649 35.9219 81.6543 36.2319 81.5436 36.5419C81.3846 36.9867 81.2263 37.4318 81.0681 37.8769C81.0182 38.0161 80.9684 38.1552 80.917 38.2987C80.8485 38.4919 80.8485 38.4919 80.7786 38.689C80.7381 38.8027 80.6976 38.9163 80.6559 39.0334C80.5543 39.3143 80.5543 39.3143 80.5693 39.621C82.1245 39.621 83.6796 39.621 85.2819 39.621C85.0809 38.7094 84.8756 37.8782 84.5598 37.012C84.5204 36.9024 84.4811 36.7929 84.4406 36.68C84.3582 36.4513 84.2754 36.2228 84.1922 35.9944C84.0648 35.6443 83.9393 35.2934 83.8139 34.9425C83.7333 34.7193 83.6525 34.4962 83.5717 34.2731C83.5343 34.1684 83.4969 34.0637 83.4584 33.9558C83.2976 33.5176 83.1814 33.2135 82.8496 32.8791Z" fill="#363334"/>
<path d="M164.483 31.1937C164.634 30.8903 164.784 30.5869 164.939 30.2743C165.29 30.2743 165.642 30.2743 166.003 30.2743C167.18 34.2536 167.18 34.2536 167.524 35.9437C167.047 36.2283 166.707 36.281 166.155 36.2501C166.069 36.0745 165.983 35.8989 165.894 35.718C164.868 33.6727 163.987 32.4059 161.747 31.6533C159.875 31.5227 158.485 31.6408 156.996 32.8983C155.438 34.4173 154.766 36.3865 154.678 38.5485C154.765 40.6834 155.447 42.7872 157.015 44.2789C158.535 45.4317 160.034 45.7586 161.899 45.5969C163.901 45.1493 165.525 44.0095 166.763 42.3791C167.272 42.49 167.576 42.6576 167.98 42.992C167.649 43.721 167.153 44.2522 166.611 44.8308C166.527 44.9214 166.443 45.0121 166.357 45.1055C164.69 46.7329 162.512 47.4156 160.246 47.4835C157.765 47.4397 155.866 46.6167 154.146 44.8308C152.548 43.017 151.802 40.8942 151.843 38.4677C151.995 35.9228 152.997 33.7385 154.826 31.9807C157.693 29.5377 161.281 29.4298 164.483 31.1937Z" fill="#363334"/>
<path d="M129.519 35.4839C131.475 35.4839 133.432 35.4839 135.448 35.4839C135.448 35.8378 135.448 36.1918 135.448 36.5565C134.77 36.6323 134.77 36.6323 134.079 36.7097C133.891 37.3623 133.968 37.708 134.236 38.3251C134.306 38.49 134.377 38.6548 134.449 38.8246C134.525 38.9958 134.6 39.1669 134.678 39.3433C134.748 39.5067 134.819 39.6702 134.891 39.8386C135.125 40.3801 135.362 40.9201 135.6 41.4597C135.709 41.7088 135.819 41.9579 135.929 42.207C136.224 42.8775 136.52 43.5477 136.816 44.2178C137.179 43.346 137.542 42.4737 137.903 41.601C138.026 41.3046 138.149 41.0082 138.273 40.712C138.451 40.2849 138.628 39.8572 138.805 39.4295C138.86 39.2984 138.915 39.1673 138.972 39.0322C139.287 38.2654 139.525 37.5203 139.704 36.7097C138.876 36.6338 138.876 36.6338 138.032 36.5565C138.032 36.2025 138.032 35.8486 138.032 35.4839C139.687 35.4839 141.343 35.4839 143.049 35.4839C143.049 35.8378 143.049 36.1918 143.049 36.5565C142.848 36.5565 142.647 36.5565 142.44 36.5565C141.891 36.6874 141.718 36.8054 141.401 37.2847C141.309 37.4721 141.22 37.6611 141.133 37.8511C141.058 38.0104 141.058 38.0104 140.98 38.1729C140.174 39.8977 139.457 41.6653 138.726 43.4229C137.018 47.5198 137.018 47.5198 136.217 49.2479C136.164 49.3631 136.111 49.4783 136.057 49.597C135.453 50.8752 134.613 52.0535 133.246 52.5602C132.11 52.8123 130.921 52.8372 129.903 52.2148C129.535 51.9253 129.367 51.7149 129.215 51.2661C129.204 50.8179 129.265 50.4872 129.367 50.0403C129.902 49.6805 130.104 49.6575 130.735 49.7339C131.153 50.0074 131.153 50.0074 131.562 50.3564C132.205 50.8624 132.205 50.8624 132.996 51.0076C133.93 50.6124 134.363 49.8842 134.802 48.9965C134.892 48.8185 134.982 48.6406 135.075 48.4572C135.412 47.6001 135.543 46.9739 135.268 46.0987C135.178 45.9015 135.085 45.7057 134.989 45.5112C134.939 45.4042 134.89 45.2971 134.839 45.1868C134.677 44.8401 134.511 44.4955 134.346 44.1507C134.233 43.9115 134.121 43.6722 134.009 43.4327C133.84 43.071 133.672 42.7094 133.501 42.3482C132.923 41.1181 132.385 39.8716 131.855 38.6197C131.793 38.4763 131.731 38.3328 131.668 38.1851C131.59 38.0004 131.59 38.0004 131.51 37.8119C131.265 37.3175 131.07 36.9306 130.543 36.736C130.422 36.7147 130.3 36.6934 130.175 36.6714C130.052 36.6485 129.929 36.6256 129.802 36.602C129.709 36.5869 129.615 36.5719 129.519 36.5565C129.519 36.2025 129.519 35.8486 129.519 35.4839Z" fill="#363334"/>
<path d="M179.039 36.049C180.271 36.9384 181.036 38.2903 181.357 39.7743C181.527 41.947 181.403 43.8577 179.989 45.5969C178.92 46.7696 177.591 47.3503 176.022 47.4721C174.475 47.5061 172.805 47.3252 171.56 46.3002C170.086 44.7771 169.556 43.032 169.58 40.9475C169.653 39.0727 170.321 37.6469 171.666 36.365C173.675 34.7096 176.889 34.7301 179.039 36.049ZM173.564 37.1575C172.289 38.5358 172.034 40.0039 172.051 41.8494C172.144 43.3319 172.507 44.5187 173.585 45.5586C174.382 46.1367 175.06 46.2946 176.037 46.2098C176.936 46.0288 177.516 45.6149 178.082 44.8924C179.108 43.282 179.156 41.2861 178.842 39.4427C178.55 38.3639 178.049 37.4793 177.101 36.863C175.83 36.3366 174.68 36.2019 173.564 37.1575Z" fill="#363334"/>
<path d="M230.962 36.1829C232.128 37.1575 232.834 38.5841 233.043 40.0806C233.19 42.162 232.935 43.8826 231.675 45.5967C230.58 46.8383 229.186 47.3574 227.564 47.4666C225.831 47.4926 224.352 47.2242 223.01 46.0564C221.5 44.4462 221.265 42.6595 221.295 40.5421C221.359 38.8219 222.129 37.5179 223.361 36.3649C225.459 34.6447 228.757 34.7166 230.962 36.1829ZM225.176 37.1981C224.147 38.4949 223.709 39.6915 223.722 41.3543C223.723 41.4676 223.724 41.5808 223.725 41.6975C223.754 43.067 223.979 44.4448 224.986 45.4435C225.858 46.0891 226.652 46.2981 227.722 46.2096C228.672 45.9477 229.269 45.5232 229.818 44.7007C230.702 43.1213 230.845 41.2812 230.501 39.5198C230.164 38.3248 229.795 37.5022 228.739 36.815C227.497 36.1712 226.259 36.3302 225.176 37.1981Z" fill="#363334"/>
<path d="M242.468 35.9437C242.568 35.792 242.669 35.6403 242.772 35.484C243.323 35.4553 243.323 35.4553 243.836 35.484C244.014 36.0648 244.191 36.6459 244.368 37.227C244.419 37.3925 244.47 37.558 244.522 37.7286C244.57 37.8866 244.618 38.0446 244.668 38.2074C244.712 38.3534 244.757 38.4995 244.803 38.6499C244.9 39.0082 244.9 39.0082 244.9 39.3147C244.499 39.4158 244.098 39.5169 243.684 39.6211C243.62 39.5212 243.555 39.4212 243.489 39.3183C242.681 38.1053 241.804 36.9961 240.331 36.6326C239.427 36.4827 238.744 36.6636 237.908 37.0163C237.867 37.2028 237.826 37.3892 237.784 37.5813C237.761 37.6862 237.738 37.7911 237.715 37.8991C237.781 38.4577 238.095 38.6601 238.516 39.0082C239.006 39.2635 239.006 39.2635 239.551 39.4583C239.65 39.4964 239.748 39.5344 239.85 39.5735C240.375 39.7751 240.904 39.9668 241.433 40.158C244.705 41.3475 244.705 41.3475 245.39 42.6342C245.669 43.4748 245.689 44.3638 245.368 45.1941C244.756 46.2542 243.914 46.8638 242.772 47.2824C241.205 47.6535 239.61 47.4787 238.183 46.7174C238.092 46.651 238.001 46.5847 237.908 46.5163C237.807 46.7186 237.707 46.9208 237.604 47.1292C237.252 47.1292 236.901 47.1292 236.539 47.1292C236.343 46.6378 236.146 46.1461 235.95 45.6544C235.895 45.5159 235.839 45.3775 235.782 45.2348C235.507 44.544 235.242 43.8557 235.019 43.1453C235.83 42.681 235.83 42.681 236.232 42.6994C236.68 42.9025 236.828 43.2105 237.091 43.6242C237.815 44.6701 238.632 45.3256 239.798 45.8172C240.767 45.9714 241.643 46.0828 242.544 45.6448C242.941 45.2749 243.191 45.0363 243.38 44.5244C243.371 44.0051 243.365 43.8552 243.076 43.4518C241.949 42.6173 240.45 42.2205 239.138 41.7765C237.695 41.2744 236.326 40.6681 235.589 39.2572C235.333 38.354 235.439 37.6575 235.883 36.8511C236.44 36.0341 237.17 35.5223 238.112 35.2494C239.643 34.9769 241.158 35.0634 242.468 35.9437Z" fill="#363334"/>
<path d="M273.178 35.9709C274.108 36.6592 274.651 37.819 274.949 38.9211C275.012 39.4058 275 39.898 275 40.3869C272.241 40.3869 269.482 40.3869 266.639 40.3869C266.807 43.057 266.807 43.057 268.172 45.1991C268.875 45.7886 269.669 45.9927 270.583 45.9443C271.851 45.7767 272.621 45.21 273.574 44.3648C273.936 44.0643 273.936 44.0643 274.392 43.9111C274.724 44.1313 274.724 44.1313 275 44.3707C274.864 45.2142 274.252 45.6766 273.632 46.2095C272.176 47.252 270.853 47.5947 269.071 47.4353C267.338 47.1014 266.017 46.3261 265.01 44.8532C264.014 43.1702 263.898 41.387 264.238 39.4795C264.639 37.9097 265.516 36.6972 266.878 35.8398C268.819 34.7735 271.284 34.8533 273.178 35.9709ZM267.753 37.2404C267.283 37.7882 266.943 38.2806 266.943 39.0078C268.799 39.0078 270.655 39.0078 272.568 39.0078C272.456 37.9677 272.456 37.9677 271.96 37.1691C270.635 36.2079 269.043 36.1015 267.753 37.2404Z" fill="#353334"/>
<path d="M127.239 29.355C127.24 29.5514 127.242 29.7478 127.244 29.9501C127.258 31.7989 127.274 33.6477 127.29 35.4965C127.299 36.4471 127.307 37.3976 127.314 38.3481C127.322 39.2652 127.33 40.1821 127.338 41.0991C127.341 41.4493 127.344 41.7995 127.347 42.1497C127.35 42.6394 127.355 43.1292 127.36 43.619C127.361 43.837 127.361 43.837 127.362 44.0595C127.364 44.1931 127.365 44.3267 127.367 44.4644C127.368 44.5803 127.369 44.6961 127.37 44.8154C127.385 45.1902 127.385 45.1902 127.543 45.7502C128.145 45.8513 128.747 45.9525 129.367 46.0566C129.367 46.4106 129.367 46.7646 129.367 47.1292C127.31 47.1292 125.253 47.1292 123.134 47.1292C123.134 46.7753 123.134 46.4213 123.134 46.0566C123.962 45.905 123.962 45.905 124.806 45.7502C124.968 45.0975 124.985 44.4968 124.99 43.8299C124.992 43.6325 124.992 43.6325 124.994 43.4311C124.999 42.9967 125.003 42.5623 125.007 42.1278C125.01 41.8264 125.013 41.525 125.016 41.2235C125.025 40.4306 125.032 39.6376 125.039 38.8446C125.047 38.0353 125.055 37.2259 125.064 36.4166C125.08 34.8289 125.096 33.2412 125.111 31.6534C124.458 31.6534 123.806 31.6534 123.134 31.6534C123.134 31.2489 123.134 30.8444 123.134 30.4276C123.303 30.3759 123.471 30.3241 123.645 30.2708C123.867 30.2018 124.09 30.1328 124.312 30.0637C124.479 30.0127 124.479 30.0127 124.649 29.9608C125.284 29.7664 125.284 29.7664 125.882 29.4831C126.327 29.2884 126.76 29.3476 127.239 29.355Z" fill="#363334"/>
<path d="M257.822 31.3467C258.173 31.3467 258.524 31.3467 258.886 31.3467C258.886 32.7119 258.886 34.0772 258.886 35.4838C260.04 35.4838 261.194 35.4838 262.383 35.4838C262.383 35.8883 262.383 36.2928 262.383 36.7096C261.229 36.7096 260.075 36.7096 258.886 36.7096C258.901 37.8493 258.917 38.989 258.934 40.1287C258.94 40.5163 258.945 40.9039 258.95 41.2915C258.957 41.8492 258.966 42.4067 258.975 42.9643C258.977 43.1372 258.979 43.3101 258.981 43.4882C258.996 44.6499 258.996 44.6499 259.342 45.7499C259.603 45.9086 259.603 45.9086 259.95 45.9031C260.111 45.913 260.272 45.9229 260.438 45.9331C261.088 45.8993 261.489 45.7329 262.069 45.4435C262.243 45.3581 262.417 45.2728 262.596 45.1849C262.726 45.1185 262.856 45.0522 262.991 44.9838C262.991 45.4389 262.991 45.8939 262.991 46.3628C262.7 46.5136 262.408 46.6635 262.117 46.8129C261.954 46.8965 261.792 46.98 261.625 47.0661C260.6 47.5491 259.463 47.6193 258.383 47.2534C257.701 46.9577 257.22 46.5373 256.892 45.8569C256.743 45.3984 256.721 45.0365 256.723 44.5547C256.723 44.2925 256.723 44.2925 256.723 44.025C256.725 43.8379 256.727 43.6509 256.728 43.4581C256.729 43.2653 256.729 43.0726 256.729 42.8739C256.731 42.3633 256.734 41.8528 256.737 41.3422C256.74 40.8204 256.742 40.2986 256.743 39.7768C256.746 38.7544 256.752 37.732 256.758 36.7096C256.056 36.7096 255.353 36.7096 254.63 36.7096C254.63 36.3556 254.63 36.0017 254.63 35.637C254.751 35.5866 254.872 35.5363 254.997 35.4844C256.127 34.9728 256.877 34.5136 257.366 33.3386C257.558 32.6804 257.704 32.0222 257.822 31.3467Z" fill="#363334"/>
<path d="M251.589 35.1775C251.591 35.3694 251.591 35.3694 251.593 35.5651C251.605 36.7692 251.618 37.9732 251.633 39.1772C251.641 39.7962 251.648 40.4153 251.653 41.0343C251.659 41.6314 251.666 42.2285 251.674 42.8256C251.677 43.0537 251.679 43.2818 251.681 43.5099C251.684 43.8288 251.688 44.1476 251.693 44.4664C251.695 44.6481 251.697 44.8298 251.699 45.017C251.698 45.4649 251.698 45.4649 252.045 45.75C252.414 45.8541 252.414 45.8541 252.824 45.9224C252.963 45.9481 253.101 45.9738 253.244 46.0002C253.403 46.0281 253.403 46.0281 253.565 46.0565C253.565 46.4104 253.565 46.7644 253.565 47.1291C251.509 47.1291 249.452 47.1291 247.333 47.1291C247.333 46.7751 247.333 46.4212 247.333 46.0565C247.45 46.0415 247.567 46.0265 247.688 46.011C247.84 45.9881 247.993 45.9652 248.15 45.9416C248.377 45.9096 248.377 45.9096 248.609 45.8769C249.017 45.7922 249.017 45.7922 249.179 45.4848C249.328 45.0861 249.351 44.7762 249.357 44.3502C249.36 44.1938 249.364 44.0374 249.367 43.8762C249.368 43.7085 249.37 43.5407 249.372 43.3679C249.375 43.1953 249.378 43.0227 249.381 42.8449C249.39 42.2938 249.397 41.7427 249.404 41.1916C249.41 40.8179 249.416 40.4442 249.422 40.0705C249.436 39.1546 249.449 38.2386 249.461 37.3226C248.759 37.3226 248.056 37.3226 247.333 37.3226C247.333 36.9181 247.333 36.5136 247.333 36.0968C247.463 36.069 247.593 36.0411 247.728 36.0124C248.836 35.7827 248.836 35.7827 249.889 35.3786C250.501 35.1243 250.93 35.1631 251.589 35.1775Z" fill="#363334"/>
<path d="M41.5007 30.4276C41.6512 30.5287 41.8017 30.6299 41.9568 30.734C41.9568 30.8352 41.9568 30.9363 41.9568 31.0405C41.1956 31.4393 40.433 31.8347 39.6687 32.2273C39.4091 32.3612 39.1498 32.496 38.8911 32.6318C38.5186 32.8269 38.1447 33.0188 37.7703 33.2102C37.6553 33.2713 37.5403 33.3324 37.4219 33.3954C36.8969 33.6602 36.5721 33.8005 35.9762 33.7875C35.5691 33.6443 35.3791 33.5245 35.116 33.1857C36.0871 32.6463 37.06 32.1105 38.0353 31.5789C38.2949 31.4373 38.5541 31.2951 38.8129 31.1521C39.0995 30.9943 39.3876 30.8396 39.6765 30.6862C39.8333 30.6014 39.99 30.5167 40.1516 30.4294C40.6765 30.2432 40.9692 30.2765 41.5007 30.4276Z" fill="#45902D"/>
<path d="M251.437 29.9676C251.888 30.349 251.894 30.5863 251.969 31.1839C251.948 31.6992 251.889 31.8128 251.57 32.2564C251.08 32.6112 250.824 32.7257 250.221 32.7257C249.735 32.5465 249.416 32.4076 249.1 31.9883C248.925 31.3714 248.934 30.9077 249.176 30.3124C249.829 29.5225 250.551 29.5968 251.437 29.9676Z" fill="#353233"/>
<path d="M52.7501 33.645C53.0352 33.8844 53.0352 33.8844 53.2062 34.1047C52.6679 34.4018 52.1295 34.6986 51.591 34.9953C51.4391 35.0792 51.2873 35.163 51.1308 35.2494C50.7085 35.482 50.2852 35.7128 49.8618 35.9434C49.7646 35.9979 49.6674 36.0524 49.5672 36.1086C49.1178 36.3526 48.9878 36.4106 48.4651 36.3073C48.0717 36.1134 47.874 35.9517 47.5815 35.637C48.1694 35.3255 48.7589 35.0173 49.35 34.712C49.5507 34.6078 49.7509 34.5027 49.9507 34.3968C50.2386 34.2442 50.528 34.0949 50.8179 33.9461C50.9914 33.8554 51.165 33.7647 51.3438 33.6713C51.905 33.4675 52.1848 33.4654 52.7501 33.645Z" fill="#448F2D"/>
<path d="M49.5578 26.597C49.4058 27.0566 49.4058 27.0566 49.096 27.2563C48.9625 27.3215 48.829 27.3868 48.6915 27.4541C48.5452 27.5266 48.3989 27.599 48.2482 27.6737C48.0941 27.7482 47.9399 27.8227 47.7811 27.8994C47.63 27.9738 47.4788 28.0483 47.323 28.125C47.031 28.2687 46.7386 28.4114 46.4455 28.5528C46.1371 28.7048 45.8348 28.8691 45.5347 29.0372C45.1493 29.2018 45.1493 29.2018 44.8275 29.1461C44.5801 29.0115 44.3326 28.8768 44.0852 28.7421C44.3273 28.01 44.9458 27.8651 45.6036 27.5265C45.7399 27.4581 45.7399 27.4581 45.8789 27.3883C46.1538 27.2495 46.4261 27.1063 46.6986 26.9627C46.8728 26.8744 47.047 26.7861 47.2265 26.6951C47.4651 26.5731 47.4651 26.5731 47.7085 26.4487C48.3675 26.2321 48.9352 26.2832 49.5578 26.597Z" fill="#458F2D"/>
</g>
<defs>
<clipPath id="clip0_1793_7559">
<rect width="275" height="82" fill="white"/>
</clipPath>
</defs>
</svg>
