<svg width="1919" height="815" viewBox="0 0 1919 815" fill="none" xmlns="http://www.w3.org/2000/svg">
<g clip-path="url(#clip0_1558_7548)">
<rect width="1919" height="815" fill="url(#paint0_linear_1558_7548)"/>
<g opacity="0.5">
<path opacity="0.1" d="M-114.272 332.451C-122.787 307.661 -122.936 276.187 -114.64 249.84L-114.238 248.589C-93.0888 183.939 -29.6061 143.509 33.8952 155.475C98.4753 167.645 146.394 229.253 142.573 296.983L142.492 298.294C140.629 325.854 129.035 355.115 112.083 375.106C101.792 387.24 89.2203 398.922 75.7427 406.327L75.7415 406.328C51.841 419.463 28.3109 426.778 -1.20976 425.034L-1.92893 424.985C-5.64932 424.7 -11.9488 423.794 -16.43 423.125C-19.9397 422.283 -23.4413 421.318 -26.9222 420.189L-26.9232 420.189C-55.0544 411.069 -74.3075 395.692 -91.7884 374.758L-91.7882 374.757C-101.647 362.954 -109.104 347.499 -114.272 332.451ZM-27.0115 480.854L-25.4788 481.153L-25.4424 481.16L-19.2327 482.316L-4.4863 526.698L-3.53327 529.566L-0.526441 529.873C8.2512 530.772 16.5324 530.143 24.2968 529.255C32.2198 528.348 39.2719 527.227 46.4133 526.915L50.1519 526.751L50.8111 523.068L59.1228 476.635C63.122 475.415 66.7455 474.115 70.231 472.828C73.8186 471.503 77.2094 470.218 80.8098 469.003C82.1432 470.064 83.9913 471.649 86.2611 473.677C89.6184 476.677 93.5809 480.349 97.5631 484.034C101.524 487.7 105.507 491.38 108.84 494.328C110.506 495.801 112.045 497.123 113.36 498.185C114.599 499.184 115.883 500.154 116.964 500.742L119.099 501.904L121.276 500.823C129.384 496.799 135.044 492.762 141.628 488.594L141.629 488.594C146.648 485.415 156.666 478.071 160.579 474.169L162.349 472.403L161.863 469.949C161.326 467.246 159.999 463.438 158.714 459.986C157.491 456.703 155.86 452.598 155.096 450.569C154.019 447.705 152.972 444.66 151.884 441.508C150.806 438.383 149.689 435.158 148.505 432.048L148.505 432.047C147.717 429.98 147.137 428.514 146.673 427.256C146.23 426.055 146.02 425.367 145.927 424.929C145.941 424.912 145.955 424.893 145.971 424.874C147.244 423.355 152.673 418.93 160.7 408.006L206.517 417.242L209.021 417.747L210.798 415.913C212.61 414.042 214.689 410.854 216.698 407.401C218.782 403.821 221.024 399.543 223.144 395.179C227.311 386.601 231.282 377.133 232.509 371.847L233.109 369.265L231.201 367.425C226.028 362.438 217.769 356 211.927 351.122L211.926 351.12C209.864 349.4 205.504 345.992 201.899 343.04C200.003 341.487 198.199 339.969 196.723 338.639C196.114 338.09 195.601 337.609 195.18 337.196L199.681 315.042L237.688 302.073C238.485 301.835 239.602 301.533 240.767 301.125L240.986 301.049L241.196 300.95L244.659 299.336L247.203 298.151L247.352 295.349C248.107 281.204 246.812 261.366 243.974 248.301L243.31 245.247L240.233 244.694L194.013 236.376C192.754 232.182 191.057 227.346 189.555 223.158C188.606 220.512 187.744 218.149 187.065 216.229C186.849 215.617 186.659 215.067 186.495 214.584C188.034 212.584 190.186 210.115 192.55 207.523C195.669 204.102 198.71 200.941 201.006 198.459C202.422 196.929 206.255 192.856 209.876 188.81C211.688 186.786 213.487 184.723 214.935 182.951C215.657 182.066 216.323 181.216 216.87 180.456C217.365 179.77 217.949 178.903 218.328 178.052L219.189 176.118L218.304 174.195C215.778 168.711 210.705 160.426 205.596 152.917C200.545 145.494 195.019 138.178 191.497 134.917L189.937 133.473L187.822 133.7C185.323 133.969 181.588 135.168 177.756 136.535C173.743 137.968 169.018 139.814 164.285 141.672C155.868 144.975 147.723 148.18 142.644 149.632C141.718 148.814 140.762 147.917 139.755 146.955C138.162 145.433 136.402 143.711 134.627 142.135L134.626 142.133C132.683 140.41 130.718 138.872 128.864 137.424C127.711 136.524 126.601 135.657 125.512 134.771L134.756 88.8374L135.397 85.6549L132.638 83.9434L123.321 78.1651L123.235 78.1111L123.147 78.0617C119.466 75.9946 112.824 72.519 106.233 69.4664C102.937 67.9401 99.5964 66.4929 96.6121 65.3758C93.7473 64.3034 90.8105 63.3784 88.4782 63.1504L86.0466 62.9128L84.4636 64.7739L54.29 100.235C53.3386 100.043 52.2859 99.8332 51.2042 99.6139L51.2427 99.4095L46.5343 98.6236C46.3297 98.5894 45.3723 98.423 45.0038 98.361C44.0248 98.1619 43.4412 98.0543 42.8147 97.9226L39.516 97.2285L24.4006 53.4555L23.6027 51.1457L21.2513 50.482C18.996 49.8456 15.9239 49.6382 12.8654 49.5944C9.67911 49.5487 6.04092 49.6808 2.41559 49.9029C-4.83472 50.3471 -12.2863 51.1668 -16.4664 51.7527L-16.5665 51.7666L-16.6664 51.7856L-27.4462 53.7769L-30.64 54.3666L-31.2017 57.5639L-39.3095 103.711C-40.6461 104.141 -41.9957 104.544 -43.3972 104.963C-45.6509 105.637 -48.0406 106.354 -50.4778 107.252L-50.4789 107.253C-52.7056 108.075 -54.972 109.038 -57.0102 109.876C-58.2982 110.406 -59.5152 110.893 -60.6765 111.318C-64.8781 108.117 -71.2979 102.168 -77.9347 96.0282C-81.6668 92.5754 -85.3948 89.1351 -88.6115 86.3405C-91.6832 83.6719 -94.7252 81.1961 -96.9555 80.0359L-98.8425 79.0542L-100.823 79.8319C-105.289 81.5868 -113.099 86.3905 -120.505 91.4654C-127.997 96.5998 -135.738 102.47 -140.086 106.659L-141.611 108.128L-141.512 110.243C-141.469 111.174 -141.239 112.194 -141.029 113.013C-140.796 113.92 -140.485 114.954 -140.134 116.041C-139.431 118.219 -138.505 120.795 -137.555 123.339C-135.655 128.425 -133.568 133.614 -132.807 135.554C-131.576 138.692 -129.888 142.759 -128.234 147.072C-126.977 150.346 -125.873 153.431 -125.167 155.854C-125.497 156.246 -125.875 156.69 -126.3 157.182C-127.631 158.724 -129.292 160.612 -131.138 162.731C-134.059 166.085 -137.397 169.97 -140.095 173.416L-186.17 164.341L-189.236 163.737L-190.966 166.34C-198.364 177.476 -206.791 195.482 -211.236 208.932L-212.117 211.596L-210.18 213.625L-207.541 216.389L-207.381 216.558L-207.206 216.708C-206.269 217.512 -205.339 218.2 -204.683 218.712L-174.004 244.624L-177.882 266.894C-178.425 267.125 -179.079 267.388 -179.847 267.678C-181.706 268.38 -183.937 269.137 -186.267 269.894C-190.693 271.331 -195.998 272.921 -198.539 273.771L-198.54 273.772C-205.757 276.189 -215.793 279.18 -222.425 281.943L-224.873 282.962L-225.254 285.585C-226.035 290.955 -225.782 301.219 -225.022 310.726C-224.636 315.561 -224.106 320.363 -223.468 324.455C-222.854 328.403 -222.077 332.129 -221.07 334.531L-220.082 336.885L-217.566 337.327L-171.532 345.399C-168.032 358.495 -164.584 364.594 -163.951 366.471C-163.943 366.495 -163.938 366.518 -163.931 366.539C-164.177 366.913 -164.623 367.478 -165.472 368.436C-166.362 369.438 -167.436 370.593 -168.921 372.231L-168.922 372.231C-171.157 374.697 -173.371 377.294 -175.513 379.813C-177.673 382.352 -179.756 384.806 -181.801 387.082L-183.146 388.56C-184.715 390.271 -186.849 392.578 -188.599 394.538C-191.053 397.285 -193.675 400.348 -195.158 402.671L-196.505 404.779L-195.497 407.069C-193.412 411.812 -187.431 421.324 -183.793 426.44L-183.098 427.401L-183.097 427.403C-178.481 433.68 -174.679 439.501 -168.593 446.2L-166.957 447.999L-164.545 447.694C-163.324 447.539 -161.776 447.103 -160.259 446.623C-158.648 446.113 -156.733 445.442 -154.645 444.676C-150.468 443.143 -145.419 441.165 -140.395 439.193C-135.345 437.21 -130.318 435.231 -126.099 433.66C-123.247 432.597 -120.948 431.793 -119.32 431.29C-116.409 433.732 -113.718 436.163 -110.859 438.703C-108.081 441.17 -105.179 443.7 -101.899 446.292L-111.056 492.566L-111.782 496.236L-108.361 497.749C-101.822 500.639 -95.6613 504.25 -88.6115 507.978C-81.7031 511.631 -74.2192 515.231 -65.717 517.589L-62.8036 518.397L-60.8718 516.072L-30.9858 480.102L-29.3714 480.41L-27.0115 480.854Z" stroke="#08658C" stroke-width="9.34871"/>
</g>
<g opacity="0.5" clip-path="url(#clip1_1558_7548)">
<path opacity="0.1" d="M1923.09 971.057L1921.12 968.309L1920.92 968.028L1920.75 967.728C1920.18 966.74 1919.67 965.706 1919.38 965.132L1902.71 935.656L1885.93 935.423C1885.89 935.489 1885.84 935.555 1885.8 935.623C1884.92 937.07 1883.92 938.843 1882.89 940.731C1881 944.187 1878.63 948.77 1877.5 950.796L1877.5 950.798C1874.3 956.525 1869.94 964.984 1866.38 970.414L1864.21 973.72L1860.27 973.554C1855.12 973.338 1845.97 971.352 1837.83 969.132C1833.64 967.99 1829.48 966.72 1825.95 965.465C1822.62 964.283 1819.21 962.9 1816.97 961.42L1813.8 959.323L1813.85 955.521L1814.35 915.925C1806.69 912.112 1802.01 908.862 1799.91 907.385C1799.82 907.436 1799.73 907.49 1799.63 907.549C1798.62 908.15 1797.5 908.86 1795.79 909.912L1795.79 909.913C1793.24 911.48 1790.58 913.002 1788.04 914.451C1785.47 915.92 1783.04 917.308 1780.76 918.69C1779.32 919.566 1775.7 921.856 1773.16 923.388C1770.4 925.058 1767.12 926.957 1764.61 927.965L1761.15 929.357L1758.08 927.247C1754.06 924.493 1746.61 917.565 1742.7 913.494L1741.97 912.72L1741.96 912.719C1737.37 907.789 1732.76 903.341 1727.82 896.791L1725.64 893.903L1726.75 890.46C1727.17 889.155 1727.91 887.68 1728.58 886.437C1729.31 885.065 1730.24 883.468 1731.25 881.761C1733.29 878.345 1735.85 874.247 1738.38 870.206C1740.94 866.128 1743.47 862.103 1745.51 858.716C1746.48 857.11 1747.26 855.764 1747.87 854.689C1746.5 852.306 1745.1 850.004 1743.62 847.534C1742.18 845.139 1740.71 842.628 1739.23 839.884L1699.23 840.249L1693.65 840.3L1692.38 834.87C1690.97 828.835 1688.91 823.1 1686.78 816.2C1684.72 809.527 1682.74 802.196 1682.06 794.106L1681.68 789.622L1685.62 787.435L1720.32 768.138L1720.32 766.23L1720.31 764.848L1720.31 764.793L1720.32 760.863L1685.62 741.565L1681.68 739.378L1682.06 734.894C1682.74 726.804 1684.72 719.473 1686.78 712.8C1688.91 705.9 1690.97 700.165 1692.38 694.13L1693.65 688.7L1699.23 688.751L1739.23 689.117C1740.71 686.372 1742.18 683.862 1743.62 681.466C1745.1 678.996 1746.5 676.695 1747.87 674.311C1747.26 673.237 1746.48 671.891 1745.51 670.284C1743.47 666.897 1740.94 662.872 1738.38 658.794C1735.85 654.752 1733.29 650.655 1731.25 647.239C1730.24 645.532 1729.31 643.935 1728.58 642.562C1727.91 641.32 1727.17 639.845 1726.75 638.54L1725.64 635.097L1727.82 632.209C1732.76 625.659 1737.37 621.211 1741.96 616.281L1741.97 616.28C1745.6 612.377 1753.79 604.691 1758.08 601.753L1761.15 599.643L1764.61 601.036C1767.12 602.044 1770.4 603.942 1773.16 605.612C1775.7 607.145 1779.32 609.433 1780.76 610.31C1783.04 611.692 1785.47 613.08 1788.04 614.549C1790.58 615.998 1793.24 617.519 1795.79 619.087L1795.79 619.088C1797.5 620.14 1798.62 620.849 1799.63 621.451C1799.73 621.51 1799.82 621.564 1799.91 621.616C1802.01 620.139 1806.69 616.889 1814.35 613.075L1813.85 573.478L1813.8 569.676L1816.97 567.58C1819.21 566.1 1822.62 564.717 1825.95 563.535C1829.48 562.28 1833.64 561.01 1837.83 559.868C1845.97 557.648 1855.12 555.662 1860.27 555.446L1864.21 555.28L1866.38 558.586C1869.94 564.016 1874.3 572.475 1877.5 578.202L1877.5 578.204C1878.63 580.237 1881 584.813 1882.89 588.276C1883.92 590.166 1884.92 591.94 1885.8 593.387C1885.85 593.455 1885.89 593.52 1885.93 593.586L1902.71 593.348L1919.38 563.869C1919.67 563.295 1920.18 562.26 1920.75 561.27L1920.92 560.972L1921.12 560.691L1923.09 557.943L1925.53 554.543L1929.68 555.098C1942.3 556.788 1959.58 561.226 1970.74 565.951L1975.03 567.767L1974.99 572.421L1974.66 612.287C1977.77 613.957 1981.11 615.89 1984.01 617.591C1986.16 618.854 1988.03 619.968 1989.58 620.867C1991.19 619.984 1993.11 618.854 1995.16 617.582C1998.67 615.417 2001.78 613.371 2004.41 611.721L2004.41 611.72C2005.94 610.756 2010.15 608.064 2014.29 605.561C2016.36 604.308 2018.48 603.055 2020.32 602.056C2021.23 601.558 2022.13 601.088 2022.96 600.703C2023.66 600.375 2024.73 599.899 2025.83 599.637L2028.9 598.908L2031.48 600.738C2036.03 603.975 2042.53 609.884 2048.25 615.588C2053.85 621.181 2059.53 627.398 2061.98 631.306L2063.66 633.986L2062.75 637.017C2061.99 639.522 2060.15 642.864 2058.37 645.919C2056.44 649.221 2054.04 653.068 2051.65 656.874C2047.78 663.05 2044.18 668.811 2042.04 672.784C2042.35 673.274 2042.67 673.784 2043.02 674.317C2044.06 675.913 2045.31 677.796 2046.42 679.657L2046.42 679.66C2047.66 681.72 2048.71 683.757 2049.66 685.6C2049.98 686.219 2050.29 686.816 2050.59 687.399L2090.3 686.908L2095.14 686.849L2096.88 691.363L2100.38 700.417L2100.43 700.558L2100.48 700.701C2101.7 704.309 2103.65 710.728 2105.24 717.038C2106.04 720.193 2106.77 723.413 2107.27 726.289C2107.73 728.978 2108.12 732 2107.9 734.463L2107.58 738.087L2104.42 739.892L2070.33 759.378L2070.21 764.952C2070.21 764.957 2070.2 765.885 2070.19 766.253C2070.2 767.195 2070.2 767.608 2070.21 768.187L2070.24 769.574L2104.42 789.108L2107.58 790.913L2107.9 794.537C2108.12 797 2107.73 800.023 2107.27 802.712C2106.77 805.588 2106.04 808.807 2105.24 811.962C2103.65 818.272 2101.7 824.691 2100.48 828.299L2100.43 828.442L2100.38 828.583L2096.88 837.637L2095.14 842.151L2090.3 842.092L2050.59 841.602C2050.29 842.185 2049.98 842.782 2049.66 843.4C2048.71 845.243 2047.66 847.28 2046.42 849.34L2046.42 849.343C2045.31 851.204 2044.06 853.087 2043.02 854.683C2042.67 855.216 2042.35 855.728 2042.04 856.218C2044.18 860.191 2047.78 865.951 2051.65 872.126C2054.04 875.932 2056.44 879.779 2058.37 883.081C2060.15 886.137 2061.99 889.478 2062.75 891.983L2063.66 895.013L2061.98 897.694C2059.53 901.602 2053.85 907.819 2048.25 913.412C2042.53 919.116 2036.03 925.025 2031.48 928.262L2028.9 930.092L2025.83 929.363C2024.73 929.101 2023.66 928.625 2022.96 928.297C2022.13 927.911 2021.23 927.442 2020.32 926.944C2018.48 925.945 2016.36 924.692 2014.29 923.439C2010.15 920.937 2005.94 918.246 2004.41 917.281L2004.41 917.281C2001.79 915.639 1998.66 913.58 1995.17 911.424C1993.11 910.153 1991.2 909.023 1989.58 908.141C1988.03 909.04 1986.15 910.153 1984 911.416C1981.11 913.114 1977.77 915.046 1974.66 916.714L1974.99 956.579L1975.03 961.233L1970.74 963.049C1959.58 967.774 1942.3 972.212 1929.68 973.902L1925.53 974.457L1923.09 971.057ZM1839.23 864.023C1859.14 875.359 1886.39 880.53 1910.35 877.397C1968.73 869.761 2013.07 822.231 2013.07 766.569C2013.07 709.829 1968.46 659.203 1910.35 651.603C1886.39 648.47 1859.14 653.641 1839.23 664.977C1827.17 671.843 1815.28 680.664 1806.93 690.816L1806.93 690.817C1791.86 709.15 1781.93 727.943 1778.69 753.273L1778.69 753.274C1778.31 756.243 1778.05 762.145 1777.88 766.456C1778.04 769.543 1778.3 772.634 1778.69 775.726L1778.69 775.727C1781.93 801.058 1791.86 819.849 1806.93 838.183L1806.93 838.184C1815.28 848.337 1827.17 857.157 1839.23 864.023Z" stroke="#08658C" stroke-width="13.9276"/>
</g>
</g>
<defs>
<linearGradient id="paint0_linear_1558_7548" x1="959.5" y1="815" x2="959.5" y2="0" gradientUnits="userSpaceOnUse">
<stop stop-color="#F6F7FB"/>
<stop offset="1" stop-color="white"/>
</linearGradient>
<clipPath id="clip0_1558_7548">
<rect width="1919" height="815" fill="white"/>
</clipPath>
<clipPath id="clip1_1558_7548">
<rect width="474" height="274" fill="white" transform="translate(1671 541)"/>
</clipPath>
</defs>
</svg>
