<svg width="1919" height="733" viewBox="0 0 1919 733" fill="none" xmlns="http://www.w3.org/2000/svg">
<g clip-path="url(#clip0_1521_8018)">
<rect width="1919" height="992" fill="white"/>
<g opacity="0.4">
<path opacity="0.2" d="M1611.48 104.959L1610.02 103.072L1609.73 102.694L1609.47 102.29C1609.03 101.576 1608.58 100.741 1608.39 100.389L1597.3 82.2466L1589.26 82.1431C1588.97 82.619 1588.66 83.1244 1588.35 83.6528C1587.11 85.7558 1585.12 89.2884 1584.33 90.602L1584.32 90.604C1582.11 94.2773 1578.66 100.449 1575.89 104.361L1572.96 108.495L1567.89 108.298C1563.64 108.133 1556.51 106.675 1550.46 105.149C1547.29 104.349 1544.12 103.452 1541.38 102.554C1538.92 101.746 1535.99 100.677 1533.88 99.3872L1529.34 96.6098L1529.41 91.2837L1529.74 67.1079C1526.94 65.7132 1524.69 64.4397 1523.13 63.4966C1522.83 63.6694 1522.49 63.8621 1522.1 64.0815L1522.1 64.0825C1520.15 65.1941 1518.12 66.2666 1516.24 67.2583C1514.32 68.2745 1512.57 69.2012 1510.94 70.1186C1510.15 70.5612 1507 72.3911 1505.28 73.3501C1503.26 74.4814 1500.57 75.9362 1498.38 76.7505L1494.03 78.3706L1490.11 75.8833C1486.78 73.7698 1481.01 68.781 1478 65.8813L1477.43 65.3315L1477.43 65.3286C1474.2 62.1205 1470.48 58.7845 1466.62 54.0454L1463.32 49.9956L1465.04 45.061C1465.51 43.6899 1466.28 42.3299 1466.77 41.4809C1467.37 40.4472 1468.1 39.2806 1468.87 38.0825C1470.41 35.683 1472.35 32.8231 1474.22 30.0581C1476.13 27.2437 1477.98 24.5195 1479.46 22.2368C1479.49 22.1966 1479.52 22.1564 1479.54 22.1167C1479.06 21.3774 1478.57 20.6159 1478.05 19.813C1477.38 18.7721 1476.68 17.6799 1475.97 16.5229L1448.55 16.7544L1441.21 16.8159L1439.41 9.69578C1438.42 5.78534 1437.03 2.24191 1435.35 -2.77688C1433.79 -7.46793 1432.18 -12.9281 1431.62 -19.0532L1431.05 -25.3306L1436.65 -28.2154L1459.23 -39.8325L1436.65 -51.4497L1431.05 -54.3345L1431.62 -60.6118C1432.18 -66.7368 1433.79 -72.1963 1435.35 -76.8872C1437.03 -81.9062 1438.42 -85.4504 1439.41 -89.3609L1441.21 -96.481L1448.55 -96.4195L1475.97 -96.187C1476.68 -97.3443 1477.38 -98.4369 1478.05 -99.478C1478.57 -100.281 1479.06 -101.042 1479.54 -101.781C1479.52 -101.821 1479.49 -101.862 1479.46 -101.902C1477.98 -104.185 1476.13 -106.909 1474.22 -109.723C1472.35 -112.488 1470.41 -115.348 1468.87 -117.748C1468.1 -118.946 1467.37 -120.112 1466.77 -121.146C1466.28 -121.995 1465.51 -123.355 1465.04 -124.726L1463.32 -129.661L1466.62 -133.71C1470.48 -138.449 1474.2 -141.785 1477.43 -144.994L1477.43 -144.997C1480.23 -147.769 1486.56 -153.294 1490.11 -155.548L1494.03 -158.036L1498.38 -156.416C1500.57 -155.601 1503.26 -154.146 1505.28 -153.015C1507 -152.055 1510.15 -150.227 1510.94 -149.784L1510.94 -149.783C1512.57 -148.865 1514.32 -147.939 1516.24 -146.923C1518.12 -145.932 1520.15 -144.859 1522.1 -143.748L1522.1 -143.747C1522.49 -143.527 1522.83 -143.334 1523.13 -143.161C1524.69 -144.104 1526.93 -145.378 1529.74 -146.773L1529.41 -170.949L1529.34 -176.275L1533.88 -179.053C1535.99 -180.342 1538.92 -181.411 1541.38 -182.219C1544.12 -183.117 1547.29 -184.014 1550.46 -184.814C1556.51 -186.34 1563.64 -187.798 1567.89 -187.963L1572.96 -188.16L1575.89 -184.026C1578.66 -180.114 1582.11 -173.942 1584.32 -170.269L1584.33 -170.267C1585.12 -168.944 1587.11 -165.423 1588.35 -163.312C1588.66 -162.784 1588.97 -162.278 1589.26 -161.802L1597.3 -161.909L1608.39 -180.054C1608.58 -180.406 1609.03 -181.24 1609.47 -181.955L1609.73 -182.36L1610.02 -182.737L1611.48 -184.625L1614.74 -188.831L1620.02 -188.176C1629.65 -186.983 1642.79 -183.87 1651.43 -180.486L1657.42 -178.137L1657.37 -171.699L1657.15 -147.255C1658.75 -146.423 1660.33 -145.574 1661.73 -144.812C1662.57 -144.354 1663.34 -143.936 1664.05 -143.551C1664.72 -143.918 1665.45 -144.327 1666.24 -144.776C1668.87 -146.279 1670.99 -147.574 1673.07 -148.786L1673.07 -148.787C1674.17 -149.425 1677.36 -151.309 1680.46 -153.049C1682.02 -153.921 1683.66 -154.814 1685.09 -155.539C1686.1 -156.044 1688.21 -157.111 1690.11 -157.53L1693.96 -158.375L1697.26 -156.208C1700.33 -154.186 1704.35 -150.879 1708.1 -147.534C1706.04 -145.195 1703.99 -142.849 1701.93 -140.503C1698.33 -143.727 1694.67 -146.721 1692.12 -148.399C1689.97 -147.927 1680.15 -142.086 1677.77 -140.705C1674.22 -138.639 1667.57 -134.526 1663.9 -133.082C1662.22 -133.74 1653.27 -139.01 1647.75 -141.454L1648.02 -171.782C1640.23 -174.835 1627.86 -177.785 1618.87 -178.899L1617.41 -177.011C1617.04 -176.415 1616.78 -175.912 1616.47 -175.351L1602.58 -152.629L1584.43 -152.39C1582.46 -154.388 1578.09 -162.503 1576.32 -165.442C1573.79 -169.639 1570.77 -175.081 1568.26 -178.622C1561.9 -178.374 1543.09 -173.724 1538.76 -171.077L1539.17 -140.827C1520.55 -132.945 1526.98 -130.218 1517.48 -135.619C1513.85 -137.681 1509.87 -139.656 1506.35 -141.637C1503.49 -143.248 1497.95 -146.601 1495.12 -147.655C1492.4 -145.929 1486.62 -140.945 1484.02 -138.362C1480.42 -134.78 1477.32 -132.038 1473.86 -127.802C1475.1 -124.258 1488.69 -105.831 1490.47 -101.655C1487.46 -96.5021 1484.34 -92.4134 1481.33 -86.7935L1448.47 -87.0708C1446.27 -78.3481 1441.85 -69.8408 1440.93 -59.7622L1469.35 -45.1402L1469.33 -39.6216L1469.34 -38.6724L1469.34 -37.2007L1469.35 -34.5249L1440.93 -19.9029C1441.85 -9.82425 1446.27 -1.317 1448.47 7.40574L1481.33 7.1284C1484.34 12.7483 1487.46 16.8371 1490.47 21.9897C1488.69 26.1667 1475.1 44.5936 1473.86 48.1372C1477.32 52.3727 1480.42 55.1154 1484.02 58.6968C1486.62 61.2803 1492.4 66.264 1495.12 67.9897C1497.95 66.9357 1503.49 63.5831 1506.35 61.9722C1509.87 59.9911 1513.85 58.0157 1517.48 55.9536C1526.98 50.5534 1520.55 53.2797 1539.17 61.1616L1538.76 91.4116C1543.09 94.0594 1561.9 98.7094 1568.26 98.9565C1570.77 95.4158 1573.79 89.974 1576.32 85.7768C1578.09 82.8385 1582.45 74.732 1584.43 72.7309L1602.58 72.9643L1616.47 95.686C1616.78 96.2471 1617.04 96.7495 1617.41 97.3462L1618.87 99.2339C1621.2 98.9458 1623.75 98.5338 1626.39 98.0298L1628.62 107.118C1625.6 107.704 1622.68 108.182 1620.02 108.511L1614.74 109.166L1611.48 104.959ZM1605.89 42.4419C1587.04 44.7218 1565.67 40.9954 1549.87 32.6704C1540.61 27.7892 1531.2 21.3885 1524.47 13.8061C1512.81 0.691302 1504.92 -13.0308 1502.37 -31.5161C1502.05 -33.8472 1501.84 -36.1644 1501.72 -38.4614C1501.84 -41.3579 1502.05 -45.8016 1502.37 -48.1489C1504.92 -66.634 1512.81 -80.3565 1524.47 -93.4712C1531.2 -101.053 1540.61 -107.454 1549.87 -112.335C1565.67 -120.66 1587.04 -124.387 1605.89 -122.107C1628.08 -119.421 1647.78 -109.35 1662.16 -94.9497C1660.07 -92.5379 1658.02 -90.1763 1656.02 -87.8716C1643.14 -101.01 1625.25 -110.346 1604.76 -112.826C1587.68 -114.892 1568.24 -111.446 1554.23 -104.065C1545.5 -99.4675 1537.17 -93.6911 1531.45 -87.2622L1531.45 -87.2612C1520.68 -75.1367 1513.87 -63.0633 1511.63 -46.8696L1511.63 -46.8687C1511.39 -45.1553 1511.21 -41.5122 1511.08 -38.522C1511.19 -36.6003 1511.37 -34.6922 1511.63 -32.7964L1511.63 -32.7954C1513.87 -16.6016 1520.68 -4.52859 1531.45 7.59618L1531.45 7.59715C1537.17 14.0261 1545.5 19.8024 1554.23 24.3999C1568.24 31.7814 1587.68 35.2274 1604.76 33.1606C1614.67 31.9611 1623.94 29.2994 1632.32 25.4712L1642.17 30.9731C1631.35 36.8445 1619.05 40.8481 1605.89 42.4419Z" fill="#4598BB"/>
</g>
<path opacity="0.1" d="M1904.64 251.616L1902.41 248.739L1902.27 248.551L1902.14 248.348C1901.52 247.345 1901 246.356 1900.63 245.685L1880.88 213.35L1858.07 213.056C1857.75 213.502 1857.37 214.044 1856.95 214.685C1855.92 216.249 1854.77 218.145 1853.6 220.135C1851.38 223.895 1848.81 228.49 1847.51 230.652L1847.51 230.653C1843.81 236.79 1839 245.45 1835.04 251.033L1833.58 253.101L1831.05 253.003C1825.67 252.794 1815.66 250.81 1806.45 248.485C1801.78 247.305 1797.16 245.999 1793.27 244.718C1789.51 243.482 1786.01 242.14 1783.84 240.817L1781.57 239.429L1781.61 236.767L1782.2 193.763C1770.07 188.356 1764.77 184.207 1763.03 183.301C1762.96 183.265 1762.9 183.238 1762.85 183.216C1762.83 183.223 1762.81 183.227 1762.78 183.236C1761.69 183.643 1760.13 184.597 1756.18 186.841L1756.18 186.841C1753.35 188.453 1750.39 190.024 1747.51 191.543C1744.62 193.075 1741.82 194.551 1739.2 196.024L1737.5 196.997C1735.53 198.132 1732.87 199.677 1730.62 200.936C1727.46 202.702 1723.98 204.559 1721.43 205.506L1719.26 206.316L1717.3 205.071C1713.02 202.357 1704.78 195.271 1700.42 191.073L1699.6 190.274L1699.6 190.273C1694.29 185 1689.26 180.523 1683.8 173.814L1682.15 171.791L1683 169.324C1683.4 168.185 1684.14 166.813 1684.89 165.517C1685.69 164.128 1686.71 162.493 1687.85 160.721C1690.14 157.174 1693.02 152.909 1695.89 148.673C1698.77 144.412 1701.64 140.175 1703.97 136.605C1705.43 134.35 1706.58 132.51 1707.37 131.158C1705.57 128.205 1703.74 125.428 1701.83 122.479C1699.93 119.539 1697.99 116.469 1696.05 113.045L1648.78 113.443L1645.1 113.475L1644.2 109.913C1642.58 103.49 1640.19 97.3055 1637.82 90.2099C1635.51 83.2783 1633.34 75.789 1632.59 67.5644L1632.3 64.4267L1635.1 62.9843L1675.85 42.0009L1675.85 40.7793L1675.85 38.5556L1675.84 37.1084L1675.84 37.0888L1675.84 37.0693L1675.85 31.5156L1635.1 10.5312L1632.3 9.08883L1632.59 5.95113C1633.34 -2.27353 1635.51 -9.7627 1637.82 -16.6944C1640.19 -23.7899 1642.58 -29.9743 1644.2 -36.3975L1645.1 -39.959L1648.78 -39.9278L1696.05 -39.5284C1697.99 -42.953 1699.93 -46.0233 1701.83 -48.9639C1703.74 -51.912 1705.57 -54.6883 1707.37 -57.6416C1706.58 -58.9937 1705.43 -60.8338 1703.97 -63.0899C1701.64 -66.6594 1698.77 -70.896 1695.89 -75.1573C1693.02 -79.3939 1690.14 -83.6581 1687.85 -87.2051C1686.71 -88.9776 1685.69 -90.6123 1684.89 -92.001C1684.14 -93.2975 1683.4 -94.6703 1683 -95.8096L1682.15 -98.2754L1683.8 -100.299C1689.26 -107.007 1694.29 -111.485 1699.6 -116.758L1699.6 -116.759C1703.66 -120.792 1712.74 -128.661 1717.3 -131.556L1719.26 -132.801L1721.43 -131.99C1723.98 -131.043 1727.46 -129.187 1730.62 -127.421C1732.87 -126.161 1735.53 -124.617 1737.5 -123.481L1739.2 -122.509C1741.82 -121.035 1744.62 -119.559 1747.51 -118.027C1750.39 -116.508 1753.35 -114.938 1756.18 -113.326L1756.18 -113.325C1760.13 -111.081 1761.69 -110.127 1762.78 -109.721C1762.81 -109.712 1762.83 -109.705 1762.85 -109.698C1762.9 -109.721 1762.96 -109.748 1763.03 -109.784C1764.77 -110.691 1770.07 -114.84 1782.2 -120.246L1781.61 -163.251L1781.57 -165.913L1783.84 -167.303C1786.01 -168.626 1789.51 -169.966 1793.27 -171.202C1797.16 -172.483 1801.78 -173.789 1806.45 -174.97C1815.66 -177.294 1825.67 -179.278 1831.05 -179.487L1833.58 -179.586L1835.04 -177.518C1839 -171.935 1843.81 -163.274 1847.51 -157.138L1847.51 -157.137C1848.82 -154.97 1851.38 -150.378 1853.6 -146.612C1854.77 -144.621 1855.93 -142.724 1856.95 -141.159C1857.37 -140.519 1857.75 -139.978 1858.07 -139.532L1880.88 -139.832L1900.63 -172.168C1901 -172.839 1901.52 -173.829 1902.14 -174.832L1902.27 -175.035L1902.41 -175.224L1904.64 -178.101L1906.27 -180.206L1908.91 -179.878C1922.93 -178.141 1942.16 -173.561 1954.45 -168.741L1957.45 -167.566L1957.42 -164.349L1957.03 -121.128C1960.89 -119.272 1965.27 -116.926 1969.06 -114.861C1971.49 -113.543 1973.65 -112.352 1975.41 -111.404C1976.03 -111.074 1976.57 -110.785 1977.05 -110.537C1979.33 -111.601 1982.21 -113.166 1985.25 -114.906C1989.19 -117.16 1992.86 -119.392 1995.72 -121.056L1995.72 -121.055C1997.49 -122.082 2002.2 -124.873 2006.85 -127.477C2009.17 -128.779 2011.53 -130.064 2013.54 -131.077C2015.33 -131.981 2017.42 -132.979 2018.93 -133.31L2020.85 -133.732L2022.5 -132.647C2027.42 -129.405 2034.63 -123.358 2041.06 -117.411C2047.42 -111.542 2053.61 -105.234 2056.18 -101.432L2057.46 -99.5371L2056.76 -97.3623C2056 -95.0568 2054.1 -91.8089 2052.05 -88.5674C2049.9 -85.1511 2047.21 -81.1583 2044.5 -77.167C2039.79 -70.2072 2035.26 -63.5125 2032.86 -59.1631C2033.44 -58.2733 2034.08 -57.3459 2034.77 -56.3682C2035.96 -54.6609 2037.34 -52.7526 2038.56 -50.8574L2038.56 -50.8555C2039.9 -48.777 2041.06 -46.7119 2042.14 -44.7754C2042.8 -43.5849 2043.44 -42.4443 2044.1 -41.3203L2091.05 -41.8574L2094.2 -41.8936L2095.42 -38.9824L2099.37 -29.5039L2099.41 -29.4043L2099.45 -29.3037C2100.8 -25.5826 2102.99 -18.9201 2104.78 -12.375C2105.67 -9.10242 2106.48 -5.79349 2107.03 -2.86035C2107.55 -0.0633033 2107.93 2.84993 2107.72 5.11328L2107.47 7.62012L2105.25 8.79785L2064.95 30.126C2064.96 30.8429 2064.97 31.6133 2064.98 32.4053L2065.2 32.4053L2065.09 37.1846C2065.09 37.3296 2065.07 38.2731 2065.07 38.6143C2065.08 39.5494 2065.08 40.0696 2065.09 40.6641L2065.16 43.501L2105.25 64.7178L2107.47 65.8955L2107.72 68.4023C2107.93 70.6657 2107.55 73.5789 2107.03 76.376C2106.48 79.3091 2105.67 82.618 2104.78 85.8906C2102.99 92.4358 2100.8 99.0982 2099.45 102.819L2099.41 102.92L2099.37 103.02L2095.42 112.498L2094.2 115.409L2091.05 115.373L2044.1 114.837C2043.44 115.961 2042.8 117.101 2042.14 118.291C2041.06 120.227 2039.9 122.293 2038.56 124.371L2038.56 124.373C2037.34 126.268 2035.96 128.176 2034.77 129.884C2034.08 130.862 2033.44 131.789 2032.86 132.679C2035.26 137.028 2039.79 143.723 2044.5 150.683C2047.21 154.674 2049.9 158.666 2052.05 162.082C2054.1 165.324 2056 168.571 2056.76 170.877L2057.46 173.053L2056.18 174.947C2053.61 178.75 2047.42 185.058 2041.06 190.927C2034.63 196.874 2027.42 202.92 2022.5 206.163L2020.85 207.248L2018.93 206.825C2017.42 206.495 2015.33 205.496 2013.54 204.593C2011.53 203.579 2009.17 202.295 2006.85 200.992C2002.2 198.389 1997.49 195.597 1995.72 194.57L1993.43 193.228C1991.01 191.793 1988.2 190.113 1985.25 188.428C1982.21 186.69 1979.33 185.125 1977.05 184.062C1976.57 184.309 1976.02 184.599 1975.41 184.93C1973.65 185.877 1971.48 187.067 1969.06 188.384C1965.26 190.446 1960.88 192.79 1957.03 194.644L1957.42 237.864L1957.45 241.082L1954.45 242.257C1942.16 247.077 1922.93 251.656 1908.91 253.394L1906.27 253.721L1904.64 251.616ZM1805.4 143.149C1828.58 155.368 1860.17 160.907 1887.99 157.538C1955.71 149.337 2006.88 98.3559 2006.88 38.9238C2006.88 -21.5331 1955.52 -75.8446 1887.99 -84.0225C1860.17 -87.3915 1828.58 -81.8524 1805.4 -69.6338C1791.55 -62.3348 1777.76 -52.889 1768 -41.9073L1766.4 -40.0772C1749.98 -21.147 1739.09 -1.46981 1735.48 24.7197L1735.39 25.3759C1734.99 28.7705 1734.72 34.6123 1734.54 38.8164C1734.7 41.7092 1734.94 44.6108 1735.31 47.5185L1735.48 48.7959C1739.09 74.9859 1749.98 94.6623 1766.4 113.593L1768 115.423C1777.76 126.405 1791.55 135.85 1805.4 143.149Z" stroke="#08658C" stroke-width="9.34871"/>
</g>
<defs>
<clipPath id="clip0_1521_8018">
<rect width="1919" height="733" fill="white"/>
</clipPath>
</defs>
</svg>
