<svg width="1919" height="475" viewBox="0 0 1919 475" fill="none" xmlns="http://www.w3.org/2000/svg">
<g clip-path="url(#clip0_1484_7392)">
<rect width="1919" height="526.274" fill="url(#paint0_linear_1484_7392)"/>
<g opacity="0.4">
<path opacity="0.2" d="M502.445 275.259L504.483 278.097L504.86 278.623L505.183 279.182C505.809 280.266 506.431 281.514 506.692 282.029L522.216 309.435L532.856 309.583C533.284 308.826 533.734 308.02 534.194 307.179C535.964 303.942 538.68 298.738 539.796 296.741L539.798 296.737C542.924 291.145 547.683 281.96 551.516 276.124L555.572 269.949L562.953 270.258C568.997 270.512 579.03 272.73 587.45 275.023C591.882 276.229 596.326 277.582 600.156 278.939C603.599 280.159 607.733 281.784 610.703 283.744L616.649 287.666L616.558 294.787L616.085 332.07C619.956 334.131 623.089 336.034 625.323 337.474C625.641 337.277 625.987 337.063 626.368 336.83L626.371 336.829C629.102 335.155 631.928 333.539 634.542 332.048C637.222 330.52 639.667 329.129 641.936 327.751L645.387 325.614C646.924 324.66 648.624 323.609 649.816 322.891C652.628 321.196 656.405 318.991 659.495 317.75L665.962 315.151L671.714 319.087C676.355 322.265 684.387 329.755 688.565 334.097L689.347 334.921L689.35 334.924C693.878 339.776 699.021 344.751 704.375 351.834L708.465 357.244L706.381 363.697C705.767 365.598 704.764 367.534 704.073 368.82C703.252 370.349 702.248 372.084 701.176 373.879C699.03 377.474 696.341 381.763 693.729 385.923C691.074 390.152 688.491 394.257 686.412 397.701C686.179 398.087 685.955 398.46 685.74 398.82C686.583 400.232 687.454 401.676 688.378 403.216C689.336 404.813 690.326 406.484 691.334 408.253L729.252 407.909L739.681 407.813L742.059 417.967C743.456 423.934 745.442 429.404 747.748 436.85C749.922 443.87 752.113 451.917 752.872 460.903L753.582 469.302L746.212 473.394L713.326 491.649V491.678L713.324 492.288L746.212 510.543L753.582 514.635L752.872 523.035C752.113 532.02 749.922 540.068 747.748 547.087C745.442 554.533 743.456 560.004 742.059 565.97L739.681 576.125L729.252 576.03L691.334 575.683C690.325 577.453 689.336 579.124 688.378 580.721C687.454 582.262 686.583 583.704 685.74 585.117C685.955 585.477 686.179 585.851 686.412 586.237C688.491 589.68 691.074 593.786 693.729 598.014C696.341 602.175 699.03 606.464 701.176 610.058C702.248 611.853 703.252 613.588 704.073 615.118C704.764 616.403 705.767 618.339 706.381 620.241L708.465 626.694L704.375 632.104C699.021 639.187 693.878 644.161 689.35 649.013L689.347 649.017C685.473 653.166 676.664 661.462 671.713 664.85L665.962 668.787L659.495 666.189C656.405 664.947 652.628 662.742 649.816 661.046C647.431 659.609 643.02 656.844 641.937 656.186C639.668 654.809 637.223 653.418 634.542 651.889C631.928 650.398 629.102 648.783 626.371 647.11L626.368 647.108C625.988 646.874 625.642 646.659 625.323 646.462C623.09 647.902 619.957 649.805 616.085 651.867L616.558 689.151L616.649 696.273L610.702 700.194C607.732 702.153 603.599 703.778 600.156 704.999C596.326 706.356 591.882 707.708 587.45 708.915C579.03 711.207 568.997 713.427 562.953 713.68L555.572 713.989L551.516 707.814C547.682 701.977 542.924 692.793 539.798 687.201L539.796 687.198C538.674 685.188 535.968 679.999 534.192 676.75C533.733 675.91 533.284 675.105 532.857 674.349L522.218 674.5L506.687 701.918C506.423 702.439 505.805 703.679 505.183 704.756L504.86 705.316L504.483 705.84L502.445 708.678L497.884 715.03L490.134 713.994C476.643 712.191 458.252 707.491 446.158 702.378L438.13 698.985L438.201 690.269L438.512 652.598C436.152 651.279 433.815 649.921 431.753 648.712C430.724 648.109 429.773 647.549 428.894 647.031C428.061 647.524 427.164 648.068 426.21 648.656C422.546 650.916 419.596 652.858 416.682 654.685C415.152 655.644 410.714 658.479 406.38 661.097C404.211 662.408 401.923 663.754 399.913 664.847C398.915 665.391 397.866 665.936 396.867 666.404C396.097 666.764 394.531 667.478 392.768 667.896L387.029 669.255L382.219 665.84C377.105 662.209 370.1 655.828 364.132 649.883C362.858 648.614 361.557 647.289 360.27 645.947C363.136 642.681 366.015 639.401 368.899 636.112C375.682 643.268 384.459 651.448 389.764 655.215C392.756 654.506 406.447 645.724 409.76 643.646C414.715 640.54 423.982 634.356 429.097 632.184C431.437 633.174 443.911 641.098 451.608 644.773L451.232 690.376C462.092 694.967 479.33 699.403 491.86 701.078L493.898 698.24C494.416 697.342 494.772 696.587 495.209 695.744L514.563 661.577L539.864 661.217C542.618 664.221 548.705 676.425 551.173 680.843C554.701 687.155 558.911 695.337 562.407 700.661C571.268 700.289 597.492 693.297 603.529 689.316L602.951 643.83C628.9 631.977 619.938 627.879 633.181 636C638.24 639.1 643.795 642.07 648.7 645.048C652.689 647.471 660.408 652.512 664.353 654.097C668.144 651.503 676.195 644.008 679.823 640.124C684.848 634.738 689.167 630.614 693.981 624.246C692.259 618.917 673.318 591.208 670.835 584.928C675.027 577.18 679.38 571.032 683.573 562.582L729.371 563C732.443 549.883 738.606 537.092 739.887 521.937L700.279 499.949L700.295 491.652L700.286 490.224V488.012L700.279 483.989L739.887 462C738.606 446.846 732.443 434.055 729.371 420.939L683.573 421.356C679.38 412.905 675.027 406.757 670.835 399.009C673.318 392.73 692.259 365.021 693.981 359.692C689.167 353.323 684.848 349.2 679.823 343.815C676.195 339.93 668.144 332.435 664.353 329.84C660.408 331.425 652.689 336.467 648.7 338.889C643.795 341.868 638.24 344.837 633.181 347.938C619.939 356.058 628.899 351.96 602.951 340.108L603.529 294.622C597.493 290.64 571.269 283.648 562.407 283.277C558.911 288.601 554.701 296.783 551.173 303.094C548.705 307.512 542.619 319.703 539.864 322.711L514.563 322.361L495.209 288.194C494.772 287.35 494.416 286.595 493.898 285.698L491.86 282.86C487.885 283.391 483.437 284.199 478.869 285.203L475.764 272.545C480.816 271.428 485.735 270.532 490.134 269.944L497.884 268.908L502.445 275.259ZM509.96 368.256C536.225 364.828 566.009 370.431 588.033 382.949C600.947 390.288 614.059 399.913 623.449 411.314C639.695 431.034 650.688 451.668 654.246 479.464C654.695 482.969 654.983 486.453 655.149 489.907C654.984 494.262 654.699 500.944 654.246 504.473C650.688 532.269 639.695 552.903 623.449 572.624C614.059 584.025 600.947 593.65 588.033 600.99C566.009 613.507 536.224 619.109 509.96 615.681C476.611 611.327 447.301 594.07 426.959 569.663C429.909 566.271 432.802 562.939 435.63 559.681C453.947 582.483 480.862 598.741 511.648 602.76H511.647C535.24 605.84 562.153 600.711 581.595 589.661C593.717 582.771 605.368 574.08 613.391 564.339L613.392 564.338C628.46 546.047 638.143 527.64 641.321 502.819L641.322 502.817C641.668 500.114 641.929 494.477 642.103 489.987C641.948 487.017 641.698 484.062 641.322 481.121L641.321 481.119C638.143 456.297 628.46 437.891 613.392 419.599L613.391 419.598C605.368 409.857 593.717 401.167 581.595 394.277C562.153 383.227 535.241 378.098 511.648 381.177C496.49 383.156 482.324 387.84 469.671 394.65L456.458 387.266C472.241 377.475 490.406 370.809 509.96 368.256Z" fill="#D9D9D9"/>
</g>
<path opacity="0.1" d="M231.683 216.271C199.421 197.923 155.48 189.619 116.803 194.671L116.804 194.672C22.791 206.954 -48.9753 283.475 -48.9753 373.545C-48.9752 465.145 23.044 546.684 116.804 558.933H116.803C155.48 563.984 199.421 555.681 231.683 537.333C250.961 526.369 270.207 512.165 283.829 495.615L283.83 495.614C307.991 466.267 324.084 435.924 329.316 395.038V395.037C329.95 390.083 330.373 380.439 330.63 373.701C330.383 368.675 329.964 363.628 329.316 358.567V358.566C324.085 317.679 307.992 287.338 283.83 257.99H283.829C270.207 241.44 250.961 227.235 231.683 216.271ZM412.437 374.104L412.449 376.281V376.332L412.431 385.138L469.416 416.791L473.1 418.837L472.744 423.035C471.709 435.29 468.71 446.471 465.489 456.877C462.202 467.496 458.846 476.866 456.575 486.567L455.387 491.646L450.172 491.599L384.43 490.998C381.726 496.162 379.005 500.789 376.342 505.231C373.601 509.803 370.965 514.116 368.372 518.733C369.482 520.834 371.175 523.776 373.366 527.408C376.608 532.781 380.617 539.156 384.637 545.562C388.635 551.933 392.648 558.339 395.825 563.666C397.414 566.328 398.827 568.778 399.942 570.854C400.991 572.807 401.987 574.816 402.514 576.448L403.555 579.673L401.512 582.377C393.907 592.443 386.917 599.155 379.509 607.098L379.507 607.099C373.857 613.153 361.213 624.978 354.858 629.331L351.982 631.302L348.746 630.001C345.182 628.568 340.309 625.768 335.912 623.116C332.775 621.224 329.065 618.898 326.317 617.191L323.946 615.729C320.301 613.515 316.402 611.296 312.365 608.993C308.362 606.709 304.233 604.346 300.279 601.921H300.278C297.65 600.309 295.792 599.135 294.189 598.175C292.66 597.26 291.772 596.793 291.197 596.552C291.169 596.567 291.138 596.582 291.107 596.6C288.698 597.952 281.235 604.245 264.199 612.42L265.025 677.562L265.07 681.122L262.099 683.083C259.069 685.083 254.166 687.108 248.917 688.969C243.476 690.898 237.036 692.864 230.512 694.642C217.686 698.136 203.693 701.131 196.136 701.448L192.444 701.603L190.415 698.514C184.92 690.141 178.233 677.167 173.059 667.905L173.058 667.904C171.234 664.636 167.691 657.784 164.577 652.084C162.94 649.086 161.326 646.223 159.886 643.858C159.292 642.882 158.763 642.056 158.307 641.372L126.799 641.819L99.2249 690.53C98.6932 691.562 97.9916 693.014 97.1311 694.505L96.97 694.784L96.7815 695.047L93.677 699.373L91.3967 702.551L87.5198 702.032C67.9492 699.415 41.111 692.521 23.9485 685.262L19.9358 683.563L19.9719 679.207L20.51 613.751C15.0897 610.944 8.9044 607.37 3.55493 604.231C0.175047 602.249 -2.83891 600.459 -5.2937 599.033C-6.07508 598.579 -6.77989 598.177 -7.39917 597.827C-10.5351 599.419 -14.4738 601.73 -18.6345 604.298C-24.126 607.688 -29.2403 611.038 -33.2332 613.542L-33.2322 613.543C-35.6924 615.087 -42.263 619.285 -48.74 623.2C-51.9797 625.159 -55.2681 627.092 -58.0701 628.617C-59.4681 629.378 -60.8046 630.071 -61.9871 630.624C-63.0549 631.124 -64.3925 631.701 -65.657 632.001L-68.5281 632.682L-70.9333 630.973C-77.7933 626.098 -87.8317 617.01 -96.7986 608.072C-105.662 599.238 -114.258 589.78 -117.815 584.115L-119.391 581.605L-118.534 578.768C-117.521 575.413 -114.915 570.606 -112.052 565.71C-109.055 560.583 -105.305 554.587 -101.539 548.584C-94.8412 537.908 -88.3485 527.58 -85.0486 520.999C-85.9304 519.518 -86.9124 517.976 -87.9705 516.349C-89.6444 513.773 -91.5484 510.918 -93.2488 508.08L-93.2507 508.077C-95.1099 504.971 -96.7089 501.883 -98.2136 498.97C-99.1495 497.158 -100.051 495.413 -100.984 493.693L-166.287 494.5L-170.812 494.556L-172.444 490.334L-177.954 476.081L-178.006 475.949L-178.051 475.815C-179.932 470.241 -182.979 460.246 -185.459 450.43C-186.699 445.521 -187.819 440.572 -188.579 436.195C-189.308 431.995 -189.817 427.733 -189.527 424.479L-189.225 421.087L-186.267 419.399L-129.904 387.221C-129.921 385.868 -129.939 384.372 -129.96 382.834H-130.25L-130.111 376.183C-130.105 375.894 -130.085 374.541 -130.075 374.02C-130.095 372.627 -130.092 371.799 -130.111 370.907L-130.21 366.208L-186.267 334.206L-189.225 332.518L-189.527 329.125C-189.817 325.871 -189.308 321.61 -188.579 317.409C-187.819 313.033 -186.699 308.083 -185.459 303.175C-182.979 293.358 -179.932 283.364 -178.051 277.789L-178.006 277.655L-177.954 277.523L-172.444 263.271L-170.812 259.05L-166.287 259.105L-100.984 259.91C-100.051 258.19 -99.1493 256.447 -98.2136 254.636C-96.7089 251.723 -95.1101 248.634 -93.2507 245.527L-93.2498 245.525C-91.5494 242.687 -89.6445 239.832 -87.9705 237.257C-86.9122 235.629 -85.9305 234.087 -85.0486 232.605C-88.3485 226.024 -94.8414 215.696 -101.539 205.021C-105.305 199.017 -109.054 193.023 -112.052 187.896C-114.914 182.999 -117.52 178.192 -118.534 174.838L-119.391 172L-117.815 169.489C-114.258 163.824 -105.663 154.366 -96.7996 145.532C-87.8327 136.595 -77.7934 127.507 -70.9333 122.633L-68.5281 120.924L-65.657 121.604C-64.3924 121.904 -63.0549 122.482 -61.9871 122.981C-60.8046 123.535 -59.4681 124.227 -58.0701 124.988C-55.2682 126.514 -51.9795 128.446 -48.74 130.404C-42.2644 134.319 -35.6956 138.517 -33.2341 140.062H-33.2332C-29.2532 142.558 -24.1172 145.919 -18.6365 149.299C-14.476 151.865 -10.5363 154.173 -7.39917 155.765C-6.77806 155.414 -6.07064 155.011 -5.28687 154.557C-2.83121 153.132 0.182458 151.343 3.56177 149.362C8.91039 146.227 15.0926 142.658 20.51 139.853L19.9719 74.3984L19.9358 70.041L23.9485 68.3438C41.111 61.0841 67.9491 54.1892 87.5198 51.5723L91.3967 51.0537L93.677 54.2314L96.7815 58.5586L96.97 58.8203L97.1321 59.1006C97.9916 60.5901 98.6923 62.0411 99.2239 63.0723L126.799 111.784L158.306 112.221C158.763 111.536 159.292 110.708 159.887 109.731C161.327 107.367 162.942 104.506 164.579 101.51C167.69 95.8179 171.237 88.9628 173.058 85.7012L173.059 85.6992C178.232 76.4379 184.92 63.4632 190.415 55.0908L192.444 52.002L196.136 52.1572C203.693 52.4743 217.687 55.4696 230.513 58.9639C237.036 60.7411 243.476 62.7072 248.917 64.6367C254.166 66.4979 259.069 68.5227 262.099 70.5225L265.07 72.4834L265.025 76.043L264.199 141.184C281.233 149.358 288.697 155.653 291.106 157.005C291.137 157.023 291.169 157.037 291.197 157.052C291.772 156.81 292.66 156.345 294.189 155.43C295.792 154.47 297.65 153.297 300.278 151.685L300.279 151.684C304.233 149.258 308.362 146.897 312.365 144.612C316.402 142.309 320.301 140.09 323.946 137.875L326.317 136.414C329.065 134.707 332.776 132.38 335.912 130.488C340.309 127.836 345.182 125.036 348.746 123.604L351.982 122.303L354.859 124.273C361.214 128.626 373.858 140.452 379.507 146.506L379.509 146.508C386.917 154.45 393.907 161.161 401.512 171.228L403.555 173.932L402.514 177.156C401.987 178.789 400.991 180.798 399.942 182.752C398.827 184.828 397.414 187.276 395.825 189.938C392.648 195.265 388.635 201.671 384.637 208.043C380.617 214.449 376.608 220.823 373.366 226.196C371.175 229.828 369.482 232.77 368.372 234.87C370.966 239.488 373.601 243.801 376.342 248.373C379.005 252.816 381.726 257.442 384.43 262.605L450.172 262.007L455.387 261.959L456.575 267.037C458.846 276.739 462.202 286.109 465.489 296.728C468.71 307.134 471.709 318.314 472.744 330.569L473.1 334.768L469.416 336.813L412.432 368.467L412.437 370.757V374.104Z" stroke="white" stroke-width="13.0308"/>
<path opacity="0.1" d="M1875.37 -251.93L1877.41 -249.091L1877.6 -248.829L1877.76 -248.549C1878.34 -247.539 1878.85 -246.497 1879.16 -245.887L1896.61 -215.091L1914.76 -214.84C1914.87 -215.01 1914.98 -215.191 1915.1 -215.382C1916.02 -216.889 1917.06 -218.731 1918.13 -220.684C1920.1 -224.291 1922.53 -228.969 1923.7 -231.072L1923.7 -231.074C1927.03 -237.025 1931.51 -245.708 1935.18 -251.289L1937.21 -254.376L1940.9 -254.222C1946.13 -254.003 1955.54 -251.973 1963.95 -249.68C1968.27 -248.504 1972.56 -247.198 1976.2 -245.909C1979.64 -244.688 1983.09 -243.284 1985.33 -241.806L1988.3 -239.845L1988.26 -236.285L1987.74 -194.975C1996.33 -190.737 2001.28 -187.191 2003.33 -185.761C2003.53 -185.872 2003.75 -186.003 2004.02 -186.161C2005.06 -186.784 2006.23 -187.525 2007.99 -188.605L2007.99 -188.606C2010.62 -190.218 2013.36 -191.784 2015.99 -193.281C2017.98 -194.417 2019.9 -195.511 2021.73 -196.591L2023.53 -197.669C2025.07 -198.603 2028.74 -200.919 2031.4 -202.518C2034.26 -204.246 2037.61 -206.178 2040.14 -207.195L2043.37 -208.494L2046.25 -206.525C2050.62 -203.533 2059.05 -195.638 2062.8 -191.622L2062.8 -191.62C2067.58 -186.501 2072.31 -181.953 2077.39 -175.226L2079.44 -172.522L2078.4 -169.295C2077.98 -168.012 2077.24 -166.535 2076.55 -165.252C2075.8 -163.848 2074.85 -162.209 2073.8 -160.45C2071.7 -156.93 2069.05 -152.706 2066.43 -148.531C2063.78 -144.322 2061.17 -140.16 2059.05 -136.656C2057.95 -134.836 2057.07 -133.328 2056.42 -132.15C2057.9 -129.56 2059.41 -127.079 2061.01 -124.421C2062.55 -121.845 2064.14 -119.148 2065.73 -116.186L2107.53 -116.566L2112.74 -116.614L2113.93 -111.537C2115.4 -105.274 2117.55 -99.3001 2119.74 -92.2114C2121.87 -85.3357 2123.9 -77.8191 2124.6 -69.5376L2124.95 -65.3374L2121.27 -63.2915L2085.02 -43.1704L2085.02 -42.9907V-40.8032L2085.03 -39.3755V-39.3247L2085.02 -34.8716L2121.27 -14.7485L2124.95 -12.7036L2124.6 -8.50342C2123.9 -0.22179 2121.87 7.29555 2119.74 14.1714C2117.55 21.2599 2115.4 27.2334 2113.93 33.4956L2112.74 38.5728L2107.53 38.5249L2065.73 38.144C2064.14 41.1068 2062.55 43.8036 2061.01 46.3804C2059.41 49.0377 2057.9 51.5185 2056.42 54.1079C2057.07 55.2858 2057.95 56.795 2059.05 58.6147C2061.17 62.1185 2063.78 66.2809 2066.43 70.4897C2069.05 74.6645 2071.7 78.8888 2073.8 82.4087C2074.85 84.1675 2075.8 85.8069 2076.55 87.2114C2077.24 88.4942 2077.98 89.9706 2078.4 91.2544L2079.44 94.481L2077.39 97.1851C2072.31 103.911 2067.58 108.461 2062.8 113.58L2062.8 113.581C2059.05 117.597 2050.62 125.493 2046.25 128.485L2043.37 130.453L2040.14 129.154C2037.61 128.137 2034.26 126.205 2031.4 124.477C2028.74 122.878 2025.07 120.563 2023.53 119.628C2021.17 118.195 2018.64 116.755 2015.99 115.24C2013.36 113.743 2010.62 112.177 2007.99 110.565L2007.99 110.564C2006.23 109.484 2005.06 108.743 2004.02 108.12C2003.75 107.962 2003.53 107.83 2003.33 107.719C2001.28 109.149 1996.33 112.695 1987.74 116.933L1988.26 158.244L1988.3 161.805L1985.33 163.766C1983.09 165.243 1979.64 166.647 1976.2 167.868C1972.56 169.157 1968.28 170.463 1963.95 171.639C1955.54 173.932 1946.13 175.962 1940.9 176.181L1937.21 176.335L1935.18 173.248C1931.51 167.667 1927.03 158.984 1923.7 153.033L1923.7 153.031C1922.52 150.921 1920.1 146.249 1918.12 142.635C1917.06 140.681 1916.02 138.839 1915.1 137.332C1914.98 137.141 1914.87 136.961 1914.76 136.792L1896.61 137.048L1879.17 167.829C1878.86 168.436 1878.35 169.488 1877.76 170.508L1877.59 170.789L1877.41 171.05L1875.37 173.889L1873.09 177.064L1869.21 176.546C1856.2 174.808 1838.39 170.24 1826.91 165.388L1822.9 163.691L1822.93 159.333L1823.28 117.761C1819.97 116.003 1816.38 113.927 1813.26 112.103C1811.03 110.792 1809.07 109.631 1807.46 108.698C1807.36 108.637 1807.26 108.579 1807.16 108.521C1805.39 109.47 1803.28 110.719 1801.01 112.121C1797.39 114.354 1794.13 116.487 1791.44 118.177L1791.44 118.176C1789.84 119.176 1785.5 121.951 1781.23 124.532C1779.09 125.823 1776.9 127.11 1775.02 128.134C1774.08 128.645 1773.16 129.123 1772.32 129.513C1771.6 129.849 1770.55 130.313 1769.48 130.566L1766.61 131.247L1764.21 129.539C1759.55 126.23 1752.85 120.162 1746.95 114.278C1741.14 108.498 1735.32 102.128 1732.84 98.1665L1731.26 95.6548L1732.12 92.8159C1732.87 90.3171 1734.73 86.9352 1736.58 83.7671C1738.57 80.3681 1741.05 76.4051 1743.52 72.4731C1747.61 65.9516 1751.46 59.8223 1753.67 55.6636C1753.29 55.0521 1752.88 54.4125 1752.44 53.7417C1751.37 52.0845 1750.08 50.1564 1748.94 48.2485L1748.93 48.2466C1747.67 46.1401 1746.59 44.054 1745.61 42.1489C1745.21 41.3794 1744.83 40.6398 1744.44 39.9165L1702.94 40.4282L1698.42 40.4839L1696.78 36.2642L1693.17 26.9146L1693.12 26.7827L1693.07 26.6489C1691.82 22.9392 1689.8 16.3262 1688.16 9.82764C1687.34 6.57815 1686.59 3.27186 1686.08 0.324707C1685.6 -2.44692 1685.21 -5.49356 1685.43 -7.94385L1685.73 -11.3374L1688.69 -13.0249L1724.29 -33.3374L1724.42 -39.4741C1724.42 -39.52 1724.44 -40.4708 1724.45 -40.8354C1724.43 -41.7941 1724.43 -42.2466 1724.42 -42.8413L1724.38 -44.6519L1688.69 -65.0151L1685.73 -66.7036L1685.43 -70.0962C1685.21 -72.5465 1685.6 -75.594 1686.08 -78.3657C1686.59 -81.3129 1687.34 -84.6192 1688.16 -87.8687C1689.8 -94.3669 1691.82 -100.979 1693.07 -104.689L1693.12 -104.824L1693.17 -104.956L1696.78 -114.304L1698.42 -118.525L1702.94 -118.469L1744.44 -117.958C1744.83 -118.682 1745.21 -119.421 1745.61 -120.19C1746.59 -122.095 1747.67 -124.18 1748.93 -126.287L1748.94 -126.29C1750.08 -128.197 1751.37 -130.125 1752.44 -131.783C1752.88 -132.454 1753.29 -133.094 1753.67 -133.706C1751.46 -137.864 1747.61 -143.992 1743.52 -150.513C1741.05 -154.445 1738.57 -158.408 1736.58 -161.807C1734.73 -164.975 1732.87 -168.357 1732.12 -170.856L1731.26 -173.696L1732.84 -176.208C1735.32 -180.169 1741.14 -186.538 1746.95 -192.318C1752.85 -198.202 1759.55 -204.271 1764.21 -207.58L1766.61 -209.288L1769.48 -208.607C1770.55 -208.354 1771.6 -207.889 1772.32 -207.553C1773.16 -207.164 1774.08 -206.686 1775.02 -206.175C1776.9 -205.151 1779.09 -203.863 1781.23 -202.572C1785.5 -199.991 1789.84 -197.218 1791.44 -196.218C1794.12 -194.537 1797.39 -192.392 1801 -190.167C1803.28 -188.767 1805.39 -187.52 1807.16 -186.571C1807.26 -186.629 1807.36 -186.688 1807.47 -186.75C1809.08 -187.682 1811.04 -188.843 1813.27 -190.152C1816.38 -191.974 1819.97 -194.047 1823.28 -195.803L1822.93 -237.374L1822.9 -241.732L1826.91 -243.429C1838.39 -248.281 1856.2 -252.849 1869.21 -254.587L1873.09 -255.105L1875.37 -251.93ZM1963.03 -142.376C1942.3 -154.161 1913.95 -159.526 1889.02 -156.272C1828.31 -148.345 1782.16 -98.9998 1782.16 -41.1577C1782.16 17.7725 1828.56 70.3373 1889.02 78.231C1913.95 81.4849 1942.3 76.1195 1963.03 64.3354C1975.55 57.2208 1987.93 48.0634 1996.64 37.4927L1996.64 37.4917C2012.29 18.486 2022.63 -1.03474 2026 -27.3433V-27.3442C2026.4 -30.452 2026.67 -36.5999 2026.84 -41.0454C2026.68 -44.2578 2026.41 -47.4758 2026 -50.6968V-50.6978C2022.63 -77.0068 2012.29 -96.5267 1996.64 -115.533L1996.64 -115.534C1987.93 -126.105 1975.55 -135.262 1963.03 -142.376Z" stroke="white" stroke-width="13.0308"/>
</g>
<defs>
<linearGradient id="paint0_linear_1484_7392" x1="1.65714e-08" y1="50.8023" x2="2462.77" y2="67.5955" gradientUnits="userSpaceOnUse">
<stop stop-color="#095574"/>
<stop offset="1" stop-color="#095574"/>
</linearGradient>
<clipPath id="clip0_1484_7392">
<rect width="1919" height="474.93" fill="white"/>
</clipPath>
</defs>
</svg>
