<svg width="74" height="74" viewBox="0 0 74 74" fill="none" xmlns="http://www.w3.org/2000/svg">
<path d="M46.644 18.8833C43.1261 16.869 38.3353 15.9577 34.1187 16.5122C23.8698 17.8602 16.0396 26.2608 16.0396 36.1567C16.0396 46.2205 23.8972 55.1727 34.1187 56.5171C38.3354 57.0716 43.1261 56.1594 46.644 54.145C48.746 52.9414 50.8456 51.3825 52.3315 49.5649C54.9666 46.3425 56.7227 43.0094 57.2935 38.5181C57.3627 37.9738 57.4081 36.9148 57.436 36.1753C57.4091 35.6227 57.3642 35.0677 57.2935 34.5112C56.7227 30.0198 54.9667 26.6869 52.3315 23.4644C50.8456 21.6467 48.7462 20.0869 46.644 18.8833ZM66.353 36.2183L66.354 36.4575V36.4624L66.3511 37.4341L72.5688 40.9116L72.9673 41.1343L72.9292 41.5894C72.8164 42.9335 72.4893 44.1601 72.1382 45.3022C71.78 46.4672 71.4142 47.4966 71.1665 48.562L71.0376 49.1157L70.4692 49.1108L63.2993 49.0444C63.0043 49.6117 62.7091 50.1208 62.4185 50.6089C62.1188 51.1122 61.831 51.5874 61.5474 52.0962C61.6685 52.3275 61.8537 52.6528 62.0942 53.0542C62.4478 53.6441 62.8845 54.3442 63.3228 55.0474C63.7587 55.7469 64.196 56.45 64.5425 57.0347C64.7157 57.3269 64.8703 57.596 64.9917 57.8237C65.106 58.0381 65.2138 58.2578 65.271 58.436L65.3833 58.7847L65.1636 59.0776C64.3346 60.1824 63.5721 60.9183 62.7642 61.7905V61.7915C62.1481 62.4561 60.7693 63.7533 60.0767 64.231L59.7632 64.4478L59.4097 64.3052C59.0211 64.1479 58.4895 63.8404 58.0103 63.5493C57.5541 63.2723 56.9863 62.9101 56.7046 62.7378C56.3072 62.4947 55.8819 62.2513 55.4419 61.9985C55.0055 61.7478 54.5556 61.4883 54.1245 61.2222C53.8382 61.0453 53.6352 60.9164 53.4604 60.811C53.2943 60.7109 53.1971 60.6599 53.1343 60.6333C53.1316 60.6348 53.1285 60.6365 53.1255 60.6382C52.8624 60.787 52.0463 61.4739 50.188 62.3716L50.2788 69.5337L50.2837 69.9194L49.9624 70.1323C49.6321 70.3518 49.0973 70.5745 48.5249 70.7788C47.9316 70.9906 47.2294 71.2067 46.5181 71.4019C45.1196 71.7855 43.5934 72.1141 42.769 72.1489L42.3657 72.1655L42.146 71.8276C41.547 70.9088 40.8178 69.4855 40.2534 68.4683C40.0544 68.1093 39.6684 67.3572 39.3286 66.731C39.15 66.4018 38.974 66.0874 38.8169 65.8276C38.7514 65.7193 38.6913 65.6289 38.6411 65.5532L35.2085 65.6021L32.2046 70.9419C32.1459 71.0559 32.0686 71.22 31.9722 71.3882L31.9546 71.4185L31.9351 71.4468L31.5962 71.9224L31.3481 72.27L30.9243 72.2134C28.7902 71.926 25.8641 71.1685 23.9927 70.3716L23.5581 70.186L23.562 69.7144L23.6206 62.52C23.0292 62.2117 22.353 61.821 21.769 61.4761C21.4005 61.2584 21.0709 61.0613 20.8032 60.9048C20.7181 60.855 20.6412 60.8113 20.5737 60.7729C20.232 60.9477 19.8031 61.2014 19.3501 61.4829C18.7514 61.855 18.1936 62.2227 17.7583 62.4976C17.49 62.6671 16.774 63.1283 16.0679 63.5581C15.7146 63.7731 15.3558 63.9853 15.0503 64.1528C14.8979 64.2364 14.7525 64.3128 14.6235 64.3735C14.5072 64.4284 14.3612 64.4919 14.2231 64.5249L13.9087 64.5991L13.646 64.4116C12.8982 63.8766 11.8042 62.8789 10.8267 61.8979C9.86022 60.9281 8.9231 59.8903 8.53564 59.269L8.36572 58.9976L8.4585 58.6909C8.56856 58.3241 8.85138 57.7969 9.16357 57.2593C9.49031 56.6966 9.89943 56.0384 10.3101 55.3794C11.0408 54.2066 11.749 53.0703 12.1089 52.3472C12.0118 52.1826 11.9063 52.0094 11.7896 51.8286C11.6984 51.6874 11.6011 51.5386 11.5034 51.3862L11.2144 50.9214C11.0118 50.5806 10.8374 50.2412 10.6733 49.9214C10.5708 49.7215 10.4701 49.5302 10.3677 49.3403L3.24951 49.4292L2.75635 49.4351L2.57959 48.9741L1.97803 47.4097L1.97314 47.396L1.96826 47.3813C1.7632 46.7697 1.43098 45.6725 1.16064 44.5952C1.02546 44.0565 0.903598 43.5128 0.820801 43.0327C0.741287 42.5716 0.685847 42.105 0.717285 41.7495L0.749512 41.3823L1.06982 41.1978L7.21826 37.6636C7.21635 37.5116 7.21477 37.3429 7.2124 37.1694H7.18115L7.1958 36.4468C7.19652 36.4121 7.19965 36.246 7.20068 36.1987C7.19866 36.0521 7.19779 35.9624 7.1958 35.8667L7.18506 35.3452L1.06982 31.8306L0.749512 31.647L0.717285 31.2788C0.685918 30.9233 0.741298 30.4566 0.820801 29.9956C0.903597 29.5156 1.0255 28.9727 1.16064 28.4341C1.43099 27.3567 1.76318 26.2597 1.96826 25.6479L1.97803 25.6187L2.57959 24.0542L2.75635 23.5942L3.24951 23.6001L10.3667 23.688C10.4691 23.4981 10.5708 23.3068 10.6733 23.1069C10.8374 22.7872 11.0118 22.4486 11.2144 22.1079L11.5034 21.6431C11.6012 21.4905 11.6983 21.3411 11.7896 21.1997C11.9063 21.0188 12.0117 20.8458 12.1089 20.6812C11.749 19.958 11.0407 18.8224 10.3101 17.6499C9.89945 16.9909 9.4913 16.3327 9.16455 15.77C8.85225 15.2322 8.56861 14.7053 8.4585 14.3384L8.36572 14.0317L8.53564 13.7603C8.92301 13.1391 9.86011 12.1013 10.8267 11.1313C11.8042 10.1504 12.8982 9.15275 13.646 8.61768L13.9087 8.4292L14.2231 8.50439C14.3612 8.53736 14.5072 8.60093 14.6235 8.65576C14.7524 8.71651 14.8979 8.79294 15.0503 8.87646C15.3558 9.04395 15.7146 9.2562 16.0679 9.47119C16.7737 9.90081 17.4898 10.3611 17.7583 10.5308C18.1922 10.8048 18.7525 11.1744 19.3501 11.5454C19.8032 11.8267 20.2329 12.0787 20.5747 12.2534C20.6421 12.2151 20.7193 12.1722 20.8042 12.1226C21.0719 11.9662 21.4007 11.7696 21.769 11.5522C22.3532 11.2075 23.0292 10.8155 23.6206 10.5073L23.562 3.31494L23.5581 2.84229L23.9927 2.65771C25.8641 1.86076 28.7902 1.10329 30.9243 0.815918L31.3481 0.759277L31.5962 1.10693L31.9351 1.58154L31.9546 1.61084L31.9722 1.64111C32.065 1.80303 32.1408 1.96047 32.1987 2.07373L35.2085 7.42529L38.6411 7.47314C38.6912 7.3976 38.7516 7.30766 38.8169 7.19971C38.9741 6.93997 39.15 6.62536 39.3286 6.29639C39.6681 5.67103 40.0548 4.91924 40.2534 4.56104L41.187 2.84424C41.5147 2.24632 41.8465 1.66009 42.146 1.20068L42.3657 0.862793L42.769 0.880371C43.5934 0.915196 45.1195 1.24383 46.5181 1.62744C47.2294 1.82256 47.9316 2.03865 48.5249 2.25049C49.0973 2.45484 49.6321 2.67749 49.9624 2.89697L50.2837 3.10986L50.2788 3.49561L50.188 10.6558C52.0471 11.5537 52.8626 12.2425 53.1255 12.3911C53.1281 12.3926 53.1309 12.3937 53.1333 12.395C53.1961 12.3685 53.2937 12.3187 53.4604 12.2183C53.6353 12.1129 53.8381 11.984 54.1245 11.8071C54.5556 11.541 55.0055 11.2815 55.4419 11.0308C55.882 10.7779 56.3071 10.5336 56.7046 10.2905C56.9862 10.1183 57.5542 9.75695 58.0103 9.47998C58.4895 9.1889 59.0211 8.88141 59.4097 8.72412L59.7632 8.58057L60.0767 8.79736C60.7694 9.27507 62.1482 10.5733 62.7642 11.2378C63.5721 12.11 64.3346 12.8468 65.1636 13.9517L65.3833 14.2446L65.271 14.5933C65.2138 14.7715 65.106 14.9912 64.9917 15.2056C64.8703 15.4333 64.7157 15.7024 64.5425 15.9946C64.1961 16.5792 63.7587 17.2825 63.3228 17.9819C62.8845 18.6851 62.4477 19.3852 62.0942 19.9751C61.8539 20.3762 61.6685 20.7008 61.5474 20.9321C61.8311 21.4412 62.1187 21.9169 62.4185 22.4204C62.709 22.9083 63.0044 23.4169 63.2993 23.9839L70.4692 23.9185L71.0376 23.9136L71.1665 24.4663C71.4142 25.5319 71.78 26.5618 72.1382 27.7271C72.4893 28.8692 72.8164 30.0958 72.9292 31.4399L72.9673 31.894L72.5688 32.1177L66.3521 35.5933L66.353 35.8511V36.2183Z" fill="#4598BB" stroke="white" stroke-width="1.41674"/>
</svg>
