<svg width="57" height="57" viewBox="0 0 57 57" fill="none" xmlns="http://www.w3.org/2000/svg">
<mask id="mask0_1762_7398" style="mask-type:alpha" maskUnits="userSpaceOnUse" x="0" y="0" width="57" height="57">
<rect width="56.4682" height="56.4682" fill="#D9D9D9"/>
</mask>
<g mask="url(#mask0_1762_7398)">
<path d="M7.99955 23.5284C7.99955 25.9334 8.40796 28.2406 9.22479 30.4499C10.042 32.6588 11.2218 34.6848 12.7641 36.5279C13.0907 36.8808 13.2607 37.2925 13.274 37.7631C13.287 38.2337 13.1234 38.639 12.7835 38.9789C12.4439 39.3185 12.0486 39.4589 11.5976 39.4001C11.1467 39.3413 10.7577 39.1354 10.4306 38.7825C8.58756 36.6649 7.17272 34.2958 6.18609 31.6751C5.19907 29.0545 4.70557 26.3389 4.70557 23.5284C4.70557 20.7179 5.19907 18.0024 6.18609 15.3817C7.17272 12.761 8.58756 10.3919 10.4306 8.27435C10.7577 7.92143 11.1467 7.72203 11.5976 7.67615C12.0486 7.63027 12.4439 7.77732 12.7835 8.1173C13.1234 8.45729 13.287 8.8559 13.274 9.31314C13.2607 9.77076 13.0907 10.176 12.7641 10.529C11.2218 12.372 10.042 14.398 9.22479 16.6069C8.40796 18.8163 7.99955 21.1234 7.99955 23.5284ZM15.7639 23.5284C15.7639 24.9138 15.9731 26.2471 16.3915 27.5282C16.8096 28.8094 17.437 29.9989 18.2738 31.0969C18.5613 31.4498 18.7114 31.8583 18.7244 32.3222C18.7377 32.7861 18.5744 33.188 18.2344 33.528C17.8944 33.868 17.5023 34.0313 17.058 34.018C16.6137 34.005 16.2476 33.8221 15.9598 33.4692C14.8489 32.0704 13.9895 30.5181 13.3817 28.8123C12.7739 27.1065 12.4699 25.3452 12.4699 23.5284C12.4699 21.7116 12.7739 19.9503 13.3817 18.2445C13.9895 16.5387 14.8489 14.9864 15.9598 13.5877C16.2476 13.2347 16.6137 13.0451 17.058 13.0189C17.5023 12.993 17.8944 13.1498 18.2344 13.4894C18.5744 13.8294 18.7377 14.2314 18.7244 14.6953C18.7114 15.1596 18.5613 15.5682 18.2738 15.9211C17.437 17.0191 16.8096 18.2151 16.3915 19.5092C15.9731 20.8032 15.7639 22.143 15.7639 23.5284ZM26.2735 47.4492V28.7047C25.1884 28.3125 24.3224 27.6394 23.6754 26.6853C23.0283 25.7309 22.7048 24.6786 22.7048 23.5284C22.7048 21.9861 23.2407 20.6789 24.3124 19.6068C25.3845 18.5351 26.6917 17.9992 28.234 17.9992C29.7763 17.9992 31.0835 18.5351 32.1556 19.6068C33.2273 20.6789 33.7632 21.9861 33.7632 23.5284C33.7632 24.6786 33.4396 25.7309 32.7926 26.6853C32.1456 27.6394 31.2795 28.3125 30.1945 28.7047V47.4492C30.1945 48.0111 30.0082 48.4783 29.6357 48.8509C29.2632 49.2234 28.7959 49.4097 28.234 49.4097C27.672 49.4097 27.2048 49.2234 26.8323 48.8509C26.4597 48.4783 26.2735 48.0111 26.2735 47.4492ZM40.704 23.5284C40.704 22.143 40.4948 20.8097 40.0764 19.5286C39.6584 18.2475 39.031 17.0579 38.1942 15.9599C37.9067 15.607 37.7565 15.1986 37.7436 14.7347C37.7303 14.2708 37.8936 13.8688 38.2336 13.5288C38.5735 13.1889 38.9657 13.0255 39.41 13.0389C39.8543 13.0518 40.2203 13.2347 40.5082 13.5877C41.6191 14.9864 42.4785 16.5387 43.0863 18.2445C43.6941 19.9503 43.998 21.7116 43.998 23.5284C43.998 25.3452 43.6941 27.1065 43.0863 28.8123C42.4785 30.5181 41.6191 32.0704 40.5082 33.4692C40.2203 33.8221 39.8608 34.005 39.4294 34.018C38.998 34.0313 38.6126 33.868 38.273 33.528C37.933 33.188 37.763 32.7861 37.763 32.3222C37.763 31.8583 37.9067 31.4498 38.1942 31.0969C39.031 29.9989 39.6584 28.8094 40.0764 27.5282C40.4948 26.2471 40.704 24.9138 40.704 23.5284ZM48.4684 23.5284C48.4684 21.1234 48.06 18.8163 47.2432 16.6069C46.426 14.398 45.2462 12.372 43.7039 10.529C43.3773 10.176 43.2073 9.76429 43.1939 9.29372C43.181 8.82316 43.3445 8.41788 43.6845 8.07789C44.0241 7.7383 44.4194 7.59791 44.8703 7.65673C45.3213 7.71555 45.7103 7.92143 46.0374 8.27435C47.8804 10.3919 49.2953 12.761 50.2819 15.3817C51.2689 18.0024 51.7624 20.7179 51.7624 23.5284C51.7624 26.3389 51.2689 29.0545 50.2819 31.6751C49.2953 34.2958 47.8804 36.6649 46.0374 38.7825C45.7103 39.1354 45.3213 39.3348 44.8703 39.3807C44.4194 39.4266 44.0241 39.2795 43.6845 38.9395C43.3445 38.5995 43.181 38.2009 43.1939 37.7437C43.2073 37.2861 43.3773 36.8808 43.7039 36.5279C45.2462 34.6848 46.426 32.6588 47.2432 30.4499C48.06 28.2406 48.4684 25.9334 48.4684 23.5284Z" fill="#08658C"/>
</g>
</svg>
