<svg width="57" height="57" viewBox="0 0 57 57" fill="none" xmlns="http://www.w3.org/2000/svg">
<mask id="mask0_1762_7392" style="mask-type:alpha" maskUnits="userSpaceOnUse" x="0" y="0" width="57" height="57">
<rect width="56.4682" height="56.4682" fill="#D9D9D9"/>
</mask>
<g mask="url(#mask0_1762_7392)">
<path d="M23.6855 45.4493L38.6848 27.45H28.4888L30.4693 11.7836L16.921 31.371H25.6854L23.6855 45.4493ZM21.1756 35.2926H13.1365C12.3557 35.2926 11.7783 34.943 11.4042 34.2439C11.0297 33.5443 11.0778 32.8678 11.5483 32.2145L30.6652 4.64686C31.0051 4.1763 31.4365 3.85278 31.9592 3.67632C32.4823 3.49985 33.0117 3.51613 33.5474 3.72514C34.0835 3.93454 34.4952 4.28315 34.7826 4.77098C35.0705 5.25919 35.1752 5.77995 35.0967 6.33326L32.9398 23.5284H42.8805C43.7264 23.5284 44.3203 23.901 44.6622 24.646C45.0038 25.3911 44.9065 26.0905 44.3705 26.7442L23.3714 51.9196C23.0071 52.3482 22.5598 52.6286 22.0296 52.7607C21.4995 52.8925 20.9926 52.844 20.5091 52.6154C20.0252 52.3868 19.6429 52.0355 19.3621 51.5614C19.0809 51.0876 18.9796 50.573 19.058 50.0173L21.1756 35.2926Z" fill="#08658C"/>
</g>
</svg>
