<svg width="98" height="98" viewBox="0 0 98 98" fill="none" xmlns="http://www.w3.org/2000/svg">
<mask id="mask0_1484_7463" style="mask-type:alpha" maskUnits="userSpaceOnUse" x="0" y="0" width="98" height="98">
<rect width="98" height="98" fill="#D9D9D9"/>
</mask>
<g mask="url(#mask0_1484_7463)">
<path d="M36.1998 59.7321C29.7767 59.7321 24.3173 57.4883 19.8215 53.0007C15.3251 48.5124 13.0769 43.0629 13.0769 36.652C13.0769 35.5101 13.1596 34.411 13.325 33.3547C13.4897 32.2992 13.7656 31.2454 14.1529 30.1932C14.3591 29.6386 14.6578 29.2163 15.0492 28.9264C15.4405 28.6371 15.8825 28.4364 16.3752 28.3241C16.8509 28.1968 17.3362 28.2026 17.8309 28.3414C18.3264 28.4796 18.7789 28.7498 19.1886 29.152L30.4525 40.3362L40.2107 30.8813L28.8028 19.4347C28.4013 19.025 28.1315 18.569 27.9933 18.0667C27.8545 17.5652 27.8531 17.0765 27.9892 16.6008C28.0927 16.1306 28.2958 15.7022 28.5987 15.3156C28.9008 14.9297 29.3163 14.6337 29.8451 14.4275C30.8972 14.0314 31.9399 13.7398 32.9729 13.5526C34.006 13.3648 35.083 13.2709 36.2039 13.2709C42.7045 13.2709 48.23 15.5426 52.7802 20.086C57.3311 24.63 59.6065 30.1473 59.6065 36.6378C59.6065 38.4072 59.4258 40.0746 59.0644 41.6398C58.7031 43.2051 58.1977 44.736 57.5485 46.2326L80.6928 69.3228C82.3316 70.9262 83.1438 72.8909 83.1296 75.2171C83.1159 77.5432 82.27 79.5117 80.5918 81.1226C78.9863 82.66 77.0563 83.4215 74.8016 83.4072C72.5469 83.3936 70.6141 82.5742 69.0033 80.9491L45.8007 57.6741C44.2532 58.2974 42.6964 58.7963 41.1304 59.1706C39.5645 59.5449 37.9209 59.7321 36.1998 59.7321ZM36.211 54.6013C37.9696 54.6013 39.7748 54.3356 41.6265 53.8041C43.4777 53.2732 45.144 52.4562 46.6256 51.3531L72.6732 77.4006C73.2714 77.9989 74.0067 78.2946 74.8792 78.2877C75.7517 78.2809 76.4785 77.9869 77.0597 77.4057C77.6586 76.8069 77.958 76.0712 77.958 75.1987C77.958 74.3262 77.6586 73.5994 77.0597 73.0182L51.2071 47.186C52.2973 45.7269 53.1147 44.0636 53.6591 42.1962C54.2036 40.3281 54.4758 38.4759 54.4758 36.6398C54.4758 31.6227 52.5729 27.2488 48.7673 23.518C44.9609 19.7872 40.3512 18.0851 34.938 18.4118L45.1964 28.7539C45.8334 29.3888 46.1407 30.1412 46.1182 31.0109C46.0951 31.8807 45.7653 32.634 45.129 33.271L32.6902 45.322C32.0423 45.9311 31.2865 46.2356 30.4229 46.2356C29.5593 46.2356 28.8229 45.9311 28.2138 45.322L18.176 35.326C17.9841 41.2291 19.7627 45.9175 23.5119 49.391C27.261 52.8646 31.4941 54.6013 36.211 54.6013Z" fill="white"/>
</g>
</svg>
