<svg width="17" height="17" viewBox="0 0 17 17" fill="none" xmlns="http://www.w3.org/2000/svg">
<mask id="mask0_1224_7392" style="mask-type:alpha" maskUnits="userSpaceOnUse" x="0" y="0" width="17" height="17">
<rect width="16.9485" height="16.9485" fill="#D9D9D9"/>
</mask>
<g mask="url(#mask0_1224_7392)">
<path d="M11.9418 6.12194L4.36687 13.697C4.21763 13.8461 4.03031 13.9207 3.80492 13.9207C3.57953 13.9207 3.39227 13.8461 3.24315 13.697C3.09391 13.5478 3.01929 13.3605 3.01929 13.1351C3.01929 12.9097 3.09391 12.7224 3.24315 12.5731L10.818 4.99822H7.09557C6.87018 4.99822 6.67998 4.92066 6.52497 4.76553C6.36984 4.61052 6.29228 4.42032 6.29228 4.19493C6.29228 3.96954 6.36984 3.77929 6.52497 3.62416C6.67998 3.46915 6.87018 3.39165 7.09557 3.39165H12.7451C12.9706 3.39165 13.1608 3.46915 13.3158 3.62416C13.4708 3.77929 13.5483 3.96954 13.5483 4.19493V9.84442C13.5483 10.0698 13.4708 10.26 13.3158 10.415C13.1608 10.5701 12.9706 10.6477 12.7451 10.6477C12.5197 10.6477 12.3295 10.5701 12.1745 10.415C12.0193 10.26 11.9418 10.0698 11.9418 9.84442V6.12194Z" fill="white"/>
</g>
</svg>
