<svg width="57" height="57" viewBox="0 0 57 57" fill="none" xmlns="http://www.w3.org/2000/svg">
<mask id="mask0_1712_7416" style="mask-type:alpha" maskUnits="userSpaceOnUse" x="0" y="0" width="57" height="57">
<rect width="56.4682" height="56.4682" fill="#D9D9D9"/>
</mask>
<g mask="url(#mask0_1712_7416)">
<path d="M15.9598 35.1749H31.8221C32.4758 35.1749 32.9659 34.9714 33.2926 34.5644C33.6192 34.1573 33.7826 33.7097 33.7826 33.2215C33.7826 32.7329 33.6192 32.2827 33.2926 31.871C32.9659 31.4592 32.4758 31.2533 31.8221 31.2533H15.9598C15.4045 31.2533 14.9389 31.442 14.5628 31.8192C14.1871 32.1964 13.9993 32.6637 13.9993 33.2209C13.9993 33.7785 14.1871 34.2436 14.5628 34.6161C14.9389 34.9887 15.4045 35.1749 15.9598 35.1749ZM15.9598 25.0577H25.8029C26.3582 25.0577 26.8238 24.8691 27.1999 24.4919C27.5756 24.115 27.7634 23.6478 27.7634 23.0902C27.7634 22.5325 27.5756 22.0675 27.1999 21.6949C26.8238 21.3224 26.3582 21.1361 25.8029 21.1361H15.9598C15.4045 21.1361 14.9389 21.3247 14.5628 21.702C14.1871 22.0792 13.9993 22.5465 13.9993 23.1037C13.9993 23.6613 14.1871 24.1264 14.5628 24.4989C14.9389 24.8715 15.4045 25.0577 15.9598 25.0577ZM8.62717 44.7039C7.54878 44.7039 6.62549 44.32 5.85728 43.5522C5.08947 42.784 4.70557 41.8607 4.70557 40.7823V15.6858C4.70557 14.6074 5.08947 13.6841 5.85728 12.9159C6.62549 12.1481 7.54878 11.7642 8.62717 11.7642H47.8408C48.9192 11.7642 49.8425 12.1481 50.6107 12.9159C51.3785 13.6841 51.7624 14.6074 51.7624 15.6858V20.7444C51.7624 21.2996 51.5738 21.7653 51.1965 22.1414C50.8197 22.517 50.3525 22.7049 49.7948 22.7049C49.2372 22.7049 48.7721 22.517 48.3996 22.1414C48.0271 21.7653 47.8408 21.2996 47.8408 20.7444V15.6858H8.62717V40.7435H25.0971C25.6523 40.7435 26.118 40.9319 26.4941 41.3088C26.8697 41.686 27.0576 42.1535 27.0576 42.7111C27.0576 43.2683 26.8697 43.7399 26.4941 44.1257C26.118 44.5112 25.6523 44.7039 25.0971 44.7039H8.62717ZM53.8406 28.4693C54.0366 28.6654 54.1347 28.9007 54.1347 29.1752C54.1347 29.4497 54.0351 29.6865 53.8358 29.8857L51.6842 32.038L48.3508 28.7046L50.586 26.4694C50.7762 26.2734 50.9854 26.1753 51.2136 26.1753C51.4418 26.1753 51.6508 26.2734 51.8406 26.4694L53.8406 28.4693ZM50.1936 33.5279L34.9002 48.8214C34.6912 49.0304 34.4694 49.1808 34.2349 49.2726C34.0004 49.3639 33.7579 49.4096 33.5073 49.4096H31.9591C31.698 49.4096 31.4693 49.3116 31.2733 49.1155C31.0772 48.9195 30.9792 48.6906 30.9792 48.4291V46.8809C30.9792 46.6307 31.0248 46.3884 31.1162 46.1539C31.2076 45.9194 31.358 45.6974 31.5674 45.488L46.8608 30.1946L50.1936 33.5279Z" fill="#08658C"/>
</g>
</svg>
