<svg width="35" height="35" viewBox="0 0 35 35" fill="none" xmlns="http://www.w3.org/2000/svg">
<g opacity="0.8">
<mask id="mask0_1566_7549" style="mask-type:alpha" maskUnits="userSpaceOnUse" x="0" y="0" width="35" height="35">
<rect x="35" y="1.5299e-06" width="35" height="35" transform="rotate(90 35 1.5299e-06)" fill="#D9D9D9"/>
</mask>
<g mask="url(#mask0_1566_7549)">
<path d="M17.4999 20.3638L24.2177 13.5024C24.5335 13.1798 24.9355 13.0186 25.4235 13.0186C25.9116 13.0186 26.3135 13.1798 26.6293 13.5024C26.9451 13.8249 27.103 14.2354 27.103 14.7339C27.103 15.2324 26.9451 15.6429 26.6293 15.9654L18.7057 24.0584C18.5334 24.2343 18.3468 24.3589 18.1459 24.4322C17.9449 24.5056 17.7296 24.5422 17.4999 24.5422C17.2703 24.5422 17.0549 24.5056 16.854 24.4322C16.653 24.3589 16.4664 24.2343 16.2942 24.0584L8.37057 15.9654C8.05478 15.6429 7.89688 15.2324 7.89688 14.7339C7.89688 14.2354 8.05478 13.8249 8.37057 13.5024C8.68637 13.1798 9.08829 13.0186 9.57634 13.0186C10.0644 13.0186 10.4663 13.1798 10.7821 13.5024L17.4999 20.3638Z" fill="#08658C"/>
</g>
</g>
</svg>
