<svg width="57" height="57" viewBox="0 0 57 57" fill="none" xmlns="http://www.w3.org/2000/svg">
<mask id="mask0_1712_7425" style="mask-type:alpha" maskUnits="userSpaceOnUse" x="0" y="0" width="57" height="57">
<rect width="56.4682" height="56.4682" fill="#D9D9D9"/>
</mask>
<g mask="url(#mask0_1712_7425)">
<path d="M23.1362 15.6857H40.3907C40.946 15.6857 41.4117 15.8741 41.7877 16.251C42.1634 16.6282 42.3512 17.0956 42.3512 17.6533C42.3512 18.2105 42.1634 18.6754 41.7877 19.0479C41.4117 19.4204 40.946 19.6067 40.3907 19.6067H23.1362C22.5809 19.6067 22.1152 19.4183 21.7392 19.0414C21.3635 18.6642 21.1756 18.1968 21.1756 17.6391C21.1756 17.0819 21.3635 16.617 21.7392 16.2445C22.1152 15.872 22.5809 15.6857 23.1362 15.6857ZM23.1362 22.7442H40.3907C40.946 22.7442 41.4117 22.9326 41.7877 23.3095C42.1634 23.6867 42.3512 24.1542 42.3512 24.7118C42.3512 25.269 42.1634 25.7339 41.7877 26.1064C41.4117 26.479 40.946 26.6652 40.3907 26.6652H23.1362C22.5809 26.6652 22.1152 26.4768 21.7392 26.1C21.3635 25.7227 21.1756 25.2553 21.1756 24.6977C21.1756 24.1404 21.3635 23.6755 21.7392 23.303C22.1152 22.9305 22.5809 22.7442 23.1362 22.7442ZM13.5289 51.7624C11.7317 51.7624 10.204 51.1334 8.94557 49.8754C7.68759 48.617 7.05859 47.0893 7.05859 45.2921V39.6059C7.05859 39.0506 7.24643 38.5849 7.6221 38.2089C7.99816 37.8332 8.46383 37.6454 9.0191 37.6454H14.1171V8.62716C14.1171 7.54878 14.501 6.62549 15.2688 5.85728C16.037 5.08947 16.9603 4.70557 18.0387 4.70557H45.4882C46.5665 4.70557 47.4898 5.08947 48.258 5.85728C49.0258 6.62549 49.4097 7.54878 49.4097 8.62716V23.9206C49.4097 24.4759 49.2211 24.9416 48.8439 25.3176C48.467 25.6933 47.9998 25.8811 47.4422 25.8811C46.8846 25.8811 46.4195 25.6933 46.0469 25.3176C45.6744 24.9416 45.4882 24.4759 45.4882 23.9206V8.62716H18.0387V37.6454H27.0577C27.6134 37.6454 28.0791 37.834 28.4548 38.2112C28.8304 38.5881 29.0183 39.0553 29.0183 39.6129C29.0183 40.1705 28.8304 40.6356 28.4548 41.0082C28.0791 41.3807 27.6134 41.567 27.0577 41.567H10.9802V45.2921C10.9802 46.0144 11.2253 46.6199 11.7155 47.1085C12.2056 47.5967 12.797 47.8408 13.4895 47.8408H27.0577C27.6134 47.8408 28.0791 48.0294 28.4548 48.4067C28.8304 48.7839 29.0183 49.2511 29.0183 49.8084C29.0183 50.366 28.8304 50.8311 28.4548 51.2036C28.0791 51.5761 27.6134 51.7624 27.0577 51.7624H13.5289ZM32.9399 49.8019V45.3315C32.9399 45.0813 32.9855 44.839 33.0769 44.6045C33.1687 44.37 33.3191 44.1482 33.5281 43.9392L45.924 31.5956C46.2801 31.2395 46.6755 30.9825 47.1104 30.8245C47.5453 30.666 47.9784 30.5868 48.4098 30.5868C48.8804 30.5868 49.3313 30.6751 49.7627 30.8515C50.194 31.028 50.5862 31.2927 50.9391 31.6456L53.1155 33.822C53.4555 34.1749 53.707 34.5671 53.8702 34.9984C54.0337 35.4298 54.1154 35.8611 54.1154 36.2925C54.1154 36.7238 54.0305 37.165 53.8607 37.6159C53.6905 38.0669 53.428 38.4704 53.0731 38.8265L40.7631 51.1742C40.554 51.3832 40.3323 51.5336 40.0978 51.6253C39.8633 51.7167 39.6209 51.7624 39.3708 51.7624H34.9004C34.3451 51.7624 33.8794 51.5746 33.5034 51.1989C33.1277 50.8228 32.9399 50.3572 32.9399 49.8019ZM36.4691 48.2331H38.7043L45.8217 41.057L44.7629 39.9394L43.6453 38.8806L36.4691 45.9979V48.2331ZM44.7629 39.9394L43.6453 38.8806L45.8217 41.057L44.7629 39.9394Z" fill="#08658C"/>
</g>
</svg>
