<svg width="57" height="57" viewBox="0 0 57 57" fill="none" xmlns="http://www.w3.org/2000/svg">
<mask id="mask0_1762_7404" style="mask-type:alpha" maskUnits="userSpaceOnUse" x="0" y="0" width="57" height="57">
<rect width="56.4682" height="56.4682" fill="#D9D9D9"/>
</mask>
<g mask="url(#mask0_1762_7404)">
<path d="M12.5484 44.547V46.6645C12.5484 47.4272 12.2807 48.0754 11.7455 48.6091C11.2098 49.1428 10.5594 49.4097 9.79436 49.4097C9.02929 49.4097 8.38207 49.1428 7.85268 48.6091C7.32329 48.0754 7.05859 47.4272 7.05859 46.6645V29.1358C7.05859 28.9225 7.07173 28.709 7.098 28.4953C7.12389 28.282 7.17604 28.0708 7.25447 27.8618L11.7837 14.4306C12.0452 13.6204 12.5191 12.9734 13.2054 12.4895C13.8916 12.006 14.6596 11.7642 15.5094 11.7642H40.9589C41.8087 11.7642 42.5767 12.006 43.2629 12.4895C43.9492 12.9734 44.4231 13.6204 44.6846 14.4306L49.2139 27.8618C49.2923 28.0708 49.3445 28.282 49.3703 28.4953C49.3966 28.709 49.4097 28.9225 49.4097 29.1358V46.6645C49.4097 47.4272 49.1419 48.0754 48.6063 48.6091C48.071 49.1428 47.4208 49.4097 46.6557 49.4097C45.8907 49.4097 45.2434 49.1428 44.7141 48.6091C44.1847 48.0754 43.92 47.4272 43.92 46.6645V44.547H12.5484ZM12.5095 24.5478H43.9588L40.9789 15.6858H15.4894L12.5095 24.5478ZM17.0882 37.8808C18.0222 37.8808 18.8063 37.5606 19.4404 36.9202C20.0745 36.2795 20.3916 35.5017 20.3916 34.5868C20.3916 33.65 20.0712 32.8537 19.4304 32.1981C18.7901 31.5424 18.0124 31.2146 17.0976 31.2146C16.1608 31.2146 15.3645 31.5414 14.7089 32.1951C14.0528 32.8492 13.7248 33.6433 13.7248 34.5774C13.7248 35.5118 14.0518 36.2959 14.7059 36.9296C15.36 37.5637 16.1541 37.8808 17.0882 37.8808ZM39.4102 37.8808C40.347 37.8808 41.1432 37.5606 41.7989 36.9202C42.4545 36.2795 42.7824 35.5017 42.7824 34.5868C42.7824 33.65 42.4555 32.8537 41.8018 32.1981C41.1477 31.5424 40.3537 31.2146 39.4196 31.2146C38.4851 31.2146 37.701 31.5414 37.0673 32.1951C36.4332 32.8492 36.1162 33.6433 36.1162 34.5774C36.1162 35.5118 36.4364 36.2959 37.0767 36.9296C37.7175 37.5637 38.4953 37.8808 39.4102 37.8808ZM10.9802 40.6259H45.4881V28.4694H10.9802V40.6259Z" fill="#08658C"/>
</g>
</svg>
