<svg width="27" height="27" viewBox="0 0 27 27" fill="none" xmlns="http://www.w3.org/2000/svg">
<mask id="mask0_1363_7737" style="mask-type:alpha" maskUnits="userSpaceOnUse" x="0" y="0" width="27" height="27">
<rect width="27" height="27" fill="#D9D9D9"/>
</mask>
<g mask="url(#mask0_1363_7737)">
<path d="M13.5 24.75C11.5125 24.75 9.89062 24.4359 8.63437 23.8078C7.37812 23.1797 6.75 22.3687 6.75 21.375C6.75 21.0187 6.82969 20.6906 6.98906 20.3906C7.14844 20.0906 7.3875 19.8094 7.70625 19.5469C7.96875 19.3594 8.25469 19.2844 8.56406 19.3219C8.87344 19.3594 9.12188 19.5094 9.30938 19.7719C9.49688 20.0344 9.56719 20.3203 9.52031 20.6297C9.47344 20.9391 9.31875 21.1875 9.05625 21.375C9.3 21.675 9.8625 21.9375 10.7438 22.1625C11.625 22.3875 12.5437 22.5 13.5 22.5C14.4563 22.5 15.375 22.3875 16.2562 22.1625C17.1375 21.9375 17.7 21.675 17.9437 21.375C17.6812 21.1875 17.5266 20.9391 17.4797 20.6297C17.4328 20.3203 17.5031 20.0344 17.6906 19.7719C17.8781 19.5094 18.1266 19.3594 18.4359 19.3219C18.7453 19.2844 19.0313 19.3594 19.2938 19.5469C19.6125 19.8094 19.8516 20.0906 20.0109 20.3906C20.1703 20.6906 20.25 21.0187 20.25 21.375C20.25 22.3687 19.6219 23.1797 18.3656 23.8078C17.1094 24.4359 15.4875 24.75 13.5 24.75ZM13.5281 18.5625C15.3844 17.1937 16.7813 15.8203 17.7188 14.4422C18.6562 13.0641 19.125 11.6813 19.125 10.2938C19.125 8.38125 18.5156 6.9375 17.2969 5.9625C16.0781 4.9875 14.8125 4.5 13.5 4.5C12.1875 4.5 10.9219 4.9875 9.70312 5.9625C8.48437 6.9375 7.875 8.38125 7.875 10.2938C7.875 11.55 8.33438 12.8578 9.25313 14.2172C10.1719 15.5766 11.5969 17.025 13.5281 18.5625ZM13.5 20.8406C13.275 20.8406 13.05 20.8031 12.825 20.7281C12.6 20.6531 12.3937 20.5406 12.2062 20.3906C9.99375 18.6281 8.34375 16.9078 7.25625 15.2297C6.16875 13.5516 5.625 11.9063 5.625 10.2938C5.625 8.9625 5.86406 7.79531 6.34219 6.79219C6.82031 5.78906 7.43438 4.95 8.18438 4.275C8.93438 3.6 9.77813 3.09375 10.7156 2.75625C11.6531 2.41875 12.5812 2.25 13.5 2.25C14.4188 2.25 15.3469 2.41875 16.2844 2.75625C17.2219 3.09375 18.0656 3.6 18.8156 4.275C19.5656 4.95 20.1797 5.78906 20.6578 6.79219C21.1359 7.79531 21.375 8.9625 21.375 10.2938C21.375 11.9063 20.8313 13.5516 19.7438 15.2297C18.6563 16.9078 17.0063 18.6281 14.7938 20.3906C14.6063 20.5406 14.4 20.6531 14.175 20.7281C13.95 20.8031 13.725 20.8406 13.5 20.8406ZM13.5 12.375C14.1188 12.375 14.6484 12.1547 15.0891 11.7141C15.5297 11.2734 15.75 10.7438 15.75 10.125C15.75 9.50625 15.5297 8.97656 15.0891 8.53594C14.6484 8.09531 14.1188 7.875 13.5 7.875C12.8812 7.875 12.3516 8.09531 11.9109 8.53594C11.4703 8.97656 11.25 9.50625 11.25 10.125C11.25 10.7438 11.4703 11.2734 11.9109 11.7141C12.3516 12.1547 12.8812 12.375 13.5 12.375Z" fill="#08658C"/>
</g>
</svg>
