<svg width="57" height="57" viewBox="0 0 57 57" fill="none" xmlns="http://www.w3.org/2000/svg">
<mask id="mask0_1712_7404" style="mask-type:alpha" maskUnits="userSpaceOnUse" x="0" y="0" width="57" height="57">
<rect width="56.4682" height="56.4682" fill="#D9D9D9"/>
</mask>
<g mask="url(#mask0_1712_7404)">
<path d="M20.7832 29.8027H35.685C36.2402 29.8027 36.7059 29.6141 37.082 29.2369C37.4576 28.8596 37.6455 28.3924 37.6455 27.8352C37.6455 27.2776 37.4576 26.8125 37.082 26.4399C36.7059 26.0674 36.2402 25.8811 35.685 25.8811H20.7832C20.228 25.8811 19.7623 26.0698 19.3862 26.447C19.0106 26.8238 18.8227 27.2911 18.8227 27.8487C18.8227 28.4063 19.0106 28.8714 19.3862 29.2439C19.7623 29.6165 20.228 29.8027 20.7832 29.8027ZM20.7832 36.8613H35.685C36.2402 36.8613 36.7059 36.6726 37.082 36.2954C37.4576 35.9182 37.6455 35.4509 37.6455 34.8937C37.6455 34.3361 37.4576 33.871 37.082 33.4985C36.7059 33.1259 36.2402 32.9397 35.685 32.9397H20.7832C20.228 32.9397 19.7623 33.1283 19.3862 33.5055C19.0106 33.8824 18.8227 34.3496 18.8227 34.9072C18.8227 35.4649 19.0106 35.9299 19.3862 36.3025C19.7623 36.675 20.228 36.8613 20.7832 36.8613ZM20.7832 43.9198H28.6264C29.1817 43.9198 29.6474 43.7312 30.0234 43.3539C30.3991 42.9767 30.587 42.5095 30.587 41.9522C30.587 41.3946 30.3991 40.9295 30.0234 40.557C29.6474 40.1845 29.1817 39.9982 28.6264 39.9982H20.7832C20.228 39.9982 19.7623 40.1868 19.3862 40.5641C19.0106 40.9409 18.8227 41.4081 18.8227 41.9658C18.8227 42.5234 19.0106 42.9885 19.3862 43.361C19.7623 43.7335 20.228 43.9198 20.7832 43.9198ZM13.333 51.7624C12.2742 51.7624 11.3558 51.3736 10.5778 50.596C9.80018 49.818 9.41138 48.8996 9.41138 47.8408V8.62716C9.41138 7.56839 9.80018 6.65 10.5778 5.87199C11.3558 5.09437 12.2742 4.70557 13.333 4.70557H32.1357C32.6702 4.70557 33.1798 4.81007 33.6645 5.01908C34.1488 5.22849 34.5674 5.50965 34.9203 5.86258L45.8998 16.8421C46.2528 17.195 46.5339 17.6136 46.7433 18.0979C46.9523 18.5826 47.0568 19.0922 47.0568 19.6267V47.8408C47.0568 48.8996 46.668 49.818 45.8904 50.596C45.1124 51.3736 44.194 51.7624 43.1352 51.7624H13.333ZM43.1352 19.842H34.7438C33.9266 19.842 33.2321 19.5561 32.6604 18.9844C32.0887 18.4126 31.8028 17.7182 31.8028 16.9009V8.62716H13.333V47.8408H43.1352V19.842Z" fill="#08658C"/>
</g>
</svg>
