<svg width="56" height="56" viewBox="0 0 56 56" fill="none" xmlns="http://www.w3.org/2000/svg">
<mask id="mask0_1319_7395" style="mask-type:alpha" maskUnits="userSpaceOnUse" x="0" y="0" width="56" height="56">
<rect width="56" height="56" fill="#D9D9D9"/>
</mask>
<g mask="url(#mask0_1319_7395)">
<path d="M6.88908 8.55571V24.6359V24.5V47.4442V8.55571ZM6.88908 51.3333C5.83908 51.3333 4.92831 50.9477 4.15675 50.1765C3.38558 49.405 3 48.4942 3 47.4442V8.55571C3 7.50571 3.38558 6.59493 4.15675 5.82338C4.92831 5.05221 5.83908 4.66663 6.88908 4.66663H25.5359C26.066 4.66663 26.5713 4.77027 27.052 4.97754C27.5323 5.18521 27.9474 5.46404 28.2974 5.81404L39.1859 16.7025C39.5359 17.0525 39.8148 17.4677 40.0224 17.948C40.2297 18.4286 40.3333 18.934 40.3333 19.464V23.8583C40.3333 24.4179 40.1463 24.8785 39.7722 25.2402C39.3984 25.6023 38.9351 25.7833 38.3821 25.7833C37.8291 25.7833 37.3679 25.597 36.9984 25.2245C36.629 24.8515 36.4443 24.3897 36.4443 23.839V19.6775H27.15C26.5989 19.6775 26.1371 19.4913 25.7646 19.1187C25.392 18.7462 25.2058 18.2844 25.2058 17.7333V8.55571H6.88908V47.4442H23.3391C23.8898 47.4442 24.3516 47.6313 24.7245 48.0054C25.0971 48.3795 25.2833 48.8429 25.2833 49.3955C25.2833 49.9485 25.0971 50.4097 24.7245 50.7791C24.3516 51.1486 23.8898 51.3333 23.3391 51.3333H6.88908ZM34.5 44.7224C36.2628 44.7224 37.7406 44.126 38.9333 42.9333C40.1261 41.7406 40.7224 40.2628 40.7224 38.5C40.7224 36.7371 40.1261 35.2594 38.9333 34.0666C37.7406 32.8739 36.2628 32.2775 34.5 32.2775C32.7372 32.2775 31.2594 32.8739 30.0667 34.0666C28.8739 35.2594 28.2776 36.7371 28.2776 38.5C28.2776 40.2628 28.8739 41.7406 30.0667 42.9333C31.2594 44.126 32.7372 44.7224 34.5 44.7224ZM47.7609 51.7609C47.3853 52.1369 46.9316 52.325 46.4 52.325C45.8684 52.325 45.4147 52.1369 45.0391 51.7609L40.1391 46.8609C39.3224 47.4053 38.4377 47.8331 37.4849 48.1442C36.5321 48.4553 35.5372 48.6109 34.5 48.6109C31.6914 48.6109 29.3041 47.6274 27.3378 45.6604C25.372 43.6938 24.3891 41.3054 24.3891 38.4953C24.3891 35.6856 25.3726 33.2988 27.3396 31.3349C29.3062 29.371 31.6946 28.389 34.5047 28.389C37.3144 28.389 39.7012 29.372 41.6651 31.3378C43.629 33.304 44.6109 35.6914 44.6109 38.5C44.6109 39.5371 44.4554 40.5321 44.1443 41.4849C43.8331 42.4377 43.4054 43.3224 42.8609 44.139L47.7609 49.039C48.137 49.4147 48.325 49.8684 48.325 50.4C48.325 50.9316 48.137 51.3852 47.7609 51.7609Z" fill="#08658C"/>
</g>
</svg>
