<svg width="56" height="56" viewBox="0 0 56 56" fill="none" xmlns="http://www.w3.org/2000/svg">
<mask id="mask0_1230_7398" style="mask-type:alpha" maskUnits="userSpaceOnUse" x="0" y="0" width="56" height="56">
<rect width="56" height="56" fill="#D9D9D9"/>
</mask>
<g mask="url(#mask0_1230_7398)">
<path d="M26.3275 33.6L11.1416 31.7724C10.325 31.6814 9.79024 31.2406 9.53746 30.45C9.28468 29.6594 9.45638 28.9853 10.0525 28.4276L35.1166 5.09425C35.285 4.95192 35.473 4.83856 35.6807 4.75417C35.888 4.66978 36.1861 4.62759 36.575 4.62759C37.2232 4.62759 37.7191 4.89981 38.0625 5.44425C38.4058 5.9887 38.4092 6.54617 38.0724 7.11667L29.6724 22.4L44.8583 24.2276C45.675 24.3186 46.2097 24.7594 46.4625 25.55C46.7152 26.3406 46.5435 27.0148 45.9474 27.5724L20.8833 50.9058C20.7149 51.0481 20.5269 51.1614 20.3192 51.2458C20.1119 51.3302 19.8138 51.3724 19.425 51.3724C18.7767 51.3724 18.2808 51.1002 17.9375 50.5558C17.5941 50.0113 17.5908 49.4538 17.9275 48.8833L26.3275 33.6ZM27.3775 39.2974L40.3083 27.6308L23.5275 25.5693L28.6025 16.7224L15.6525 28.4276L32.414 30.4308L27.3775 39.2974Z" fill="#08658C"/>
</g>
</svg>
