<svg width="57" height="57" viewBox="0 0 57 57" fill="none" xmlns="http://www.w3.org/2000/svg">
<mask id="mask0_1762_7413" style="mask-type:alpha" maskUnits="userSpaceOnUse" x="0" y="0" width="57" height="57">
<rect width="56.4682" height="56.4682" fill="#D9D9D9"/>
</mask>
<g mask="url(#mask0_1762_7413)">
<path d="M25.8813 51.7625C20.6266 51.7625 16.1759 49.9391 12.529 46.2922C8.88205 42.6452 7.05859 38.1945 7.05859 32.9398C7.05859 28.4302 8.43108 24.0709 11.1761 19.8621C13.921 15.6529 17.6921 12.032 22.4891 8.99961C23.2212 8.5161 23.9696 8.49983 24.7343 8.95079C25.499 9.40175 25.8813 10.0782 25.8813 10.9801V14.8229C25.8813 16.1562 26.3421 17.2738 27.2636 18.1757C28.1852 19.0776 29.3126 19.5286 30.6458 19.5286C31.3387 19.5286 31.9891 19.3815 32.5969 19.0874C33.2047 18.7933 33.7439 18.3586 34.2145 17.7834C34.5282 17.4175 34.8974 17.1724 35.3221 17.0481C35.7468 16.9242 36.1487 16.9928 36.5279 17.254C39.0768 19.0186 41.0768 21.2865 42.5277 24.0578C43.9786 26.8291 44.7041 29.7897 44.7041 32.9398C44.7041 38.1945 42.8806 42.6452 39.2337 46.2922C35.5868 49.9391 31.136 51.7625 25.8813 51.7625ZM10.9802 32.9398C10.9802 35.2663 11.49 37.459 12.5095 39.5177C13.5291 41.5765 14.9604 43.3184 16.8035 44.7434C16.6858 44.3642 16.6007 43.985 16.5482 43.6058C16.496 43.227 16.47 42.848 16.47 42.4688C16.47 41.2139 16.7052 40.0375 17.1758 38.9395C17.6464 37.8415 18.3326 36.8416 19.2345 35.9397L25.8813 29.4105L32.5281 35.9397C33.43 36.8416 34.1163 37.8415 34.5868 38.9395C35.0574 40.0375 35.2927 41.2139 35.2927 42.4688C35.2927 42.848 35.2666 43.227 35.2145 43.6058C35.1619 43.985 35.0768 44.3642 34.9592 44.7434C36.8022 43.3184 38.2336 41.5765 39.2531 39.5177C40.2727 37.459 40.7825 35.2663 40.7825 32.9398C40.7825 30.8744 40.3609 28.8778 39.5178 26.95C38.6747 25.0219 37.4624 23.267 35.8809 21.6855C35.0704 22.2475 34.2208 22.682 33.3322 22.989C32.4432 23.2965 31.5478 23.4502 30.6458 23.4502C28.2408 23.4502 26.218 22.6396 24.5773 21.0185C22.9369 19.3978 22.0711 17.3718 21.9797 14.9405V14.1565C18.5548 16.7446 15.8653 19.7084 13.9112 23.0478C11.9572 26.3877 10.9802 29.685 10.9802 32.9398ZM25.8813 34.9003L21.9797 38.7437C21.4699 39.2534 21.0778 39.822 20.8033 40.4495C20.5288 41.0769 20.3916 41.75 20.3916 42.4688C20.3916 43.9589 20.9241 45.2269 21.9891 46.2727C23.0546 47.3182 24.352 47.8409 25.8813 47.8409C27.4107 47.8409 28.7081 47.3182 29.7735 46.2727C30.8386 45.2269 31.3711 43.9589 31.3711 42.4688C31.3711 41.7367 31.2338 41.0602 30.9593 40.4395C30.6849 39.8187 30.2927 39.2534 29.7829 38.7437L25.8813 34.9003ZM49.8021 25.4889C49.266 25.4889 48.8053 25.2962 48.4198 24.9107C48.0339 24.5252 47.841 24.0645 47.841 23.5284C47.841 22.9665 48.0339 22.4992 48.4198 22.1267C48.8053 21.7542 49.266 21.5679 49.8021 21.5679C50.364 21.5679 50.8313 21.7542 51.2038 22.1267C51.5763 22.4992 51.7626 22.9665 51.7626 23.5284C51.7626 24.0645 51.5763 24.5252 51.2038 24.9107C50.8313 25.2962 50.364 25.4889 49.8021 25.4889ZM49.8021 18.4304C49.2398 18.4304 48.7723 18.2441 48.3998 17.8716C48.0273 17.4991 47.841 17.0318 47.841 16.4699V9.01902C47.841 8.45709 48.0273 7.98985 48.3998 7.61732C48.7723 7.24478 49.2398 7.05852 49.8021 7.05852C50.364 7.05852 50.8313 7.24478 51.2038 7.61732C51.5763 7.98985 51.7626 8.45709 51.7626 9.01902V16.4699C51.7626 17.0318 51.5763 17.4991 51.2038 17.8716C50.8313 18.2441 50.364 18.4304 49.8021 18.4304Z" fill="#08658C"/>
</g>
</svg>
