<svg width="98" height="98" viewBox="0 0 98 98" fill="none" xmlns="http://www.w3.org/2000/svg">
<mask id="mask0_1484_7466" style="mask-type:alpha" maskUnits="userSpaceOnUse" x="0" y="0" width="98" height="98">
<rect width="98" height="98" fill="#D9D9D9"/>
</mask>
<g mask="url(#mask0_1484_7466)">
<path d="M49 85.5142C47.3163 85.5142 45.8562 85.0709 44.6196 84.1841C43.383 83.298 42.6147 82.1254 42.3146 80.6663H40.4464C39.084 80.6663 37.8882 80.1518 36.8592 79.1228C35.8302 78.0945 35.3157 76.8991 35.3157 75.5366V62.0984C30.9479 59.4544 27.5431 55.987 25.1013 51.6961C22.6588 47.4052 21.4375 42.7634 21.4375 37.7709C21.4375 30.086 24.11 23.5711 29.4551 18.226C34.8002 12.8809 41.3152 10.2084 49 10.2084C56.6848 10.2084 63.1998 12.8809 68.5449 18.226C73.89 23.5711 76.5625 30.086 76.5625 37.7709C76.5625 42.7913 75.3429 47.4405 72.9038 51.7185C70.4647 55.9965 67.0582 59.4564 62.6843 62.0984V75.5366C62.6843 76.8991 62.1698 78.0945 61.1408 79.1228C60.1118 80.1518 58.916 80.6663 57.5536 80.6663H55.6854C55.3853 82.1254 54.617 83.298 53.3804 84.1841C52.1438 85.0709 50.6837 85.5142 49 85.5142ZM40.4464 75.5366H57.5536V71.3165H40.4464V75.5366ZM40.4464 67.7048H57.5536V63.6368H40.4464V67.7048ZM39.5614 58.5071H46.9114V45.1678L39.3776 37.6351C38.9693 37.2268 38.7702 36.7568 38.7804 36.2253C38.79 35.6938 39.0074 35.211 39.4328 34.7768C39.8588 34.3419 40.3352 34.1245 40.8619 34.1245C41.3893 34.1245 41.8702 34.3419 42.3044 34.7768L49 41.5143L55.7375 34.7768C56.1458 34.3684 56.6202 34.1646 57.1605 34.1653C57.7002 34.166 58.1875 34.3838 58.6224 34.8186C59.0566 35.2528 59.2737 35.7265 59.2737 36.2396C59.2737 36.7528 59.0566 37.2179 58.6224 37.6351L51.0886 45.1678V58.5071H58.4386C62.3164 56.6818 65.4514 53.9102 67.8436 50.1924C70.2357 46.4745 71.4318 42.334 71.4318 37.7709C71.4318 31.4955 69.2618 26.1882 64.9219 21.8489C60.5827 17.509 55.2754 15.3391 49 15.3391C42.7246 15.3391 37.4173 17.509 33.0781 21.8489C28.7382 26.1882 26.5682 31.4955 26.5682 37.7709C26.5682 42.334 27.7643 46.4745 30.1564 50.1924C32.5486 53.9102 35.6836 56.6818 39.5614 58.5071Z" fill="white"/>
</g>
</svg>
