<svg width="57" height="57" viewBox="0 0 57 57" fill="none" xmlns="http://www.w3.org/2000/svg">
<mask id="mask0_1762_7410" style="mask-type:alpha" maskUnits="userSpaceOnUse" x="0" y="0" width="57" height="57">
<rect width="56.4682" height="56.4682" fill="#D9D9D9"/>
</mask>
<g mask="url(#mask0_1762_7410)">
<path d="M26.234 35.2926H30.2338C30.5279 35.2926 30.7843 35.1701 31.0032 34.925C31.2224 34.6799 31.2928 34.4103 31.2143 34.1162L29.9791 27.0771C30.7755 26.7073 31.4026 26.1709 31.8602 25.4677C32.3182 24.7646 32.5472 23.9874 32.5472 23.1361C32.5472 21.9499 32.1245 20.9344 31.279 20.0897C30.434 19.2451 29.4177 18.8227 28.2303 18.8227C27.0433 18.8227 26.0283 19.2451 25.1852 20.0897C24.3421 20.9344 23.9205 21.9499 23.9205 23.1361C23.9205 23.9874 24.1495 24.7646 24.6075 25.4677C25.0652 26.1709 25.6922 26.7073 26.4886 27.0771L25.2534 34.1162C25.175 34.4103 25.2454 34.6799 25.4646 34.925C25.6834 35.1701 25.9398 35.2926 26.234 35.2926ZM28.2339 51.5272C28.0033 51.5272 27.7892 51.5076 27.5915 51.4684C27.3939 51.4292 27.1963 51.3704 26.9986 51.292C21.6 49.4752 17.3192 46.1845 14.1562 41.42C10.9928 36.6555 9.41113 31.4614 9.41113 25.8377V14.4506C9.41113 13.6204 9.64799 12.8732 10.1217 12.2089C10.5958 11.5446 11.2085 11.0631 11.9598 10.7643L26.8616 5.19566C27.3321 5.02587 27.7896 4.94097 28.2339 4.94097C28.6782 4.94097 29.1356 5.02587 29.6062 5.19566L44.5079 10.7643C45.2592 11.0631 45.8719 11.5446 46.346 12.2089C46.8197 12.8732 47.0566 13.6204 47.0566 14.4506V25.8377C47.0566 31.4614 45.4749 36.6555 42.3115 41.42C39.1485 46.1845 34.8677 49.4752 29.4691 51.292C29.2715 51.3704 29.0738 51.4292 28.8762 51.4684C28.6786 51.5076 28.4644 51.5272 28.2339 51.5272ZM28.2339 47.645C32.5996 46.2204 36.1745 43.4819 38.9587 39.4295C41.7429 35.3775 43.135 30.8483 43.135 25.8419V14.4506L28.2339 8.84257L13.3327 14.4506V25.8419C13.3327 30.8483 14.7248 35.3775 17.509 39.4295C20.2932 43.4819 23.8682 46.2204 28.2339 47.645Z" fill="#08658C"/>
</g>
</svg>
