<svg width="56" height="56" viewBox="0 0 56 56" fill="none" xmlns="http://www.w3.org/2000/svg">
<mask id="mask0_1319_7404" style="mask-type:alpha" maskUnits="userSpaceOnUse" x="0" y="0" width="56" height="56">
<rect width="56" height="56" fill="#D9D9D9"/>
</mask>
<g mask="url(#mask0_1319_7404)">
<path d="M21 44.3333C25.5372 44.3333 29.3872 42.7453 32.55 39.5693C35.7128 36.3936 37.3073 32.5372 37.3333 28V11.6667H21C16.4628 11.6927 12.6064 13.2872 9.43076 16.45C6.2547 19.6128 4.66667 23.4628 4.66667 28C4.66667 32.5372 6.2547 36.3936 9.43076 39.5693C12.6064 42.7453 16.4628 44.3333 21 44.3333ZM18.025 38.9474L29.6526 28.5641C30.0286 28.2269 30.1389 27.825 29.9833 27.3583C29.8278 26.8917 29.4908 26.6194 28.9724 26.5417L19.8724 25.6474L25.3167 18.1609C25.4594 17.9665 25.5274 17.7689 25.5208 17.5683C25.5142 17.3672 25.4331 17.1759 25.2776 16.9943C25.0964 16.7998 24.8825 16.7059 24.6359 16.7125C24.3898 16.7191 24.1694 16.813 23.975 16.9943L12.4058 27.3776C12.0297 27.7148 11.9194 28.1167 12.075 28.5833C12.2306 29.05 12.5675 29.3222 13.0859 29.4L22.1859 30.2943L16.6833 37.7808C16.5406 37.9752 16.4759 38.1728 16.4891 38.3734C16.5019 38.5745 16.5991 38.7658 16.7808 38.9474C16.962 39.1286 17.1661 39.2193 17.3933 39.2193C17.62 39.2193 17.8306 39.1286 18.025 38.9474ZM21 48.2224C18.5372 48.2224 16.22 47.8172 14.0484 47.0068C11.8773 46.1967 9.90364 45.0658 8.12759 43.6141L4.10259 47.6391C3.89531 47.8464 3.67831 47.9953 3.45159 48.0859C3.22448 48.1769 2.98142 48.2224 2.72242 48.2224C2.19081 48.2224 1.73387 48.0311 1.35159 47.6484C0.968921 47.2661 0.777588 46.8092 0.777588 46.2776C0.777588 46.0186 0.823088 45.7755 0.914088 45.5484C1.0047 45.3217 1.15364 45.1047 1.36092 44.8974L5.38592 40.8724C3.9342 39.0964 2.80331 37.1228 1.99325 34.9516C1.18281 32.78 0.777588 30.4628 0.777588 28C0.777588 22.3739 2.74148 17.597 6.66925 13.6693C10.597 9.74148 15.3739 7.77759 21 7.77759H37.3333C38.4094 7.77759 39.3266 8.15675 40.0849 8.91509C40.8433 9.67342 41.2224 10.5906 41.2224 11.6667V28C41.2224 33.6261 39.2585 38.403 35.3308 42.3308C31.403 46.2585 26.6261 48.2224 21 48.2224Z" fill="#08658C"/>
</g>
</svg>
