<svg width="57" height="57" viewBox="0 0 57 57" fill="none" xmlns="http://www.w3.org/2000/svg">
<mask id="mask0_1689_7398" style="mask-type:alpha" maskUnits="userSpaceOnUse" x="0" y="0" width="57" height="57">
<rect width="56.4682" height="56.4682" fill="#D9D9D9"/>
</mask>
<g mask="url(#mask0_1689_7398)">
<path d="M6.66613 51.3702C5.58774 51.3702 4.66464 50.9863 3.89683 50.2185C3.12902 49.4507 2.74512 48.5276 2.74512 47.4492V12.9406C2.74512 11.8622 3.12902 10.9392 3.89683 10.1713C4.66464 9.40314 5.58774 9.01904 6.66613 9.01904H25.4889C26.0445 9.01904 26.5102 9.20766 26.8859 9.5849C27.2619 9.96213 27.45 10.4294 27.45 10.9866C27.45 11.5442 27.2619 12.0093 26.8859 12.3818C26.5102 12.7544 26.0445 12.9406 25.4889 12.9406H6.66613V47.4492H41.1747V33.3321C41.1747 32.7765 41.3633 32.3108 41.7405 31.9351C42.1174 31.5591 42.5846 31.371 43.1422 31.371C43.6999 31.371 44.1649 31.5591 44.5375 31.9351C44.91 32.3108 45.0963 32.7765 45.0963 33.3321V47.4492C45.0963 48.5276 44.7122 49.4507 43.944 50.2185C43.1762 50.9863 42.2531 51.3702 41.1747 51.3702H6.66613ZM14.267 25.803C13.7094 25.803 13.2443 25.9909 12.8717 26.3665C12.4992 26.7422 12.3129 27.2079 12.3129 27.7635V40.116C12.3129 40.6716 12.5016 41.1373 12.8788 41.513C13.256 41.8886 13.7233 42.0765 14.2805 42.0765C14.8381 42.0765 15.3032 41.8886 15.6757 41.513C16.0483 41.1373 16.2345 40.6716 16.2345 40.116V27.7635C16.2345 27.2079 16.0459 26.7422 15.6687 26.3665C15.2918 25.9909 14.8246 25.803 14.267 25.803ZM23.9136 18.3128C23.356 18.3128 22.8909 18.5008 22.5184 18.8769C22.1459 19.2525 21.9596 19.7182 21.9596 20.2739V40.116C21.9596 40.6716 22.1482 41.1373 22.5255 41.513C22.9027 41.8886 23.3699 42.0765 23.9272 42.0765C24.4848 42.0765 24.9499 41.8886 25.3224 41.513C25.6949 41.1373 25.8812 40.6716 25.8812 40.116V20.2739C25.8812 19.7182 25.6926 19.2525 25.3153 18.8769C24.9385 18.5008 24.4713 18.3128 23.9136 18.3128ZM33.5603 33.1357C33.0027 33.1357 32.5376 33.3237 32.1651 33.6998C31.7925 34.0754 31.6063 34.5411 31.6063 35.0968V40.116C31.6063 40.6716 31.7949 41.1373 32.1721 41.513C32.5493 41.8886 33.0166 42.0765 33.5738 42.0765C34.1314 42.0765 34.5965 41.8886 34.9691 41.513C35.3416 41.1373 35.5278 40.6716 35.5278 40.116V35.0968C35.5278 34.5411 35.3392 34.0754 34.962 33.6998C34.5851 33.3237 34.1179 33.1357 33.5603 33.1357ZM42.7434 27.45C41.5407 27.45 40.3773 27.254 39.253 26.8618C38.1291 26.4697 37.0639 25.9403 36.0572 25.2736L34.9396 26.3324C34.5475 26.6853 34.0867 26.8683 33.5573 26.8812C33.028 26.8942 32.5737 26.7112 32.1945 26.3324C31.8157 25.9532 31.6262 25.4956 31.6262 24.9595C31.6262 24.4239 31.8157 23.9664 32.1945 23.5872L33.3709 22.4108C32.7435 21.4697 32.2533 20.4654 31.9004 19.398C31.5474 18.331 31.371 17.2242 31.371 16.0776C31.371 12.9314 32.4797 10.2496 34.6973 8.03202C36.9149 5.81446 39.5969 4.70569 42.7434 4.70569H52.1548C52.7101 4.70569 53.1757 4.89352 53.5518 5.2692C53.9275 5.64526 54.1153 6.11092 54.1153 6.6662V16.0776C54.1153 19.2241 53.0065 21.9061 50.789 24.1237C48.5714 26.3412 45.8896 27.45 42.7434 27.45ZM42.7434 23.5284C44.8128 23.5284 46.5719 22.8041 48.0209 21.3556C49.4694 19.9066 50.1937 18.1473 50.1937 16.0776V8.62729H42.7434C40.6737 8.62729 38.9144 9.35157 37.4654 10.8001C36.0169 12.2491 35.2926 14.0082 35.2926 16.0776C35.2926 16.692 35.3677 17.2934 35.5179 17.8816C35.6684 18.4698 35.8678 19.0645 36.1161 19.6656L42.6646 13.1171C43.0438 12.7379 43.5014 12.5483 44.0375 12.5483C44.5732 12.5483 45.0306 12.7379 45.4098 13.1171C45.8019 13.5108 45.998 13.9786 45.998 14.5206C45.998 15.0621 45.8019 15.529 45.4098 15.9211L38.9001 22.4302C39.5145 22.7181 40.1388 22.973 40.7729 23.1949C41.4066 23.4173 42.0635 23.5284 42.7434 23.5284Z" fill="#08658C"/>
</g>
</svg>
