<svg width="57" height="57" viewBox="0 0 57 57" fill="none" xmlns="http://www.w3.org/2000/svg">
<mask id="mask0_1689_7395" style="mask-type:alpha" maskUnits="userSpaceOnUse" x="0" y="0" width="57" height="57">
<rect y="6.10352e-05" width="56.4682" height="56.4682" fill="#D9D9D9"/>
</mask>
<g mask="url(#mask0_1689_7395)">
<path d="M26.2734 37.1749V42.8611C26.2734 43.4164 26.4618 43.8821 26.8386 44.2581C27.2159 44.6338 27.6833 44.8216 28.2409 44.8216C28.7982 44.8216 29.263 44.6338 29.6356 44.2581C30.0081 43.8821 30.1944 43.4164 30.1944 42.8611V37.1749H35.8806C36.4363 37.1749 36.9019 36.9863 37.2776 36.609C37.6533 36.2322 37.8411 35.765 37.8411 35.2073C37.8411 34.6497 37.6533 34.1846 37.2776 33.8121C36.9019 33.4396 36.4363 33.2533 35.8806 33.2533H30.1944V27.5677C30.1944 27.012 30.0059 26.5463 29.6291 26.1707C29.2519 25.7946 28.7844 25.6066 28.2268 25.6066C27.6696 25.6066 27.2047 25.7946 26.8322 26.1707C26.4596 26.5463 26.2734 27.012 26.2734 27.5677V33.2533H20.5871C20.0315 33.2533 19.5658 33.4419 19.1901 33.8192C18.8145 34.1964 18.6266 34.6636 18.6266 35.2209C18.6266 35.7785 18.8145 36.2436 19.1901 36.6161C19.5658 36.9886 20.0315 37.1749 20.5871 37.1749H26.2734ZM13.3327 51.7625C12.2543 51.7625 11.3311 51.3786 10.5628 50.6108C9.79504 49.8426 9.41113 48.9193 9.41113 47.8409V22.9796C9.41113 21.9012 9.79504 20.9779 10.5628 20.2097C11.3311 19.4419 12.2543 19.058 13.3327 19.058H16.862V13.7247C16.862 10.5786 17.9712 7.89673 20.1895 5.67917C22.4078 3.46162 25.0907 2.35284 28.238 2.35284C31.3853 2.35284 34.0668 3.46162 36.2824 5.67917C38.4979 7.89673 39.6057 10.5786 39.6057 13.7247V19.058H43.135C44.2134 19.058 45.1367 19.4419 45.9049 20.2097C46.6727 20.9779 47.0566 21.9012 47.0566 22.9796V47.8409C47.0566 48.9193 46.6727 49.8426 45.9049 50.6108C45.1367 51.3786 44.2134 51.7625 43.135 51.7625H13.3327ZM13.3327 47.8409H43.135V22.9796H13.3327V47.8409ZM20.783 19.058H35.6847V13.7247C35.6847 11.6554 34.9608 9.89625 33.5131 8.44729C32.0649 6.99873 30.3067 6.27444 28.2386 6.27444C26.17 6.27444 24.4103 6.99873 22.9594 8.44729C21.5085 9.89625 20.783 11.6554 20.783 13.7247V19.058Z" fill="#08658C"/>
</g>
</svg>
