<svg width="70" height="70" viewBox="0 0 70 70" fill="none" xmlns="http://www.w3.org/2000/svg">
<path d="M65.0553 20.0137C65.0055 20.2398 64.9548 20.4647 64.9072 20.6946L67.5515 22.9974C67.5003 23.4731 66.8038 24.8138 66.5139 25.3195L66.0967 25.9776L62.6503 25.2407C62.4171 25.5025 62.2302 25.7694 61.9991 26.0249C61.784 26.2627 61.5328 26.4912 61.345 26.724C61.4943 27.4604 62.4278 29.5406 62.4798 30.0685C62.071 30.5013 60.5099 31.5392 59.7797 31.8664C59.5629 31.7668 58.6549 30.89 58.4327 30.6798C58.1027 30.3677 57.4899 29.7547 57.1331 29.5109C57.058 29.5264 56.8521 29.5978 56.5908 29.6887L56.3069 29.0857L56.2523 28.9696L56.1241 28.9703L50.2124 29.0219L50.0673 28.7686L50.0619 28.7593L49.9658 28.5948L49.9595 28.5838L50.8993 26.9869C51.0091 26.9985 51.1186 27.0096 51.2279 27.0171C56.2444 27.3589 60.6008 23.9316 61.6582 19.333L65.0553 20.0137ZM55.1454 30.5739L54.5719 33.6079C53.6762 33.7921 52.2966 33.8669 51.3176 33.8033L51.2052 33.5558C51.1793 33.4796 51.1643 33.4166 51.1435 33.3456L50.2421 30.6162L55.1454 30.5739ZM38.4888 15.2901L38.6029 14.7066L39.1552 14.8174C39.1616 14.8839 39.1696 14.9653 39.1733 15.0618C39.1806 15.2505 39.183 15.4844 39.1814 15.7495C39.178 16.2798 39.1599 16.9291 39.1411 17.586C39.1223 18.2419 39.1032 18.9057 39.097 19.4608C39.0908 20.0087 39.0967 20.4706 39.134 20.7125L39.1483 20.8035L39.226 20.8522C39.7269 21.1657 40.2069 21.4303 40.6844 21.7006C41.1633 21.9716 41.6434 22.251 42.1562 22.5975L42.2611 22.6678L42.3697 22.6039L43.2777 22.0673C43.8215 23.0541 44.6537 23.9655 45.5069 24.7056C46.5168 25.5817 47.8478 26.2691 49.24 26.6639L48.1724 28.4767L48.1124 28.5779L48.1718 28.6789L48.4412 29.1435L48.6839 29.5639L49.0502 30.2003L48.2653 30.0322C48.0102 30.2197 47.3633 31.0572 47.1092 31.356C46.7453 31.7833 46.3007 32.3413 45.9544 32.6936C45.4075 32.5596 44.0473 31.9097 43.3498 31.4617C43.2472 31.3152 43.1418 31.1697 43.0336 31.0253L43.7269 27.7438C41.9309 26.4443 42.6739 26.2681 41.5445 26.6843C41.113 26.8435 40.6454 26.985 40.2271 27.137C40.0247 27.2107 39.7067 27.3334 39.4146 27.4348C38.9978 27.1329 38.5713 26.8517 38.1323 26.5907C38.0541 26.4765 37.9842 26.3712 37.9316 26.286C37.6306 25.7994 37.3648 25.419 37.0948 24.8601C37.3069 24.4794 39.164 22.658 39.4479 22.2171C39.2459 21.5625 39.0073 21.0272 38.8155 20.319L35.3239 19.6523C35.2878 18.6057 35.0118 17.5361 35.1426 16.3616L38.4888 15.2901ZM49.441 26.717L48.3452 28.5788L48.6141 29.0426L48.7621 29.2989L48.8586 29.4641L49.3131 30.2572L48.8573 29.4638L48.7612 29.2993L48.6133 29.0431L48.3443 28.5793L49.4401 26.7175L49.441 26.717ZM41.2288 4.64537C41.6385 4.21213 43.1997 3.17514 43.9293 2.84827C44.1473 2.94915 45.0544 3.82627 45.2755 4.03539C45.6056 4.34753 46.2171 4.96019 46.5738 5.20395C46.7666 5.16433 47.8363 4.75154 48.4772 4.58874L49.1358 1.10638C50.0314 0.9223 51.4104 0.847943 52.3893 0.911537L52.5026 1.1585C52.5283 1.23461 52.5435 1.29778 52.5642 1.36875L53.5219 4.26976L55.4424 4.68213C55.6975 4.49481 56.3449 3.65801 56.599 3.35922C56.963 2.93187 57.4064 2.37228 57.7529 2.01985C58.4216 2.18366 60.3106 3.11644 60.7108 3.51231L59.9816 6.97003C61.7782 8.26985 61.0342 8.44572 62.165 8.02903C62.5963 7.86998 63.0634 7.72882 63.4815 7.57681C63.8216 7.45302 64.485 7.18661 64.809 7.12611C65.0583 7.38181 65.5588 8.07672 65.7762 8.4283C66.0772 8.91493 66.3429 9.29537 66.613 9.85426C66.4006 10.2352 64.5434 12.0567 64.2598 12.4972C64.4619 13.1518 64.7005 13.6871 64.8922 14.3953L68.3834 15.0634C68.4197 16.1097 68.6959 17.1785 68.5651 18.3527L65.2203 19.4246L65.1053 20.0085L61.6759 19.3205C61.7257 19.0116 61.7628 18.6963 61.7846 18.376C61.9326 16.2034 61.4067 14.4632 60.4676 12.7122C59.9251 11.7 59.0729 10.7653 58.2009 10.0087C56.7136 8.71851 54.5304 7.83685 52.4799 7.69726C47.4631 7.35549 43.1072 10.7833 42.05 15.3822L40.7692 15.1248C40.7681 15.082 40.7685 15.0403 40.767 14.9998C40.7595 14.8064 40.7455 14.5452 40.696 14.3202L40.564 13.7244L40.5414 13.6247L40.4479 13.5839L39.8886 13.3397L39.8877 13.3402C38.8291 12.8813 37.9423 12.6517 37.0869 12.3817L37.0861 12.3821C37.0107 12.3584 36.926 12.3333 36.8339 12.3067L36.1563 11.7169C36.2072 11.2414 36.9039 9.90058 37.1938 9.39487L37.6107 8.73807L41.0583 9.47311C41.2913 9.21145 41.4777 8.9448 41.7086 8.68942C41.9239 8.45152 42.1739 8.2216 42.3618 7.98869C42.212 7.25164 41.2807 5.17312 41.2288 4.64537ZM42.0319 15.3938C41.982 15.7028 41.945 16.018 41.9232 16.3384C41.8139 17.9412 42.0718 19.3086 42.5914 20.6187L42.2931 20.7955C42.0076 20.622 41.7341 20.4628 41.4701 20.3133C41.1976 20.159 40.9434 20.015 40.6918 19.8695C40.6909 19.7542 40.6898 19.6238 40.6915 19.4784C40.6975 18.9404 40.7165 18.2922 40.7355 17.6308C40.7541 16.9777 40.7719 16.3097 40.7753 15.7584C40.7767 15.5393 40.774 15.3295 40.7693 15.1406L42.0319 15.3938ZM38.6799 14.5743C38.8325 14.6321 38.9892 14.6934 39.1514 14.7621C39.1528 14.7744 39.1524 14.7876 39.1538 14.8013L38.6524 14.7006C38.6617 14.6585 38.6705 14.6163 38.6799 14.5743Z" fill="#373435"/>
<path fill-rule="evenodd" clip-rule="evenodd" d="M11.6962 19.1701C11.8148 19.2399 11.9056 19.3039 12.0116 19.3728L16.4878 22.0555L19.3815 20.4389C19.4933 19.9106 19.37 18.1025 19.355 17.43C19.334 16.4693 19.2654 15.2476 19.3067 14.403C20.3368 13.8655 23.7784 12.9563 24.7289 13.0213L27.6998 18.318C31.4347 17.9888 30.6916 19.0496 31.6518 17.2434C32.0188 16.5535 32.4507 15.8464 32.8084 15.1807C33.0993 14.6394 33.6385 13.5509 33.9802 13.1093C34.5835 13.161 35.9971 13.5001 36.6679 13.7117C37.5975 14.0051 38.3626 14.199 39.3339 14.62C39.4944 15.3488 39.1951 19.7932 39.3326 20.6818C40.3253 21.3031 41.2296 21.7287 42.2694 22.4311L47.4372 19.3832C48.6612 20.6985 50.2142 21.7736 51.3711 23.4419L48.3454 28.5784L48.6149 29.043L48.7626 29.2988L48.8588 29.4633L49.4108 30.4237L55.372 30.3715C56.2382 32.2076 56.3929 34.0902 56.9199 35.8078L51.6964 38.7593C51.7849 40.0109 51.7013 41.0069 51.743 42.1772C52.4439 42.7407 56.4424 44.7037 56.9933 45.207C56.8723 46.2587 56.6576 47.0182 56.447 47.97C56.2948 48.6568 55.8817 50.0506 55.6248 50.5989C55.0716 50.674 53.8592 50.5967 53.245 50.5779C52.4896 50.5548 51.6613 50.5754 50.8804 50.5482C48.8359 50.4767 50.1263 50.3635 47.9737 53.4334L51.0754 58.6547C50.6563 59.5104 48.1481 62.0363 47.1677 62.6596C46.4156 62.2731 45.3919 61.6029 44.5703 61.1042C43.9954 60.755 42.4903 59.7428 41.9773 59.576L39.131 61.2746L39.2161 66.4925C39.2228 66.6187 39.2329 66.7293 39.234 66.867L39.1922 67.3286C37.659 67.9557 35.4073 68.5718 33.8688 68.7524L30.8673 63.4552C29.7489 63.5344 27.8048 63.4354 27.4733 63.4742C27.038 64.0603 26.3995 65.3823 26.0447 66.0659C25.8075 66.523 24.8406 68.4353 24.5485 68.7133C23.196 68.5736 20.1134 67.7241 19.2165 67.2401C19.0045 66.356 19.3375 62.4836 19.1656 61.2084C18.734 60.931 18.2046 60.6938 17.7266 60.423C17.213 60.1316 16.766 59.7987 16.2453 59.4985L11.1325 62.5366L10.0981 61.6926C9.3509 61.0276 7.48298 59.2253 7.13571 58.4807L10.0886 53.3297C9.94544 53.0866 9.66046 52.609 9.43249 52.2261L9.42775 52.2288C9.39605 52.1712 9.36358 52.1139 9.33196 52.0563C9.27443 51.96 9.22491 51.8743 9.1848 51.808L9.19238 51.8036C9.07849 51.5965 8.96524 51.3881 8.84713 51.1794L2.90976 51.1612C2.43855 50.4881 1.81167 47.9693 1.60943 46.9897L1.39565 45.6719L6.58313 42.7631C6.58352 42.1621 6.51865 41.6086 6.52318 41.018C6.52766 40.4687 6.5869 39.8916 6.56244 39.3791C5.54405 38.5927 2.0241 36.9449 1.36428 36.3192C1.39364 35.3005 2.19917 32.2061 2.75449 30.965C3.14125 30.851 5.28086 30.9697 5.79533 30.9929C6.56471 31.0275 8.02823 31.1345 8.7535 31.0506C8.95326 30.782 9.83993 29.0504 10.4675 28.1217L7.38079 22.8738C8.30639 21.6317 9.96579 19.9898 11.2755 18.9755L11.6962 19.1701ZM28.8671 24.2482C25.533 24.2434 21.7801 25.5466 19.0293 27.6632C12.3667 32.7903 10.2761 41.986 14.3778 49.0904C18.5357 56.2922 27.7738 59.4762 35.5453 56.2698C38.7537 54.9459 41.7587 52.3473 43.4217 49.4575C44.3967 47.7631 45.2418 45.7915 45.546 43.8583C46.0726 40.5143 45.9424 37.4085 44.4907 33.9618C44.3064 33.5241 43.8927 32.7329 43.6206 32.2186C43.3713 31.8301 43.1062 31.4461 42.8212 31.0703C40.5621 28.0896 37.9377 26.424 34.7783 25.2081C32.952 24.5049 30.8221 24.251 28.8671 24.2482Z" fill="#4598BB"/>
</svg>
