<svg width="45" height="45" viewBox="0 0 45 45" fill="none" xmlns="http://www.w3.org/2000/svg">
<mask id="mask0_1243_7393" style="mask-type:luminance" maskUnits="userSpaceOnUse" x="6" y="6" width="33" height="33">
<path d="M38.9189 6.08105H6.08105V38.9189H38.9189V6.08105Z" fill="white"/>
</mask>
<g mask="url(#mask0_1243_7393)">
<path d="M38.9189 22.5C38.9189 13.4321 31.5678 6.08105 22.5 6.08105C13.4321 6.08105 6.08105 13.4321 6.08105 22.5C6.08105 31.5678 13.4321 38.9189 22.5 38.9189C31.5678 38.9189 38.9189 31.5678 38.9189 22.5Z" fill="white"/>
<path d="M24.1022 13.8582C24.4873 13.8582 24.853 13.9044 25.1973 13.9983H25.1961C25.5265 14.0741 25.8312 14.1792 26.1082 14.3166C26.1096 14.3172 26.1116 14.3184 26.113 14.319C26.1148 14.3199 26.1171 14.3204 26.1189 14.3214C26.2949 14.4018 26.4389 14.5358 26.5584 14.7062L26.6451 14.8428C26.7195 14.9836 26.7567 15.1394 26.7567 15.306C26.7566 15.5805 26.6459 15.8267 26.4515 16.0388L26.4502 16.0376C26.2579 16.2635 26.0038 16.3807 25.7044 16.3809C25.5088 16.3809 25.3127 16.3556 25.1188 16.3072C24.965 16.2688 24.7942 16.249 24.6069 16.249C24.1054 16.2491 23.7231 16.3703 23.4395 16.5923L23.4383 16.5934C23.2119 16.7685 23.0487 17.1751 23.0487 17.9379V18.9024H25.55C25.856 18.9024 26.1247 19.0044 26.3351 19.2147C26.5456 19.4252 26.6474 19.6939 26.6475 19.9998C26.6475 20.2951 26.5428 20.5575 26.3422 20.7766L26.3351 20.7848C26.1245 20.9954 25.856 21.0973 25.55 21.0973H23.0487V29.4563C23.0485 29.7953 22.9301 30.0914 22.6936 30.3281C22.454 30.5676 22.1482 30.6832 21.7981 30.6832C21.459 30.6831 21.1631 30.5649 20.9263 30.3281C20.6895 30.0913 20.5713 29.7954 20.5712 29.4563V21.0973H19.5177C19.2591 21.0973 19.0251 21.0177 18.8239 20.8633L18.7325 20.7848L18.7254 20.7766C18.5248 20.5575 18.4202 20.2952 18.4202 19.9998C18.4203 19.6939 18.5221 19.4252 18.7325 19.2147L18.7409 19.2076C18.9598 19.0072 19.2225 18.9024 19.5177 18.9024H20.5712V17.8714C20.5712 16.9253 20.7352 16.1401 21.0854 15.5352L21.0878 15.5316C21.4451 14.9413 21.9034 14.5096 22.4655 14.2525C23.0049 13.9913 23.5516 13.8582 24.1022 13.8582ZM19.2017 20.7992C19.2487 20.8167 19.2966 20.8315 19.3466 20.8407L19.5177 20.8561C19.4055 20.8561 19.3003 20.836 19.2017 20.7992ZM26.1641 20.6138C26.1239 20.654 26.0814 20.6895 26.0357 20.7195L26.0345 20.7207C26.0805 20.6906 26.1237 20.6553 26.1641 20.615C26.2002 20.5755 26.2311 20.5328 26.259 20.4904C26.2311 20.5327 26.2002 20.5744 26.1641 20.6138ZM18.7967 20.4773C18.8269 20.5249 18.8621 20.571 18.9024 20.615C18.9416 20.651 18.9838 20.681 19.026 20.7088C18.9838 20.681 18.9417 20.6498 18.9024 20.6138C18.8221 20.5261 18.762 20.431 18.7219 20.3288L18.7967 20.4773ZM19.3466 19.1601C19.2962 19.1693 19.2478 19.1839 19.2005 19.2017C19.2995 19.1645 19.4051 19.1446 19.5177 19.1446L19.3466 19.1601ZM21.0806 16.1112C21.1413 15.9479 21.2133 15.7965 21.2944 15.6564L21.1804 15.8725C21.1446 15.949 21.1112 16.0288 21.0806 16.1112ZM26.5157 15.3048C26.5157 15.4024 26.4952 15.4965 26.4586 15.5875C26.476 15.5442 26.4911 15.5004 26.5002 15.4556L26.5157 15.3048ZM22.2208 14.6634C22.2169 14.666 22.2128 14.668 22.2089 14.6706C22.2643 14.6337 22.3211 14.5995 22.3788 14.5672L22.2208 14.6634ZM22.8277 14.357C22.7408 14.3921 22.6534 14.43 22.5665 14.4722L22.7589 14.3843C22.7818 14.3746 22.805 14.3662 22.8277 14.357Z" fill="#08658C"/>
</g>
</svg>
