<svg width="57" height="57" viewBox="0 0 57 57" fill="none" xmlns="http://www.w3.org/2000/svg">
<mask id="mask0_1762_7416" style="mask-type:alpha" maskUnits="userSpaceOnUse" x="0" y="0" width="57" height="57">
<rect width="56.4682" height="56.4682" fill="#D9D9D9"/>
</mask>
<g mask="url(#mask0_1762_7416)">
<path d="M27.4499 39.2142L37.253 25.0972H30.0768L34.8219 8.62729H20.3913V29.0182H27.4499V39.2142ZM41.5081 25.803L26.2146 47.8997C26.0052 48.2005 25.7535 48.3901 25.4593 48.4685C25.1652 48.547 24.8692 48.5383 24.5711 48.4427C24.2731 48.3474 24.0249 48.1801 23.8265 47.9409C23.6277 47.7021 23.5283 47.4074 23.5283 47.0568V32.9398H20.3913C19.3129 32.9398 18.3896 32.5559 17.6214 31.7881C16.8536 31.0199 16.4697 30.0966 16.4697 29.0182V8.62729C16.4697 7.5489 16.8536 6.62561 17.6214 5.85741C18.3896 5.08959 19.3129 4.70569 20.3913 4.70569H35.8807C36.9002 4.70569 37.7335 5.11096 38.3806 5.92152C39.0276 6.73168 39.2074 7.6336 38.92 8.62729L35.2925 21.1756H39.0764C40.2497 21.1756 41.1214 21.6985 41.6916 22.7443C42.2618 23.7898 42.2006 24.8093 41.5081 25.803Z" fill="#08658C"/>
</g>
</svg>
