<svg width="1919" height="494" viewBox="0 0 1919 494" fill="none" xmlns="http://www.w3.org/2000/svg">
<g clip-path="url(#clip0_1593_7552)">
<rect width="1919" height="875" fill="url(#paint0_linear_1593_7552)"/>
<g opacity="0.4">
<g opacity="0.4">
<path opacity="0.2" d="M502.436 275.112L504.475 277.949L504.852 278.474L505.175 279.033C505.797 280.11 506.417 281.349 506.68 281.869L522.211 309.272L532.862 309.421C533.291 308.664 533.74 307.857 534.2 307.016C535.971 303.78 538.688 298.579 539.804 296.583L539.806 296.579C542.931 290.99 547.689 281.81 551.522 275.977L555.577 269.808L562.952 270.116C568.994 270.369 579.026 272.586 587.447 274.878C591.878 276.084 596.322 277.437 600.151 278.793C603.594 280.013 607.726 281.636 610.696 283.594L616.642 287.513L616.551 294.633L616.078 331.894C619.953 333.956 623.089 335.86 625.323 337.3C625.643 337.102 625.991 336.887 626.374 336.652L626.377 336.65C629.107 334.978 631.933 333.363 634.548 331.873C637.228 330.345 639.674 328.955 641.942 327.578L645.393 325.442C646.93 324.49 648.63 323.439 649.821 322.721C652.634 321.026 656.41 318.823 659.5 317.582L665.961 314.987L671.707 318.919C676.657 322.305 685.465 330.597 689.339 334.743L689.342 334.746C693.87 339.596 699.013 344.567 704.368 351.647L708.458 357.056L706.373 363.509C705.759 365.41 704.756 367.345 704.065 368.63C703.244 370.158 702.24 371.892 701.168 373.687C699.022 377.279 696.334 381.566 693.722 385.725C691.067 389.951 688.483 394.055 686.404 397.496C686.172 397.881 685.948 398.253 685.734 398.611C686.576 400.022 687.446 401.464 688.37 403.003C689.328 404.6 690.319 406.271 691.328 408.04L729.252 407.695L739.674 407.601L742.052 417.747C743.449 423.71 745.435 429.178 747.741 436.62C749.915 443.637 752.106 451.68 752.865 460.662L753.575 469.06L746.206 473.148L713.319 491.394V491.421L713.317 492.028L746.206 510.275L753.575 514.364L752.865 522.763C752.105 531.744 749.915 539.787 747.741 546.804C745.435 554.246 743.449 559.713 742.052 565.676L739.674 575.823L729.252 575.729L691.328 575.383C690.319 577.152 689.329 578.824 688.37 580.421C687.447 581.96 686.576 583.401 685.734 584.812C685.948 585.17 686.172 585.543 686.404 585.928C688.483 589.369 691.067 593.473 693.722 597.699C696.334 601.857 699.022 606.145 701.168 609.737C702.24 611.532 703.244 613.266 704.065 614.795C704.756 616.08 705.759 618.014 706.373 619.915L708.458 626.368L704.368 631.776C699.013 638.857 693.87 643.828 689.342 648.678L689.339 648.681C685.465 652.827 676.657 661.118 671.707 664.505L665.96 668.437L659.5 665.842C656.41 664.601 652.634 662.398 649.821 660.703C648.629 659.985 646.93 658.934 645.393 657.981L641.942 655.846C639.674 654.469 637.228 653.079 634.548 651.551C631.933 650.06 629.107 648.446 626.377 646.773L626.375 646.771C625.992 646.537 625.644 646.321 625.323 646.123C623.089 647.563 619.954 649.466 616.078 651.529L616.551 688.791L616.642 695.911L610.696 699.83C607.726 701.788 603.594 703.411 600.15 704.631C596.321 705.987 591.877 707.34 587.446 708.546C579.026 710.837 568.994 713.054 562.952 713.308L555.577 713.616L551.523 707.447C547.69 701.614 542.931 692.434 539.806 686.845L539.804 686.841C538.681 684.832 535.974 679.645 534.198 676.398C533.739 675.558 533.29 674.753 532.862 673.997L522.212 674.147L506.675 701.562C506.409 702.086 505.794 703.318 505.175 704.391L504.852 704.95L504.475 705.475L502.436 708.312L497.879 714.655L490.136 713.621C476.645 711.819 458.256 707.122 446.163 702.013L438.136 698.622L438.208 689.908L438.518 652.26C436.158 650.941 433.821 649.584 431.759 648.376C430.727 647.771 429.775 647.21 428.893 646.691C428.059 647.185 427.16 647.729 426.204 648.318C422.54 650.577 419.589 652.519 416.676 654.345L416.677 654.346C415.147 655.305 410.708 658.137 406.374 660.754C404.205 662.064 401.916 663.408 399.907 664.501C398.909 665.044 397.86 665.59 396.861 666.057C396.091 666.417 394.526 667.13 392.765 667.547L387.03 668.905L382.226 665.494C377.112 661.865 370.107 655.488 364.139 649.546C362.831 648.244 361.494 646.883 360.174 645.505C363.038 642.241 365.916 638.962 368.799 635.675C375.595 642.853 384.433 651.09 389.764 654.874C392.756 654.165 406.447 645.386 409.76 643.31C414.714 640.206 423.981 634.025 429.097 631.854C431.436 632.844 443.911 640.763 451.607 644.437L451.231 690.016C462.092 694.604 479.329 699.038 491.859 700.712L493.897 697.875C494.416 696.978 494.771 696.224 495.209 695.381L514.562 661.231L539.863 660.873C542.618 663.876 548.705 676.071 551.173 680.487C554.701 686.795 558.91 694.974 562.407 700.295C571.268 699.924 597.491 692.935 603.528 688.956L602.951 643.493C628.9 631.647 619.938 627.55 633.181 635.667C638.24 638.766 643.794 641.735 648.7 644.712C652.689 647.133 660.408 652.172 664.352 653.756C668.143 651.163 676.195 643.672 679.822 639.789C684.848 634.406 689.166 630.285 693.98 623.92C692.259 618.594 673.318 590.9 670.835 584.623C675.026 576.879 679.379 570.734 683.572 562.288L729.371 562.705C732.442 549.596 738.605 536.811 739.887 521.664L700.278 499.688L700.295 491.395L700.286 489.968V487.757L700.278 483.735L739.887 461.76C738.606 446.613 732.443 433.828 729.371 420.719L683.572 421.136C679.379 412.69 675.026 406.545 670.835 398.801C673.318 392.524 692.259 364.83 693.98 359.504C689.166 353.138 684.848 349.017 679.822 343.635C676.195 339.752 668.143 332.262 664.352 329.668C660.408 331.252 652.689 336.291 648.7 338.712C643.794 341.689 638.24 344.658 633.181 347.757C619.938 355.873 628.899 351.776 602.951 339.931L603.528 294.468C597.492 290.488 571.268 283.5 562.407 283.129C558.91 288.45 554.701 296.629 551.173 302.937C548.705 307.353 542.619 319.536 539.863 322.543L514.562 322.192L495.209 288.043C494.771 287.2 494.415 286.446 493.897 285.549L491.859 282.712C487.816 283.252 483.283 284.079 478.633 285.106L475.528 272.456C480.664 271.314 485.668 270.399 490.136 269.803L497.879 268.769L502.436 275.112ZM509.96 368.064C536.224 364.638 566.009 370.237 588.033 382.748C600.947 390.084 614.059 399.703 623.449 411.099C639.695 430.809 650.688 451.432 654.246 479.214C654.695 482.717 654.983 486.199 655.148 489.651C654.983 494.004 654.698 500.682 654.246 504.21C650.688 531.991 639.694 552.615 623.449 572.325C614.059 583.72 600.947 593.34 588.033 600.676C566.009 613.187 536.224 618.786 509.96 615.359C476.551 611 447.196 593.698 426.851 569.234C429.8 565.844 432.691 562.513 435.518 559.257C453.837 582.116 480.796 598.42 511.645 602.445H511.644C535.241 605.524 562.157 600.397 581.601 589.352C593.723 582.465 605.375 573.778 613.398 564.042L613.399 564.041C628.468 545.759 638.15 527.363 641.327 502.556L641.328 502.554C641.674 499.853 641.935 494.219 642.109 489.73C641.955 486.762 641.705 483.809 641.328 480.87L641.327 480.868C638.15 456.061 628.468 437.665 613.399 419.383L613.398 419.382C605.375 409.646 593.724 400.959 581.601 394.072C562.157 383.027 535.242 377.9 511.645 380.979C496.437 382.963 482.229 387.668 469.545 394.51L456.346 387.134C472.155 377.309 490.36 370.622 509.96 368.064Z" fill="#D9D9D9"/>
</g>
<path opacity="0.1" d="M231.686 216.16C199.423 197.821 155.481 189.52 116.802 194.569L116.803 194.57C22.7862 206.846 -48.978 283.329 -48.9783 373.35C-48.9783 464.899 23.0389 546.399 116.803 558.642H116.802C155.481 563.691 199.423 555.392 231.686 537.053C250.964 526.095 270.211 511.897 283.833 495.355V495.354C307.995 466.022 324.088 435.696 329.32 394.832V394.831C329.954 389.879 330.377 380.239 330.634 373.505C330.387 368.482 329.968 363.438 329.32 358.381V358.38C324.089 317.515 307.995 287.19 283.833 257.857V257.856C270.211 241.315 250.964 227.118 231.686 216.16ZM412.433 373.91L412.446 376.085L412.447 376.11L412.446 376.136L412.427 384.937L469.413 416.573L473.096 418.618L472.741 422.815C471.706 435.064 468.707 446.239 465.486 456.64C462.199 467.253 458.842 476.619 456.572 486.315L455.384 491.39L450.172 491.342L384.426 490.742C381.722 495.904 379.002 500.529 376.338 504.97C373.598 509.539 370.961 513.848 368.368 518.463C369.478 520.562 371.172 523.501 373.364 527.132C376.605 532.502 380.613 538.874 384.633 545.276C388.632 551.645 392.644 558.047 395.822 563.371C397.41 566.032 398.823 568.48 399.938 570.555C400.987 572.508 401.983 574.515 402.51 576.147L403.552 579.371L401.509 582.075C393.904 592.136 386.913 598.843 379.505 606.782L379.504 606.783C373.855 612.834 361.21 624.654 354.855 629.004L351.981 630.972L348.748 629.673C345.185 628.241 340.312 625.444 335.915 622.793C331.732 620.271 326.531 616.978 323.948 615.409C320.304 613.196 316.405 610.979 312.368 608.677C308.365 606.393 304.236 604.032 300.281 601.608L300.281 601.607C297.653 599.996 295.795 598.824 294.192 597.864C292.66 596.948 291.772 596.481 291.196 596.24C291.167 596.256 291.136 596.271 291.104 596.289C288.694 597.641 281.232 603.932 264.196 612.103L265.022 677.209L265.067 680.768L262.095 682.728C259.065 684.726 254.163 686.749 248.915 688.609C243.474 690.538 237.034 692.503 230.51 694.279C217.684 697.772 203.691 700.765 196.135 701.082L192.447 701.237L190.419 698.151C184.924 689.783 178.236 676.815 173.063 667.559L173.062 667.557C171.237 664.29 167.695 657.442 164.581 651.745C162.944 648.749 161.329 645.888 159.889 643.524C159.294 642.548 158.766 641.721 158.31 641.037L126.797 641.484L99.22 690.174C98.6885 691.204 97.9879 692.655 97.1282 694.144L96.9661 694.424L96.7786 694.686L93.6731 699.01L91.3938 702.185L87.5208 701.667C67.9507 699.051 41.1135 692.16 23.9514 684.904L19.9387 683.209L19.9749 678.853L20.5139 613.433C15.0934 610.627 8.9078 607.054 3.55786 603.917C0.177975 601.935 -2.83596 600.146 -5.29077 598.722C-6.07357 598.267 -6.77905 597.864 -7.39917 597.514C-10.5359 599.105 -14.4753 601.417 -18.6375 603.984C-24.1292 607.372 -29.2433 610.722 -33.2361 613.225L-33.2371 613.224C-35.6982 614.767 -42.2669 618.963 -48.7429 622.876C-51.9826 624.833 -55.2711 626.765 -58.073 628.29C-59.4709 629.051 -60.8067 629.743 -61.989 630.296C-63.0569 630.795 -64.394 631.372 -65.658 631.672L-68.5271 632.352L-70.9304 630.645C-77.7902 625.773 -87.8288 616.69 -96.7957 607.757C-105.659 598.928 -114.254 589.475 -117.811 583.812L-119.387 581.303L-118.53 578.465C-117.517 575.112 -114.911 570.308 -112.049 565.414C-109.051 560.289 -105.301 554.297 -101.535 548.297C-94.8375 537.627 -88.3456 527.304 -85.0457 520.727C-85.9272 519.246 -86.9089 517.706 -87.9666 516.08C-89.6406 513.506 -91.5455 510.653 -93.2458 507.816L-93.2468 507.813C-95.106 504.709 -96.705 501.623 -98.2097 498.711C-99.1457 496.9 -100.047 495.156 -100.98 493.437L-166.287 494.242L-170.809 494.298L-172.44 490.079L-177.951 475.835L-178.002 475.703L-178.047 475.568C-179.928 469.997 -182.975 460.007 -185.455 450.195C-186.695 445.289 -187.815 440.343 -188.575 435.969C-189.304 431.77 -189.814 427.51 -189.524 424.258L-189.221 420.867L-186.264 419.18L-129.901 387.019C-129.918 385.667 -129.936 384.172 -129.957 382.635H-130.247L-130.107 375.986C-130.101 375.703 -130.082 374.4 -130.072 373.857C-130.093 372.445 -130.088 371.613 -130.107 370.714L-130.206 366.019L-186.264 334.032L-189.221 332.346L-189.524 328.954C-189.814 325.702 -189.304 321.442 -188.575 317.243C-187.815 312.869 -186.695 307.923 -185.455 303.017C-182.975 293.205 -179.928 283.215 -178.047 277.644L-178.002 277.51L-177.951 277.378L-172.44 263.133L-170.809 258.915L-166.287 258.971L-100.98 259.774C-100.047 258.055 -99.1455 256.312 -98.2097 254.501C-96.7051 251.59 -95.1061 248.503 -93.2468 245.398L-93.2458 245.396C-91.5455 242.559 -89.6406 239.706 -87.9666 237.132C-86.9087 235.505 -85.9274 233.965 -85.0457 232.484C-88.3457 225.907 -94.8378 215.585 -101.535 204.915C-105.301 198.915 -109.05 192.923 -112.048 187.799C-114.91 182.905 -117.516 178.101 -118.53 174.748L-119.388 171.91L-117.811 169.399C-114.255 163.737 -105.658 154.285 -96.7957 145.456C-87.8288 136.523 -77.7903 127.439 -70.9304 122.567L-68.5271 120.86L-65.658 121.541C-64.3941 121.841 -63.0568 122.417 -61.989 122.916C-60.8067 123.469 -59.4709 124.161 -58.073 124.922C-55.2711 126.447 -51.9826 128.378 -48.7429 130.336C-42.2674 134.249 -35.6986 138.444 -33.2371 139.987C-29.2573 142.482 -24.121 145.843 -18.6404 149.221C-14.4785 151.786 -10.5371 154.093 -7.39917 155.685C-6.77731 155.334 -6.06898 154.931 -5.28394 154.476C-2.8283 153.052 0.185456 151.264 3.5647 149.284C8.91373 146.151 15.0964 142.582 20.5139 139.778L19.9749 74.3594L19.9387 70.0039L23.9514 68.3076C41.1135 61.052 67.9507 54.1604 87.5208 51.5449L91.3938 51.0273L93.6731 54.2021L96.7786 58.5264L96.9661 58.7891L97.1282 59.0684C97.9875 60.5567 98.6885 62.0066 99.22 63.0371L126.796 111.726L158.309 112.162C158.766 111.478 159.295 110.65 159.891 109.673C161.331 107.31 162.945 104.45 164.582 101.456C167.693 95.7671 171.241 88.9153 173.062 85.6553L173.063 85.6533C178.236 76.397 184.924 63.4295 190.419 55.0615L192.447 51.9746L196.135 52.1299C203.691 52.4467 217.685 55.4401 230.511 58.9326C237.034 60.709 243.474 62.674 248.915 64.6025C254.164 66.4627 259.066 68.4869 262.096 70.4854L265.067 72.4443L265.022 76.0029L264.196 141.108C281.231 149.279 288.693 155.571 291.103 156.923C291.135 156.941 291.167 156.956 291.196 156.972C291.772 156.731 292.66 156.264 294.192 155.348C295.795 154.388 297.653 153.216 300.281 151.604L300.281 151.604C304.236 149.18 308.365 146.819 312.368 144.536C316.405 142.234 320.304 140.016 323.948 137.803C326.53 136.235 331.733 132.941 335.915 130.42C340.312 127.769 345.184 124.971 348.748 123.539L351.981 122.24L354.855 124.208C360.813 128.287 372.298 138.929 378.365 145.229L379.504 146.429L379.505 146.43C386.913 154.368 393.904 161.076 401.509 171.138L403.552 173.841L402.51 177.065C401.983 178.697 400.987 180.704 399.938 182.657C398.823 184.732 397.41 187.18 395.822 189.841C392.644 195.165 388.632 201.567 384.633 207.936C380.613 214.338 376.605 220.71 373.364 226.08C371.172 229.71 369.478 232.649 368.368 234.748C370.961 239.363 373.598 243.673 376.338 248.242C379.001 252.683 381.722 257.307 384.426 262.469L450.172 261.87L455.383 261.822L456.572 266.897C458.842 276.594 462.199 285.959 465.486 296.572C468.707 306.973 471.706 318.148 472.741 330.397L473.096 334.595L469.413 336.639L412.428 368.275L412.433 370.563V373.91Z" stroke="white" stroke-width="13.0241"/>
</g>
</g>
<defs>
<linearGradient id="paint0_linear_1593_7552" x1="1.97657e-05" y1="53.16" x2="1940.89" y2="761.891" gradientUnits="userSpaceOnUse">
<stop stop-color="#0D658B"/>
<stop offset="1" stop-color="#0B3446"/>
</linearGradient>
<clipPath id="clip0_1593_7552">
<rect width="1919" height="494" fill="white"/>
</clipPath>
</defs>
</svg>
