<svg width="56" height="56" viewBox="0 0 56 56" fill="none" xmlns="http://www.w3.org/2000/svg">
<mask id="mask0_1319_7398" style="mask-type:alpha" maskUnits="userSpaceOnUse" x="0" y="0" width="56" height="56">
<rect width="56" height="56" fill="#D9D9D9"/>
</mask>
<g mask="url(#mask0_1319_7398)">
<path d="M23.0076 7.97241C23.4303 7.97241 23.835 8.03716 24.2215 8.16666C24.6085 8.29616 24.9791 8.49061 25.3334 8.75L40.111 19.8333C40.5971 20.1899 40.978 20.6436 41.2537 21.1942C41.529 21.7453 41.6667 22.3286 41.6667 22.9442V47.0557C41.6667 47.6064 41.4797 48.0682 41.1055 48.4412C40.7318 48.8137 40.2685 49 39.7155 49C39.1625 49 38.7012 48.8137 38.3318 48.4412C37.9623 48.0682 37.7776 47.6064 37.7776 47.0557V22.9442L23 11.8609L8.22246 22.9442V47.0557C8.22246 47.6064 8.0354 48.0682 7.66129 48.4412C7.28718 48.8137 6.82382 49 6.27121 49C5.71821 49 5.25699 48.8137 4.88754 48.4412C4.5181 48.0682 4.33337 47.6064 4.33337 47.0557V22.9442C4.33337 22.3286 4.47104 21.7453 4.74637 21.1942C5.0221 20.6436 5.40301 20.1899 5.88912 19.8333L20.6667 8.75C21.0245 8.49061 21.3984 8.29616 21.7885 8.16666C22.1785 8.03716 22.5849 7.97241 23.0076 7.97241ZM15.2225 45.1109H30.7776V39.2776H15.2225V45.1109ZM15.2225 35.3891H30.7776V29.5557H15.2225V35.3891ZM13.2776 49C12.727 49 12.2652 48.8137 11.8922 48.4412C11.5197 48.0682 11.3334 47.6064 11.3334 47.0557V27.6109C11.3334 27.0602 11.5197 26.5984 11.8922 26.2255C12.2652 25.8529 12.727 25.6667 13.2776 25.6667H32.7225C33.2731 25.6667 33.7349 25.8529 34.1079 26.2255C34.4804 26.5984 34.6667 27.0602 34.6667 27.6109V47.0557C34.6667 47.6064 34.4804 48.0682 34.1079 48.4412C33.7349 48.8137 33.2731 49 32.7225 49H13.2776Z" fill="#08658C"/>
</g>
</svg>
