<svg width="98" height="98" viewBox="0 0 98 98" fill="none" xmlns="http://www.w3.org/2000/svg">
<mask id="mask0_1484_7470" style="mask-type:alpha" maskUnits="userSpaceOnUse" x="0" y="0" width="98" height="98">
<rect width="98" height="98" fill="#D9D9D9"/>
</mask>
<g mask="url(#mask0_1484_7470)">
<path d="M48.1364 82.5436C48.5848 82.5436 49.0565 82.4425 49.5512 82.2404C50.046 82.0376 50.4417 81.7793 50.7385 81.4656L83.8522 48.3089C84.8016 47.3595 85.5274 46.336 86.0297 45.2383C86.5326 44.1412 86.7841 42.9802 86.7841 41.7552C86.7841 40.5159 86.5326 39.3048 86.0297 38.122C85.5274 36.9385 84.8016 35.8793 83.8522 34.9442L67.0218 18.1137C66.0867 17.1643 65.0665 16.4579 63.9613 15.9944C62.8568 15.531 61.6852 15.2993 60.4466 15.2993C59.2216 15.2993 58.0537 15.531 56.9431 15.9944C55.8324 16.4579 54.8153 17.1643 53.8918 18.1137L51.206 20.7985L59.1062 28.761C59.9488 29.6178 60.6392 30.6179 61.1775 31.7612C61.7158 32.9039 61.985 34.1139 61.985 35.3913C61.985 37.7542 61.1343 39.7751 59.4329 41.454C57.7315 43.1323 55.7082 43.9714 53.363 43.9714C51.9849 43.9714 50.764 43.7611 49.7003 43.3405C48.6366 42.9199 47.6674 42.2812 46.7929 41.4244L40.0718 34.6982C39.8363 34.4627 39.5351 34.3449 39.1683 34.3449C38.8022 34.3449 38.5014 34.4627 38.2659 34.6982L21.118 51.8451C20.7532 52.2099 20.4823 52.6199 20.3054 53.0752C20.1284 53.5312 20.04 53.9885 20.04 54.4472C20.04 55.3755 20.3401 56.1391 20.9403 56.7379C21.5406 57.3361 22.296 57.6353 23.2066 57.6353C23.683 57.6353 24.1546 57.5226 24.6215 57.2974C25.0883 57.0721 25.4701 56.8114 25.7668 56.5154L37.4829 44.7993C37.975 44.3073 38.5671 44.051 39.2592 44.0306C39.9506 44.0109 40.5624 44.2671 41.0946 44.7993C41.6132 45.3172 41.8725 45.9192 41.8725 46.6052C41.8725 47.2905 41.6132 47.8924 41.0946 48.411L29.4418 60.0587C29.0771 60.4412 28.8062 60.8628 28.6292 61.3235C28.4523 61.7843 28.3638 62.2528 28.3638 62.7292C28.3638 63.586 28.6772 64.3282 29.304 64.9556C29.9315 65.5824 30.6736 65.8958 31.5305 65.8958C32.0068 65.8958 32.4785 65.7948 32.9453 65.5927C33.4122 65.3898 33.794 65.1316 34.0907 64.8178L46.2774 52.6515C46.7701 52.1595 47.3622 51.9033 48.0537 51.8829C48.7458 51.8631 49.3579 52.1193 49.8901 52.6515C50.408 53.1694 50.667 53.7714 50.667 54.4574C50.667 55.1434 50.408 55.7453 49.8901 56.2633L37.7657 68.3826C37.4547 68.697 37.1971 69.1016 36.9929 69.5964C36.7888 70.0911 36.6867 70.5767 36.6867 71.0531C36.6867 71.9099 37.0004 72.6517 37.6279 73.2785C38.2554 73.906 38.9975 74.2197 39.8543 74.2197C40.3307 74.2197 40.7853 74.1312 41.2182 73.9543C41.651 73.7774 42.0498 73.5065 42.4146 73.1417L54.6013 60.9754C55.0933 60.4834 55.6854 60.2272 56.3775 60.2067C57.0697 60.187 57.6818 60.4432 58.214 60.9754C58.7319 61.4933 58.9909 62.0953 58.9909 62.7813C58.9909 63.4673 58.7319 64.0692 58.214 64.5871L46.0263 76.7749C45.6615 77.139 45.3906 77.5646 45.2137 78.0519C45.0368 78.5385 44.9483 78.9931 44.9483 79.4158C44.9483 80.3542 45.2535 81.1103 45.864 81.684C46.4751 82.2571 47.2326 82.5436 48.1364 82.5436ZM48.1149 87.6733C45.9358 87.6733 44.0312 86.8767 42.4013 85.2835C40.7714 83.6903 39.9173 81.7055 39.839 79.329C37.5251 79.1895 35.592 78.3762 34.0397 76.8892C32.4873 75.4029 31.6458 73.4415 31.5151 71.0051C29.0964 70.8486 27.1412 70.0077 25.6494 68.4826C24.157 66.9575 23.3587 65.0237 23.2546 62.6812C20.8706 62.5417 18.8837 61.7162 17.2939 60.2047C15.7041 58.6925 14.9092 56.7594 14.9092 54.4053C14.9092 53.2851 15.1243 52.1731 15.5544 51.0693C15.9845 49.9654 16.614 48.999 17.443 48.1701L34.6981 30.9415C35.904 29.7185 37.3907 29.107 39.1581 29.107C40.9255 29.107 42.421 29.7185 43.6447 30.9415L50.0912 37.3891C50.5173 37.8287 51.0195 38.1829 51.598 38.4518C52.1765 38.7206 52.772 38.855 53.3845 38.855C54.2746 38.855 55.079 38.5076 55.7977 37.8127C56.5164 37.1185 56.8757 36.309 56.8757 35.3841C56.8757 34.8724 56.7556 34.364 56.5153 33.859C56.2744 33.3541 55.9342 32.8797 55.4945 32.436L41.1712 18.1137C40.2354 17.1643 39.2088 16.4579 38.0914 15.9944C36.9739 15.531 35.7955 15.2993 34.5562 15.2993C33.3312 15.2993 32.1766 15.531 31.0925 15.9944C30.0077 16.4579 28.9906 17.1643 28.0412 18.1137L14.0905 32.0858C12.6818 33.4762 11.8032 35.1623 11.4547 37.1441C11.1056 39.1252 11.306 41.0215 12.056 42.8332C12.3078 43.4913 12.2745 44.1392 11.956 44.7768C11.6375 45.4145 11.158 45.8521 10.5176 46.0896C9.85952 46.3265 9.19802 46.2894 8.53312 45.9784C7.86822 45.6667 7.41735 45.1818 7.18051 44.5237C6.17669 41.6817 5.91808 38.8325 6.40468 35.9762C6.89196 33.1206 8.24286 30.5856 10.4574 28.371L24.3275 14.501C25.7825 13.0595 27.3883 11.9843 29.1448 11.2751C30.9013 10.566 32.7323 10.2114 34.6379 10.2114C36.5434 10.2114 38.3608 10.566 40.0901 11.2751C41.8194 11.9843 43.4048 13.0595 44.8462 14.501L47.532 17.1868L50.2168 14.501C51.6725 13.0595 53.2718 11.9843 55.0147 11.2751C56.7583 10.566 58.5829 10.2114 60.4884 10.2114C62.394 10.2114 64.2179 10.566 65.9601 11.2751C67.7023 11.9843 69.2941 13.0595 70.7356 14.501L87.464 31.2294C88.9054 32.6708 90.0075 34.3126 90.7704 36.1549C91.5327 37.9965 91.9138 39.87 91.9138 41.7756C91.9138 43.6811 91.5327 45.4986 90.7704 47.2279C90.0075 48.9572 88.9054 50.5425 87.464 51.9839L54.3502 85.0773C53.4954 85.9498 52.5361 86.6007 51.4724 87.0301C50.4087 87.4589 49.2896 87.6733 48.1149 87.6733Z" fill="white"/>
</g>
</svg>
