<svg width="57" height="57" viewBox="0 0 57 57" fill="none" xmlns="http://www.w3.org/2000/svg">
<mask id="mask0_1689_7401" style="mask-type:alpha" maskUnits="userSpaceOnUse" x="0" y="0" width="57" height="57">
<rect y="-6.10352e-05" width="56.4682" height="56.4682" fill="#D9D9D9"/>
</mask>
<g mask="url(#mask0_1689_7401)">
<path d="M27.9407 47.8409C28.1239 47.8409 28.3264 47.7952 28.5484 47.7038C28.7707 47.6125 28.9472 47.5013 29.0777 47.3703L48.724 27.6853C49.2208 27.1884 49.5902 26.6263 49.8322 25.9989C50.0737 25.3714 50.1945 24.7375 50.1945 24.0972C50.1945 23.4435 50.0737 22.7996 49.8322 22.1655C49.5902 21.5318 49.2208 20.973 48.724 20.4891L38.3326 10.0978C37.8487 9.60093 37.2899 9.23154 36.6562 8.98958C36.0222 8.74803 35.3783 8.62724 34.7246 8.62724C34.0842 8.62724 33.4503 8.74803 32.8229 8.98958C32.1955 9.23154 31.6333 9.60093 31.1365 10.0978L30.2153 11.0189L34.8422 15.7052C35.3783 16.2542 35.8228 16.8881 36.1757 17.6069C36.5286 18.3261 36.7051 19.1039 36.7051 19.9403C36.7051 21.4826 36.1331 22.8192 34.9893 23.9501C33.8458 25.0807 32.5027 25.6459 30.96 25.6459C30.0452 25.6459 29.2511 25.5022 28.5778 25.2148C27.9049 24.9269 27.2939 24.5085 26.7449 23.9595L22.4116 19.6462L11.8826 30.1752C11.7128 30.345 11.5918 30.5248 11.5197 30.7145C11.4479 30.904 11.412 31.1032 11.412 31.3122C11.412 31.7569 11.5624 32.1327 11.8632 32.4398C12.1636 32.7468 12.5361 32.9003 12.9808 32.9003C13.1898 32.9003 13.3923 32.8482 13.5884 32.7439C13.7845 32.6392 13.9478 32.5215 14.0784 32.391L20.784 25.6853C21.1632 25.3061 21.6175 25.1132 22.1469 25.1066C22.6763 25.1003 23.137 25.2932 23.5292 25.6853C23.9084 26.0642 24.098 26.5216 24.098 27.0576C24.098 27.5937 23.9084 28.0511 23.5292 28.4299L16.8824 35.0967C16.7126 35.2665 16.5916 35.4528 16.5195 35.6555C16.4477 35.8579 16.4118 36.0637 16.4118 36.2731C16.4118 36.6912 16.5687 37.057 16.8824 37.3707C17.1961 37.6845 17.5622 37.8413 17.9806 37.8413C18.1896 37.8413 18.3921 37.7956 18.5882 37.7043C18.7843 37.6129 18.9476 37.5017 19.0782 37.3707L25.7838 30.6851C26.163 30.3059 26.6173 30.113 27.1467 30.1063C27.676 30.1001 28.1368 30.293 28.5289 30.6851C28.9081 31.0639 29.0977 31.5214 29.0977 32.0574C29.0977 32.5935 28.9081 33.0509 28.5289 33.4297L21.8822 40.0965C21.7383 40.2271 21.6239 40.4035 21.5392 40.6259C21.4541 40.8478 21.4116 41.0635 21.4116 41.2729C21.4116 41.6909 21.5685 42.0568 21.8822 42.3705C22.1959 42.6842 22.5619 42.8411 22.9804 42.8411C23.1894 42.8411 23.3821 42.8052 23.5586 42.7335C23.735 42.6617 23.9082 42.5407 24.078 42.3705L30.7836 35.6849C31.1628 35.3057 31.6171 35.1128 32.1464 35.1061C32.6758 35.0999 33.1366 35.2928 33.5287 35.6849C33.9079 36.0637 34.0975 36.5212 34.0975 37.0572C34.0975 37.5933 33.9079 38.0507 33.5287 38.4295L26.8231 45.1351C26.6533 45.3053 26.5324 45.4916 26.4602 45.6939C26.3884 45.8967 26.3526 46.0896 26.3526 46.2727C26.3526 46.7433 26.4996 47.1223 26.7937 47.4097C27.0878 47.6972 27.4702 47.8409 27.9407 47.8409ZM27.9213 51.7625C26.5747 51.7625 25.3754 51.2821 24.3232 50.3214C23.2711 49.3606 22.647 48.1679 22.451 46.7433C21.1177 46.5472 20.0001 45.9982 19.0982 45.0963C18.1962 44.1944 17.6472 43.0768 17.4512 41.7435C16.1179 41.5474 15.0101 40.9886 14.1278 40.0671C13.2455 39.1456 12.7063 38.0378 12.5102 36.7437C11.046 36.5476 9.84327 35.9398 8.90213 34.9203C7.96099 33.9007 7.49042 32.6851 7.49042 31.2733C7.49042 30.5675 7.62454 29.8714 7.89276 29.1852C8.16059 28.499 8.55587 27.8943 9.07859 27.3712L19.647 16.8034C20.392 16.0583 21.3102 15.6858 22.4016 15.6858C23.4933 15.6858 24.4117 16.0583 25.1567 16.8034L29.2936 20.9403C29.5289 21.1885 29.7969 21.3812 30.0977 21.5185C30.3981 21.6557 30.6922 21.7243 30.98 21.7243C31.4373 21.7243 31.8555 21.5381 32.2347 21.1655C32.6139 20.793 32.8035 20.3781 32.8035 19.9209C32.8035 19.7115 32.7478 19.4827 32.6364 19.2344C32.5254 18.9862 32.3458 18.7445 32.0976 18.5092L23.6862 10.0978C23.2023 9.60093 22.6435 9.23154 22.0098 8.98958C21.3757 8.74803 20.7318 8.62724 20.0781 8.62724C19.4378 8.62724 18.8039 8.74803 18.1764 8.98958C17.549 9.23154 16.9869 9.60093 16.49 10.0978L7.76512 18.8421C7.05927 19.548 6.6083 20.3977 6.41223 21.3914C6.21616 22.3847 6.28145 23.3454 6.60811 24.2736C6.7783 24.7834 6.73261 25.2736 6.47105 25.7442C6.2095 26.2147 5.82383 26.5285 5.31404 26.6853C4.80426 26.8422 4.30762 26.7931 3.82411 26.5383C3.3406 26.2834 3.02042 25.901 2.86356 25.3912C2.34044 23.718 2.24555 22.0612 2.57887 20.4209C2.91219 18.7801 3.71941 17.3194 5.00053 16.0387L13.6866 7.35259C14.5752 6.47694 15.5783 5.82344 16.6959 5.39209C17.8135 4.96073 18.9541 4.74506 20.1175 4.74506C21.281 4.74506 22.4149 4.96073 23.5192 5.39209C24.6238 5.82344 25.614 6.47694 26.4896 7.35259L27.4113 8.27432L28.3331 7.35259C29.2217 6.47694 30.2248 5.82344 31.3424 5.39209C32.46 4.96073 33.6005 4.74506 34.764 4.74506C35.9275 4.74506 37.0613 4.96073 38.1656 5.39209C39.2703 5.82344 40.2604 6.47694 41.1361 7.35259L51.4692 17.6857C52.3448 18.5613 53.005 19.5613 53.4497 20.6856C53.894 21.8094 54.1161 22.9531 54.1161 24.1166C54.1161 25.2801 53.894 26.4139 53.4497 27.5182C53.005 28.6229 52.3448 29.613 51.4692 30.4887L31.8229 50.1155C31.3002 50.6382 30.7022 51.0435 30.0289 51.3313C29.3556 51.6188 28.6531 51.7625 27.9213 51.7625Z" fill="#08658C"/>
</g>
</svg>
