<svg width="45" height="45" viewBox="0 0 45 45" fill="none" xmlns="http://www.w3.org/2000/svg">
<path d="M38.9189 22.5C38.9189 13.4321 31.5679 6.08105 22.5 6.08105C13.4321 6.08105 6.08105 13.4321 6.08105 22.5C6.08105 31.5679 13.4321 38.9189 22.5 38.9189C31.5679 38.9189 38.9189 31.5679 38.9189 22.5Z" fill="white"/>
<path d="M18.7222 13.4422C17.7517 13.488 17.089 13.6429 16.5095 13.8706C15.9099 14.1043 15.4016 14.4179 14.8959 14.9254C14.3902 15.4329 14.0788 15.9415 13.8467 16.5421C13.6222 17.1228 13.47 17.7861 13.4271 18.7573C13.3843 19.7283 13.3748 20.0405 13.3795 22.5174C13.3843 24.9946 13.3952 25.305 13.4423 26.2782C13.4886 27.2485 13.643 27.9112 13.8706 28.4909C14.1047 29.0905 14.4179 29.5985 14.9257 30.1044C15.4334 30.6103 15.9416 30.9209 16.5437 31.1533C17.1238 31.3774 17.7873 31.5304 18.7582 31.5729C19.7291 31.6155 20.0417 31.6253 22.518 31.6206C24.9944 31.6158 25.3061 31.6049 26.2791 31.5588C27.252 31.5126 27.9111 31.3571 28.4909 31.1306C29.0906 30.8959 29.5991 30.5833 30.1046 30.0755C30.6101 29.5675 30.9212 29.0585 31.1532 28.4576C31.3778 27.8774 31.5307 27.214 31.5728 26.2437C31.6152 25.2701 31.6253 24.9592 31.6206 22.4825C31.6158 20.0058 31.6048 19.6953 31.5585 18.7226C31.5124 17.7498 31.3579 17.0892 31.1304 16.5093C30.8959 15.9096 30.583 15.4019 30.0755 14.8956C29.5681 14.3894 29.0586 14.0784 28.4579 13.847C27.8773 13.6225 27.2143 13.4694 26.2434 13.4274C25.2723 13.3855 24.96 13.3747 22.4826 13.3795C20.0053 13.3842 19.6952 13.3948 18.7222 13.4422ZM18.8289 29.932C17.9395 29.8933 17.4566 29.7455 17.1347 29.6218C16.7086 29.4575 16.405 29.259 16.0843 28.9416C15.7636 28.6241 15.5665 28.3193 15.4002 27.894C15.2752 27.5721 15.1247 27.0899 15.0831 26.2005C15.0378 25.2392 15.0284 24.9506 15.0231 22.5154C15.0178 20.08 15.0271 19.7918 15.0692 18.8302C15.1072 17.9416 15.2559 17.4581 15.3794 17.1365C15.5436 16.7098 15.7413 16.4067 16.0597 16.0862C16.378 15.7657 16.6818 15.5683 17.1074 15.4019C17.4288 15.2764 17.9112 15.1272 18.8002 15.0848C19.7622 15.0392 20.0505 15.0301 22.4853 15.0248C24.9203 15.0195 25.2093 15.0287 26.1716 15.071C27.0602 15.1096 27.5439 15.2569 27.8653 15.3811C28.2915 15.5453 28.5949 15.7425 28.9153 16.0614C29.2361 16.3803 29.4334 16.683 29.5999 17.1095C29.7257 17.43 29.8749 17.9122 29.9168 18.8018C29.9626 19.7637 29.973 20.0522 29.9775 22.4869C29.9817 24.9216 29.9731 25.2107 29.9311 26.172C29.8921 27.0615 29.7448 27.5444 29.621 27.8666C29.4568 28.2926 29.2588 28.5964 28.9401 28.9168C28.6217 29.237 28.3184 29.4345 27.8925 29.6009C27.5714 29.7262 27.0885 29.8758 26.2004 29.9181C25.2382 29.9632 24.95 29.9727 22.5141 29.9781C20.0783 29.9834 19.7908 29.9736 18.8289 29.932ZM26.2651 17.6249C26.2654 17.8414 26.3299 18.0529 26.4506 18.2327C26.5711 18.4125 26.7423 18.5526 26.9426 18.635C27.1426 18.7175 27.3628 18.7389 27.5751 18.6962C27.7873 18.6536 27.9823 18.5489 28.135 18.3957C28.2879 18.2422 28.3918 18.047 28.4336 17.8346C28.4756 17.6221 28.4533 17.4021 28.3701 17.2022C28.2868 17.0023 28.1462 16.8317 27.9661 16.7117C27.7858 16.5918 27.5738 16.528 27.3575 16.5284C27.0672 16.529 26.789 16.6448 26.5842 16.8504C26.3793 17.0561 26.2646 17.3346 26.2651 17.6249ZM17.8165 22.5092C17.8216 25.0961 19.9225 27.1884 22.5089 27.1834C25.0952 27.1785 27.1889 25.0778 27.1842 22.4909C27.1792 19.904 25.0778 17.8111 22.491 17.8162C19.9043 17.8213 17.8116 19.9226 17.8165 22.5092ZM19.4595 22.5059C19.4583 21.9045 19.6355 21.3163 19.9686 20.8156C20.3017 20.3149 20.7758 19.9242 21.331 19.693C21.8861 19.4618 22.4974 19.4004 23.0875 19.5164C23.6776 19.6327 24.2198 19.9212 24.6458 20.3455C25.072 20.77 25.3626 21.3112 25.4811 21.9007C25.5997 22.4903 25.5406 23.1018 25.3116 23.6579C25.0827 24.2139 24.6937 24.6896 24.1945 25.0247C23.6951 25.3599 23.1075 25.5392 22.5061 25.5405C22.1068 25.5413 21.7112 25.4633 21.3421 25.3114C20.9728 25.1593 20.6372 24.936 20.3543 24.6543C20.0714 24.3724 19.8466 24.0376 19.6931 23.6691C19.5396 23.3003 19.4602 22.9052 19.4595 22.5059Z" fill="#08658C"/>
</svg>
