<svg width="45" height="45" viewBox="0 0 45 45" fill="none" xmlns="http://www.w3.org/2000/svg">
<mask id="mask0_1243_7400" style="mask-type:luminance" maskUnits="userSpaceOnUse" x="6" y="6" width="33" height="33">
<path d="M38.9189 6.08105H6.08105V38.9189H38.9189V6.08105Z" fill="white"/>
</mask>
<g mask="url(#mask0_1243_7400)">
<path d="M38.9189 22.5C38.9189 13.4321 31.5678 6.08105 22.5 6.08105C13.4321 6.08105 6.08105 13.4321 6.08105 22.5C6.08105 31.5678 13.4321 38.9189 22.5 38.9189C31.5678 38.9189 38.9189 31.5678 38.9189 22.5Z" fill="white"/>
<path d="M21.6993 29.1616C21.4391 29.1616 21.22 29.0726 21.042 28.8945C20.8639 28.7165 20.7749 28.4975 20.7749 28.2372V19.4246C20.7749 19.1507 20.8639 18.9247 21.042 18.7467C21.22 18.5686 21.4391 18.4796 21.6993 18.4796C21.9595 18.4796 22.1787 18.5686 22.3567 18.7467C22.5484 18.9247 22.6442 19.1507 22.6442 19.4246V20.2668C23.0824 19.7875 23.596 19.3561 24.1849 18.9727C24.7874 18.5756 25.5476 18.377 26.4651 18.377C27.2457 18.377 27.91 18.5618 28.4577 18.9315C29.0055 19.2877 29.4232 19.7738 29.7108 20.39C29.9983 20.9927 30.1422 21.6637 30.1422 22.4032V28.2372C30.1422 28.4975 30.0464 28.7165 29.8546 28.8945C29.6765 29.0726 29.4575 29.1616 29.1972 29.1616C28.937 29.1616 28.7179 29.0726 28.5398 28.8945C28.3619 28.7165 28.2729 28.4975 28.2729 28.2372V22.6087C28.2729 21.8281 28.0948 21.2186 27.7387 20.7804C27.3963 20.3285 26.8212 20.1025 26.0131 20.1025C25.2737 20.1025 24.6301 20.301 24.0822 20.6982C23.5344 21.0953 23.0551 21.5542 22.6442 22.0745V28.2372C22.6442 28.4975 22.5484 28.7165 22.3567 28.8945C22.1787 29.0726 21.9595 29.1616 21.6993 29.1616Z" fill="#08658C"/>
<path d="M16.5428 16.446C16.2552 16.446 16.0087 16.3433 15.8032 16.1379C15.5978 15.9325 15.4951 15.686 15.4951 15.3984V15.3162C15.4951 15.0286 15.5978 14.7821 15.8032 14.5767C16.0087 14.3713 16.2552 14.2686 16.5428 14.2686H16.666C16.9536 14.2686 17.2001 14.3713 17.4056 14.5767C17.611 14.7821 17.7137 15.0286 17.7137 15.3162V15.3984C17.7137 15.686 17.611 15.9325 17.4056 16.1379C17.2001 16.3433 16.9536 16.446 16.666 16.446H16.5428ZM16.5838 29.1617C16.3237 29.1617 16.1045 29.0727 15.9265 28.8946C15.7485 28.7166 15.6595 28.4975 15.6595 28.2372V19.4247C15.6595 19.1508 15.7485 18.9248 15.9265 18.7467C16.1045 18.5687 16.3237 18.4797 16.5838 18.4797C16.8578 18.4797 17.0837 18.5687 17.2617 18.7467C17.4398 18.9248 17.5288 19.1508 17.5288 19.4247V28.2372C17.5288 28.4975 17.4398 28.7166 17.2617 28.8946C17.0837 29.0727 16.8578 29.1617 16.5838 29.1617Z" fill="#08658C"/>
<path d="M22.6448 19.4246C22.6448 19.2194 22.5905 19.0411 22.4828 18.8897L22.3567 18.7469C22.2234 18.6135 22.0669 18.5296 21.8874 18.4961L21.6996 18.4795C21.4396 18.4795 21.2205 18.569 21.0425 18.7469L20.9255 18.8897C20.8255 19.0411 20.775 19.2193 20.775 19.4246V28.2373L20.7918 28.4249C20.8251 28.6046 20.9091 28.7609 21.0425 28.8944C21.176 29.0278 21.3322 29.1117 21.5119 29.1451L21.6996 29.1619C21.9597 29.1619 22.1788 29.0723 22.3567 28.8944C22.5005 28.7609 22.5908 28.6046 22.6268 28.4249L22.6448 28.2373V22.075C22.9529 21.6848 23.2988 21.3286 23.6839 21.0076L24.0825 20.6977C24.6301 20.3009 25.2736 20.1024 26.0128 20.1024C26.8205 20.1024 27.3961 20.3284 27.7385 20.7801C28.0946 21.2183 28.2734 21.8281 28.2734 22.6086V28.2373L28.2902 28.4249C28.3236 28.6045 28.4064 28.761 28.5396 28.8944C28.6733 29.028 28.8304 29.1117 29.0103 29.1451L29.1967 29.1619C29.457 29.1619 29.6771 29.0723 29.8552 28.8944C30.0466 28.7164 30.142 28.4973 30.142 28.2373V22.4029C30.1418 21.7558 30.0316 21.1615 29.8114 20.6193L29.7111 20.3904C29.4594 19.851 29.1077 19.4111 28.6566 19.071L28.4573 18.9321C27.9779 18.6086 27.4099 18.4259 26.7521 18.3856L26.4653 18.3766C25.5478 18.3766 24.7879 18.5762 24.1854 18.9732L23.7572 19.269C23.3439 19.5745 22.9735 19.9075 22.6448 20.2669V19.4246ZM22.9072 19.6343C23.1249 19.4331 23.3554 19.2401 23.6015 19.0581L24.0414 18.7521C24.6971 18.3204 25.5109 18.1143 26.4653 18.1143C27.287 18.1143 28.0034 18.3086 28.6014 18.7109L28.816 18.8614C29.3018 19.2278 29.6787 19.7014 29.9477 20.2773H29.9491C30.2551 20.9186 30.4055 21.6287 30.4055 22.4029V28.2373C30.4055 28.5681 30.2796 28.8529 30.0391 29.0795L30.0403 29.0809C29.8111 29.3099 29.524 29.4254 29.1967 29.4254C28.8696 29.4253 28.5823 29.3099 28.3532 29.0809C28.1241 28.8516 28.0098 28.5646 28.0098 28.2373V22.6086C28.0098 21.8657 27.8397 21.322 27.534 20.946L27.5288 20.9395C27.255 20.578 26.7752 20.3659 26.0128 20.3659C25.3236 20.3661 24.7353 20.5498 24.2369 20.9112C23.7323 21.277 23.2905 21.6983 22.9072 22.1714V28.2373C22.9072 28.5679 22.7823 28.8531 22.5419 29.0795L22.5433 29.0809C22.314 29.31 22.027 29.4254 21.6996 29.4254C21.3723 29.4254 21.0853 29.31 20.856 29.0809C20.6268 28.8516 20.5115 28.5647 20.5115 28.2373V19.4246C20.5115 19.0877 20.6241 18.7925 20.856 18.5605C21.0853 18.3313 21.3723 18.2158 21.6996 18.2158C22.027 18.2159 22.314 18.3313 22.5433 18.5605H22.5419C22.7858 18.7901 22.9072 19.0844 22.9072 19.4246V19.6343Z" fill="#08658C"/>
<path d="M17.5292 19.4247C17.5292 19.2194 17.4787 19.0411 17.3787 18.8896L17.2617 18.7469C17.1283 18.6136 16.968 18.5296 16.7808 18.4962L16.584 18.4794C16.3239 18.4794 16.1049 18.5689 15.9269 18.7469L15.8099 18.8896C15.7098 19.0411 15.6594 19.2192 15.6594 19.4247V28.2372L15.6761 28.425C15.7096 28.6045 15.7934 28.7608 15.9269 28.8944C16.0604 29.0278 16.2166 29.1117 16.3963 29.1451L16.584 29.1618C16.7893 29.1618 16.9675 29.1114 17.119 29.0114L17.2617 28.8944C17.3951 28.7609 17.4791 28.6045 17.5125 28.425L17.5292 28.2372V19.4247ZM15.2312 15.3983V15.316C15.2312 14.9578 15.3628 14.6443 15.617 14.3901C15.8712 14.136 16.1847 14.0056 16.5429 14.0056V14.2679L16.4374 14.2731C16.1946 14.2954 15.9833 14.3968 15.8034 14.5766L15.6684 14.7386C15.553 14.908 15.4949 15.1004 15.4948 15.316V15.3983C15.4948 15.6859 15.598 15.9323 15.8034 16.1377C15.9833 16.3176 16.1945 16.4189 16.4374 16.4412L16.5429 16.4463H16.6663L16.7718 16.4412C16.9451 16.4252 17.1025 16.369 17.2437 16.2727L17.4057 16.1377C17.611 15.9323 17.7131 15.6858 17.7131 15.3983V15.316C17.713 15.1005 17.6561 14.908 17.5408 14.7386L17.4057 14.5766C17.226 14.3968 17.0145 14.2955 16.7718 14.2731L16.6663 14.2679V14.0056C17.0244 14.0057 17.338 14.1359 17.5922 14.3901C17.8463 14.6443 17.9767 14.9579 17.9767 15.316V15.3983C17.9767 15.7564 17.8463 16.07 17.5922 16.3242C17.338 16.5783 17.0244 16.7099 16.6663 16.71H16.5429C16.1847 16.71 15.8712 16.5784 15.617 16.3242C15.3627 16.0699 15.2312 15.7565 15.2312 15.3983ZM16.6663 14.0056V14.2679H16.5429V14.0056H16.6663ZM17.7915 28.2372C17.7915 28.5646 17.6773 28.8515 17.4482 29.0808C17.2162 29.3127 16.9209 29.4254 16.584 29.4255C16.2566 29.4255 15.9697 29.3099 15.7404 29.0808C15.5112 28.8515 15.3958 28.5646 15.3958 28.2372V19.4247C15.3958 19.0876 15.5084 18.7925 15.7404 18.5604C15.9697 18.3313 16.2566 18.2158 16.584 18.2158C16.9209 18.2159 17.2162 18.3285 17.4482 18.5604C17.6801 18.7925 17.7915 19.0876 17.7915 19.4247V28.2372Z" fill="#08658C"/>
</g>
</svg>
