<svg width="38" height="38" viewBox="0 0 38 38" fill="none" xmlns="http://www.w3.org/2000/svg">
<mask id="mask0_1783_7423" style="mask-type:alpha" maskUnits="userSpaceOnUse" x="8" y="8" width="22" height="22">
<rect x="8" y="8" width="22" height="22" fill="#D9D9D9"/>
</mask>
<g mask="url(#mask0_1783_7423)">
<path d="M23.3177 16.0152L14.2184 25.1147C14.0247 25.3083 13.8045 25.4012 13.5577 25.3936C13.311 25.386 13.0908 25.2854 12.8973 25.0918C12.7036 24.8981 12.6067 24.674 12.6067 24.4196C12.6067 24.1653 12.7036 23.9412 12.8973 23.7475L21.9736 14.6711H17.6667C17.4007 14.6711 17.176 14.5798 16.9927 14.397C16.8094 14.2142 16.7177 13.9901 16.7177 13.7249C16.7177 13.4597 16.8095 13.234 16.9932 13.0479C17.1767 12.862 17.4016 12.769 17.6681 12.769H24.2623C24.5288 12.769 24.755 12.8608 24.9409 13.0443C25.1268 13.2279 25.2198 13.453 25.2198 13.7194V20.3134C25.2198 20.5799 25.1284 20.8061 24.9457 20.992C24.763 21.1781 24.5389 21.2711 24.2736 21.2711C24.0083 21.2711 23.7828 21.1795 23.5968 20.9961C23.4108 20.8128 23.3177 20.5881 23.3177 20.3221V16.0152Z" fill="#9C9C9C"/>
</g>
</svg>
