<svg width="45" height="45" viewBox="0 0 45 45" fill="none" xmlns="http://www.w3.org/2000/svg">
<path d="M38.9189 22.5C38.9189 13.4321 31.5679 6.08105 22.5 6.08105C13.4321 6.08105 6.08105 13.4321 6.08105 22.5C6.08105 31.5679 13.4321 38.9189 22.5 38.9189C31.5679 38.9189 38.9189 31.5679 38.9189 22.5Z" fill="white"/>
<mask id="mask0_1860_7404" style="mask-type:alpha" maskUnits="userSpaceOnUse" x="10" y="10" width="25" height="24">
<rect x="10.0575" y="10" width="24" height="24" fill="#D9D9D9"/>
</mask>
<g mask="url(#mask0_1860_7404)">
<path d="M27.0575 30V27H24.0575V25H27.0575V22H29.0575V25H32.0575V27H29.0575V30H27.0575ZM21.0575 27H17.0575C15.6742 27 14.495 26.5125 13.52 25.5375C12.545 24.5625 12.0575 23.3833 12.0575 22C12.0575 20.6167 12.545 19.4375 13.52 18.4625C14.495 17.4875 15.6742 17 17.0575 17H21.0575V19H17.0575C16.2242 19 15.5158 19.2917 14.9325 19.875C14.3492 20.4583 14.0575 21.1667 14.0575 22C14.0575 22.8333 14.3492 23.5417 14.9325 24.125C15.5158 24.7083 16.2242 25 17.0575 25H21.0575V27ZM18.0575 23V21H26.0575V23H18.0575ZM32.0575 22H30.0575C30.0575 21.1667 29.7658 20.4583 29.1825 19.875C28.5992 19.2917 27.8908 19 27.0575 19H23.0575V17H27.0575C28.4408 17 29.62 17.4875 30.595 18.4625C31.57 19.4375 32.0575 20.6167 32.0575 22Z" fill="#08658C"/>
</g>
</svg>
