<svg width="57" height="57" viewBox="0 0 57 57" fill="none" xmlns="http://www.w3.org/2000/svg">
<mask id="mask0_1712_7407" style="mask-type:alpha" maskUnits="userSpaceOnUse" x="0" y="0" width="57" height="57">
<rect width="56.4682" height="56.4682" fill="#D9D9D9"/>
</mask>
<g mask="url(#mask0_1712_7407)">
<path d="M10.9802 49.4097C9.92141 49.4097 9.00302 49.0209 8.22502 48.2433C7.4474 47.4653 7.05859 46.5469 7.05859 45.4881V10.9802C7.05859 9.92141 7.4474 9.00302 8.22502 8.22502C9.00302 7.4474 9.92141 7.05859 10.9802 7.05859H45.4881C46.5469 7.05859 47.4653 7.4474 48.2433 8.22502C49.0209 9.00302 49.4097 9.92141 49.4097 10.9802V30.587C49.4097 31.1427 49.2211 31.6083 48.8439 31.984C48.467 32.3597 47.9998 32.5475 47.4422 32.5475C46.8846 32.5475 46.4195 32.3597 46.0469 31.984C45.6744 31.6083 45.4881 31.1427 45.4881 30.587V10.9802H10.9802V45.4881H27.8418C28.3975 45.4881 28.8632 45.6768 29.2388 46.054C29.6149 46.4312 29.8029 46.8985 29.8029 47.4557C29.8029 48.0133 29.6149 48.4784 29.2388 48.8509C28.8632 49.2235 28.3975 49.4097 27.8418 49.4097H10.9802ZM41.1354 46.214L49.9391 37.3908C50.3262 36.9987 50.7856 36.8026 51.3173 36.8026C51.8494 36.8026 52.3116 36.9993 52.7037 37.3926C53.0959 37.7863 53.2919 38.2537 53.2919 38.7949C53.2919 39.3357 53.0959 39.8021 52.7037 40.1942L42.5083 50.3903C42.1212 50.7824 41.6616 50.9785 41.1295 50.9785C40.5978 50.9785 40.1358 50.7824 39.7437 50.3903L34.6263 45.2729C34.2471 44.8858 34.0575 44.4262 34.0575 43.8941C34.0575 43.3624 34.2563 42.9004 34.6539 42.5083C35.0519 42.1161 35.516 41.9201 36.0462 41.9201C36.5764 41.9201 37.0375 42.1161 37.4297 42.5083L41.1354 46.214ZM18.0387 30.1947C18.5744 30.1947 19.0351 30.0019 19.421 29.6165C19.8065 29.231 19.9992 28.7702 19.9992 28.2342C19.9992 27.6981 19.8065 27.2373 19.421 26.8519C19.0351 26.4664 18.5744 26.2737 18.0387 26.2737C17.5027 26.2737 17.0419 26.4664 16.6564 26.8519C16.2706 27.2373 16.0776 27.6981 16.0776 28.2342C16.0776 28.7702 16.2706 29.231 16.6564 29.6165C17.0419 30.0019 17.5027 30.1947 18.0387 30.1947ZM18.0387 20.6268C18.5744 20.6268 19.0351 20.4339 19.421 20.048C19.8065 19.6626 19.9992 19.2018 19.9992 18.6658C19.9992 18.1301 19.8065 17.6693 19.421 17.2835C19.0351 16.898 18.5744 16.7052 18.0387 16.7052C17.5027 16.7052 17.0419 16.898 16.6564 17.2835C16.2706 17.6693 16.0776 18.1301 16.0776 18.6658C16.0776 19.2018 16.2706 19.6626 16.6564 20.048C17.0419 20.4339 17.5027 20.6268 18.0387 20.6268ZM37.8808 30.1947C38.4365 30.1947 38.9022 30.0063 39.2778 29.6294C39.6535 29.2522 39.8413 28.7847 39.8413 28.2271C39.8413 27.6699 39.6535 27.205 39.2778 26.8325C38.9022 26.4599 38.4365 26.2737 37.8808 26.2737H27.5283C26.9727 26.2737 26.507 26.4621 26.1313 26.8389C25.7556 27.2162 25.5678 27.6836 25.5678 28.2412C25.5678 28.7985 25.7556 29.2633 26.1313 29.6359C26.507 30.0084 26.9727 30.1947 27.5283 30.1947H37.8808ZM37.8808 20.6268C38.4365 20.6268 38.9022 20.4382 39.2778 20.061C39.6535 19.6837 39.8413 19.2165 39.8413 18.6593C39.8413 18.1017 39.6535 17.6366 39.2778 17.264C38.9022 16.8915 38.4365 16.7052 37.8808 16.7052H27.5283C26.9727 16.7052 26.507 16.8939 26.1313 17.2711C25.7556 17.6479 25.5678 18.1152 25.5678 18.6728C25.5678 19.2304 25.7556 19.6955 26.1313 20.068C26.507 20.4406 26.9727 20.6268 27.5283 20.6268H37.8808Z" fill="#08658C"/>
</g>
</svg>
