<svg width="57" height="57" viewBox="0 0 57 57" fill="none" xmlns="http://www.w3.org/2000/svg">
<mask id="mask0_1762_7401" style="mask-type:alpha" maskUnits="userSpaceOnUse" x="0" y="0" width="57" height="57">
<rect width="56.4682" height="56.4682" fill="#D9D9D9"/>
</mask>
<g mask="url(#mask0_1762_7401)">
<path d="M28.2339 51.7625C22.9792 51.7625 18.5284 49.9391 14.8815 46.2922C11.2346 42.6453 9.41113 38.1945 9.41113 32.9398C9.41113 28.4302 10.7836 24.0709 13.5286 19.8621C16.2736 15.6529 20.0446 12.032 24.8417 8.99962C25.5738 8.51611 26.3222 8.49984 27.0869 8.9508C27.8515 9.40176 28.2339 10.0782 28.2339 10.9801V14.8229C28.2339 16.1562 28.6946 17.2738 29.6162 18.1757C30.5377 19.0776 31.6651 19.5286 32.9984 19.5286C33.6913 19.5286 34.3416 19.3815 34.9495 19.0874C35.5573 18.7933 36.0965 18.3586 36.567 17.7834C36.8808 17.4175 37.25 17.1724 37.6746 17.0481C38.0993 16.9242 38.5013 16.9928 38.8805 17.254C41.4294 19.0186 43.4293 21.2866 44.8802 24.0578C46.3311 26.8291 47.0566 29.7897 47.0566 32.9398C47.0566 38.1945 45.2331 42.6453 41.5862 46.2922C37.9393 49.9391 33.4885 51.7625 28.2339 51.7625ZM13.3327 32.9398C13.3327 35.2664 13.8425 37.459 14.8621 39.5177C15.8816 41.5765 17.313 43.3184 19.156 44.7434C19.0384 44.3642 18.9533 43.985 18.9007 43.6058C18.8486 43.227 18.8225 42.848 18.8225 42.4688C18.8225 41.2139 19.0578 40.0375 19.5284 38.9395C19.9989 37.8415 20.6852 36.8416 21.5871 35.9397L28.2339 29.4105L34.8806 35.9397C35.7826 36.8416 36.4688 37.8415 36.9394 38.9395C37.4099 40.0375 37.6452 41.2139 37.6452 42.4688C37.6452 42.848 37.6192 43.227 37.567 43.6058C37.5145 43.985 37.4294 44.3642 37.3117 44.7434C39.1548 43.3184 40.5861 41.5765 41.6057 39.5177C42.6252 37.459 43.135 35.2664 43.135 32.9398C43.135 30.8744 42.7135 28.8778 41.8704 26.95C41.0272 25.0219 39.8149 23.2671 38.2334 21.6856C37.4229 22.2475 36.5733 22.682 35.6847 22.989C34.7957 23.2965 33.9003 23.4502 32.9984 23.4502C30.5934 23.4502 28.5705 22.6396 26.9298 21.0185C25.2895 19.3978 24.4236 17.3718 24.3323 14.9405V14.1565C20.9073 16.7446 18.2178 19.7084 16.2638 23.0479C14.3097 26.3877 13.3327 29.685 13.3327 32.9398ZM28.2339 34.9003L24.3323 38.7437C23.8225 39.2534 23.4303 39.822 23.1558 40.4495C22.8813 41.0769 22.7441 41.75 22.7441 42.4688C22.7441 43.9589 23.2766 45.2269 24.3417 46.2728C25.4071 47.3182 26.7045 47.8409 28.2339 47.8409C29.7632 47.8409 31.0606 47.3182 32.1261 46.2728C33.1911 45.2269 33.7236 43.9589 33.7236 42.4688C33.7236 41.7367 33.5864 41.0602 33.3119 40.4395C33.0374 39.8187 32.6452 39.2534 32.1355 38.7437L28.2339 34.9003Z" fill="#08658C"/>
</g>
</svg>
