<svg width="367" height="76" viewBox="0 0 367 76" fill="none" xmlns="http://www.w3.org/2000/svg">
<g clip-path="url(#clip0_1521_7573)">
<path d="M43.4873 1.29803C44.2471 1.82412 44.9352 2.4043 45.6097 3.03401C45.7659 3.17913 45.7659 3.17913 45.9253 3.32719C47.1717 4.49235 48.3787 5.6969 49.5856 6.90278C49.8429 7.15927 50.1003 7.41573 50.3577 7.67215C51.0493 8.36136 51.7404 9.05115 52.4312 9.74114C52.864 10.1734 53.2969 10.6056 53.7299 11.0377C55.0882 12.3935 56.4462 13.7497 57.8036 15.1064C59.3641 16.6661 60.9259 18.2246 62.4886 19.782C63.7019 20.9912 64.9141 22.2015 66.1255 23.4127C66.8468 24.1338 67.5686 24.8546 68.2916 25.5742C68.9709 26.2505 69.6489 26.9281 70.326 27.6067C70.5734 27.8543 70.8212 28.1014 71.0696 28.3479C73.8033 31.0625 76.0358 33.7709 76.0912 37.7964C76.0724 40.5999 75.1455 42.9982 73.2124 45.0362C73.1166 45.1385 73.0208 45.2409 72.9221 45.3463C71.5938 46.7559 70.2259 48.1273 68.8595 49.4998C68.7152 49.6449 68.5709 49.7899 68.4222 49.9394C67.6601 50.7054 66.8973 51.4708 66.1341 52.2358C65.3524 53.0196 64.5728 53.8055 63.7938 54.5919C63.1877 55.2028 62.58 55.8121 61.9718 56.4209C61.6839 56.7098 61.3965 56.9993 61.1098 57.2894C58.2758 60.1556 55.5985 62.5192 51.3688 62.5536C47.4631 62.5603 45.0687 60.6433 42.4022 57.9978C42.0757 57.6701 41.7497 57.342 41.4242 57.0133C41.2557 56.8439 41.0871 56.6746 40.9135 56.5001C40.5038 56.0882 40.0945 55.6759 39.6856 55.2632C40.4987 54.2892 41.3562 53.3842 42.2587 52.493C42.3864 52.3662 42.514 52.2394 42.6456 52.1087C42.9566 51.7998 43.2681 51.4914 43.58 51.1833C44.933 52.2928 46.127 53.5505 47.3375 54.8115C48.5646 56.0625 49.4229 56.8213 51.2413 56.8395C51.5271 56.8481 51.5271 56.8481 51.8187 56.8568C53.5303 56.5725 54.7459 55.5462 55.9307 54.3448C56.0781 54.199 56.2255 54.0533 56.3773 53.9031C56.8597 53.4247 57.3387 52.9431 57.8175 52.4612C58.1538 52.1254 58.4903 51.7898 58.827 51.4543C59.5302 50.7525 60.2318 50.049 60.9321 49.3442C61.739 48.5323 62.5492 47.7238 63.3611 46.9169C64.1461 46.1367 64.9284 45.3539 65.7096 44.5699C66.0406 44.2383 66.3723 43.9074 66.7047 43.5772C67.1694 43.1148 67.631 42.6496 68.0919 42.1835C68.2285 42.0488 68.3652 41.914 68.5059 41.7752C69.5942 40.6644 70.391 39.4473 70.3887 37.8427C70.3948 37.5878 70.3948 37.5878 70.4011 37.3277C70.0791 35.6457 69.0704 34.4409 67.8825 33.2693C67.7367 33.1219 67.5909 32.9745 67.4408 32.8226C66.9624 32.3402 66.4808 31.8613 65.9989 31.3825C65.6631 31.0461 65.3275 30.7096 64.992 30.373C64.2902 29.6697 63.5867 28.9681 62.8819 28.2678C62.07 27.4609 61.2615 26.6508 60.4546 25.8388C59.6744 25.0539 58.8916 24.2715 58.1076 23.4903C57.776 23.1593 57.4451 22.8276 57.1149 22.4953C56.6525 22.0306 56.1873 21.5689 55.7212 21.108C55.5191 20.9031 55.5191 20.9031 55.3129 20.694C54.1499 19.5546 52.9363 18.806 51.2645 18.8228C51.073 18.8209 50.8815 18.819 50.6843 18.817C49.1244 19.0675 48.1314 20.0092 47.063 21.109C46.8562 21.3174 46.8562 21.3174 46.6452 21.5299C46.209 21.9703 45.7754 22.4132 45.3418 22.8563C45.045 23.1568 44.7479 23.4572 44.4508 23.7574C43.7258 24.4905 43.003 25.2257 42.2819 25.9625C42.9416 26.7508 43.6157 27.5005 44.3566 28.2147C44.5339 28.3878 44.7112 28.5611 44.8883 28.7344C45.1609 29.0001 45.4339 29.2652 45.7085 29.5288C48.0386 31.7701 49.4527 34.1911 49.6998 37.4602C49.737 40.946 48.254 43.598 45.8872 46.0319C45.2323 46.6977 44.5715 47.3574 43.9096 48.0162C43.6453 48.2811 43.3813 48.5462 43.1173 48.8114C42.2889 49.6434 41.4582 50.4731 40.626 51.3013C39.7733 52.1498 38.9244 53.002 38.0773 53.8561C37.3444 54.5948 36.6094 55.3313 35.8726 56.066C35.4349 56.5025 34.9983 56.9399 34.5633 57.3789C30.9019 61.0685 30.9019 61.0685 28.7443 61.9393C28.5607 61.9393 28.3771 61.9393 28.1879 61.9393C29.0341 62.9247 29.9053 63.8754 30.8182 64.7992C30.9405 64.9229 31.0627 65.0467 31.1887 65.1742C31.4451 65.4331 31.7017 65.6918 31.9587 65.9502C32.2193 66.213 32.4791 66.4766 32.7381 66.7411C33.1163 67.1272 33.4969 67.5107 33.8781 67.8939C33.9921 68.0111 34.1061 68.1284 34.2236 68.2492C35.3401 69.3602 36.5062 70.0242 38.0963 70.1141C40.361 70.0419 41.6533 68.5547 43.1218 66.9929C43.2175 66.8908 43.3133 66.7886 43.412 66.6834C43.708 66.3709 44.0043 66.0587 44.3007 65.7465C44.5021 65.5322 44.7016 65.3162 44.8993 65.0985C46.559 63.2783 46.559 63.2783 47.4433 63.1775C47.9236 63.2726 48.3231 63.4172 48.7726 63.6083C49.5977 63.8048 50.3968 63.8214 51.2413 63.8169C51.3751 63.8176 51.5088 63.8183 51.6466 63.8191C52.558 63.8174 53.4336 63.7368 54.336 63.6083C53.3646 64.7819 52.3053 65.8613 51.2326 66.9413C51.1378 67.0369 51.0429 67.1325 50.9451 67.231C50.4433 67.7367 49.941 68.2417 49.4381 68.7463C48.9232 69.2633 48.4105 69.7824 47.8983 70.3019C47.4999 70.7052 47.0998 71.1069 46.6992 71.5081C46.5097 71.6985 46.3207 71.8896 46.1324 72.0814C43.8012 74.4529 41.4796 75.7219 38.1093 75.7551C33.9421 75.7104 31.5736 73.5966 28.7796 70.7984C28.4895 70.5105 28.1993 70.2228 27.909 69.9353C27.1248 69.1576 26.343 68.3776 25.5619 67.597C25.0727 67.1083 24.5829 66.6201 24.093 66.1322C22.4689 64.5146 20.8464 62.8955 19.2259 61.2744C19.1388 61.1873 19.0517 61.1002 18.962 61.0104C18.8312 60.8796 18.8312 60.8796 18.6977 60.7461C17.2856 59.3337 15.8699 57.925 14.4524 56.518C12.9918 55.0681 11.5341 53.6154 10.0791 52.1599C9.26426 51.3448 8.44831 50.531 7.62942 49.72C6.85877 48.9565 6.09181 48.1896 5.32745 47.4198C5.04796 47.1396 4.76723 46.8606 4.48511 46.583C1.93177 44.0678 0.189617 41.5389 0.127441 37.8543C0.158889 31.9395 5.632 28.0509 9.4549 24.2042C10.4271 23.2259 11.3968 22.2451 12.3632 21.2611C13.1319 20.479 13.9046 19.7011 14.6787 18.9245C15.0042 18.5968 15.3284 18.2678 15.6512 17.9375C18.1293 15.4047 20.6556 13.1542 24.3945 13.1055C24.6027 13.1071 24.6027 13.1071 24.8151 13.1087C24.9615 13.1097 25.108 13.1108 25.2589 13.1119C26.4296 13.1361 27.4646 13.2866 28.5588 13.723C28.826 13.8284 28.826 13.8284 29.0985 13.936C30.6667 14.6361 31.8117 15.6786 33.0095 16.8756C33.1552 17.02 33.3009 17.1644 33.451 17.3131C34.4834 18.3368 35.5102 19.3658 36.533 20.3991C36.2574 21.0419 35.8919 21.4543 35.3957 21.9435C35.2463 22.0917 35.0969 22.2399 34.943 22.3926C34.7869 22.5456 34.6308 22.6986 34.4699 22.8563C34.2336 23.0901 34.2336 23.0901 33.9926 23.3286C33.6039 23.7129 33.2144 24.0963 32.8241 24.4789C31.6635 23.5163 30.6207 22.465 29.5773 21.3778C28.2495 20.0232 26.9833 18.9067 25.0237 18.846C24.8265 18.8369 24.6293 18.8278 24.4261 18.8184C22.7057 19.0609 21.4856 20.1038 20.3051 21.3063C20.1595 21.4509 20.0139 21.5954 19.8639 21.7444C19.3875 22.2185 18.9146 22.6959 18.4418 23.1736C18.1096 23.5061 17.7773 23.8384 17.4447 24.1706C16.7503 24.8653 16.0574 25.5616 15.3658 26.2591C14.5685 27.0633 13.7685 27.8649 12.9671 28.665C12.1927 29.4383 11.4198 30.2132 10.6477 30.9888C10.3206 31.3173 9.99302 31.6454 9.66511 31.9732C9.20707 32.4316 8.75089 32.8917 8.29518 33.3524C8.1603 33.4867 8.02542 33.6211 7.88645 33.7595C6.71398 34.9517 5.92068 36.0688 5.88789 37.7848C5.9481 40.9526 9.23708 43.2092 11.3129 45.2939C11.538 45.5202 11.538 45.5202 11.7677 45.751C12.5601 46.5472 13.353 47.3428 14.1464 48.1379C14.9634 48.957 15.7781 49.7781 16.5924 50.5998C17.222 51.2342 17.8532 51.867 18.4849 52.4993C18.7861 52.8014 19.0866 53.1041 19.3865 53.4074C19.8058 53.8312 20.2273 54.2525 20.6495 54.6734C20.7716 54.7979 20.8937 54.9224 21.0195 55.0506C22.1344 56.1532 23.2178 56.8529 24.8267 56.8511C25.1358 56.8571 25.1358 56.8571 25.4511 56.8634C27.1293 56.5825 28.3305 55.6278 29.4817 54.4308C29.6108 54.3004 29.7399 54.17 29.8729 54.0357C30.2794 53.6241 30.6825 53.2093 31.0855 52.7944C31.3628 52.5125 31.6402 52.2308 31.9179 51.9494C32.5934 51.2637 33.2658 50.5753 33.9368 49.8852C33.6015 49.1593 33.1333 48.6753 32.5611 48.1285C32.3569 47.929 32.1528 47.7294 31.9487 47.5298C31.6292 47.2195 31.3092 46.9097 30.9881 46.6012C28.6005 44.301 26.7251 41.8471 26.6501 38.4077C26.6174 34.1425 28.4234 31.6859 31.3073 28.7499C32.0307 28.0171 32.7567 27.2869 33.4833 26.5572C33.6388 26.401 33.7943 26.2447 33.9545 26.0837C34.7764 25.258 35.5988 24.4329 36.4218 23.6082C37.2673 22.7606 38.1108 21.9108 38.9537 21.0605C39.6067 20.4027 40.2613 19.7465 40.9164 19.0907C41.228 18.7783 41.5389 18.4652 41.8492 18.1514C45.7879 14.1716 45.7879 14.1716 48.0308 13.723C47.1846 12.7376 46.3134 11.7869 45.4005 10.863C45.2782 10.7393 45.156 10.6156 45.03 10.4881C44.7736 10.2291 44.517 9.97046 44.26 9.71206C43.9994 9.44926 43.7396 9.18563 43.4806 8.92119C43.1024 8.53508 42.7218 8.15151 42.3406 7.76839C42.2266 7.65113 42.1125 7.53386 41.9951 7.41304C40.9172 6.34041 39.7787 5.66082 38.2426 5.55824C36.708 5.57715 35.4765 6.26829 34.3875 7.33092C34.0623 7.66753 33.7423 8.00847 33.4239 8.35154C33.3117 8.47117 33.1995 8.5908 33.0839 8.71405C32.6143 9.21559 32.1455 9.71716 31.6885 10.2302C29.7473 12.3979 29.7473 12.3979 28.6561 12.4637C28.0398 12.3125 27.4793 12.1013 26.8898 11.8685C26.2845 11.7922 25.691 11.7976 25.0817 11.8106C24.9385 11.81 24.7953 11.8094 24.6478 11.8088C23.624 11.8182 22.6876 11.9893 21.6973 12.2394C22.6686 11.0658 23.7279 9.98637 24.8006 8.90643C24.8955 8.81081 24.9904 8.71518 25.0881 8.61665C25.5899 8.11101 26.0923 7.60596 26.5951 7.10136C27.11 6.58441 27.6227 6.06534 28.1349 5.54576C28.5334 5.14246 28.9335 4.74083 29.334 4.33963C29.5236 4.14915 29.7126 3.95806 29.9008 3.7663C31.2838 2.35941 32.6957 1.20228 34.5627 0.498286C34.7094 0.44163 34.8562 0.384975 35.0074 0.326602C37.7366 -0.607045 41.0414 -0.135155 43.4873 1.29803ZM36.8641 31.1326C36.7507 31.2447 36.6373 31.3569 36.5204 31.4725C36.28 31.711 36.0401 31.95 35.8007 32.1895C35.436 32.5534 35.0685 32.9142 34.7007 33.275C34.4673 33.5072 34.2342 33.7396 34.0013 33.9722C33.8917 34.0791 33.7822 34.186 33.6693 34.2961C32.643 35.3338 32.1582 36.4241 32.0628 37.8934C32.1452 39.9757 33.4681 41.268 34.864 42.6527C35.1423 42.9332 35.4205 43.2138 35.6985 43.4945C36.4674 44.2686 37.2407 45.0383 38.0166 45.8054C39.1284 44.8799 40.1641 43.8899 41.1924 42.873C41.3557 42.7151 41.5189 42.5572 41.6872 42.3945C43.0742 41.021 44.0683 39.7746 44.1603 37.7753C44.0472 35.4085 42.2418 33.8348 40.6607 32.2672C40.3777 31.9862 40.0968 31.7033 39.816 31.4202C39.6365 31.2409 39.4569 31.0617 39.2771 30.8826C39.1152 30.7212 38.9533 30.5597 38.7865 30.3933C37.941 29.6495 37.5018 30.4973 36.8641 31.1326Z" fill="#014734"/>
<path d="M24.8151 13.1082C24.9615 13.1093 25.108 13.1103 25.2589 13.1114C26.4296 13.1356 27.4646 13.2862 28.5588 13.7225C28.826 13.8279 28.826 13.8279 29.0985 13.9355C30.6667 14.6356 31.8117 15.6782 33.0095 16.8751C33.1552 17.0195 33.3009 17.1639 33.451 17.3126C34.4834 18.3363 35.5102 19.3654 36.533 20.3986C36.2574 21.0414 35.8919 21.4538 35.3957 21.943C35.2463 22.0912 35.0969 22.2395 34.943 22.3922C34.7869 22.5452 34.6308 22.6982 34.4699 22.8558C34.2336 23.0896 34.2336 23.0896 33.9926 23.3281C33.6039 23.7124 33.2144 24.0958 32.8241 24.4784C31.6635 23.5158 30.6207 22.4646 29.5773 21.3773C28.2495 20.0227 26.9833 18.9062 25.0237 18.8455C24.8265 18.8364 24.6293 18.8273 24.4261 18.818C22.7057 19.0604 21.4856 20.1033 20.3051 21.3058C20.1595 21.4504 20.0139 21.595 19.8639 21.7439C19.3875 22.218 18.9146 22.6954 18.4418 23.1731C18.1096 23.5056 17.7773 23.8379 17.4447 24.1701C16.7503 24.8649 16.0574 25.5611 15.3658 26.2587C14.5685 27.0629 13.7685 27.8644 12.9671 28.6645C12.1927 29.4378 11.4198 30.2127 10.6477 30.9883C10.3206 31.3168 9.99302 31.645 9.66511 31.9727C9.20707 32.4311 8.75089 32.8912 8.29518 33.3519C8.1603 33.4863 8.02542 33.6206 7.88645 33.759C6.71398 34.9513 5.92068 36.0683 5.88789 37.7843C5.9481 40.9521 9.23708 43.2087 11.3129 45.2934C11.538 45.5197 11.538 45.5197 11.7677 45.7505C12.5601 46.5467 13.353 47.3423 14.1464 48.1375C14.9634 48.9565 15.7781 49.7776 16.5924 50.5993C17.222 51.2337 17.8532 51.8665 18.4849 52.4988C18.7861 52.8009 19.0866 53.1036 19.3865 53.4069C19.8058 53.8307 20.2273 54.2521 20.6495 54.6729C20.7716 54.7974 20.8937 54.9219 21.0195 55.0501C22.1344 56.1527 23.2178 56.8524 24.8267 56.8506C25.1358 56.8567 25.1358 56.8567 25.4511 56.8629C27.1526 56.5781 28.3555 55.6015 29.5223 54.3898C29.6555 54.2553 29.7887 54.1207 29.9259 53.9821C30.3456 53.5573 30.762 53.1293 31.1783 52.7012C31.4644 52.4104 31.7508 52.1198 32.0374 51.8294C32.7348 51.1218 33.4296 50.4116 34.1222 49.6993C34.7574 49.9993 35.1713 50.3341 35.6667 50.8366C35.889 51.0607 35.889 51.0607 36.1158 51.2893C36.3453 51.5235 36.3453 51.5235 36.5794 51.7624C36.7353 51.9199 36.8911 52.0774 37.0517 52.2397C37.436 52.6284 37.8194 53.0179 38.2021 53.4082C37.0916 54.7264 35.9031 55.9536 34.6919 57.179C34.4372 57.4376 34.1837 57.6974 33.9314 57.9584C32.3598 59.5836 30.8483 61.0326 28.7443 61.9388C28.5607 61.9388 28.3771 61.9388 28.1879 61.9388C29.0341 62.9242 29.9053 63.8749 30.8182 64.7987C30.9405 64.9225 31.0627 65.0462 31.1887 65.1737C31.4451 65.4326 31.7017 65.6913 31.9587 65.9497C32.2193 66.2125 32.4791 66.4761 32.7381 66.7406C33.1163 67.1267 33.4969 67.5103 33.8781 67.8934C33.9921 68.0106 34.1061 68.1279 34.2236 68.2487C35.3401 69.3598 36.5062 70.0237 38.0963 70.1137C40.361 70.0414 41.6533 68.5542 43.1218 66.9925C43.2175 66.8903 43.3133 66.7881 43.412 66.6829C43.708 66.3704 44.0043 66.0582 44.3007 65.746C44.5021 65.5317 44.7016 65.3157 44.8993 65.098C46.559 63.2778 46.559 63.2778 47.4433 63.1771C47.9236 63.2721 48.3231 63.4168 48.7726 63.6078C49.5977 63.8043 50.3968 63.8209 51.2413 63.8164C51.3751 63.8172 51.5088 63.8179 51.6466 63.8186C52.558 63.817 53.4336 63.7363 54.336 63.6078C53.3646 64.7814 52.3053 65.8608 51.2326 66.9408C51.1378 67.0364 51.0429 67.132 50.9451 67.2306C50.4433 67.7362 49.941 68.2413 49.4381 68.7459C48.9232 69.2628 48.4105 69.7819 47.8983 70.3015C47.4999 70.7048 47.0998 71.1064 46.6992 71.5076C46.5097 71.6981 46.3207 71.8892 46.1324 72.0809C43.8012 74.4524 41.4796 75.7214 38.1093 75.7546C33.9421 75.7099 31.5736 73.5962 28.7796 70.7979C28.4895 70.5101 28.1993 70.2224 27.909 69.9348C27.1248 69.1572 26.343 68.3772 25.5619 67.5965C25.0727 67.1078 24.5829 66.6197 24.093 66.1317C22.4689 64.5141 20.8464 62.895 19.2259 61.2739C19.1388 61.1868 19.0517 61.0997 18.962 61.01C18.8312 60.8791 18.8312 60.8791 18.6977 60.7456C17.2856 59.3332 15.8699 57.9246 14.4524 56.5175C12.9918 55.0676 11.5341 53.6149 10.0791 52.1594C9.26426 51.3444 8.44831 50.5305 7.62942 49.7195C6.85877 48.9561 6.09181 48.1891 5.32745 47.4194C5.04796 47.1391 4.76723 46.8601 4.48511 46.5825C1.93177 44.0674 0.189617 41.5384 0.127441 37.8538C0.158889 31.939 5.632 28.0504 9.4549 24.2038C10.4271 23.2254 11.3968 22.2447 12.3632 21.2606C13.1319 20.4785 13.9046 19.7006 14.6787 18.924C15.0042 18.5963 15.3284 18.2673 15.6512 17.937C18.2847 15.2454 20.8647 13.0784 24.8151 13.1082Z" fill="#8A7836"/>
<path d="M37.8313 22.2534C38.4267 22.5366 38.8211 22.8305 39.283 23.3045C39.4162 23.4397 39.5493 23.5749 39.6865 23.7142C39.824 23.8556 39.9614 23.997 40.103 24.1427C41.2358 25.3044 41.2358 25.3044 42.4342 26.397C43.3555 27.1895 44.2202 28.038 45.0824 28.8934C45.2707 29.0796 45.4599 29.2649 45.6498 29.4494C47.9851 31.7179 49.45 34.1538 49.6999 37.4601C49.7322 40.4822 48.6018 43.2398 46.4931 45.4084C46.1194 45.7854 45.7401 46.1563 45.36 46.5267C45.158 46.7271 44.9561 46.9276 44.7544 47.1284C44.2293 47.6499 43.7016 48.1687 43.1731 48.6868C42.6318 49.2185 42.0932 49.7529 41.5544 50.2871C40.5014 51.3302 39.4455 52.3703 38.3877 53.4085C37.7923 53.1254 37.3979 52.8315 36.936 52.3574C36.8028 52.2223 36.6697 52.0871 36.5325 51.9478C36.395 51.8064 36.2576 51.665 36.1159 51.5193C34.9798 50.3545 34.9798 50.3545 33.7783 49.2584C32.8913 48.4954 32.0566 47.6817 31.226 46.8579C31.0479 46.682 30.8691 46.507 30.6894 46.3328C28.4027 44.1153 26.7213 41.6648 26.6502 38.4075C26.6204 34.5208 28.0166 32.1456 30.6699 29.3993C31.129 28.9346 31.5909 28.4729 32.0542 28.0124C32.2206 27.8463 32.387 27.6801 32.5585 27.509C32.9944 27.0739 33.4307 26.6393 33.8672 26.2048C34.3152 25.7588 34.7626 25.3122 35.2101 24.8656C36.0833 23.9944 36.9571 23.1237 37.8313 22.2534ZM36.8642 31.1324C36.7508 31.2446 36.6374 31.3568 36.5206 31.4723C36.2802 31.7109 36.0403 31.9499 35.8009 32.1894C35.4362 32.5533 35.0686 32.9141 34.7008 33.2748C34.4675 33.5071 34.2344 33.7395 34.0014 33.9721C33.8919 34.079 33.7823 34.1858 33.6694 34.296C32.6431 35.3337 32.1583 36.4239 32.0629 37.8933C32.1453 39.9755 33.4682 41.2679 34.8642 42.6526C35.1425 42.9331 35.4206 43.2136 35.6987 43.4944C36.4676 44.2685 37.2408 45.0381 38.0168 45.8052C39.1286 44.8797 40.1642 43.8898 41.1926 42.8728C41.3558 42.7149 41.5191 42.557 41.6873 42.3944C43.0744 41.0209 44.0684 39.7745 44.1604 37.7752C44.0474 35.4083 42.242 33.8347 40.6608 32.267C40.3779 31.9861 40.097 31.7031 39.8162 31.42C39.6367 31.2407 39.457 31.0616 39.2772 30.8825C39.1153 30.721 38.9534 30.5595 38.7866 30.3932C37.9411 29.6494 37.5019 30.4971 36.8642 31.1324Z" fill="#014834"/>
<path d="M113.679 43.0234C115.393 43.0234 117.106 43.0234 118.872 43.0234C119.538 44.3556 120.188 45.6683 120.778 47.0316C120.882 47.2701 120.882 47.2701 120.988 47.5134C121.207 48.0139 121.424 48.5148 121.642 49.0157C121.859 49.5146 122.076 50.0134 122.294 50.512C122.428 50.8195 122.562 51.127 122.695 51.4348C123.311 52.848 123.968 54.235 124.621 55.6338C124.682 51.4724 124.743 47.311 124.806 43.0234C126.091 43.0234 127.376 43.0234 128.7 43.0234C128.705 45.7767 128.708 48.5299 128.71 51.2832C128.711 52.5614 128.712 53.8397 128.714 55.118C128.716 56.3505 128.718 57.583 128.718 58.8154C128.718 59.2868 128.719 59.7582 128.72 60.2296C128.721 60.8873 128.722 61.545 128.721 62.2027C128.722 62.3997 128.723 62.5967 128.723 62.7997C128.723 62.9778 128.723 63.156 128.723 63.3395C128.723 63.4953 128.723 63.651 128.723 63.8114C128.7 64.1644 128.7 64.1644 128.515 64.3499C128.212 64.366 127.908 64.3697 127.604 64.368C127.421 64.3674 127.237 64.3668 127.048 64.3662C126.855 64.3646 126.662 64.3631 126.463 64.3615C126.27 64.3606 126.076 64.3598 125.876 64.3589C125.396 64.3567 124.916 64.3537 124.435 64.3499C123.013 61.3105 121.64 58.2527 120.302 55.1753C119.398 53.1003 118.485 51.0294 117.574 48.9577C117.512 54.0371 117.451 59.1165 117.388 64.3499C116.164 64.3499 114.94 64.3499 113.679 64.3499C113.679 57.3121 113.679 50.2744 113.679 43.0234Z" fill="#221F20"/>
<path d="M274.091 43.0234C275.804 43.0234 277.518 43.0234 279.283 43.0234C279.745 44.0409 280.206 45.0585 280.667 46.0761C280.822 46.4197 280.978 46.7632 281.134 47.1068C282.448 50.0047 283.74 52.9115 285.032 55.8193C285.094 51.5967 285.155 47.374 285.218 43.0234C286.442 43.0234 287.666 43.0234 288.927 43.0234C288.927 50.0612 288.927 57.0989 288.927 64.3499C287.58 64.3499 286.234 64.3499 284.847 64.3499C283.796 62.2997 282.855 60.2153 281.938 58.1026C280.634 55.11 279.311 52.1264 277.985 49.1432C277.924 54.1614 277.863 59.1796 277.8 64.3499C276.576 64.3499 275.352 64.3499 274.091 64.3499C274.091 57.3121 274.091 50.2744 274.091 43.0234Z" fill="#221F20"/>
<path d="M256.288 11.8682C257.94 11.8682 259.593 11.8682 261.295 11.8682C262.348 13.9379 263.328 16.0247 264.262 18.1502C264.386 18.4301 264.51 18.7099 264.633 18.9898C264.81 19.3902 264.987 19.7907 265.163 20.1915C265.848 21.7461 266.54 23.2972 267.229 24.8495C267.291 20.5656 267.352 16.2818 267.415 11.8682C268.639 11.8682 269.863 11.8682 271.124 11.8682C271.124 18.9059 271.124 25.9436 271.124 33.1946C269.716 33.1946 268.309 33.1946 266.859 33.1946C266.384 32.1319 265.91 31.0691 265.437 30.0061C265.277 29.6482 265.118 29.2903 264.958 28.9325C263.335 25.2973 261.763 21.6424 260.182 17.9879C260.121 23.0061 260.06 28.0243 259.997 33.1946C258.773 33.1946 257.549 33.1946 256.288 33.1946C256.288 26.1569 256.288 19.1191 256.288 11.8682Z" fill="#221F20"/>
<path d="M352.35 11.8682C354.002 11.8682 355.654 11.8682 357.357 11.8682C358.5 14.1034 359.534 16.3688 360.533 18.6718C360.749 19.1695 360.966 19.6671 361.183 20.1646C361.316 20.4704 361.449 20.7763 361.581 21.0824C362.132 22.3482 362.712 23.595 363.291 24.8495C363.352 20.5656 363.414 16.2818 363.477 11.8682C364.639 11.8682 365.802 11.8682 367 11.8682C367 18.9059 367 25.9436 367 33.1946C365.654 33.1946 364.307 33.1946 362.92 33.1946C361.201 29.3901 359.485 25.5848 357.821 21.7559C357.724 21.5325 357.627 21.3091 357.527 21.0789C357.444 20.8882 357.362 20.6975 357.277 20.501C356.878 19.5981 356.467 18.7009 356.059 17.8025C355.997 22.8819 355.936 27.9613 355.873 33.1946C354.71 33.1946 353.548 33.1946 352.35 33.1946C352.35 26.1569 352.35 19.1191 352.35 11.8682Z" fill="#221F20"/>
<path d="M120.575 11.6368C120.759 11.6329 120.943 11.6291 121.132 11.6252C123.102 11.6148 124.771 12.0599 126.29 13.3522C127.385 14.5274 127.817 15.6366 127.827 17.254C127.828 17.3796 127.83 17.5052 127.831 17.6346C127.834 18.0471 127.835 18.4596 127.835 18.8721C127.837 19.1613 127.838 19.4504 127.839 19.7396C127.841 20.3451 127.842 20.9505 127.842 21.5559C127.842 22.3274 127.847 23.0988 127.853 23.8703C127.857 24.4676 127.858 25.0648 127.858 25.6621C127.858 25.9463 127.86 26.2305 127.863 26.5147C127.895 30.0392 127.895 30.0392 126.728 31.2961C126.645 31.372 126.561 31.4478 126.475 31.526C126.536 31.7096 126.597 31.8932 126.66 32.0823C127.112 32.308 127.48 32.327 127.982 32.3721C128.28 32.3989 128.578 32.4256 128.886 32.4532C128.886 33.5548 128.886 34.6563 128.886 35.7913C125.764 35.7913 125.764 35.7913 124.435 34.6786C123.693 33.7025 123.693 33.7025 123.693 33.195C123.511 33.2352 123.511 33.2352 123.325 33.2761C120.936 33.7621 118.199 33.8576 116.009 32.6039C114.664 31.6431 113.714 30.408 113.39 28.7763C113.309 28.1927 113.283 27.6385 113.281 27.0497C113.28 26.8287 113.279 26.6076 113.278 26.3799C113.278 26.1435 113.277 25.907 113.277 25.6634C113.277 25.4153 113.276 25.1673 113.275 24.9193C113.274 24.4004 113.274 23.8815 113.274 23.3625C113.274 22.7016 113.271 22.0408 113.268 21.3799C113.266 20.8677 113.266 20.3556 113.266 19.8434C113.266 19.4826 113.264 19.1218 113.261 18.7609C113.267 16.4111 113.612 14.7172 115.313 13.016C117.006 11.8548 118.566 11.647 120.575 11.6368ZM117.794 15.9484C117.378 16.6479 117.364 17.3101 117.361 18.1121C117.36 18.3232 117.359 18.5343 117.358 18.7518C117.357 18.9791 117.357 19.2065 117.357 19.4408C117.356 19.6754 117.356 19.91 117.355 20.1517C117.354 20.6482 117.354 21.1447 117.354 21.6412C117.354 22.2747 117.351 22.9082 117.348 23.5416C117.345 24.1489 117.346 24.7562 117.345 25.3635C117.344 25.5897 117.343 25.816 117.341 26.0491C117.296 27.85 117.296 27.85 118.026 29.4382C118.937 30.0993 119.365 30.2599 120.494 30.2742C120.719 30.279 120.944 30.2838 121.175 30.2887C121.918 30.2206 122.331 30.0839 122.952 29.6715C123.58 28.8776 123.786 28.352 123.789 27.3436C123.792 27.106 123.794 26.8683 123.796 26.6235C123.795 26.3665 123.794 26.1095 123.792 25.8525C123.792 25.5865 123.793 25.3205 123.794 25.0545C123.795 24.4983 123.793 23.9421 123.79 23.3859C123.786 22.675 123.788 21.9644 123.793 21.2535C123.795 20.7046 123.794 20.1557 123.793 19.6068C123.792 19.3448 123.793 19.0828 123.794 18.8208C123.796 18.4538 123.793 18.0869 123.789 17.7199C123.789 17.5116 123.788 17.3033 123.787 17.0887C123.644 16.2006 123.221 15.6099 122.528 15.0494C121.877 14.7733 121.35 14.7553 120.645 14.7546C120.408 14.751 120.171 14.7474 119.927 14.7437C118.993 14.8693 118.421 15.2565 117.794 15.9484Z" fill="#221F20"/>
<path d="M326.387 11.8682C337.341 11.8682 337.341 11.8682 339.183 13.5372C340.478 14.896 340.559 16.4819 340.527 18.2835C340.419 19.767 339.932 20.886 338.812 21.8823C338.389 22.1696 337.973 22.3945 337.514 22.6241C337.658 22.6851 337.658 22.6851 337.806 22.7473C338.849 23.2218 339.567 23.7344 340.082 24.8055C340.589 26.1592 340.577 27.5094 340.597 28.9409C340.606 29.4299 340.617 29.9188 340.627 30.4078C340.631 30.6225 340.634 30.8372 340.637 31.0584C340.669 31.7733 340.763 32.4845 340.852 33.1946C339.505 33.1946 338.159 33.1946 336.772 33.1946C336.428 32.3348 336.353 31.9073 336.344 31.012C336.339 30.7706 336.335 30.5293 336.33 30.2807C336.324 29.9011 336.32 29.5215 336.316 29.1419C336.304 27.1125 336.304 27.1125 335.659 25.2204C334.266 24.0839 332.09 24.3833 330.467 24.2931C330.467 27.2306 330.467 30.1681 330.467 33.1946C329.12 33.1946 327.774 33.1946 326.387 33.1946C326.387 26.1569 326.387 19.1191 326.387 11.8682ZM330.467 15.0208C330.467 17.0403 330.467 19.0598 330.467 21.1405C331.048 21.1558 331.63 21.1711 332.229 21.1869C332.409 21.1936 332.589 21.2004 332.774 21.2074C333.897 21.2215 334.73 21.0497 335.659 20.3987C336.336 19.7317 336.344 19.0532 336.4 18.14C336.402 17.2907 336.36 16.5217 335.783 15.843C334.984 15.1327 334.326 14.996 333.292 15.0027C333.143 15.0031 332.994 15.0036 332.841 15.0041C332.654 15.0057 332.467 15.0074 332.275 15.0092C331.678 15.013 331.082 15.0168 330.467 15.0208Z" fill="#221F20"/>
<path d="M189.898 11.8682C200.92 11.8682 200.92 11.8682 202.826 13.648C204.294 15.2201 204.263 16.9761 204.258 19.0122C204.259 19.2926 204.26 19.5729 204.261 19.8532C204.262 20.439 204.262 21.0247 204.26 21.6105C204.258 22.3566 204.262 23.1026 204.267 23.8487C204.271 24.4273 204.27 25.0057 204.269 25.5842C204.269 25.8591 204.271 26.134 204.273 26.4088C204.286 28.2561 204.084 29.7039 203.123 31.3053C199.771 34.4759 193.624 33.1946 189.898 33.1946C189.898 26.1569 189.898 19.1191 189.898 11.8682ZM193.978 15.0208C193.978 19.9778 193.978 24.9348 193.978 30.042C197.529 30.2699 197.529 30.2699 199.356 29.4856C200.108 28.7331 200.121 28.2747 200.127 27.252C200.129 27.0212 200.131 26.7903 200.133 26.5524C200.134 26.3001 200.135 26.0478 200.135 25.7955C200.136 25.5366 200.137 25.2777 200.138 25.0188C200.14 24.476 200.141 23.9332 200.142 23.3903C200.143 22.6959 200.148 22.0015 200.153 21.307C200.156 20.7721 200.157 20.2373 200.158 19.7024C200.158 19.4464 200.16 19.1905 200.162 18.9345C200.165 18.5759 200.165 18.2173 200.164 17.8587C200.164 17.6549 200.165 17.4511 200.166 17.2411C200.068 16.4545 199.765 15.9649 199.182 15.438C197.684 14.5303 195.487 15.0208 193.978 15.0208Z" fill="#221F20"/>
<path d="M250.969 13.2231C252.65 14.9164 252.637 16.9664 252.635 19.2212C252.636 19.4849 252.636 19.7486 252.637 20.0123C252.639 20.5631 252.639 21.1139 252.638 21.6648C252.637 22.366 252.64 23.0671 252.644 23.7683C252.647 24.3125 252.647 24.8566 252.646 25.4008C252.646 25.6591 252.647 25.9174 252.649 26.1757C252.662 28.1536 252.56 29.9825 251.25 31.56C249.64 33.1556 247.464 33.5716 245.268 33.5832C243.115 33.535 240.969 33.1303 239.412 31.5259C238.485 30.2464 238.094 29.2755 238.081 27.7002C238.08 27.5783 238.079 27.4564 238.078 27.3307C238.074 26.9283 238.072 26.5258 238.07 26.1233C238.069 25.9851 238.069 25.847 238.068 25.7046C238.064 24.9726 238.061 24.2406 238.059 23.5086C238.057 22.7566 238.051 22.0047 238.044 21.2528C238.039 20.6711 238.037 20.0894 238.037 19.5077C238.036 19.2308 238.034 18.9539 238.03 18.6769C238.007 16.6668 238.165 14.8077 239.609 13.2775C242.568 10.8425 247.984 10.7534 250.969 13.2231ZM242.6 15.7629C242.191 16.4516 242.168 17.0204 242.161 17.8052C242.159 18.0348 242.156 18.2645 242.154 18.5011C242.153 18.7523 242.151 19.0034 242.15 19.2545C242.149 19.3813 242.148 19.508 242.148 19.6387C242.144 20.3099 242.141 20.9811 242.139 21.6524C242.137 22.3435 242.131 23.0345 242.124 23.7256C242.119 24.2589 242.117 24.7922 242.116 25.3255C242.116 25.5801 242.113 25.8348 242.11 26.0894C242.072 28.0161 242.072 28.0161 242.936 29.6714C244.075 30.4448 245.318 30.3726 246.645 30.2278C247.149 30.0396 247.357 29.8648 247.757 29.486C247.868 29.3942 247.979 29.3024 248.094 29.2078C248.579 28.5941 248.525 27.8411 248.532 27.0888C248.534 26.8671 248.537 26.6455 248.539 26.4171C248.541 26.1782 248.542 25.9392 248.543 25.693C248.544 25.5707 248.545 25.4485 248.546 25.3225C248.55 24.6751 248.552 24.0277 248.554 23.3803C248.556 22.7147 248.562 22.0493 248.57 21.3838C248.575 20.8693 248.576 20.3548 248.577 19.8402C248.578 19.4766 248.583 19.113 248.588 18.7494C248.585 17.4199 248.498 16.512 247.757 15.392C246.966 14.8356 246.302 14.7598 245.347 14.7661C245.129 14.7647 244.911 14.7632 244.686 14.7618C243.826 14.8614 243.186 15.1164 242.6 15.7629Z" fill="#221F20"/>
<path d="M170.02 43.7073C171.121 44.5018 172.015 45.5632 172.281 46.9178C172.307 47.6011 172.297 48.2733 172.281 48.9577C170.995 48.9577 169.71 48.9577 168.386 48.9577C168.264 48.3458 168.141 47.7338 168.015 47.1033C167.534 46.498 167.262 46.2342 166.532 45.9906C164.762 45.8477 164.762 45.8477 163.194 46.5469C162.69 47.2689 162.572 47.8935 162.545 48.7491C162.751 49.6293 163.231 50.1572 163.969 50.6499C164.196 50.769 164.424 50.8848 164.654 50.9977C164.776 51.0604 164.898 51.1231 165.024 51.1878C165.84 51.6009 166.671 51.9599 167.517 52.3074C169.357 53.0779 171.216 54.1928 172.112 56.0554C172.666 57.639 172.761 59.5846 172.136 61.1618C171.241 62.7661 169.964 63.8399 168.201 64.3499C167.519 64.4616 166.851 64.5206 166.161 64.5353C166.222 64.8413 166.283 65.1473 166.346 65.4625C166.458 65.4807 166.57 65.4989 166.685 65.5176C167.363 65.6444 167.904 65.7628 168.49 66.1348C168.875 66.7697 168.918 67.3489 168.757 68.0588C168.273 68.7328 167.772 69.1188 166.953 69.3048C165.358 69.5022 163.543 69.5703 162.081 68.8006C161.753 68.479 161.753 68.479 161.525 68.0588C161.525 67.6916 161.525 67.3244 161.525 66.9461C162.32 66.9461 163.116 66.9461 163.935 66.9461C164.119 67.4051 164.119 67.4051 164.306 67.8734C164.543 67.8772 164.781 67.881 165.025 67.8849C165.225 67.8882 165.225 67.8882 165.429 67.8915C165.805 67.8968 165.805 67.8968 166.161 67.6879C166.161 67.3819 166.161 67.0759 166.161 66.7607C165.61 66.6383 165.059 66.5159 164.492 66.3898C164.492 65.7778 164.492 65.1658 164.492 64.5353C164.289 64.5506 164.086 64.5659 163.877 64.5817C162.237 64.5759 160.644 63.8218 159.485 62.6808C158.253 61.195 158.187 59.7455 158.187 57.8592C159.472 57.8592 160.757 57.8592 162.081 57.8592C162.127 58.1767 162.173 58.4941 162.22 58.8212C162.382 59.6791 162.495 60.2532 163.194 60.8264C164.291 61.3859 165.341 61.5246 166.532 61.1973C167.21 60.8578 167.561 60.5707 168.004 59.9571C168.315 58.9848 168.217 58.1424 167.815 57.2087C167.323 56.5704 166.758 56.3003 166.045 55.9468C165.906 55.8752 165.767 55.8036 165.624 55.7298C164.912 55.3662 164.193 55.0228 163.462 54.6986C161.398 53.7817 159.531 52.7849 158.557 50.6268C158.057 49.0878 158.157 47.1583 158.824 45.7008C159.771 44.0771 161.064 43.2633 162.86 42.7742C165.276 42.3566 167.882 42.4103 170.02 43.7073Z" fill="#221F20"/>
<path d="M252.579 44.1364C253.543 44.9797 254.149 46.0427 254.434 47.289C254.491 48.2324 254.468 49.1206 254.434 50.0707C253.148 50.0707 251.863 50.0707 250.539 50.0707C250.524 49.6958 250.509 49.321 250.493 48.9348C250.413 47.9003 250.327 47.3026 249.612 46.5472C248.478 45.8833 247.156 45.879 245.906 46.2024C245.242 46.4856 244.987 46.8646 244.605 47.4744C244.433 48.1329 244.394 48.7549 244.39 49.4338C244.388 49.6362 244.386 49.8387 244.384 50.0473C244.383 50.2644 244.383 50.4815 244.382 50.7053C244.38 51.0431 244.38 51.0431 244.379 51.3878C244.377 51.8642 244.376 52.3405 244.375 52.8169C244.373 53.5425 244.367 54.2681 244.361 54.9937C244.36 55.4573 244.359 55.921 244.359 56.3846C244.356 56.6002 244.354 56.8159 244.352 57.038C244.356 59.0982 244.356 59.0982 245.347 60.8266C246.442 61.3742 247.795 61.4102 248.962 61.0577C249.694 60.715 250.039 60.4736 250.354 59.7139C250.421 59.2485 250.421 59.2485 250.43 58.749C250.438 58.5674 250.445 58.3857 250.452 58.1985C250.458 58.0101 250.464 57.8217 250.47 57.6277C250.477 57.4364 250.484 57.2452 250.491 57.0481C250.509 56.5768 250.524 56.1055 250.539 55.6341C249.56 55.6341 248.581 55.6341 247.572 55.6341C247.572 54.5325 247.572 53.431 247.572 52.296C249.836 52.296 252.101 52.296 254.434 52.296C254.451 53.3417 254.465 54.3868 254.474 55.4325C254.478 55.7873 254.483 56.1422 254.49 56.497C254.566 60.8149 254.566 60.8149 253.275 62.5652C251.593 64.1702 249.667 64.6338 247.387 64.6051C247.216 64.6073 247.045 64.6094 246.869 64.6116C244.88 64.6032 243.139 64.0687 241.648 62.7275C240.072 61.0927 240.069 59.1331 240.08 56.9612C240.08 56.698 240.079 56.4349 240.079 56.1717C240.078 55.6231 240.079 55.0745 240.082 54.5259C240.085 53.8275 240.083 53.1294 240.08 52.4311C240.078 51.8885 240.078 51.346 240.08 50.8034C240.08 50.5462 240.08 50.2889 240.078 50.0316C240.07 47.8274 240.255 45.9745 241.823 44.3218C244.545 41.8154 249.704 42.0385 252.579 44.1364Z" fill="#221F20"/>
<path d="M132.595 43.0233C133.941 43.0233 135.287 43.0233 136.675 43.0233C136.736 46.022 136.797 49.0207 136.86 52.1102C137.265 51.5671 137.671 51.024 138.089 50.4644C139.159 49.0333 140.234 47.6046 141.355 46.213C141.83 45.6197 142.228 45.0827 142.573 44.4018C142.911 43.7424 143.09 43.4212 143.722 43.0233C145.19 42.7806 146.697 42.8992 148.172 43.0233C148.104 43.1144 148.036 43.2055 147.965 43.2993C147.493 43.9292 147.02 44.5592 146.549 45.19C146.375 45.4221 146.202 45.6541 146.028 45.8861C145.888 46.0736 145.888 46.0736 145.745 46.2648C145.222 46.9629 144.694 47.6574 144.161 48.3477C144.05 48.4903 143.94 48.6329 143.827 48.7798C143.613 49.0562 143.399 49.332 143.184 49.6074C143.087 49.7326 142.99 49.8579 142.891 49.987C142.805 50.0973 142.719 50.2075 142.63 50.3212C142.388 50.6492 142.388 50.6492 142.238 51.183C142.402 51.6515 142.402 51.6515 142.669 52.1631C142.767 52.3625 142.865 52.562 142.966 52.7674C143.074 52.9828 143.182 53.1981 143.293 53.4199C143.517 53.8747 143.74 54.3301 143.963 54.7854C144.02 54.9018 144.077 55.0181 144.136 55.138C144.819 56.5292 145.463 57.9375 146.109 59.346C146.197 59.5392 146.286 59.7325 146.377 59.9316C146.462 60.1158 146.546 60.3 146.633 60.4898C146.853 60.9655 147.076 61.4393 147.302 61.9121C147.364 62.0426 147.426 62.173 147.49 62.3075C147.648 62.6387 147.807 62.9694 147.967 63.3001C148.172 63.7934 148.172 63.7934 148.172 64.3497C146.765 64.3497 145.357 64.3497 143.907 64.3497C142.823 62.201 141.778 60.0373 140.754 57.8591C140.609 57.5509 140.464 57.2428 140.319 56.9347C139.969 56.1922 139.62 55.4494 139.271 54.7065C139.134 54.8437 138.997 54.981 138.856 55.1224C138.555 55.4227 138.25 55.7191 137.935 56.0052C136.501 57.4863 136.651 59.0982 136.675 61.0349C136.673 61.357 136.671 61.6791 136.668 62.0012C136.661 62.7845 136.668 63.566 136.675 64.3497C135.328 64.3497 133.982 64.3497 132.595 64.3497C132.595 57.312 132.595 50.2743 132.595 43.0233Z" fill="#221F20"/>
<path d="M91.7964 5.93402C92.2648 6.31251 92.5098 6.53615 92.6311 7.13452C92.6312 7.30791 92.6314 7.4813 92.6315 7.65994C92.6334 7.86057 92.6354 8.0612 92.6374 8.26791C92.6357 8.48821 92.634 8.7085 92.6323 8.93548C92.6341 9.28664 92.6341 9.28664 92.6358 9.6449C92.639 10.2952 92.6374 10.9454 92.6351 11.5956C92.6334 12.2967 92.636 12.9978 92.6381 13.6989C92.6414 15.0725 92.6407 16.4461 92.6385 17.8197C92.6368 18.9359 92.6366 20.052 92.6374 21.1681C92.6375 21.3269 92.6376 21.4856 92.6378 21.6491C92.638 21.9715 92.6382 22.294 92.6385 22.6164C92.6406 25.6413 92.6382 28.6661 92.6342 31.691C92.6309 34.2878 92.6314 36.8845 92.6349 39.4812C92.6388 42.4951 92.6404 45.509 92.6381 48.5229C92.6379 48.8442 92.6376 49.1654 92.6374 49.4867C92.6373 49.6447 92.6372 49.8028 92.6371 49.9657C92.6364 51.0808 92.6375 52.1958 92.6392 53.3109C92.6413 54.6694 92.6408 56.0279 92.6368 57.3864C92.6349 58.0799 92.6341 58.7733 92.6366 59.4667C92.6392 60.2176 92.6361 60.9684 92.6323 61.7193C92.6348 62.0498 92.6348 62.0498 92.6374 62.3869C92.6354 62.5875 92.6335 62.7882 92.6315 62.9949C92.6314 63.1683 92.6313 63.3416 92.6311 63.5203C92.5099 64.1184 92.2634 64.3412 91.7964 64.7208C91.2881 64.8558 90.8264 64.8273 90.3128 64.7208C89.7623 64.3114 89.6028 64.0743 89.3855 63.4227C89.3682 63.1087 89.3616 62.7942 89.3612 62.4798C89.3605 62.2836 89.3597 62.0874 89.359 61.8853C89.3592 61.6691 89.3593 61.4528 89.3595 61.23C89.3589 61.0009 89.3584 60.7717 89.3578 60.5356C89.3565 59.8984 89.356 59.2611 89.3559 58.6239C89.3555 57.9371 89.3541 57.2502 89.3529 56.5634C89.3504 55.0611 89.3492 53.5587 89.3484 52.0564C89.3479 51.1186 89.3471 50.1808 89.3463 49.243C89.344 46.6472 89.3421 44.0514 89.3415 41.4556C89.3414 41.2894 89.3414 41.1233 89.3414 40.9521C89.3413 40.7855 89.3413 40.6189 89.3412 40.4473C89.3412 40.1097 89.3411 39.7722 89.341 39.4346C89.341 39.2672 89.3409 39.0998 89.3409 38.9272C89.3401 36.2136 89.3369 33.5 89.3326 30.7864C89.3282 28.0014 89.3259 25.2164 89.3257 22.4313C89.3255 20.8672 89.3244 19.3031 89.3211 17.739C89.3182 16.4073 89.3172 15.0755 89.3188 13.7438C89.3195 13.0642 89.3193 12.3846 89.3167 11.7051C89.3139 10.9685 89.3155 10.232 89.3174 9.49543C89.3159 9.28041 89.3144 9.0654 89.3129 8.84387C89.3193 7.80618 89.3267 7.00262 89.9419 6.11947C90.5222 5.8293 91.1678 5.80476 91.7964 5.93402Z" fill="#221F20"/>
<path d="M227.705 43.0024C227.937 43.0034 228.169 43.0044 228.408 43.0054C228.593 43.0058 228.593 43.0058 228.781 43.0062C229.176 43.0072 229.571 43.0095 229.966 43.0119C230.233 43.0128 230.5 43.0137 230.768 43.0144C231.424 43.0165 232.08 43.0197 232.736 43.0235C232.821 43.3523 232.821 43.3523 232.907 43.6877C233.442 45.7637 233.976 47.8396 234.511 49.9155C234.786 50.9825 235.061 52.0495 235.336 53.1166C235.601 54.1483 235.867 55.1799 236.133 56.2116C236.234 56.6032 236.335 56.9948 236.435 57.3864C236.578 57.9392 236.72 58.492 236.863 59.0448C236.907 59.2165 236.951 59.3882 236.997 59.5651C237.195 60.3351 237.396 61.1043 237.605 61.8716C237.64 62.0013 237.675 62.1309 237.711 62.2645C237.804 62.6027 237.897 62.9407 237.99 63.2786C238.114 63.7936 238.114 63.7936 238.114 64.3499C236.707 64.3499 235.299 64.3499 233.849 64.3499C233.696 63.7456 233.543 63.1413 233.385 62.5186C233.337 62.3284 233.288 62.1381 233.239 61.9421C233.201 61.7924 233.163 61.6427 233.124 61.4885C233.086 61.3351 233.047 61.1816 233.007 61.0236C232.922 60.641 232.922 60.641 232.922 60.2701C230.841 60.2701 228.76 60.2701 226.616 60.2701C226.433 61.188 226.249 62.106 226.06 63.0518C225.938 63.4802 225.815 63.9086 225.689 64.3499C224.404 64.3499 223.119 64.3499 221.795 64.3499C222.03 62.9932 222.308 61.6622 222.647 60.3279C222.718 60.0485 222.718 60.0485 222.789 59.7634C222.942 59.1551 223.096 58.547 223.25 57.939C223.357 57.5141 223.464 57.0892 223.572 56.6643C223.795 55.7779 224.019 54.8916 224.244 54.0054C224.532 52.8672 224.819 51.7286 225.105 50.5899C225.326 49.7145 225.547 48.8392 225.768 47.964C225.874 47.544 225.98 47.1238 226.086 46.7036C226.233 46.1193 226.381 45.5351 226.53 44.951C226.595 44.6889 226.595 44.6889 226.662 44.4215C226.703 44.2635 226.743 44.1055 226.784 43.9427C226.819 43.8046 226.854 43.6666 226.89 43.5244C227.055 42.9895 227.117 43.0257 227.705 43.0024ZM229.584 47.4742C229.266 48.8177 228.949 50.1612 228.633 51.5049C228.525 51.9623 228.417 52.4198 228.309 52.8772C228.154 53.5331 228 54.1891 227.845 54.845C227.796 55.0509 227.748 55.2569 227.698 55.469C227.631 55.753 227.631 55.753 227.562 56.0428C227.503 56.2942 227.503 56.2942 227.443 56.5507C227.352 56.8971 227.352 56.8971 227.358 57.1175C228.949 57.1175 230.54 57.1175 232.18 57.1175C231.477 53.894 230.714 50.6847 229.954 47.4742C229.832 47.4742 229.71 47.4742 229.584 47.4742Z" fill="#221F20"/>
<path d="M180.045 43.0024C180.277 43.0034 180.509 43.0044 180.748 43.0054C180.933 43.0058 180.933 43.0058 181.121 43.0062C181.516 43.0072 181.911 43.0095 182.306 43.0119C182.573 43.0128 182.841 43.0137 183.108 43.0144C183.764 43.0165 184.42 43.0197 185.076 43.0235C185.122 43.2012 185.167 43.379 185.214 43.5621C185.65 45.266 186.086 46.9699 186.523 48.6737C186.747 49.549 186.971 50.4242 187.195 51.2995C187.412 52.1461 187.628 52.9927 187.845 53.8393C187.931 54.1745 188.017 54.5096 188.102 54.8448C188.542 56.5631 188.983 58.281 189.429 59.9976C189.465 60.134 189.5 60.2704 189.537 60.411C189.701 61.0433 189.865 61.6756 190.031 62.3076C190.087 62.5246 190.143 62.7416 190.201 62.9652C190.251 63.1534 190.3 63.3416 190.35 63.5356C190.454 63.979 190.454 63.979 190.454 64.3499C189.047 64.3499 187.639 64.3499 186.189 64.3499C186.036 63.7456 185.883 63.1413 185.725 62.5186C185.677 62.3284 185.629 62.1381 185.579 61.9421C185.541 61.7924 185.503 61.6427 185.465 61.4885C185.426 61.3351 185.387 61.1816 185.347 61.0236C185.262 60.641 185.262 60.641 185.262 60.2701C183.181 60.2701 181.1 60.2701 178.957 60.2701C178.72 61.4045 178.72 61.4045 178.485 62.5391C178.455 62.6808 178.426 62.8225 178.395 62.9685C178.365 63.1132 178.335 63.2579 178.304 63.407C178.215 63.7936 178.215 63.7936 178.029 64.3499C176.744 64.3499 175.459 64.3499 174.135 64.3499C174.344 62.6809 174.344 62.6809 174.483 62.1323C174.514 62.0069 174.546 61.8815 174.578 61.7523C174.612 61.6204 174.646 61.4885 174.681 61.3527C174.717 61.2092 174.754 61.0657 174.791 60.9178C174.91 60.4465 175.031 59.9754 175.151 59.5044C175.236 59.1717 175.32 58.8389 175.404 58.5061C175.627 57.6298 175.85 56.7538 176.074 55.8779C176.297 55.0015 176.519 54.1248 176.742 53.2481C177.195 51.4616 177.651 49.6758 178.108 47.8903C178.208 47.4998 178.308 47.1094 178.408 46.7189C178.566 46.0995 178.725 45.4804 178.885 44.8613C178.929 44.6896 178.972 44.5179 179.018 44.341C179.358 43.0296 179.358 43.0296 180.045 43.0024ZM181.924 47.2888C181.606 48.6288 181.289 49.9689 180.973 51.3092C180.865 51.7654 180.757 52.2216 180.649 52.6778C180.494 53.3323 180.34 53.9869 180.185 54.6415C180.136 54.8464 180.088 55.0514 180.038 55.2626C179.993 55.4519 179.948 55.6412 179.903 55.8363C179.863 56.0035 179.824 56.1707 179.783 56.3429C179.686 56.7384 179.686 56.7384 179.698 57.1175C181.289 57.1175 182.881 57.1175 184.52 57.1175C184.211 55.7472 183.902 54.3772 183.59 53.0076C183.484 52.5413 183.378 52.0748 183.273 51.6083C183.123 50.9391 182.97 50.2704 182.818 49.6018C182.747 49.2868 182.747 49.2868 182.676 48.9655C182.631 48.7725 182.587 48.5794 182.541 48.3805C182.502 48.2096 182.464 48.0387 182.424 47.8626C182.381 47.7345 182.338 47.6063 182.295 47.4742C182.172 47.413 182.05 47.3518 181.924 47.2888Z" fill="#221F20"/>
<path d="M176.175 11.8682C178.011 11.8682 179.847 11.8682 181.738 11.8682C182.385 14.3748 183.032 16.8816 183.678 19.3886C183.977 20.5527 184.278 21.7169 184.578 22.8809C184.868 24.0051 185.158 25.1293 185.447 26.2537C185.558 26.6818 185.668 27.1099 185.779 27.5379C185.934 28.1392 186.089 28.7406 186.244 29.3421C186.289 29.5175 186.335 29.6929 186.381 29.8737C186.424 30.0401 186.467 30.2064 186.511 30.3779C186.547 30.5198 186.584 30.6616 186.621 30.8078C186.806 31.5992 186.957 32.3979 187.116 33.1946C185.709 33.1946 184.301 33.1946 182.851 33.1946C182.698 32.5903 182.545 31.9859 182.387 31.3633C182.339 31.173 182.291 30.9828 182.241 30.7868C182.203 30.6371 182.165 30.4874 182.127 30.3332C182.088 30.1798 182.049 30.0263 182.009 29.8682C181.924 29.4856 181.924 29.4856 181.924 29.1148C179.843 29.1148 177.762 29.1148 175.619 29.1148C175.496 29.7879 175.374 30.4611 175.248 31.1547C175.08 31.8412 174.886 32.5148 174.691 33.1946C173.406 33.1946 172.121 33.1946 170.797 33.1946C171.109 31.2801 171.587 29.4154 172.064 27.537C172.153 27.1858 172.241 26.8345 172.33 26.4832C172.516 25.749 172.702 25.0149 172.888 24.2808C173.124 23.349 173.36 22.417 173.595 21.4848C173.778 20.7595 173.961 20.0343 174.145 19.3091C174.232 18.966 174.319 18.6229 174.405 18.2797C174.949 16.1267 175.536 13.9948 176.175 11.8682ZM178.771 16.1334C178.237 17.9329 177.768 19.7413 177.34 21.5685C177.24 21.9923 177.138 22.4156 177.037 22.8389C176.973 23.1114 176.908 23.3839 176.844 23.6564C176.799 23.8439 176.799 23.8439 176.753 24.0351C176.596 24.7123 176.546 25.2551 176.546 25.9622C178.076 25.9622 179.606 25.9622 181.182 25.9622C180.512 22.6689 179.734 19.4025 178.957 16.1334C178.895 16.1334 178.834 16.1334 178.771 16.1334Z" fill="#221F20"/>
<path d="M279.283 11.8682C281.119 11.8682 282.955 11.8682 284.847 11.8682C284.99 12.4249 285.133 12.9816 285.281 13.5552C285.755 15.3997 286.229 17.2443 286.704 19.0888C286.992 20.2065 287.279 21.3243 287.567 22.4421C287.844 23.5219 288.122 24.6016 288.4 25.6814C288.506 26.0922 288.611 26.503 288.717 26.9139C288.865 27.4918 289.014 28.0696 289.163 28.6474C289.206 28.8152 289.249 28.983 289.293 29.1559C289.556 30.1766 289.832 31.1925 290.121 32.2063C290.225 32.6383 290.225 32.6383 290.225 33.1946C288.817 33.1946 287.41 33.1946 285.96 33.1946C285.807 32.5903 285.654 31.9859 285.496 31.3633C285.448 31.173 285.399 30.9828 285.349 30.7868C285.312 30.6371 285.274 30.4874 285.235 30.3332C285.196 30.1798 285.157 30.0263 285.117 29.8682C285.032 29.4856 285.032 29.4856 285.032 29.1148C282.952 29.1148 280.871 29.1148 278.727 29.1148C278.605 29.7879 278.482 30.4611 278.356 31.1547C278.188 31.8412 277.994 32.5148 277.8 33.1946C276.515 33.1946 275.23 33.1946 273.906 33.1946C274.201 31.4038 274.636 29.6576 275.085 27.9007C275.165 27.5853 275.245 27.27 275.325 26.9547C275.535 26.1269 275.745 25.2994 275.956 24.4719C276.125 23.8077 276.294 23.1434 276.463 22.479C277.186 19.6274 277.911 16.7763 278.649 13.9284C278.715 13.6708 278.715 13.6708 278.783 13.4081C279.076 12.2828 279.076 12.2828 279.283 11.8682ZM281.694 16.3189C280.593 21.0923 280.593 21.0923 279.469 25.9622C281.06 25.9622 282.651 25.9622 284.291 25.9622C283.587 22.7387 282.825 19.5294 282.065 16.3189C281.943 16.3189 281.82 16.3189 281.694 16.3189Z" fill="#221F20"/>
<path d="M313.179 11.8477C313.403 11.8486 313.627 11.8496 313.859 11.8506C314.101 11.8512 314.343 11.8518 314.592 11.8524C314.85 11.854 315.107 11.8555 315.365 11.8571C315.623 11.858 315.881 11.8589 316.139 11.8597C316.774 11.8618 317.408 11.8649 318.042 11.8687C318.441 13.0183 318.78 14.1731 319.081 15.352C319.126 15.525 319.171 15.698 319.217 15.8763C319.363 16.443 319.508 17.01 319.654 17.577C319.756 17.9739 319.858 18.3709 319.961 18.7678C320.174 19.5976 320.388 20.4275 320.601 21.2574C320.873 22.3182 321.146 23.3788 321.419 24.4393C321.63 25.2583 321.841 26.0773 322.052 26.8964C322.152 27.2874 322.253 27.6783 322.354 28.0693C322.495 28.6167 322.635 29.1643 322.776 29.7118C322.817 29.8714 322.858 30.031 322.9 30.1954C322.958 30.4223 322.958 30.4223 323.018 30.6537C323.051 30.7827 323.084 30.9116 323.118 31.0445C323.291 31.7589 323.446 32.4776 323.605 33.1951C322.198 33.1951 320.79 33.1951 319.34 33.1951C319.222 32.7629 319.103 32.3307 318.981 31.8854C318.944 31.752 318.907 31.6186 318.869 31.4812C318.839 31.3714 318.809 31.2617 318.779 31.1487C318.749 31.039 318.718 30.9292 318.687 30.8162C318.563 30.2554 318.494 29.6838 318.413 29.1153C316.332 29.1153 314.251 29.1153 312.108 29.1153C311.872 30.2498 311.872 30.2498 311.636 31.3844C311.606 31.526 311.577 31.6677 311.546 31.8137C311.516 31.9584 311.486 32.1031 311.455 32.2522C311.366 32.6388 311.366 32.6388 311.18 33.1951C309.895 33.1951 308.61 33.1951 307.286 33.1951C307.495 31.5261 307.495 31.5261 307.659 30.8781C307.714 30.6571 307.714 30.6571 307.771 30.4316C307.811 30.2754 307.851 30.1192 307.892 29.9583C307.935 29.7895 307.977 29.6207 308.021 29.4468C308.161 28.8925 308.302 28.3386 308.444 27.7846C308.542 27.3966 308.64 27.0086 308.738 26.6206C308.944 25.8085 309.15 24.9965 309.356 24.1847C309.62 23.1486 309.883 22.1123 310.145 21.0759C310.397 20.0821 310.649 19.0885 310.901 18.095C310.948 17.9076 310.996 17.7202 311.045 17.5271C312.479 11.8763 312.479 11.8763 313.179 11.8477ZM315.075 16.134C314.757 17.474 314.44 18.8142 314.124 20.1544C314.016 20.6107 313.908 21.0669 313.8 21.523C313.645 22.1775 313.491 22.8321 313.336 23.4867C313.288 23.6917 313.239 23.8966 313.189 24.1078C313.144 24.2971 313.1 24.4864 313.054 24.6815C313.014 24.8487 312.975 25.0159 312.934 25.1881C312.837 25.5836 312.837 25.5836 312.849 25.9627C314.441 25.9627 316.032 25.9627 317.671 25.9627C317.388 24.7417 317.104 23.5207 316.82 22.2999C316.723 21.8848 316.627 21.4697 316.531 21.0545C316.392 20.4569 316.253 19.8594 316.114 19.262C316.071 19.0771 316.028 18.8921 315.984 18.7016C315.78 17.8296 315.565 16.9779 315.26 16.134C315.199 16.134 315.138 16.134 315.075 16.134Z" fill="#221F20"/>
<path d="M167.273 12.981C168.308 13.9093 168.898 14.9568 168.975 16.3517C168.977 16.8973 168.961 17.4429 168.942 17.9881C167.657 17.9881 166.372 17.9881 165.048 17.9881C165.01 17.6707 164.971 17.3532 164.932 17.0261C164.803 16.3108 164.706 15.8472 164.144 15.3687C163.219 14.8135 162.418 14.7267 161.339 14.8355C160.544 15.0741 160.141 15.2793 159.589 15.9018C159.158 16.798 159.185 17.4295 159.473 18.3706C160.562 19.922 162.648 20.5662 164.328 21.2831C166.374 22.1849 168.023 23.304 168.942 25.406C169.394 27.2302 169.325 29.1386 168.386 30.784C167.52 32.2206 166.052 32.9195 164.472 33.3527C161.864 33.8387 159.054 33.6535 156.819 32.1285C155.455 31.0082 155.032 29.7225 154.848 28.0023C154.814 27.33 154.814 27.33 154.848 26.8896C155.034 26.7041 155.034 26.7041 155.395 26.6831C155.55 26.6841 155.704 26.685 155.863 26.686C156.03 26.6866 156.197 26.6872 156.369 26.6878C156.632 26.6902 156.632 26.6902 156.9 26.6925C157.076 26.6934 157.252 26.6942 157.433 26.6951C157.87 26.6973 158.306 26.7003 158.743 26.7041C158.765 26.8428 158.788 26.9814 158.811 27.1243C158.842 27.3069 158.873 27.4896 158.905 27.6777C158.935 27.8585 158.965 28.0392 158.996 28.2254C159.162 28.9575 159.307 29.3599 159.925 29.7988C160.962 30.3175 162.123 30.4393 163.241 30.1009C163.904 29.8061 164.251 29.5631 164.677 28.9643C164.981 27.9945 165.021 27.0371 164.565 26.1007C163.519 24.7914 161.441 24.1847 159.94 23.5365C158.903 23.0833 157.975 22.5708 157.074 21.8825C156.905 21.7716 156.737 21.6607 156.564 21.5464C155.339 20.3555 155.011 18.9495 154.976 17.2927C154.994 15.5573 155.514 14.3918 156.695 13.1274C159.447 10.7172 164.405 10.8808 167.273 12.981Z" fill="#221F20"/>
<path d="M37.8312 22.2534C38.4331 22.5169 38.8257 22.8353 39.2829 23.3045C39.4161 23.4397 39.5492 23.5749 39.6864 23.7142C39.8239 23.8556 39.9613 23.997 40.103 24.1427C41.2357 25.3044 41.2357 25.3044 42.4341 26.397C43.3554 27.1895 44.2201 28.038 45.0823 28.8934C45.2706 29.0796 45.4598 29.2649 45.6497 29.4494C47.985 31.7179 49.45 34.1538 49.6999 37.4601C49.7321 40.4842 48.6122 43.1885 46.5252 45.3584C45.9256 45.9632 45.3163 46.5574 44.7044 47.1497C44.451 47.3984 44.1978 47.6474 43.9448 47.8966C43.3312 48.5001 42.7147 49.1007 42.0965 49.6996C41.4132 49.1214 40.7341 48.5467 40.1037 47.9103C39.9907 47.7968 39.8778 47.6832 39.7614 47.5662C39.6485 47.4517 39.5355 47.3372 39.4191 47.2192C39.3012 47.1004 39.1832 46.9816 39.0616 46.8592C38.7747 46.5701 38.4882 46.2806 38.2021 45.9907C38.4948 45.2718 38.9545 44.8356 39.5097 44.3021C39.6987 44.1178 39.8876 43.9334 40.0765 43.749C40.3724 43.4622 40.6689 43.1761 40.9664 42.8911C42.5293 41.3896 43.8703 40.0472 43.9749 37.7752C43.8608 35.3852 42.0263 33.812 40.4289 32.2328C40.2517 32.0562 40.0745 31.8795 39.8974 31.7028C39.4354 31.2422 38.9723 30.7828 38.509 30.3236C38.0347 29.8531 37.5614 29.3815 37.088 28.91C36.1623 27.9882 35.2354 27.0676 34.3077 26.1478C34.6 25.5312 34.9163 25.1248 35.4045 24.6439C35.5455 24.5041 35.6866 24.3643 35.8319 24.2202C35.9791 24.076 36.1264 23.9319 36.2781 23.7834C36.4268 23.6363 36.5755 23.4893 36.7287 23.3378C37.0954 22.9755 37.4629 22.6141 37.8312 22.2534Z" fill="#8A7735"/>
<path d="M257.957 43.0234C262.241 43.0234 266.525 43.0234 270.938 43.0234C270.938 44.0638 270.938 45.1042 270.938 46.176C268.001 46.176 265.063 46.176 262.037 46.176C262.037 48.0732 262.037 49.9703 262.037 51.9249C264.424 51.9249 266.81 51.9249 269.269 51.9249C269.269 52.9653 269.269 54.0056 269.269 55.0775C266.883 55.0775 264.496 55.0775 262.037 55.0775C262.037 57.097 262.037 59.1165 262.037 61.1973C264.974 61.1973 267.912 61.1973 270.938 61.1973C270.938 62.2376 270.938 63.278 270.938 64.3499C266.655 64.3499 262.371 64.3499 257.957 64.3499C257.957 57.3121 257.957 50.2744 257.957 43.0234Z" fill="#231F20"/>
<path d="M221.609 11.8682C226.138 11.8682 230.667 11.8682 235.333 11.8682C235.333 15.6931 235.333 15.6931 234.069 17.3389C233.811 17.7027 233.554 18.0668 233.297 18.4313C233.169 18.6071 233.042 18.7829 232.911 18.9641C232.401 19.683 231.946 20.4297 231.496 21.1869C231.333 21.4568 231.17 21.7265 231.006 21.996C230.926 22.1291 230.845 22.2622 230.762 22.3993C230.159 23.3852 229.537 24.3595 228.918 25.3355C227.963 26.8413 227.012 28.3492 226.06 29.8565C230.65 29.9483 230.65 29.9483 235.333 30.042C235.333 31.0823 235.333 32.1227 235.333 33.1946C230.681 33.1946 226.03 33.1946 221.239 33.1946C221.239 29.5813 221.239 29.5813 222.212 28.3034C222.418 28.0066 222.624 27.7095 222.829 27.4124C222.935 27.2647 223.041 27.1171 223.15 26.9649C223.655 26.2472 224.113 25.5018 224.577 24.7567C224.763 24.4618 224.949 24.1669 225.135 23.8722C225.227 23.7268 225.319 23.5813 225.414 23.4314C225.684 23.003 225.955 22.5749 226.226 22.1467C227.725 19.777 229.211 17.3994 230.696 15.0208C227.698 15.0208 224.699 15.0208 221.609 15.0208C221.609 13.9804 221.609 12.94 221.609 11.8682Z" fill="#221F20"/>
<path d="M193.236 43.0234C197.397 43.0234 201.559 43.0234 205.846 43.0234C205.846 44.0638 205.846 45.1042 205.846 46.176C203.031 46.176 200.216 46.176 197.316 46.176C197.316 48.1344 197.316 50.0927 197.316 52.1104C199.519 52.1104 201.722 52.1104 203.992 52.1104C203.992 53.1507 203.992 54.1911 203.992 55.263C201.789 55.263 199.586 55.263 197.316 55.263C197.316 58.2616 197.316 61.2603 197.316 64.3499C195.969 64.3499 194.623 64.3499 193.236 64.3499C193.236 57.3121 193.236 50.2744 193.236 43.0234Z" fill="#221F20"/>
<path d="M331.58 43.0234C333.048 43.0234 334.517 43.0234 336.03 43.0234C336.44 43.8643 336.849 44.7052 337.257 45.5464C337.396 45.8319 337.535 46.1173 337.674 46.4026C338.385 47.863 339.095 49.321 339.739 50.8122C339.858 50.5748 339.858 50.5748 339.979 50.3327C341.197 47.8963 342.415 45.4598 343.634 43.0234C344.98 43.0234 346.326 43.0234 347.713 43.0234C347.441 43.8417 347.213 44.4164 346.793 45.1396C343.091 51.6144 340.849 56.6848 341.594 64.3499C340.247 64.3499 338.901 64.3499 337.514 64.3499C337.548 63.7752 337.582 63.2005 337.617 62.6084C337.845 57.0073 336.881 53.0825 334.03 48.2697C333.39 47.1869 332.818 46.0845 332.281 44.9467C332.209 44.7961 332.138 44.6455 332.065 44.4903C331.58 43.4454 331.58 43.4454 331.58 43.0234Z" fill="#221F20"/>
<path d="M129.999 11.8682C134.894 11.8682 139.79 11.8682 144.834 11.8682C144.834 12.9085 144.834 13.9489 144.834 15.0208C143.121 15.0208 141.407 15.0208 139.642 15.0208C139.642 21.0181 139.642 27.0155 139.642 33.1946C138.234 33.1946 136.827 33.1946 135.377 33.1946C135.377 27.1972 135.377 21.1999 135.377 15.0208C133.602 15.0208 131.827 15.0208 129.999 15.0208C129.999 13.9804 129.999 12.94 129.999 11.8682Z" fill="#221F20"/>
<path d="M291.708 43.0234C296.604 43.0234 301.5 43.0234 306.544 43.0234C306.544 44.0638 306.544 45.1042 306.544 46.176C304.77 46.176 302.995 46.176 301.166 46.176C301.166 52.1734 301.166 58.1708 301.166 64.3499C299.82 64.3499 298.474 64.3499 297.086 64.3499C297.086 58.3525 297.086 52.3551 297.086 46.176C295.312 46.176 293.537 46.176 291.708 46.176C291.708 45.1357 291.708 44.0953 291.708 43.0234Z" fill="#221F20"/>
<path d="M309.326 43.0234C310.672 43.0234 312.019 43.0234 313.406 43.0234C313.406 49.0208 313.406 55.0182 313.406 61.1973C316.221 61.1973 319.036 61.1973 321.936 61.1973C321.936 62.2376 321.936 63.278 321.936 64.3499C317.775 64.3499 313.613 64.3499 309.326 64.3499C309.326 57.3121 309.326 50.2744 309.326 43.0234Z" fill="#221F20"/>
<path d="M293.007 11.8682C294.353 11.8682 295.699 11.8682 297.086 11.8682C297.086 17.8655 297.086 23.8629 297.086 30.042C299.902 30.042 302.717 30.042 305.617 30.042C305.617 31.0823 305.617 32.1227 305.617 33.1946C301.456 33.1946 297.294 33.1946 293.007 33.1946C293.007 26.1569 293.007 19.1191 293.007 11.8682Z" fill="#221F20"/>
<path d="M105.519 11.8682C106.927 11.8682 108.334 11.8682 109.785 11.8682C109.785 18.9059 109.785 25.9436 109.785 33.1946C108.377 33.1946 106.97 33.1946 105.519 33.1946C105.519 26.1569 105.519 19.1191 105.519 11.8682Z" fill="#221F20"/>
<path d="M105.519 43.0234C106.927 43.0234 108.334 43.0234 109.785 43.0234C109.789 45.7767 109.792 48.5299 109.794 51.2832C109.795 52.5614 109.797 53.8397 109.799 55.118C109.801 56.3505 109.802 57.583 109.802 58.8154C109.803 59.2868 109.803 59.7582 109.804 60.2296C109.806 60.8873 109.806 61.545 109.806 62.2027C109.806 62.3997 109.807 62.5967 109.808 62.7997C109.808 62.9778 109.807 63.156 109.807 63.3395C109.807 63.4953 109.807 63.651 109.808 63.8114C109.785 64.1644 109.785 64.1644 109.599 64.3499C108.253 64.3499 106.907 64.3499 105.519 64.3499C105.519 57.3121 105.519 50.2744 105.519 43.0234Z" fill="#221F20"/>
<path d="M350.495 43.0234C351.842 43.0234 353.188 43.0234 354.575 43.0234C354.575 50.0612 354.575 57.0989 354.575 64.3499C353.229 64.3499 351.882 64.3499 350.495 64.3499C350.495 57.3121 350.495 50.2744 350.495 43.0234Z" fill="#221F20"/>
<path d="M324.718 43.0234C326.064 43.0234 327.411 43.0234 328.798 43.0234C328.798 50.0612 328.798 57.0989 328.798 64.3499C327.452 64.3499 326.105 64.3499 324.718 64.3499C324.718 57.3121 324.718 50.2744 324.718 43.0234Z" fill="#221F20"/>
<path d="M208.628 43.0234C209.974 43.0234 211.321 43.0234 212.708 43.0234C212.708 50.0612 212.708 57.0989 212.708 64.3499C211.362 64.3499 210.015 64.3499 208.628 64.3499C208.628 57.3121 208.628 50.2744 208.628 43.0234Z" fill="#221F20"/>
<path d="M150.954 43.0234C152.3 43.0234 153.647 43.0234 155.034 43.0234C155.034 50.0612 155.034 57.0989 155.034 64.3499C153.688 64.3499 152.341 64.3499 150.954 64.3499C150.954 57.3121 150.954 50.2744 150.954 43.0234Z" fill="#221F20"/>
<path d="M344.19 11.8682C345.536 11.8682 346.883 11.8682 348.27 11.8682C348.27 18.9059 348.27 25.9436 348.27 33.1946C346.923 33.1946 345.577 33.1946 344.19 33.1946C344.19 26.1569 344.19 19.1191 344.19 11.8682Z" fill="#221F20"/>
<path d="M207.886 11.8682C209.233 11.8682 210.579 11.8682 211.966 11.8682C211.966 18.9059 211.966 25.9436 211.966 33.1946C210.62 33.1946 209.273 33.1946 207.886 33.1946C207.886 26.1569 207.886 19.1191 207.886 11.8682Z" fill="#221F20"/>
<path d="M147.616 11.8682C148.962 11.8682 150.309 11.8682 151.696 11.8682C151.696 18.9059 151.696 25.9436 151.696 33.1946C150.349 33.1946 149.003 33.1946 147.616 33.1946C147.616 26.1569 147.616 19.1191 147.616 11.8682Z" fill="#221F20"/>
<path d="M350.495 37.0894C351.842 37.0894 353.188 37.0894 354.575 37.0894C354.575 38.4357 354.575 39.782 354.575 41.1692C353.229 41.1692 351.882 41.1692 350.495 41.1692C350.495 39.8228 350.495 38.4765 350.495 37.0894Z" fill="#221F20"/>
<path d="M325.282 37.0684C325.444 37.0693 325.606 37.0703 325.774 37.0713C325.931 37.0718 326.089 37.0722 326.251 37.0727C326.554 37.0752 326.554 37.0752 326.862 37.0778C327.501 37.0816 328.14 37.0855 328.798 37.0894C328.798 38.4358 328.798 39.7821 328.798 41.1693C327.452 41.1693 326.105 41.1693 324.718 41.1693C324.714 40.5305 324.71 39.8918 324.706 39.2336C324.705 39.032 324.703 38.8304 324.701 38.6227C324.701 38.465 324.7 38.3073 324.7 38.1449C324.699 37.9827 324.698 37.8205 324.697 37.6534C324.726 37.1401 324.769 37.0969 325.282 37.0684Z" fill="#221F20"/>
<path d="M151.518 37.0684C151.68 37.0693 151.842 37.0703 152.009 37.0713C152.167 37.0718 152.325 37.0722 152.487 37.0727C152.79 37.0752 152.79 37.0752 153.098 37.0778C153.737 37.0816 154.376 37.0855 155.034 37.0894C155.034 38.4358 155.034 39.7821 155.034 41.1693C153.688 41.1693 152.341 41.1693 150.954 41.1693C150.95 40.5305 150.946 39.8918 150.942 39.2336C150.941 39.032 150.939 38.8304 150.937 38.6227C150.937 38.465 150.936 38.3073 150.936 38.1449C150.935 37.9827 150.934 37.8205 150.933 37.6534C150.962 37.1401 151.005 37.0969 151.518 37.0684Z" fill="#221F20"/>
<path d="M105.705 37.0894C106.99 37.0894 108.275 37.0894 109.599 37.0894C109.599 38.4357 109.599 39.782 109.599 41.1692C108.314 41.1692 107.029 41.1692 105.705 41.1692C105.705 39.8228 105.705 38.4765 105.705 37.0894Z" fill="#221F20"/>
<path d="M207.886 6.11914C209.233 6.11914 210.579 6.11914 211.966 6.11914C211.966 7.40429 211.966 8.68944 211.966 10.0135C210.62 10.0135 209.273 10.0135 207.886 10.0135C207.886 8.72838 207.886 7.44323 207.886 6.11914Z" fill="#221F20"/>
<path d="M147.801 6.11914C149.087 6.11914 150.372 6.11914 151.696 6.11914C151.696 7.40429 151.696 8.68944 151.696 10.0135C150.411 10.0135 149.125 10.0135 147.801 10.0135C147.801 8.72838 147.801 7.44323 147.801 6.11914Z" fill="#221F20"/>
<path d="M105.705 6.11914C106.99 6.11914 108.275 6.11914 109.599 6.11914C109.599 7.40429 109.599 8.68944 109.599 10.0135C108.314 10.0135 107.029 10.0135 105.705 10.0135C105.705 8.72838 105.705 7.44323 105.705 6.11914Z" fill="#221F20"/>
</g>
<defs>
<clipPath id="clip0_1521_7573">
<rect width="367" height="75.6625" fill="white"/>
</clipPath>
</defs>
</svg>
