<svg width="119" height="114" viewBox="0 0 119 114" fill="none" xmlns="http://www.w3.org/2000/svg">
<g clip-path="url(#clip0_1521_7835)">
<path fill-rule="evenodd" clip-rule="evenodd" d="M61.3832 67.4766L59.1077 71.3693L56.9629 75.5112L43.58 75.5453C43.7414 74.8776 45.0487 72.8348 45.4739 72.0987C46.7034 69.9713 50.4934 63.5651 51.3512 61.8072L43.4278 56.2175C35.1128 49.9761 20.5263 36.1414 25.1108 24.9796C28.1926 17.4767 39.5952 15.4752 49.7305 16.1101C49.5473 16.5289 49.2832 17.1322 49.0325 17.5461C46.6849 17.5643 44.6784 17.6815 40.9871 18.3388C33.4844 19.675 26.5508 23.6203 31.3828 32.7613C37.7894 44.8818 59.5479 57.6191 71.85 63.9835C75.812 66.0331 79.9748 67.8649 84.0734 69.7341L93.219 73.9827C94.0133 74.3549 95.7969 74.9912 96.2561 75.5228C93.5456 75.6697 90.4622 75.5364 87.7021 75.561C84.8888 75.5861 81.9712 75.6592 79.1682 75.6124C77.8237 75.5901 63.4958 68.495 61.383 67.4768L61.3832 67.4766Z" fill="#ED3237"/>
<path fill-rule="evenodd" clip-rule="evenodd" d="M95.5634 74.2732C93.715 73.8345 80.767 67.5188 78.9527 66.6065C77.8295 66.0417 77.928 66.2595 77.3364 65.1199L74.2248 59.228C73.5856 58.004 72.8473 56.5855 72.1472 55.2727C71.5929 54.2333 70.7114 52.1589 70.0086 51.4149L65.5001 59.5888C64.6551 59.3448 56.5743 54.3561 56.111 53.8402L68.279 32.4263C68.7498 31.5582 69.5225 30.0382 70.0583 29.4502L70.2156 29.6207C70.2349 29.6441 70.2678 29.6806 70.2881 29.707C70.3081 29.733 70.3344 29.7687 70.3541 29.796C70.464 29.9496 70.4789 29.9958 70.576 30.1662L82.1215 50.4514C82.616 51.2786 95.2953 73.3847 95.5636 74.2732H95.5634Z" fill="#4598BB"/>
<path fill-rule="evenodd" clip-rule="evenodd" d="M45.9159 59.1512C45.7894 59.3265 45.4626 59.9906 45.3508 60.1711L41.0466 67.2133C40.1995 68.6035 39.488 69.7152 38.5908 71.2384C37.7863 72.6046 36.9686 73.7314 36.1435 75.2636L22.9548 75.262C23.0531 74.6986 24.2958 72.8191 24.6736 72.1878L35.1285 55.0923C35.4444 54.562 36.4666 52.6377 36.9759 52.2773L45.9157 59.1514L45.9159 59.1512Z" fill="#4598BB"/>
<path fill-rule="evenodd" clip-rule="evenodd" d="M50.6501 29.5356L63.8389 29.5628C63.8593 30.2218 55.3464 43.7588 54.3513 45.4403C53.817 46.343 51.6156 50.1587 51.0911 50.6074C50.2419 50.1794 47.4292 47.9271 46.5302 47.202L42.3125 43.5119C42.5499 42.5641 45.6067 37.9405 46.4625 36.514L50.6501 29.5356Z" fill="#4598BB"/>
<path fill-rule="evenodd" clip-rule="evenodd" d="M45.7722 23.6952C41.0083 23.9745 34.8066 24.3038 32.4603 28.9492C32.2562 29.3532 32.2036 29.4814 32.096 29.8999C31.8776 30.7508 31.9629 30.5739 31.6167 30.9119C31.0671 28.6593 30.2666 26.8226 31.3983 24.3533C33.8167 19.0766 43.3216 18.3534 48.677 18.3481C48.2756 19.1144 46.2835 22.7402 45.7718 23.6952H45.7722Z" fill="#4598BB"/>
<path d="M6.83404 91.9415L10.1834 87.2839H7.56082L5.39402 90.3219L3.22741 87.2839H0.604843L3.94723 91.9415L0.390503 96.878H3.01307L5.39383 93.5588L7.77497 96.878H10.3975L6.83385 91.9415H6.83404ZM11.1402 96.878H13.3639V87.2839H11.1402V96.878ZM21.2316 95.0002H25.0866L25.8203 96.878H28.2171L24.2596 87.2839H22.0585L18.101 96.878H20.4978L21.2316 95.0002ZM23.1591 90.0981L24.353 93.1362H21.9651L23.1591 90.0981ZM28.9577 96.878H31.1813V90.4817L34.8998 96.878H37.716V87.2839H35.4923V93.6798L31.7739 87.2839H28.9577V96.878ZM45.4107 95.0002H49.2658L49.9995 96.878H52.3963L48.4388 87.2839H46.2377L42.2802 96.878H44.677L45.4107 95.0002ZM47.3383 90.0981L48.5322 93.1362H46.1443L47.3383 90.0981ZM57.7622 96.8757C60.7902 96.8757 61.6242 95.3567 61.6242 93.9975C61.6242 92.8554 60.9088 92.0672 59.6489 91.7999C60.5625 91.6194 61.2823 90.8382 61.2823 89.8446C61.2823 88.5859 60.6559 87.2839 57.6552 87.2839H53.1368V96.8757H57.7622ZM55.3605 95.0163V92.8484H57.7074C58.9948 92.8484 59.3548 93.2093 59.3548 93.9314C59.3548 94.6486 58.995 95.0163 57.7074 95.0163H55.3605ZM55.3605 91.053V89.1479H57.7074C58.7488 89.1479 59.0403 89.5635 59.0403 90.1006C59.0403 90.6372 58.7486 91.0532 57.7074 91.0532H55.3605V91.053ZM70.0271 87.9875C69.1111 87.3708 67.8626 87.0234 66.3133 87.0234C63.561 87.0234 62.5993 88.4146 62.5993 89.8836C62.5993 91.4322 63.6747 92.515 66.2129 93.0495C67.5231 93.3168 68.1634 93.5705 68.1634 94.2122C68.1634 94.8402 67.6555 95.2058 66.3133 95.2058C65.4861 95.2058 64.3628 95.039 63.3741 94.4176L62.2919 95.9894C63.3081 96.7775 64.5841 97.1383 66.3133 97.1383C68.7968 97.1383 70.4144 96.2087 70.4144 94.2122C70.4144 92.4076 69.0587 91.5876 66.6344 91.0711C65.4724 90.8382 64.8507 90.5253 64.8507 89.8834C64.8507 89.2961 65.3312 88.9559 66.3133 88.9559C67.1403 88.9559 67.9764 89.0746 68.945 89.5566L70.0271 87.9872V87.9875ZM77.7308 91.0119H73.5701V87.2841H71.3464V96.8782H73.5701V92.9446H77.7308V96.8782H79.9545V87.2841H77.7308V91.0119ZM83.5224 91.0119V89.2166H88.4166V87.2841H81.2987V96.8782H88.4828V94.9457H83.5224V92.9446H88.1295V91.0119H83.5224ZM91.9072 96.8782V93.5751H93.6002L95.4391 96.8782H97.8245L95.8195 93.2873C96.8153 92.8626 97.7311 92.0424 97.7311 90.5323C97.7311 88.7688 96.5623 87.2841 93.967 87.2841H89.6835V96.8782H91.9072ZM93.967 89.2166C95.12 89.2166 95.48 89.8333 95.48 90.5323C95.48 91.2313 95.12 91.848 93.967 91.848H91.9072V89.2166H93.967ZM103.808 87.0234C100.203 87.0234 98.6333 89.4016 98.6333 92.081C98.6333 94.7582 100.203 97.1385 103.808 97.1385C107.412 97.1385 108.982 94.7582 108.982 92.081C108.982 89.4016 107.412 87.0234 103.808 87.0234ZM103.808 88.9561C105.81 88.9561 106.699 90.3174 106.699 92.081C106.699 93.8445 105.81 95.206 103.808 95.206C101.805 95.206 100.916 93.8445 100.916 92.081C100.916 90.3174 101.805 88.9561 103.808 88.9561ZM110.055 96.878H112.279V90.4817L115.997 96.878H118.814V87.2839H116.59V93.6798L112.871 87.2839H110.055V96.878ZM14.4259 90.9113H16.301L17.9619 87.2839H15.8338L14.4259 90.9113Z" fill="#4598BB"/>
<path d="M32.7469 105.324H31.9288V113.299H36.8588V112.581H32.7469V105.324ZM41.7264 113.402C44.2795 113.402 45.6468 111.55 45.6468 109.312C45.6468 107.073 44.2795 105.221 41.7264 105.221C39.1732 105.221 37.8058 107.073 37.8058 109.312C37.8058 111.55 39.1732 113.402 41.7264 113.402ZM41.7264 112.684C39.6507 112.684 38.6469 111.163 38.6469 109.312C38.6469 107.46 39.6507 105.939 41.7264 105.939C43.8021 105.939 44.8059 107.46 44.8059 109.312C44.8059 111.163 43.8021 112.684 41.7264 112.684ZM50.6845 105.939C51.7471 105.939 52.59 106.182 53.2603 106.716L53.6959 106.15C52.9177 105.525 51.9688 105.221 50.6845 105.221C48.1297 105.221 46.7622 107.071 46.7622 109.304C46.7622 111.548 48.1297 113.401 50.6845 113.401C51.9744 113.401 52.9291 113.147 53.7623 112.479V108.913H50.8967V109.63H53.0009V112.061C52.5407 112.416 51.8342 112.683 50.6845 112.683C48.6071 112.683 47.6033 111.157 47.6033 109.304C47.6033 107.46 48.6071 105.939 50.6845 105.939V105.939ZM55.2017 113.299H56.0198V105.324H55.2017V113.299ZM62.7814 105.884C62.1621 105.487 61.3572 105.221 60.1733 105.221C58.4083 105.221 57.4631 106.055 57.4631 107.255C57.4631 108.461 58.2756 109.127 60.2132 109.556C61.8724 109.929 62.361 110.373 62.361 111.235C62.361 112.162 61.7681 112.684 60.3857 112.684C59.2796 112.684 58.3706 112.406 57.6678 111.934L57.2474 112.551C57.9937 113.153 59.1471 113.402 60.3859 113.402C62.1623 113.402 63.1909 112.669 63.1909 111.235C63.1909 109.834 62.2569 109.196 60.3517 108.767C58.8592 108.428 58.293 108.077 58.293 107.255C58.293 106.344 59.0581 105.939 60.1735 105.939C61.0011 105.939 61.8062 106.15 62.3612 106.499L62.7816 105.884H62.7814ZM64.0881 105.324V106.042H66.8894V113.299H67.7075V106.042H70.5088V105.324H64.0881ZM71.7246 113.299H72.5427V105.324H71.7246V113.299ZM74.7248 109.312C74.7248 107.46 75.7286 105.939 77.8043 105.939C78.8307 105.939 79.5353 106.272 80.0069 106.583L80.4445 105.983C79.863 105.542 79.0298 105.221 77.8043 105.221C75.2512 105.221 73.8837 107.073 73.8837 109.312C73.8837 111.55 75.2512 113.402 77.8043 113.402C79.0296 113.402 79.863 113.081 80.4445 112.64L80.0069 112.04C79.5355 112.351 78.8309 112.684 77.8043 112.684C75.7286 112.684 74.7248 111.163 74.7248 109.312ZM86.8669 105.884C86.2477 105.487 85.4428 105.221 84.2589 105.221C82.4939 105.221 81.5487 106.055 81.5487 107.255C81.5487 108.461 82.3611 109.127 84.2987 109.556C85.9579 109.929 86.4466 110.373 86.4466 111.235C86.4466 112.162 85.8537 112.684 84.4713 112.684C83.3651 112.684 82.4561 112.406 81.7533 111.934L81.333 112.551C82.0793 113.153 83.2326 113.402 84.4715 113.402C86.2479 113.402 87.2765 112.669 87.2765 111.235C87.2765 109.834 86.3425 109.196 84.4372 108.767C82.9448 108.428 82.3786 108.077 82.3786 107.255C82.3786 106.344 83.1436 105.939 84.2591 105.939C85.0866 105.939 85.8918 106.15 86.4468 106.499L86.8671 105.884H86.8669Z" fill="#4598BB"/>
</g>
<defs>
<clipPath id="clip0_1521_7835">
<rect width="118.423" height="97.4014" fill="white" transform="translate(0.390747 16)"/>
</clipPath>
</defs>
</svg>
