<svg width="205" height="81" viewBox="0 0 205 81" fill="none" xmlns="http://www.w3.org/2000/svg">
<path d="M86.7771 64.5226V75.6499H85.0983V64.5226H86.7771ZM85.9404 63.235C85.6579 63.235 85.4152 63.1408 85.2124 62.9524C85.0131 62.7604 84.9135 62.5323 84.9135 62.2678C84.9135 61.9998 85.0131 61.7716 85.2124 61.5832C85.4152 61.3913 85.6579 61.2953 85.9404 61.2953C86.2229 61.2953 86.4638 61.3913 86.663 61.5832C86.8659 61.7716 86.9673 61.9998 86.9673 62.2678C86.9673 62.5323 86.8659 62.7604 86.663 62.9524C86.4638 63.1408 86.2229 63.235 85.9404 63.235ZM98.2032 64.5226V75.6499H96.6602L91.0042 67.4892H90.901V75.6499H89.2221V64.5226H90.776L96.4374 72.6942H96.5407V64.5226H98.2032ZM106.721 67.4457C106.663 66.9314 106.424 66.5329 106.004 66.2504C105.584 65.9642 105.055 65.8212 104.418 65.8212C103.961 65.8212 103.566 65.8936 103.233 66.0385C102.9 66.1798 102.641 66.3754 102.456 66.6253C102.275 66.8716 102.184 67.1523 102.184 67.4674C102.184 67.7319 102.246 67.9601 102.369 68.152C102.496 68.344 102.661 68.5052 102.864 68.6356C103.07 68.7624 103.291 68.8692 103.526 68.9562C103.762 69.0395 103.988 69.1083 104.206 69.1626L105.292 69.4451C105.647 69.5321 106.011 69.6498 106.384 69.7983C106.757 69.9468 107.103 70.1424 107.422 70.3851C107.741 70.6278 107.998 70.9284 108.194 71.287C108.393 71.6456 108.492 72.0748 108.492 72.5747C108.492 73.2049 108.329 73.7646 108.003 74.2536C107.681 74.7426 107.212 75.1283 106.596 75.4108C105.984 75.6934 105.243 75.8346 104.374 75.8346C103.541 75.8346 102.82 75.7024 102.212 75.438C101.603 75.1736 101.127 74.7987 100.783 74.3133C100.439 73.8243 100.248 73.2448 100.212 72.5747H101.896C101.929 72.9767 102.059 73.3118 102.288 73.5798C102.519 73.8443 102.815 74.0417 103.173 74.1721C103.536 74.2988 103.932 74.3622 104.363 74.3622C104.838 74.3622 105.26 74.288 105.629 74.1395C106.002 73.9873 106.296 73.7772 106.509 73.5092C106.723 73.2375 106.83 72.9206 106.83 72.5584C106.83 72.2288 106.736 71.9589 106.547 71.7488C106.363 71.5388 106.111 71.3649 105.792 71.2272C105.477 71.0896 105.12 70.9683 104.722 70.8632L103.407 70.5046C102.516 70.2619 101.81 69.9052 101.288 69.4343C100.77 68.9634 100.511 68.3404 100.511 67.5652C100.511 66.9241 100.685 66.3645 101.033 65.8864C101.38 65.4082 101.851 65.037 102.445 64.7726C103.039 64.5045 103.709 64.3705 104.456 64.3705C105.209 64.3705 105.874 64.5027 106.45 64.7671C107.029 65.0315 107.485 65.3956 107.819 65.8592C108.152 66.3192 108.326 66.8481 108.34 67.4457H106.721ZM103.809 75.6064H104.874L104.787 76.052C105.102 76.1027 105.377 76.2294 105.613 76.4323C105.848 76.6351 105.966 76.9412 105.966 77.3505C105.97 77.8395 105.758 78.2361 105.33 78.5404C104.906 78.8446 104.293 78.9968 103.488 78.9968L103.456 78.0894C103.833 78.0894 104.137 78.0351 104.369 77.9264C104.604 77.8178 104.724 77.6421 104.727 77.3994C104.731 77.1567 104.64 76.9865 104.456 76.8887C104.274 76.7909 103.985 76.7221 103.586 76.6822L103.809 75.6064ZM111.349 75.6499H109.567L113.571 64.5226H115.511L119.515 75.6499H117.733L114.587 66.5438H114.5L111.349 75.6499ZM111.648 71.2924H117.429V72.7051H111.648V71.2924ZM122.062 75.6499H120.28L124.284 64.5226H126.224L130.228 75.6499H128.446L125.3 66.5438H125.213L122.062 75.6499ZM122.361 71.2924H128.142V72.7051H122.361V71.2924ZM129.971 65.9679V64.5226H138.583V65.9679H135.111V75.6499H133.438V65.9679H129.971ZM143.071 75.8075C142.325 75.8075 141.682 75.6716 141.142 75.4C140.606 75.1283 140.193 74.7589 139.903 74.2916C139.614 73.8207 139.469 73.2883 139.469 72.6942C139.469 72.2415 139.563 71.8394 139.751 71.488C139.94 71.1331 140.202 70.8053 140.539 70.5046C140.876 70.204 141.265 69.9015 141.707 69.5973L143.5 68.3313C143.804 68.1321 144.042 67.922 144.212 67.7011C144.382 67.4765 144.467 67.1994 144.467 66.8698C144.467 66.609 144.355 66.3591 144.13 66.12C143.906 65.8809 143.605 65.7614 143.228 65.7614C142.968 65.7614 142.738 65.8248 142.538 65.9516C142.343 66.0783 142.189 66.2413 142.077 66.4406C141.968 66.6362 141.914 66.8426 141.914 67.06C141.914 67.3135 141.982 67.5689 142.12 67.826C142.261 68.0832 142.442 68.3494 142.663 68.6247C142.884 68.8964 143.116 69.1789 143.359 69.4723L148.526 75.6499H146.689L142.413 70.6242C142.055 70.2004 141.722 69.8019 141.414 69.4288C141.106 69.0521 140.856 68.6718 140.664 68.2879C140.476 67.9003 140.381 67.4819 140.381 67.0328C140.381 66.5221 140.497 66.0693 140.729 65.6745C140.965 65.276 141.292 64.9645 141.713 64.74C142.133 64.5154 142.625 64.4031 143.19 64.4031C143.763 64.4031 144.254 64.5154 144.663 64.74C145.076 64.9609 145.393 65.2561 145.614 65.6256C145.838 65.9914 145.951 66.3917 145.951 66.8263C145.951 67.3552 145.818 67.8224 145.554 68.2281C145.293 68.6302 144.933 68.9996 144.473 69.3365L142.24 70.9828C141.805 71.3015 141.503 71.6166 141.332 71.9281C141.166 72.236 141.082 72.4769 141.082 72.6508C141.082 72.9695 141.164 73.2647 141.327 73.5364C141.493 73.808 141.725 74.0254 142.022 74.1884C142.323 74.3514 142.674 74.4329 143.076 74.4329C143.489 74.4329 143.891 74.3441 144.283 74.1666C144.677 73.9855 145.034 73.7265 145.353 73.3897C145.675 73.0528 145.931 72.6489 146.119 72.1781C146.307 71.7072 146.401 71.1802 146.401 70.597H147.868C147.868 71.3142 147.787 71.9209 147.624 72.4171C147.461 72.9097 147.264 73.3118 147.032 73.6233C146.804 73.9312 146.588 74.1721 146.385 74.3459C146.32 74.4039 146.258 74.4618 146.2 74.5198C146.143 74.5777 146.081 74.6357 146.016 74.6937C145.639 75.074 145.183 75.3547 144.647 75.5358C144.114 75.7169 143.589 75.8075 143.071 75.8075ZM149.929 75.6499V64.5226H151.608V69.3582H157.155V64.5226H158.84V75.6499H157.155V70.798H151.608V75.6499H149.929ZM162.224 75.6499H160.442L164.447 64.5226H166.386L170.391 75.6499H168.608L165.463 66.5438H165.376L162.224 75.6499ZM162.523 71.2924H168.304V72.7051H162.523V71.2924ZM171.997 75.6499V64.5226H175.964C176.826 64.5226 177.541 64.6711 178.11 64.9682C178.682 65.2652 179.11 65.6763 179.392 66.2015C179.675 66.7231 179.816 67.3262 179.816 68.0108C179.816 68.6917 179.673 69.2912 179.387 69.8092C179.104 70.3235 178.677 70.7238 178.104 71.0099C177.536 71.2961 176.82 71.4391 175.958 71.4391H172.954V69.9939H175.806C176.35 69.9939 176.791 69.916 177.132 69.7603C177.476 69.6045 177.728 69.3781 177.887 69.0811C178.046 68.7841 178.126 68.4273 178.126 68.0108C178.126 67.5906 178.045 67.2266 177.882 66.9187C177.722 66.6108 177.471 66.3754 177.126 66.2124C176.786 66.0457 176.339 65.9624 175.784 65.9624H173.676V75.6499H171.997ZM177.49 70.6296L180.24 75.6499H178.327L175.632 70.6296H177.49ZM183.538 64.5226V75.6499H181.859V64.5226H183.538ZM182.701 63.235C182.418 63.235 182.176 63.1408 181.973 62.9524C181.774 62.7604 181.674 62.5323 181.674 62.2678C181.674 61.9998 181.774 61.7716 181.973 61.5832C182.176 61.3913 182.418 61.2953 182.701 61.2953C182.983 61.2953 183.224 61.3913 183.424 61.5832C183.626 61.7716 183.728 61.9998 183.728 62.2678C183.728 62.5323 183.626 62.7604 183.424 62.9524C183.224 63.1408 182.983 63.235 182.701 63.235ZM185.434 65.9679V64.5226H194.046V65.9679H190.574V75.6499H188.9V65.9679H185.434ZM195.574 75.6499H193.792L197.796 64.5226H199.736L203.74 75.6499H201.958L198.812 66.5438H198.725L195.574 75.6499ZM195.872 71.2924H201.653V72.7051H195.872V71.2924Z" fill="black"/>
<path d="M47 51.5L39.5 80.5L31.5 51.5V44L47 51.5ZM25.5 48L0 40.5L25.5 33.5V48ZM78 40.5L51.5 48L35.5 40.5L50 33.5L78 40.5ZM157 41.5C157.167 42.3333 158.4 43.9 162 43.5L168.5 14H172.5L179.5 46L174.5 46.5L172.5 38H165.5L163.5 46.5H161V45.5C160.5 46.1667 158.7 47.4 155.5 47C151.5 46.5 150.5 43.5 150.5 41V1.5H157.5L157 41.5ZM190 28H191.5C192.167 24.6667 194.7 17.6 199.5 16C201.5 15.6 201 17.1667 200.5 18C198.667 19.5 195.1 22.9 195.5 24.5C195.9 26.1 201.667 38.1667 204.5 44L198.5 47L191.5 32.5C190.833 33.5 189.5 37.7 189.5 46.5H183V1.5H190V28ZM93.5 19.5L105 1.5L107 3L98.5 18.5L110.5 44L103.5 46.5L94.5 27.5H93.5V46.5H86V1.5H93.5V19.5ZM129 45.5L123.5 46.5L121.5 38.5H114L112.5 46.5H110.5L117 14H121.5L129 45.5ZM140 33.5L144 16.5H147L140 46.5H136.5L129 18L136 16L140 33.5ZM47 29.5L31.5 36V28.5L39.5 0L47 29.5ZM115 35.5H121L118 22L115 35.5ZM166 35.5H172L169 22L166 35.5Z" fill="#247D79"/>
</svg>
