<svg width="178" height="85" viewBox="0 0 178 85" fill="none" xmlns="http://www.w3.org/2000/svg">
<path fill-rule="evenodd" clip-rule="evenodd" d="M66.4336 16.0204C71.3579 15.3773 76.9417 16.4285 81.0709 18.7769C83.4922 20.1539 85.9505 21.9594 87.711 24.0985C90.7569 27.7981 92.8177 31.6685 93.4848 36.8832C93.5833 37.6516 93.6431 38.4139 93.6697 39.1691H102.119L102.116 37.7314L109.542 33.6067C109.302 30.7636 108.146 28.3639 107.57 25.9032L98.9839 25.9822C98.1976 24.3964 97.3808 23.2431 96.5948 21.7892C97.0602 20.6111 100.612 15.4137 100.934 14.4141C100.032 13.2191 99.2219 12.4456 98.2795 11.4351C97.5994 10.7063 96.0902 9.30053 95.3795 8.81377C94.6398 9.11114 93.1922 10.057 92.4446 10.5113C91.5248 11.0701 90.4842 11.6263 89.5357 12.208C87.0522 13.7319 88.7335 12.9626 83.8681 10.739L83.9766 2.20584C82.8451 1.45895 77.928 0.147362 76.2667 0.0776728C75.611 1.07646 74.8221 2.61121 74.1606 3.79538C73.698 4.62393 72.5561 6.91329 72.0396 7.47692L67.2962 7.41095L63.6676 1.00091C63.5854 0.842386 63.5192 0.700345 63.4218 0.531709L63.0399 0C60.6907 0.314131 57.4587 1.14561 55.4225 2.00688L55.4933 10.5626C54.0503 11.2521 51.7112 12.7379 51.2726 12.9235C50.3135 12.5161 48.5758 11.3566 47.6469 10.7741C47.0258 10.3844 44.4601 8.73637 43.8992 8.60338C42.3229 9.72318 39.1095 12.9233 38.344 14.1426C38.714 15.3674 41.8976 19.8459 42.5971 21.5184C42.2607 22.1594 41.7739 22.8201 41.3752 23.4857C40.947 24.2012 40.6323 24.9206 40.2017 25.6518L31.6901 25.5468L31.0113 27.3007C30.5609 28.6349 29.5361 32.1396 29.6385 33.2897L36.984 37.4843C36.979 38.0525 36.9646 38.6094 36.9529 39.1691H45.3209C45.6701 27.7792 54.386 17.5943 66.4336 16.0204Z" fill="white"/>
<path d="M11.9673 78.5292H23.7971L25.809 83.6974H35.7636L22.6611 51.6831H13.1026L0 83.6974H9.95459L11.9673 78.5292ZM17.8818 63.2844L21.0069 71.3489H14.7567L17.8818 63.2844ZM47.5235 83.6923C53.946 83.6923 55.6087 80.4286 55.6087 77.7387C55.6087 76.1566 54.8889 74.1859 51.8383 73.144C53.8324 72.59 54.9267 70.7331 54.9267 69.2787C54.9267 66.7827 53.738 63.8034 47.3149 63.8034H37.0271V83.6923H47.5235ZM42.9006 79.0982V75.7396H47.5235C49.1194 75.7396 49.9248 76.2941 49.9248 77.4166C49.9248 78.5436 49.1194 79.0982 47.5235 79.0982H42.9006ZM42.9006 71.562V68.4076H47.3149C48.8308 68.4076 49.2998 69.208 49.2998 69.9844C49.2998 70.7616 48.8308 71.562 47.3149 71.562H42.9006ZM73.6129 65.2713C71.3533 63.9313 68.7057 63.2634 65.3098 63.2634C59.5592 63.2634 57.2334 66.0914 57.2334 69.549C57.2334 72.7602 59.6158 74.9347 64.9353 76.0428C66.9486 76.4455 68.204 76.7913 68.204 77.8289C68.204 79.1171 66.8634 79.349 64.8786 79.349C62.9651 79.349 61.0133 78.771 59.3506 77.7198L56.7078 81.6697C58.8532 83.3324 61.7618 84.2373 65.1579 84.2373C70.1268 84.2373 74.1153 82.5842 74.1153 77.8289C74.1153 73.8973 71.1549 72.3575 66.0817 71.2917C64.2913 70.9223 63.1447 70.6148 63.1447 69.549C63.1447 68.5209 64.2674 68.1517 65.5556 68.1517C67.626 68.1517 69.3877 68.5637 70.9413 69.2268L73.6129 65.2713ZM89.0306 71.1353H81.6609V63.8034H75.7873V83.6974H81.6609V76.0236H89.0306V83.6974H94.9041V63.8034H89.0306V71.1353ZM103.279 71.2494V68.6911H113.23V63.8034H97.4055V83.6974H113.368V78.8088H103.279V75.9954H112.563V71.2494H103.279ZM121.458 83.6974V77.5584H123.817L127.223 83.6974H133.523L129.483 76.3931C131.017 75.8106 133.343 74.1386 133.343 70.8941C133.343 65.7265 129.52 63.8034 124.372 63.8034H115.585V83.6974H121.458ZM124.372 68.6911C126.489 68.6911 127.431 69.3309 127.431 70.8941C127.431 72.4716 126.489 73.0967 124.372 73.0967H121.458V68.6911H124.372ZM145.838 63.2634C138.401 63.2634 134.939 67.9576 134.939 73.7502C134.939 79.5432 138.401 84.2373 145.838 84.2373C153.275 84.2373 156.737 79.5432 156.737 73.7502C156.737 67.9576 153.275 63.2634 145.838 63.2634ZM145.838 68.1517C149.452 68.1517 150.826 70.9273 150.826 73.7502C150.826 76.5734 149.452 79.349 145.838 79.349C142.224 79.349 140.85 76.5734 140.85 73.7502C140.85 70.9273 142.224 68.1517 145.838 68.1517ZM158.684 83.6974H164.558V72.4998L171.132 83.6974H178V63.8034H172.126V75.0009L165.552 63.8034H158.684V83.6974Z" fill="white"/>
<path fill-rule="evenodd" clip-rule="evenodd" d="M117.83 22.1682C119.581 23.3414 121.068 25.2403 121.728 27.1453C122.115 28.2625 122.394 29.527 122.357 30.7021C122.293 32.7353 121.867 34.5469 120.62 36.3974C120.436 36.6703 120.242 36.9302 120.039 37.1786L122.735 39.5441L123.136 39.0844L126.66 39.8476C127.379 38.8732 127.683 37.784 128.188 36.8376L125.426 34.4592C125.619 33.733 125.681 33.1364 125.838 32.4526C126.316 32.2071 128.904 31.5432 129.287 31.3144C129.334 30.6803 129.292 30.2068 129.274 29.6209C129.261 29.1979 129.173 28.3268 129.083 27.9725C128.763 27.8603 128.037 27.7568 127.671 27.6924C127.221 27.6132 126.733 27.4993 126.268 27.4195C125.049 27.2102 125.801 27.4358 124.871 25.364L127.295 22.6719C127.143 22.1168 125.941 20.3219 125.431 19.8346C124.942 19.9698 124.261 20.2384 123.718 20.431C123.338 20.5658 122.333 20.9765 122.011 21.0119L120.515 19.6628L121.153 16.6021C121.171 16.5282 121.189 16.4646 121.205 16.3835L121.233 16.1068C120.395 15.5493 119.131 14.9099 118.24 14.6146L115.868 17.3639C115.214 17.1801 114.052 16.9992 113.86 16.9356C113.668 16.5372 113.438 15.6807 113.305 15.2349C113.216 14.9367 112.859 13.6925 112.717 13.493C111.901 13.4092 109.98 13.5305 109.394 13.705C109.169 14.1994 108.931 16.5196 108.686 17.249C108.399 17.3594 108.059 17.4338 107.745 17.5347C107.409 17.6429 107.107 17.7844 106.765 17.8972L104.078 15.4807L103.371 15.8501C102.854 16.1499 101.545 16.9811 101.256 17.3766L102.425 20.7715C102.265 20.9513 102.104 21.1249 101.944 21.3002L104.614 23.6428C107.914 20.1067 113.546 19.2974 117.83 22.1682Z" fill="white"/>
<path d="M37.0659 58.6858H38.486V44.8781H37.0659V58.6858ZM40.6546 49.0006V58.6858H42.0157V53.2942C42.0157 51.3381 42.8738 49.9638 44.9448 49.9638C47.016 49.9638 47.8741 51.3381 47.8741 53.3072V58.6858H49.2351V53.3072C49.2351 50.4931 47.7227 48.8264 44.9448 48.8264C43.2387 48.8264 42.3508 49.7994 42.0157 50.6083V49.0006H40.6546ZM60.7798 58.6858V44.1054H59.419V51.0094C58.6495 49.5103 57.1964 48.8264 55.9372 48.8264C52.6661 48.8264 51.0191 51.1541 51.0191 53.853C51.0191 56.5358 52.6661 58.86 55.9372 58.86C57.1866 58.86 58.6495 58.1761 59.419 56.677V58.6858H60.7798ZM55.9372 49.9638C58.2287 49.9638 59.419 51.7885 59.419 53.853C59.419 55.9012 58.2287 57.7226 55.9372 57.7226C53.646 57.7226 52.4525 55.8913 52.4525 53.8432C52.4525 51.7983 53.646 49.9638 55.9372 49.9638ZM71.5159 58.6858V49.0006H70.1548V54.3922C70.1548 56.3483 69.2967 57.7226 67.2255 57.7226C65.1545 57.7226 64.2964 56.3483 64.2964 54.3792V49.0006H62.9353V54.3792C62.9353 57.1933 64.4475 58.86 67.2255 58.86C68.9416 58.86 69.7997 57.887 70.1548 57.0781V58.6858H71.5159ZM80.5491 49.6943C79.7008 49.1158 78.468 48.8264 77.0149 48.8264C74.4835 48.8264 73.3195 50.0231 73.3195 51.44C73.3195 52.8372 74.3191 53.728 77.0247 54.2443C78.9776 54.5994 79.7303 55.0104 79.7303 56.0852C79.7303 57.1768 78.6127 57.7027 77.2646 57.7027C75.9068 57.7027 74.8386 57.3774 73.7701 56.6967L73.0961 57.6535C74.1481 58.4951 75.657 58.86 77.2646 58.86C79.441 58.86 81.1244 57.9232 81.1244 56.0852C81.1244 54.2542 79.8059 53.5735 77.2548 53.087C75.3974 52.7519 74.7136 52.2422 74.7136 51.44C74.7136 50.5787 75.5913 49.9638 77.0149 49.9638C78.1786 49.9638 79.1715 50.2335 79.875 50.6543L80.5491 49.6943ZM82.1487 50.1415H84.1508V54.4414C84.1508 57.3939 84.4894 58.86 87.1854 58.86C87.6488 58.86 88.2076 58.8206 88.7173 58.6201L88.372 57.4923C87.9382 57.6338 87.524 57.683 87.1854 57.683C85.5975 57.683 85.5119 56.6377 85.5119 54.4414V50.1415H88.438V49.0038H85.5119V46.124H84.1508V49.0038H82.1487V50.1415ZM90.2877 49.0006V58.6858H91.6487V53.2942C91.6487 51.3381 92.5033 49.9638 94.5746 49.9638C95.1629 49.9638 95.6627 50.0691 96.0769 50.2893L96.7214 49.2602C96.1165 48.981 95.413 48.8264 94.5746 48.8264C92.8717 48.8264 91.9839 49.7994 91.6487 50.6083V49.0006H90.2877ZM98.2753 58.6858H99.6363V49.0006H98.2753V58.6858ZM98.0221 46.1995C98.0221 46.7091 98.4365 47.1233 98.9458 47.1233C99.4555 47.1233 99.8696 46.7091 99.8696 46.1995C99.8696 45.6901 99.4555 45.2757 98.9458 45.2757C98.4365 45.2757 98.0221 45.6901 98.0221 46.1995ZM111.421 58.6858V49.0006H110.06V50.9929C109.291 49.5103 107.838 48.8264 106.578 48.8264C103.307 48.8264 101.66 51.1506 101.66 53.8432C101.66 56.5358 103.307 58.86 106.578 58.86C107.828 58.86 109.291 58.1761 110.06 56.677V58.6858H111.421ZM106.578 49.9638C108.87 49.9638 110.06 51.7885 110.06 53.853C110.06 55.9012 108.87 57.7226 106.578 57.7226C104.287 57.7226 103.094 55.8913 103.094 53.8432C103.094 51.7983 104.287 49.9638 106.578 49.9638ZM114.938 58.6858V44.0825H113.576V58.6858H114.938ZM124.431 57.4431L132.794 45.6441V44.8781H122.468V46.1208H130.802L122.438 57.9197V58.6858H132.834V57.4431H124.431ZM138.931 48.8264C135.801 48.8264 133.855 50.9402 133.855 53.8432C133.855 56.7462 135.801 58.86 138.931 58.86C142.061 58.86 144.007 56.7462 144.007 53.8432C144.007 50.9402 142.061 48.8264 138.931 48.8264ZM138.931 49.9638C141.341 49.9638 142.573 51.6602 142.573 53.8432C142.573 56.0262 141.341 57.7226 138.931 57.7226C136.521 57.7226 135.288 56.0262 135.288 53.8432C135.288 51.6602 136.521 49.9638 138.931 49.9638ZM145.771 49.0006V58.6858H147.132V53.2942C147.132 51.3381 147.99 49.9638 150.061 49.9638C152.132 49.9638 152.991 51.3381 152.991 53.3072V58.6858H154.352V53.3072C154.352 50.4931 152.839 48.8264 150.061 48.8264C148.355 48.8264 147.467 49.7994 147.132 50.6083V49.0006H145.771ZM160.797 57.7423C158.822 57.7423 157.618 56.2956 157.569 54.402H165.459C165.459 50.6181 163.533 48.787 160.797 48.787C157.868 48.787 156.136 50.9272 156.136 53.8334C156.136 56.7395 157.868 58.8797 160.797 58.8797C162.569 58.8797 163.891 58.3504 164.825 57.384L163.976 56.5456C163.293 57.1242 162.31 57.7423 160.797 57.7423ZM157.569 53.2647C157.724 51.3708 158.812 49.9244 160.797 49.9244C162.783 49.9244 163.871 51.3708 164.026 53.2647H157.569Z" fill="white"/>
</svg>
