<svg width="172" height="214" viewBox="0 0 172 214" fill="none" xmlns="http://www.w3.org/2000/svg">
<g clip-path="url(#clip0_1521_7496)">
<path d="M27.6987 186.058L24.0912 189.647L27.9332 195.063H25.9675L23.0078 190.761L21.7122 192.021V195.063H20.1262V186.058H21.7122V190.215C21.8574 190.026 22.0808 189.78 22.3712 189.491L25.6995 186.058H27.6987Z" fill="#9B823E"/>
<path d="M30.4127 195.063H28.9719V188.543H30.4127V195.063ZM30.4127 187.417H28.9719V186.058H30.4127V187.417Z" fill="#9B823E"/>
<path d="M36.8236 192.634H38.2197C38.1303 193.436 37.8176 194.071 37.2927 194.54C36.7677 194.997 36.0865 195.242 35.26 195.253L34.8244 195.855C35.0366 195.821 35.1929 195.799 35.327 195.799C35.6397 195.799 35.8966 195.888 36.0865 196.044C36.2875 196.211 36.3768 196.423 36.3768 196.68C36.3768 197.036 36.2428 197.326 35.9636 197.538C35.6955 197.75 35.3158 197.85 34.8467 197.85C34.4223 197.85 33.9867 197.761 33.5288 197.582L33.7745 197.081C34.0761 197.215 34.3776 197.27 34.668 197.27C35.1259 197.27 35.3605 197.103 35.3605 196.769C35.3605 196.457 35.1483 196.301 34.735 196.301C34.601 196.301 34.4446 196.323 34.2659 196.401L34.0314 196.156L34.7015 195.253C33.8415 195.108 33.1826 194.74 32.7246 194.149C32.2555 193.559 32.021 192.79 32.021 191.853C32.021 190.806 32.3226 189.959 32.9145 189.323C33.5176 188.688 34.2994 188.365 35.2711 188.365C36.1088 188.365 36.7789 188.577 37.2927 188.989C37.7953 189.401 38.108 189.992 38.2085 190.761H36.7566C36.5779 189.925 36.0753 189.513 35.2376 189.513C34.6903 189.513 34.2659 189.713 33.942 190.126C33.6293 190.527 33.4729 191.084 33.4729 191.787C33.4729 192.5 33.6293 193.068 33.942 193.481C34.2548 193.893 34.6792 194.105 35.2153 194.105C36.0976 194.105 36.6337 193.614 36.8236 192.634Z" fill="#9B823E"/>
<path d="M41.1683 195.063H39.7163V188.543H41.1683V195.063ZM41.1683 187.417H39.7163V186.058H41.1683V187.417Z" fill="#9B823E"/>
<path d="M48.9753 188.543L46.4735 190.928L49.2099 195.063H47.4564L45.4683 191.898L44.5972 192.712V195.063H43.1564V186.058H44.5972V191.196C44.8317 190.928 44.9769 190.761 45.0439 190.705L47.2107 188.543H48.9753Z" fill="#9B823E"/>
<path d="M59.541 188.543L57.2068 195.063H55.5873L53.1971 188.543H54.7719L55.7771 191.485C56.0452 192.243 56.2574 192.979 56.4249 193.715C56.559 193.157 56.7712 192.411 57.0839 191.474L58.0556 188.543H59.541Z" fill="#9B823E"/>
<path d="M64.9468 192.411H61.5849C61.6296 192.946 61.7972 193.369 62.0987 193.692C62.3891 194.005 62.7688 194.172 63.2268 194.172C64.2208 194.172 64.7904 193.581 64.9468 192.411ZM61.6073 190.583H60.2335C60.4011 189.892 60.7473 189.346 61.2722 188.955C61.7972 188.565 62.4338 188.365 63.1933 188.365C64.1538 188.365 64.9356 188.677 65.5275 189.29C66.1083 189.903 66.4099 190.717 66.4099 191.731C66.4099 192.756 66.1083 193.592 65.5164 194.25C64.9244 194.907 64.1649 195.231 63.2268 195.231C62.2551 195.231 61.4956 194.896 60.9483 194.227C60.4122 193.559 60.1442 192.634 60.1442 191.452H64.9803C64.9244 190.104 64.3213 189.435 63.1933 189.435C62.4114 189.435 61.8865 189.814 61.6073 190.583Z" fill="#9B823E"/>
<path d="M75.6353 187.161C74.7865 187.161 74.1052 187.473 73.6138 188.086C73.1223 188.699 72.8766 189.524 72.8766 190.572C72.8766 191.586 73.1223 192.411 73.6249 193.024C74.1275 193.648 74.7865 193.949 75.6353 193.949C76.4618 193.949 77.1208 193.648 77.6122 193.035C78.1148 192.422 78.3605 191.597 78.3605 190.549C78.3605 189.524 78.1148 188.699 77.6122 188.086C77.1208 187.473 76.4618 187.161 75.6353 187.161ZM75.6353 185.846C76.9086 185.846 77.9473 186.28 78.7514 187.15C79.5444 188.03 79.9465 189.167 79.9465 190.572C79.9465 191.965 79.5444 193.102 78.7514 193.971C77.9473 194.84 76.9086 195.275 75.613 195.275C74.3286 195.275 73.2787 194.84 72.4857 193.971C71.6927 193.102 71.2906 191.965 71.2906 190.549C71.2906 189.145 71.6927 188.019 72.4969 187.15C73.2899 186.28 74.3397 185.846 75.6353 185.846Z" fill="#9B823E"/>
<path d="M84.481 188.42V189.802C84.2464 189.78 84.0677 189.769 83.9672 189.769C83.2077 189.769 82.6605 190.092 82.3478 190.739C82.1914 191.073 82.102 191.641 82.102 192.444V195.063H80.6613V188.543H82.0127V189.836C82.5153 188.888 83.2524 188.409 84.2241 188.409C84.3246 188.409 84.4028 188.409 84.481 188.42Z" fill="#9B823E"/>
<path d="M89.0044 188.532V189.591H87.6865V193.013C87.6865 193.559 87.7981 193.86 88.0327 193.938C88.122 193.96 88.2672 193.971 88.4571 193.971C88.6023 193.971 88.781 193.96 89.0044 193.938V195.064C88.647 195.108 88.3342 195.119 88.0662 195.119C87.2174 195.119 86.6813 194.919 86.4467 194.495C86.3127 194.261 86.2457 193.659 86.2457 192.689V189.591H85.1511V188.532H86.2457V186.582H87.6865V188.532H89.0044Z" fill="#9B823E"/>
<path d="M94.332 192.578V191.809C94.0528 191.954 93.539 192.076 92.7907 192.177C92.2546 192.243 91.8748 192.355 91.6626 192.511C91.4504 192.678 91.3387 192.923 91.3387 193.247C91.3387 193.904 91.7408 194.227 92.545 194.227C92.9024 194.227 93.2374 194.161 93.539 194.027C93.8517 193.893 94.0639 193.726 94.1868 193.525C94.2873 193.369 94.332 193.057 94.332 192.578ZM91.5286 190.572H90.1772C90.3112 189.1 91.2829 188.365 93.1034 188.365C94.1309 188.365 94.8681 188.599 95.3148 189.056C95.6052 189.357 95.7504 189.814 95.7504 190.427C95.7504 190.683 95.7393 190.995 95.7393 191.363C95.7393 191.43 95.7281 191.597 95.7169 191.887L95.7057 192.154V192.433V192.946C95.6946 193.113 95.6946 193.202 95.6946 193.224C95.6946 193.626 95.7169 193.882 95.7504 193.971C95.7951 194.071 95.9068 194.116 96.0743 194.116C96.186 194.116 96.2865 194.105 96.387 194.083V195.097C95.985 195.197 95.6722 195.253 95.4377 195.253C94.8234 195.253 94.4772 194.985 94.399 194.462C93.7959 194.985 93.0252 195.253 92.087 195.253C91.4169 195.253 90.8808 195.075 90.4899 194.718C90.0878 194.372 89.8979 193.904 89.8979 193.302C89.8979 192.522 90.2442 191.965 90.9367 191.642C91.2494 191.497 91.6068 191.396 92.0089 191.363L92.2769 191.33L92.545 191.296L92.813 191.274C93.4943 191.196 93.9187 191.118 94.0863 191.029C94.2426 190.939 94.332 190.739 94.332 190.427C94.332 189.769 93.8852 189.435 93.0029 189.435C92.5226 189.435 92.1764 189.524 91.953 189.691C91.7408 189.858 91.5956 190.148 91.5286 190.572Z" fill="#9B823E"/>
<path d="M103.166 190.939V193.782H105.389C106.115 193.782 106.618 193.693 106.886 193.525C107.277 193.269 107.466 192.879 107.466 192.366C107.466 191.686 107.187 191.252 106.618 191.062C106.372 190.984 105.914 190.939 105.244 190.939H103.166ZM103.166 187.339V189.803H105.177C105.691 189.803 106.082 189.758 106.316 189.68C106.819 189.513 107.064 189.145 107.064 188.565C107.064 187.964 106.819 187.585 106.338 187.44C106.137 187.373 105.769 187.339 105.222 187.339H103.166ZM101.592 186.058H105.467C106.394 186.058 107.053 186.158 107.455 186.37C107.813 186.548 108.103 186.816 108.326 187.172C108.539 187.518 108.65 187.886 108.65 188.287C108.65 189.212 108.215 189.858 107.366 190.215C108.494 190.527 109.052 191.263 109.052 192.433C109.052 193.447 108.617 194.205 107.723 194.696C107.299 194.941 106.696 195.063 105.948 195.063H101.592V186.058Z" fill="#9B823E"/>
<path d="M112.191 195.063H110.739V188.543H112.191V195.063ZM112.191 187.417H110.739V186.058H112.191V187.417Z" fill="#9B823E"/>
<path d="M119.216 188.543V189.535L116.122 193.213C116.033 193.325 115.81 193.559 115.452 193.915H116.312H119.428V195.063H113.654V193.971L116.67 190.404C116.837 190.204 117.083 189.97 117.407 189.691H116.759H113.911V188.543H119.216Z" fill="#9B823E"/>
<path d="M122.064 188.543V189.502C122.623 188.744 123.349 188.365 124.242 188.365C125.136 188.365 125.761 188.677 126.13 189.29C126.342 189.647 126.454 190.182 126.454 190.906V195.063H125.013V191.263C125.013 190.783 124.968 190.427 124.89 190.204C124.734 189.78 124.354 189.568 123.74 189.568C123.069 189.568 122.611 189.847 122.355 190.404C122.221 190.705 122.154 191.162 122.154 191.787V195.063H120.713V188.543H122.064Z" fill="#9B823E"/>
<path d="M129.491 191.185H132.864C132.82 190.661 132.641 190.237 132.351 189.914C132.049 189.591 131.669 189.435 131.211 189.435C130.217 189.435 129.648 190.014 129.491 191.185ZM132.842 193.024H134.216C134.048 193.715 133.702 194.261 133.177 194.651C132.652 195.041 132.016 195.231 131.256 195.231C130.284 195.231 129.514 194.93 128.922 194.317C128.33 193.692 128.039 192.879 128.039 191.876C128.039 190.85 128.33 190.014 128.933 189.357C129.525 188.699 130.284 188.365 131.211 188.365C132.183 188.365 132.943 188.699 133.49 189.368C134.037 190.048 134.305 190.962 134.294 192.143H129.469C129.525 193.481 130.117 194.172 131.256 194.172C132.027 194.172 132.552 193.793 132.842 193.024Z" fill="#9B823E"/>
<path d="M140.872 190.427H139.488C139.398 189.758 138.94 189.424 138.103 189.424C137.31 189.424 136.919 189.669 136.919 190.17C136.919 190.427 137.019 190.605 137.209 190.717C137.399 190.828 137.857 190.951 138.583 191.107C139.521 191.318 140.18 191.564 140.549 191.853C140.928 192.143 141.107 192.567 141.107 193.102C141.107 193.759 140.85 194.283 140.336 194.662C139.823 195.041 139.119 195.231 138.225 195.231C136.371 195.231 135.4 194.484 135.322 192.968H136.706C136.796 193.77 137.321 194.172 138.281 194.172C138.717 194.172 139.063 194.083 139.309 193.915C139.566 193.748 139.689 193.514 139.689 193.224C139.689 192.968 139.588 192.79 139.398 192.667C139.197 192.544 138.773 192.411 138.136 192.255C137.421 192.087 136.986 191.976 136.84 191.931C136.628 191.865 136.438 191.787 136.26 191.686C135.735 191.385 135.467 190.928 135.467 190.293C135.467 189.691 135.712 189.223 136.182 188.877C136.651 188.543 137.298 188.365 138.125 188.365C139.834 188.365 140.75 189.056 140.872 190.427Z" fill="#9B823E"/>
<path d="M144.134 195.063H142.693V188.543H144.134V195.063ZM144.134 187.417H142.693V186.058H144.134V187.417Z" fill="#9B823E"/>
<path d="M147.484 188.543V189.502C148.043 188.744 148.769 188.365 149.651 188.365C150.545 188.365 151.181 188.677 151.55 189.29C151.762 189.647 151.874 190.182 151.874 190.906V195.063H150.422V191.263C150.422 190.783 150.388 190.427 150.31 190.204C150.154 189.78 149.774 189.568 149.16 189.568C148.49 189.568 148.032 189.847 147.775 190.404C147.641 190.705 147.574 191.162 147.574 191.787V195.063H146.122V188.543H147.484Z" fill="#9B823E"/>
<path d="M5.67377 175.38L4.93662 173.374C4.72442 172.794 4.51221 172.17 4.31117 171.479C4.18831 171.902 3.9761 172.527 3.67455 173.34L2.9374 175.38H5.67377ZM5.18234 169.974L8.64468 178.969H6.94701L6.08701 176.584H2.52416L1.63065 178.969H0L3.48468 169.974H5.18234Z" fill="#9B823E"/>
<path d="M14.877 172.459V173.451L11.772 177.13C11.6827 177.23 11.4593 177.464 11.1019 177.821H11.9619H15.078V178.969H9.30371V177.888L12.3193 174.31C12.4868 174.12 12.7325 173.875 13.0564 173.596H12.4086H9.56059V172.459H14.877Z" fill="#9B823E"/>
<path d="M20.6511 176.327H17.2781C17.3228 176.862 17.4903 177.286 17.7919 177.598C18.0934 177.921 18.4732 178.077 18.9311 178.077C19.9251 178.077 20.4947 177.497 20.6511 176.327ZM17.3116 174.488H15.9267C16.0942 173.797 16.4404 173.262 16.9654 172.872C17.4903 172.471 18.1269 172.281 18.8864 172.281C19.8469 172.281 20.6287 172.582 21.2207 173.206C21.8126 173.819 22.103 174.633 22.103 175.636C22.103 176.662 21.8126 177.509 21.2095 178.166C20.6176 178.824 19.8581 179.147 18.9311 179.147C17.9594 179.147 17.1999 178.813 16.6526 178.144C16.1054 177.475 15.8373 176.55 15.8485 175.369H20.6734C20.6176 174.02 20.0256 173.351 18.8864 173.351C18.1158 173.351 17.5908 173.73 17.3116 174.488Z" fill="#9B823E"/>
<path d="M27.4307 172.337V173.708C27.1962 173.697 27.0175 173.685 26.9169 173.685C26.1575 173.685 25.6102 174.009 25.2975 174.655C25.1411 174.978 25.0517 175.558 25.0517 176.36V178.969H23.611V172.459H24.9624V173.752C25.465 172.794 26.2021 172.326 27.1738 172.326C27.2632 172.326 27.3525 172.326 27.4307 172.337Z" fill="#9B823E"/>
<path d="M31.7865 173.429C31.2281 173.429 30.7813 173.63 30.4574 174.031C30.1224 174.444 29.966 174.99 29.966 175.681C29.966 176.405 30.1224 176.963 30.4462 177.375C30.7701 177.798 31.2057 177.999 31.7642 177.999C32.3114 177.999 32.747 177.787 33.0821 177.375C33.406 176.951 33.5735 176.394 33.5735 175.692C33.5735 175.001 33.4172 174.455 33.0933 174.042C32.7694 173.63 32.3338 173.429 31.7865 173.429ZM29.9995 169.974V173.307C30.5133 172.616 31.2281 172.281 32.1327 172.281C33.0039 172.281 33.7075 172.593 34.2325 173.206C34.7574 173.831 35.0143 174.655 35.0143 175.681C35.0143 176.729 34.7462 177.564 34.199 178.2C33.6517 178.835 32.9257 179.147 32.0211 179.147C31.0494 179.147 30.3457 178.79 29.9101 178.077V178.969H28.5587V169.974H29.9995Z" fill="#9B823E"/>
<path d="M40.621 176.494V175.725C40.3418 175.859 39.828 175.982 39.0685 176.082C38.5324 176.16 38.1638 176.271 37.9516 176.428C37.7394 176.584 37.6277 176.829 37.6277 177.163C37.6277 177.81 38.0298 178.133 38.8228 178.133C39.1914 178.133 39.5264 178.066 39.828 177.943C40.1407 177.81 40.3529 177.642 40.4758 177.431C40.5763 177.286 40.621 176.962 40.621 176.494ZM37.8176 174.477H36.4662C36.6002 173.017 37.5719 172.281 39.3812 172.281C40.4088 172.281 41.1571 172.504 41.6038 172.972C41.8942 173.262 42.0394 173.719 42.0394 174.343C42.0394 174.6 42.0282 174.901 42.0171 175.279C42.0171 175.335 42.0171 175.514 42.0059 175.803L41.9947 176.071V176.338V176.851C41.9836 177.029 41.9836 177.119 41.9836 177.141C41.9836 177.542 42.0059 177.787 42.0394 177.888C42.0841 177.977 42.1846 178.032 42.3633 178.032C42.4638 178.032 42.5755 178.021 42.676 177.999V179.013C42.274 179.114 41.9612 179.158 41.7267 179.158C41.1124 179.158 40.7662 178.902 40.688 178.378C40.0737 178.902 39.3031 179.158 38.376 179.158C37.7059 179.158 37.1698 178.991 36.7789 178.634C36.3768 178.289 36.1758 177.81 36.1758 177.219C36.1758 176.439 36.5332 175.881 37.2257 175.558C37.5384 175.402 37.8958 175.313 38.2867 175.279L38.5659 175.246L38.834 175.213L39.102 175.179C39.7833 175.112 40.2077 175.023 40.3753 174.934C40.5316 174.845 40.621 174.655 40.621 174.343C40.621 173.674 40.1742 173.34 39.2919 173.34C38.8116 173.34 38.4654 173.429 38.242 173.608C38.0186 173.775 37.8846 174.065 37.8176 174.477Z" fill="#9B823E"/>
<path d="M49.7124 172.459L47.3 178.846C46.909 179.871 46.5963 180.529 46.3729 180.808C46.0267 181.242 45.5241 181.465 44.8651 181.465C44.5859 181.465 44.262 181.443 43.8711 181.387V180.184C44.195 180.239 44.4519 180.273 44.6194 180.273C44.9545 180.273 45.2114 180.106 45.3566 179.782C45.5576 179.37 45.6805 179.024 45.7251 178.757L43.2345 172.459H44.8205L46.0937 175.959C46.2054 176.283 46.3618 176.784 46.5516 177.475C46.6633 177.074 46.8197 176.539 47.0431 175.87L48.2158 172.459H49.7124Z" fill="#9B823E"/>
<path d="M55.2522 176.528H56.6819C56.559 177.353 56.2351 177.999 55.7102 178.456C55.1852 178.913 54.4928 179.147 53.6551 179.147C52.6834 179.147 51.9128 178.846 51.332 178.233C50.7512 177.62 50.4608 176.806 50.4608 175.792C50.4608 174.722 50.7512 173.875 51.3432 173.24C51.9239 172.604 52.7057 172.281 53.6886 172.281C54.5374 172.281 55.2187 172.482 55.7325 172.894C56.2463 173.318 56.5478 173.897 56.6372 174.655H55.1852C55.0289 173.831 54.5374 173.429 53.7109 173.429C53.1525 173.429 52.7058 173.63 52.3819 174.042C52.0691 174.444 51.9016 175.012 51.9016 175.725C51.9016 176.427 52.058 176.985 52.3707 177.397C52.6722 177.798 53.0967 177.999 53.6328 177.999C54.5598 177.999 55.1071 177.509 55.2522 176.528Z" fill="#9B823E"/>
<path d="M62.1098 176.494V175.725C61.8418 175.859 61.328 175.982 60.5685 176.082C60.0324 176.16 59.6638 176.271 59.4516 176.428C59.2282 176.584 59.1277 176.829 59.1277 177.163C59.1277 177.81 59.5298 178.133 60.3228 178.133C60.6914 178.133 61.0264 178.066 61.328 177.943C61.6295 177.81 61.8529 177.642 61.9758 177.431C62.0651 177.286 62.1098 176.962 62.1098 176.494ZM59.3176 174.477H57.9662C58.1002 173.017 59.0719 172.281 60.8812 172.281C61.9088 172.281 62.6459 172.504 63.1038 172.972C63.3942 173.262 63.5283 173.719 63.5283 174.343C63.5283 174.6 63.5282 174.901 63.5171 175.279C63.5171 175.335 63.5171 175.514 63.5059 175.803L63.4947 176.071V176.338V176.851C63.4836 177.029 63.4836 177.119 63.4836 177.141C63.4836 177.542 63.5059 177.787 63.5394 177.888C63.5841 177.977 63.6846 178.032 63.8633 178.032C63.9638 178.032 64.0755 178.021 64.1649 177.999V179.013C63.774 179.114 63.4612 179.158 63.2267 179.158C62.6124 179.158 62.2662 178.902 62.1768 178.378C61.5737 178.902 60.8031 179.158 59.8649 179.158C59.2059 179.158 58.6698 178.991 58.2789 178.634C57.8768 178.289 57.6758 177.81 57.6758 177.219C57.6758 176.439 58.022 175.881 58.7145 175.558C59.0384 175.402 59.3958 175.313 59.7867 175.279L60.0547 175.246L60.334 175.213L60.602 175.179C61.2833 175.112 61.7077 175.023 61.8753 174.934C62.0316 174.845 62.1098 174.655 62.1098 174.343C62.1098 173.674 61.6742 173.34 60.7919 173.34C60.3116 173.34 59.9654 173.429 59.742 173.608C59.5186 173.775 59.3734 174.065 59.3176 174.477Z" fill="#9B823E"/>
<path d="M66.9571 172.46V173.418C67.5268 172.66 68.2527 172.281 69.1351 172.281C70.0286 172.281 70.654 172.582 71.0226 173.195C71.246 173.552 71.3465 174.098 71.3465 174.811V178.969H69.9057V175.179C69.9057 174.689 69.861 174.343 69.7829 174.109C69.6265 173.697 69.2468 173.485 68.6325 173.485C67.9623 173.485 67.5044 173.753 67.2475 174.321C67.1135 174.611 67.0465 175.079 67.0465 175.703V178.958H65.6057V172.46H66.9571Z" fill="#9B823E"/>
<path d="M78.662 171.3V174.087H80.7506C81.4989 174.087 82.0238 173.975 82.3366 173.764C82.6493 173.552 82.8057 173.184 82.8057 172.66C82.8057 171.746 82.1802 171.3 80.9516 171.3H78.662ZM77.076 169.974H81.3537C82.169 169.974 82.7945 170.108 83.2524 170.375C84.0007 170.821 84.3805 171.523 84.3805 172.471C84.3805 173.597 83.889 174.343 82.895 174.7C83.3194 174.789 83.6433 175.012 83.8779 175.369C84.0342 175.614 84.1347 175.926 84.1906 176.316C84.2018 176.394 84.2241 176.628 84.2576 177.018L84.3134 177.564C84.3805 178.244 84.481 178.668 84.6262 178.846L84.7155 178.969H83.0179C82.9844 178.913 82.9397 178.779 82.8838 178.59C82.8392 178.389 82.8057 178.189 82.7833 177.977L82.7386 177.163C82.6828 176.439 82.5264 175.937 82.2472 175.67C81.968 175.402 81.4766 175.257 80.7618 175.257H78.662V178.969H77.076V169.974Z" fill="#9B823E"/>
<path d="M87.4073 175.101H90.7803C90.7356 174.566 90.5569 174.143 90.2665 173.819C89.9649 173.507 89.5852 173.351 89.1273 173.351C88.1332 173.351 87.5636 173.931 87.4073 175.101ZM90.7468 176.929H92.1317C91.9642 177.631 91.6067 178.166 91.093 178.556C90.568 178.946 89.9314 179.147 89.1719 179.147C88.2003 179.147 87.4296 178.835 86.8377 178.222C86.2457 177.609 85.9553 176.795 85.9553 175.792C85.9553 174.767 86.2457 173.92 86.8488 173.262C87.4408 172.604 88.2003 172.281 89.1273 172.281C90.099 172.281 90.8584 172.616 91.4057 173.284C91.953 173.953 92.221 174.878 92.2099 176.06H87.3849C87.4408 177.408 88.0327 178.077 89.1719 178.077C89.9426 178.077 90.4675 177.698 90.7468 176.929Z" fill="#9B823E"/>
<path d="M98.7772 174.343H97.4034C97.314 173.674 96.8561 173.329 96.0185 173.329C95.2255 173.329 94.8346 173.585 94.8346 174.087C94.8346 174.343 94.9351 174.521 95.125 174.622C95.3148 174.733 95.7727 174.867 96.4876 175.023C97.4369 175.224 98.0959 175.48 98.4644 175.77C98.8442 176.06 99.0229 176.472 99.0229 177.018C99.0229 177.676 98.766 178.188 98.2522 178.579C97.7385 178.958 97.0348 179.147 96.1413 179.147C94.2873 179.147 93.3156 178.389 93.2374 176.884H94.6224C94.7117 177.676 95.2366 178.077 96.1972 178.077C96.6327 178.077 96.979 177.999 97.2247 177.821C97.4816 177.653 97.6044 177.431 97.6044 177.141C97.6044 176.884 97.5039 176.695 97.314 176.572C97.113 176.45 96.6886 176.316 96.052 176.171C95.3372 175.993 94.9016 175.881 94.7564 175.837C94.5442 175.781 94.3543 175.692 94.1756 175.591C93.6507 175.302 93.3938 174.834 93.3938 174.209C93.3938 173.608 93.6283 173.139 94.0974 172.794C94.5665 172.437 95.2143 172.27 96.0408 172.27C97.7496 172.27 98.6655 172.972 98.7772 174.343Z" fill="#9B823E"/>
<path d="M119.618 173.429C119.06 173.429 118.624 173.63 118.289 174.031C117.965 174.444 117.798 174.99 117.798 175.681C117.798 176.405 117.965 176.963 118.289 177.375C118.613 177.798 119.049 177.999 119.596 177.999C120.143 177.999 120.59 177.787 120.914 177.375C121.238 176.951 121.405 176.394 121.405 175.692C121.405 175.001 121.249 174.455 120.925 174.042C120.612 173.63 120.177 173.429 119.618 173.429ZM117.842 169.974V173.307C118.356 172.616 119.06 172.281 119.964 172.281C120.836 172.281 121.539 172.593 122.064 173.206C122.589 173.831 122.857 174.655 122.857 175.681C122.857 176.729 122.578 177.564 122.031 178.2C121.483 178.835 120.757 179.147 119.864 179.147C118.892 179.147 118.189 178.79 117.742 178.077V178.969H116.39V169.974H117.842Z" fill="#9B823E"/>
<path d="M114.414 172.459V178.969H113.062V177.999C112.504 178.768 111.789 179.147 110.907 179.147C110.114 179.147 109.499 178.891 109.086 178.367C108.807 178.01 108.662 177.431 108.662 176.639V172.459H110.114V176.182C110.114 176.684 110.147 177.052 110.225 177.274C110.37 177.72 110.75 177.943 111.387 177.943C112.035 177.943 112.493 177.653 112.761 177.085C112.895 176.795 112.962 176.316 112.962 175.647V172.459H114.414Z" fill="#9B823E"/>
<path d="M103.803 173.429C103.245 173.429 102.798 173.63 102.474 174.031C102.15 174.444 101.983 175.001 101.983 175.703C101.983 176.427 102.15 176.985 102.485 177.397C102.809 177.798 103.267 177.999 103.837 177.999C104.395 177.999 104.831 177.798 105.143 177.397C105.467 176.985 105.624 176.439 105.624 175.748C105.624 175.034 105.456 174.477 105.132 174.053C104.797 173.641 104.362 173.429 103.803 173.429ZM101.949 172.46V173.318C102.463 172.627 103.166 172.281 104.082 172.281C104.976 172.281 105.702 172.593 106.249 173.217C106.796 173.842 107.076 174.666 107.076 175.703C107.076 176.751 106.808 177.587 106.283 178.211C105.758 178.835 105.054 179.147 104.172 179.147C103.233 179.147 102.53 178.802 102.038 178.122V181.387H100.598V172.46H101.949Z" fill="#9B823E"/>
<path d="M125.984 178.969H124.544V169.974H125.984V178.969Z" fill="#9B823E"/>
<path d="M129.436 178.969H127.984V172.46H129.436V178.969ZM129.436 171.334H127.984V169.974H129.436V171.334Z" fill="#9B823E"/>
<path d="M137.254 172.46L134.752 174.845L137.477 178.969H135.724L133.736 175.815L132.864 176.628V178.969H131.424V169.974H132.864V175.112C133.099 174.845 133.255 174.678 133.311 174.611L135.478 172.46H137.254Z" fill="#9B823E"/>
<path d="M142.592 176.494V175.725C142.313 175.859 141.799 175.982 141.051 176.082C140.515 176.16 140.135 176.271 139.923 176.428C139.711 176.584 139.599 176.829 139.599 177.163C139.599 177.81 140.001 178.133 140.805 178.133C141.163 178.133 141.498 178.066 141.811 177.943C142.112 177.81 142.324 177.642 142.458 177.431C142.548 177.286 142.592 176.962 142.592 176.494ZM139.789 174.477H138.438C138.572 173.017 139.543 172.281 141.364 172.281C142.391 172.281 143.129 172.504 143.575 172.972C143.866 173.262 144.011 173.719 144.011 174.343C144.011 174.6 144 174.901 144 175.279C144 175.335 143.989 175.514 143.989 175.803L143.966 176.071V176.338V176.851C143.955 177.029 143.955 177.119 143.955 177.141C143.955 177.542 143.977 177.787 144.011 177.888C144.056 177.977 144.167 178.032 144.335 178.032C144.446 178.032 144.547 178.021 144.648 177.999V179.013C144.245 179.114 143.933 179.158 143.698 179.158C143.084 179.158 142.738 178.902 142.659 178.378C142.056 178.902 141.286 179.158 140.348 179.158C139.677 179.158 139.141 178.991 138.75 178.634C138.348 178.289 138.158 177.81 138.158 177.219C138.158 176.439 138.505 175.881 139.197 175.558C139.51 175.402 139.867 175.313 140.269 175.279L140.537 175.246L140.805 175.213L141.074 175.179C141.766 175.112 142.179 175.023 142.347 174.934C142.503 174.845 142.592 174.655 142.592 174.343C142.592 173.674 142.146 173.34 141.263 173.34C140.783 173.34 140.437 173.429 140.214 173.608C139.99 173.775 139.856 174.065 139.789 174.477Z" fill="#9B823E"/>
<path d="M151.07 174.343H149.696C149.606 173.674 149.137 173.329 148.3 173.329C147.518 173.329 147.116 173.585 147.116 174.087C147.116 174.343 147.216 174.521 147.406 174.622C147.607 174.733 148.054 174.867 148.78 175.023C149.718 175.224 150.377 175.48 150.757 175.77C151.125 176.06 151.315 176.472 151.315 177.018C151.315 177.676 151.058 178.188 150.545 178.579C150.031 178.958 149.327 179.147 148.434 179.147C146.58 179.147 145.608 178.389 145.519 176.884H146.904C146.993 177.676 147.518 178.077 148.49 178.077C148.914 178.077 149.26 177.999 149.517 177.821C149.763 177.653 149.897 177.431 149.897 177.141C149.897 176.884 149.796 176.695 149.595 176.572C149.394 176.45 148.981 176.316 148.333 176.171C147.63 175.993 147.194 175.881 147.038 175.837C146.837 175.781 146.636 175.692 146.457 175.591C145.932 175.302 145.675 174.834 145.675 174.209C145.675 173.608 145.91 173.139 146.379 172.794C146.859 172.437 147.507 172.27 148.322 172.27C150.031 172.27 150.947 172.972 151.07 174.343Z" fill="#9B823E"/>
<path d="M154.331 178.969H152.879V172.459H154.331V178.969Z" fill="#9B823E"/>
<path d="M157.257 172.46V173.418C157.827 172.66 158.553 172.281 159.435 172.281C160.329 172.281 160.954 172.582 161.323 173.195C161.546 173.552 161.658 174.098 161.658 174.811V178.969H160.206V175.179C160.206 174.689 160.161 174.343 160.083 174.109C159.927 173.697 159.547 173.485 158.933 173.485C158.262 173.485 157.804 173.753 157.559 174.321C157.425 174.611 157.358 175.079 157.358 175.703V178.958H155.906V172.46H157.257Z" fill="#9B823E"/>
<path d="M164.673 178.969H163.232V172.459H164.673V178.969Z" fill="#9B823E"/>
<path d="M167.611 172.46V173.418C168.169 172.66 168.895 172.281 169.789 172.281C170.671 172.281 171.308 172.582 171.676 173.195C171.888 173.552 172 174.098 172 174.811V178.969H170.559V175.179C170.559 174.689 170.515 174.343 170.436 174.109C170.28 173.697 169.9 173.485 169.286 173.485C168.616 173.485 168.158 173.753 167.901 174.321C167.767 174.611 167.7 175.079 167.7 175.703V178.958H166.248V172.46H167.611Z" fill="#9B823E"/>
<path d="M37.8176 200.959H36.4215V199.588H37.8176V200.959ZM37.8623 211.147H36.2875V202.152H37.8623V211.147Z" fill="#9B823E"/>
<path d="M41.3135 204.627V205.585C41.8831 204.827 42.609 204.459 43.4914 204.459C44.3849 204.459 45.0103 204.76 45.3901 205.373C45.6023 205.73 45.714 206.276 45.714 206.99V211.147H44.262V207.357C44.262 206.867 44.2174 206.51 44.1392 206.287C43.9828 205.864 43.6031 205.652 42.9888 205.652C42.3187 205.652 41.8607 205.931 41.615 206.488C41.481 206.789 41.414 207.257 41.414 207.881V211.147H39.962V204.627H41.3135Z" fill="#9B823E"/>
<path d="M53.4987 204.627L50.9969 207.023L53.7221 211.147H51.9686L49.9805 207.993L49.1205 208.795V211.147H47.6686V202.152H49.1205V207.291C49.3439 207.023 49.5003 206.856 49.5561 206.789L51.734 204.627H53.4987Z" fill="#9B823E"/>
<path d="M56.3468 211.147H54.906V204.627H56.3468V211.147ZM56.3468 203.512H54.906V202.152H56.3468V203.512Z" fill="#9B823E"/>
<path d="M63.316 206.521H61.9311C61.8418 205.842 61.3838 205.507 60.535 205.507C59.742 205.507 59.3511 205.764 59.3511 206.265C59.3511 206.51 59.4516 206.7 59.6415 206.8C59.8314 206.912 60.2893 207.045 61.0153 207.19C61.9646 207.402 62.6236 207.647 62.9921 207.948C63.3719 208.238 63.5506 208.65 63.5506 209.196C63.5506 209.843 63.2937 210.367 62.7799 210.757C62.3444 211.069 61.7636 211.258 61.0599 211.314L60.6132 211.949C60.8142 211.905 60.9818 211.894 61.0934 211.894C61.4062 211.894 61.6631 211.972 61.8641 212.128C62.0651 212.295 62.1657 212.507 62.1657 212.763C62.1657 213.131 62.0316 213.41 61.7524 213.621C61.4844 213.833 61.1158 213.945 60.6355 213.945C60.2111 213.945 59.7644 213.855 59.3064 213.666L59.541 213.176C59.8537 213.298 60.1553 213.365 60.4457 213.365C60.9147 213.365 61.1493 213.198 61.1493 212.863C61.1493 212.551 60.9371 212.384 60.5127 212.384C60.3898 212.384 60.2334 212.418 60.0547 212.484L59.809 212.25L60.4903 211.325C58.748 211.27 57.8433 210.512 57.7651 209.052H59.1501C59.2394 209.843 59.7644 210.255 60.7249 210.255C61.1605 210.255 61.5067 210.177 61.7524 209.988C62.0093 209.821 62.1321 209.587 62.1321 209.297C62.1321 209.063 62.0428 208.873 61.8418 208.751C61.6407 208.628 61.2163 208.483 60.5797 208.338C59.8649 208.171 59.4405 208.06 59.2841 208.004C59.0719 207.959 58.882 207.87 58.7033 207.77C58.1784 207.48 57.9215 207.001 57.9215 206.388C57.9215 205.786 58.156 205.307 58.6251 204.972C59.1054 204.627 59.742 204.459 60.5685 204.459C62.2773 204.459 63.1932 205.139 63.316 206.521Z" fill="#9B823E"/>
<path d="M69.0904 208.661V207.892C68.8112 208.037 68.2974 208.16 67.5491 208.26C67.0018 208.338 66.6333 208.45 66.421 208.606C66.2088 208.762 66.0972 209.007 66.0972 209.341C66.0972 209.988 66.4992 210.311 67.3034 210.311C67.6608 210.311 67.9959 210.244 68.2974 210.11C68.6101 209.988 68.8223 209.821 68.9452 209.609C69.0346 209.453 69.0904 209.141 69.0904 208.661ZM66.287 206.655H64.9356C65.0696 205.184 66.0413 204.459 67.8507 204.459C68.8782 204.459 69.6265 204.682 70.0733 205.139C70.3636 205.44 70.5088 205.897 70.5088 206.521C70.5088 206.767 70.4977 207.079 70.4865 207.447C70.4865 207.513 70.4865 207.692 70.4753 207.982L70.4642 208.249V208.517V209.029C70.453 209.196 70.453 209.297 70.453 209.308C70.453 209.72 70.4753 209.966 70.5088 210.066C70.5535 210.155 70.654 210.2 70.8327 210.2C70.9333 210.2 71.0449 210.2 71.1455 210.177V211.192C70.7434 211.292 70.4307 211.336 70.1961 211.336C69.5818 211.336 69.2356 211.08 69.1574 210.556C68.5543 211.08 67.7836 211.336 66.8455 211.336C66.1753 211.336 65.6392 211.158 65.2483 210.813C64.8462 210.456 64.6564 209.988 64.6564 209.397C64.6564 208.606 65.0026 208.06 65.6951 207.736C66.0078 207.58 66.3652 207.491 66.7561 207.447L67.0353 207.424L67.3034 207.38L67.5714 207.357C68.2527 207.291 68.6772 207.201 68.8447 207.112C69.001 207.023 69.0904 206.822 69.0904 206.521C69.0904 205.853 68.6436 205.518 67.7613 205.518C67.281 205.518 66.9348 205.608 66.7114 205.775C66.4881 205.953 66.354 206.243 66.287 206.655Z" fill="#9B823E"/>
<path d="M75.6465 202.13V203.255C75.4008 203.233 75.1886 203.211 75.0322 203.211C74.7642 203.211 74.5743 203.278 74.4626 203.389C74.3621 203.512 74.3063 203.712 74.3063 203.991V204.626H75.5237V205.685H74.3063V211.147H72.8543V205.685H71.7821V204.626H72.8543V204.236C72.8543 203.489 72.9883 202.966 73.2452 202.676C73.6026 202.286 74.1387 202.096 74.8759 202.096C75.0657 202.096 75.3226 202.107 75.6465 202.13Z" fill="#9B823E"/>
<path d="M78.3159 211.147H76.8751V204.626H78.3159V211.147Z" fill="#9B823E"/>
<path d="M88.8928 207.558L88.1556 205.552C87.9322 204.972 87.7312 204.348 87.5302 203.657C87.4073 204.081 87.1951 204.705 86.8935 205.518L86.1452 207.558H88.8928ZM88.3902 202.152L91.8525 211.147H90.166L89.2948 208.762H85.7431L84.8496 211.147H83.219L86.7037 202.152H88.3902Z" fill="#9B823E"/>
<path d="M95.8509 205.607C95.326 205.607 94.9127 205.797 94.6112 206.187C94.3096 206.577 94.1532 207.112 94.1532 207.77C94.1532 208.439 94.3096 208.962 94.6112 209.352C94.9127 209.743 95.326 209.932 95.8509 209.932C96.3982 209.932 96.8226 209.743 97.1353 209.341C97.4592 208.951 97.6156 208.427 97.6156 207.747C97.6156 207.079 97.4592 206.544 97.1465 206.165C96.8338 205.786 96.3982 205.607 95.8509 205.607ZM99.0117 204.627V210.389C99.0117 211.336 98.8665 212.039 98.5761 212.496C98.0735 213.298 97.1688 213.699 95.8621 213.699C94.0862 213.699 93.1034 213.031 92.9247 211.704H94.3878C94.5218 212.351 95.0244 212.674 95.8956 212.674C96.4987 212.674 96.9343 212.518 97.2135 212.217C97.4816 211.905 97.6156 211.426 97.6156 210.757V209.988C97.1688 210.712 96.4764 211.08 95.5493 211.08C94.6782 211.08 93.9969 210.79 93.4719 210.2C92.9693 209.609 92.7013 208.817 92.7013 207.826C92.7013 206.811 92.9693 205.998 93.5166 205.373C94.0416 204.76 94.7564 204.459 95.6499 204.459C96.4987 204.459 97.1688 204.816 97.6603 205.552V204.627H99.0117Z" fill="#9B823E"/>
<path d="M102.072 207.279H105.445C105.4 206.744 105.222 206.321 104.931 205.998C104.63 205.686 104.25 205.518 103.792 205.518C102.798 205.518 102.228 206.109 102.072 207.279ZM105.411 209.107H106.796C106.629 209.798 106.271 210.344 105.758 210.735C105.233 211.125 104.596 211.325 103.837 211.325C102.865 211.325 102.094 211.013 101.502 210.4C100.91 209.787 100.62 208.974 100.62 207.959C100.62 206.934 100.91 206.098 101.514 205.44C102.105 204.783 102.865 204.459 103.792 204.459C104.764 204.459 105.523 204.794 106.07 205.463C106.618 206.131 106.886 207.056 106.875 208.238H102.05C102.105 209.587 102.697 210.255 103.837 210.255C104.607 210.255 105.132 209.876 105.411 209.107Z" fill="#9B823E"/>
<path d="M109.812 204.627V205.585C110.382 204.827 111.108 204.459 111.99 204.459C112.883 204.459 113.509 204.76 113.877 205.373C114.101 205.73 114.201 206.276 114.201 206.99V211.147H112.761V207.357C112.761 206.867 112.716 206.51 112.638 206.287C112.481 205.864 112.102 205.652 111.487 205.652C110.817 205.652 110.359 205.931 110.102 206.488C109.968 206.789 109.901 207.257 109.901 207.881V211.147H108.461V204.627H109.812Z" fill="#9B823E"/>
<path d="M119.138 204.626V205.685H117.831V209.107C117.831 209.653 117.943 209.954 118.166 210.032C118.267 210.054 118.412 210.065 118.602 210.065C118.747 210.065 118.926 210.054 119.138 210.032V211.158C118.792 211.191 118.479 211.213 118.211 211.213C117.362 211.213 116.815 211.013 116.58 210.589C116.446 210.355 116.379 209.753 116.379 208.784V205.685H115.285V204.626H116.379V202.676H117.831V204.626H119.138Z" fill="#9B823E"/>
<path d="M122.087 211.147H120.646V202.152H122.087V211.147Z" fill="#9B823E"/>
<path d="M125.538 211.147H124.086V204.627H125.538V211.147ZM125.538 203.512H124.086V202.152H125.538V203.512Z" fill="#9B823E"/>
<path d="M133.132 204.626L130.709 211.024C130.329 212.05 130.016 212.707 129.793 212.986C129.447 213.421 128.933 213.643 128.285 213.643C128.006 213.643 127.682 213.621 127.291 213.565V212.362C127.615 212.417 127.861 212.44 128.039 212.44C128.375 212.44 128.631 212.284 128.777 211.96C128.978 211.548 129.101 211.203 129.145 210.935L126.655 204.626H128.241L129.514 208.137C129.625 208.461 129.782 208.962 129.972 209.653C130.083 209.252 130.24 208.717 130.452 208.048L131.636 204.626H133.132Z" fill="#9B823E"/>
<path d="M135.713 211.147H134.272V204.627H135.713V211.147ZM135.713 203.512H134.272V202.152H135.713V203.512Z" fill="#9B823E"/>
<path fill-rule="evenodd" clip-rule="evenodd" d="M126.565 112.082C125.951 112.082 125.459 112.584 125.459 113.186C125.448 134.965 107.69 152.676 85.866 152.676H85.8325C64.0086 152.653 46.2501 134.92 46.2725 113.13C46.2948 87.6285 62.5566 68.3016 80.1364 51.2151L81.5213 49.8776L83.7662 49.2645L85.9888 53.1433L88.2114 49.2645L92.5449 50.446L91.3722 46.1103L95.259 43.8922L91.3722 41.6742L92.5449 37.3608L88.2114 38.5422L85.9888 34.6523L83.7662 38.5422L79.4439 37.3608L80.6166 41.6742L76.7299 43.8922L80.6166 46.1103L80.047 48.228L78.5951 49.6435C60.6691 67.0644 44.0834 86.8148 44.0611 113.13C44.0387 136.135 62.78 154.86 85.8325 154.882H85.866C108.907 154.882 127.66 136.191 127.671 113.197C127.671 112.584 127.179 112.082 126.565 112.082Z" fill="#9B823E"/>
<path fill-rule="evenodd" clip-rule="evenodd" d="M89.6857 34.697C90.3335 34.9757 91.026 34.92 91.6068 34.5187C96.5881 31.1192 100.721 26.3265 103.334 20.3969C105.936 14.4674 106.674 8.2034 105.814 2.24037C105.713 1.54933 105.3 0.992041 104.652 0.713395C104.015 0.434749 103.312 0.490478 102.731 0.891728C97.7496 4.28006 93.6172 9.06162 91.0148 15.0024C88.4013 20.9096 87.6642 27.1959 88.5242 33.1589C88.6247 33.85 89.0491 34.4073 89.6857 34.6859V34.697Z" fill="#9B823E"/>
<path fill-rule="evenodd" clip-rule="evenodd" d="M82.2919 53.1099C81.6553 52.8312 80.9628 52.887 80.3709 53.2882C75.3896 56.6877 71.2683 61.4693 68.6659 67.3988C66.0412 73.3173 65.3041 79.5812 66.1641 85.5665C66.2758 86.2576 66.689 86.8149 67.3368 87.0935C67.9735 87.3722 68.6659 87.3053 69.2467 86.9152C74.2392 83.5157 78.3605 78.7119 80.974 72.7934C83.5875 66.8638 84.3246 60.5999 83.4646 54.6369C83.3529 53.9347 82.9397 53.3885 82.2919 53.1099Z" fill="#9B823E"/>
<path fill-rule="evenodd" clip-rule="evenodd" d="M80.1811 34.5298C80.7395 34.9533 81.432 35.0425 82.0798 34.7862C82.7387 34.5298 83.1855 34.006 83.3083 33.3038C84.4252 27.3853 83.945 21.0879 81.5995 15.0469C79.2429 9.01699 75.3226 4.06824 70.4865 0.45699C69.9281 0.0445943 69.2356 -0.0557182 68.5878 0.200636C67.9289 0.45699 67.4821 0.99199 67.3593 1.68303C66.2424 7.60147 66.7115 13.8989 69.0793 19.9288C71.4135 25.9587 75.3338 30.9074 80.1811 34.5187V34.5298Z" fill="#9B823E"/>
<path fill-rule="evenodd" clip-rule="evenodd" d="M89.8979 53.0206C89.2501 53.277 88.8033 53.812 88.6693 54.503C87.5524 60.4215 88.0215 66.7189 90.3893 72.7488C92.7348 78.7787 96.655 83.7386 101.491 87.3498C102.061 87.7622 102.742 87.8737 103.401 87.6173C104.049 87.3498 104.496 86.826 104.63 86.1238C105.746 80.2165 105.266 73.9079 102.921 67.878C100.553 61.8481 96.6439 56.8882 91.8078 53.2881C91.2382 52.8646 90.5569 52.7643 89.8979 53.0206Z" fill="#9B823E"/>
<path fill-rule="evenodd" clip-rule="evenodd" d="M57.0393 38.8877C62.9699 41.507 69.2468 42.2426 75.2445 41.3844C75.9369 41.2729 76.4954 40.8605 76.7746 40.2252C77.0538 39.5787 76.9868 38.8877 76.5959 38.3081C73.1894 33.3371 68.3756 29.2131 62.445 26.605C56.5032 24.008 50.2263 23.2724 44.251 24.1306C43.5473 24.2309 43.0001 24.6433 42.7208 25.2898C42.4416 25.9251 42.4975 26.6273 42.8995 27.2069C46.306 32.1779 51.0975 36.2907 57.0393 38.8877Z" fill="#9B823E"/>
<path fill-rule="evenodd" clip-rule="evenodd" d="M114.95 48.9077C109.008 46.3107 102.72 45.5751 96.7444 46.4333C96.0519 46.5448 95.5047 46.9572 95.2143 47.5925C94.9462 48.239 95.0021 48.93 95.4041 49.5096C98.7995 54.4806 103.602 58.6046 109.544 61.2016C115.475 63.8097 121.751 64.5453 127.738 63.6871C128.442 63.5868 128.989 63.1744 129.268 62.5279C129.547 61.8926 129.491 61.2016 129.089 60.6108C125.683 55.6398 120.88 51.527 114.95 48.9077Z" fill="#9B823E"/>
<path fill-rule="evenodd" clip-rule="evenodd" d="M61.9758 60.7893C68.0182 58.4598 72.9771 54.5476 76.607 49.7103C77.0202 49.1419 77.1208 48.462 76.8639 47.8155C76.607 47.1579 76.0709 46.7121 75.3784 46.5783C69.4478 45.4749 63.1262 45.9542 57.0839 48.2836C51.0415 50.6466 46.0826 54.5587 42.4639 59.3849C42.0395 59.9422 41.9501 60.6332 42.207 61.2797C42.4639 61.9261 42.9888 62.3831 43.6924 62.5057C49.6231 63.6203 55.9223 63.1522 61.9758 60.7893Z" fill="#9B823E"/>
<path fill-rule="evenodd" clip-rule="evenodd" d="M129.793 26.5384C129.536 25.892 129.011 25.435 128.308 25.3124C122.377 24.1978 116.066 24.6771 110.024 27.0177C103.971 29.3695 99.0117 33.2817 95.393 38.1078C94.9797 38.6762 94.8792 39.3561 95.1361 40.0026C95.393 40.6602 95.9291 41.106 96.6216 41.2398C102.552 42.3544 108.863 41.8751 114.905 39.5233C120.947 37.1827 125.906 33.2705 129.536 28.4332C129.961 27.8759 130.05 27.1849 129.793 26.5384Z" fill="#9B823E"/>
<path fill-rule="evenodd" clip-rule="evenodd" d="M60.267 114.056L66.4769 108.661H69.1909L64.1873 113.052L69.6935 120.698H67.2922L62.7354 114.401L60.267 116.474V120.698H58.2902V108.661H60.267V114.056ZM75.3226 120.999C73.6026 120.999 72.0837 120.442 70.8663 119.216C69.6377 117.979 69.1016 116.441 69.1016 114.713C69.1016 112.986 69.6377 111.447 70.8774 110.21C72.0948 108.984 73.6026 108.427 75.3226 108.427C77.0538 108.427 78.5728 108.984 79.8013 110.21C81.0299 111.447 81.5772 112.986 81.5772 114.713C81.5772 116.441 81.0299 117.979 79.8013 119.216C78.5728 120.442 77.0538 120.999 75.3226 120.999ZM93.472 113.888C93.9299 114.2 94.3208 114.591 94.6112 115.07C94.9686 115.649 95.125 116.296 95.125 116.976C95.125 118.035 94.7899 118.982 93.9858 119.695C93.1481 120.442 92.0647 120.698 90.9702 120.698H83.5317V108.683H90.6016C91.5509 108.683 92.6008 108.85 93.3491 109.475C94.0639 110.065 94.3096 110.912 94.3096 111.815C94.3096 112.283 94.2315 112.74 94.0193 113.164C93.8741 113.442 93.6954 113.688 93.472 113.888ZM97.4704 120.698V108.616H99.4696V120.698H97.4704ZM97.1465 105.897C97.1465 105.529 97.2806 105.217 97.5374 104.961C97.7943 104.715 98.1071 104.582 98.4645 104.582C98.833 104.582 99.1346 104.704 99.3915 104.961C99.6483 105.217 99.7712 105.54 99.7712 105.897C99.7712 106.253 99.6483 106.566 99.3915 106.822C99.1346 107.067 98.8219 107.19 98.4645 107.19C98.1071 107.19 97.7943 107.056 97.5374 106.811C97.2917 106.554 97.1465 106.253 97.1465 105.897ZM110.147 117.611H104.138L102.619 120.698H100.475L106.383 108.683H107.913L113.877 120.698H111.711L110.147 117.611ZM75.3226 119.105C76.5065 119.105 77.5229 118.726 78.3382 117.867C79.1759 116.998 79.5333 115.917 79.5333 114.713C79.5333 113.509 79.1759 112.428 78.3382 111.548C77.5229 110.701 76.5065 110.322 75.3226 110.322C74.1499 110.322 73.1335 110.701 72.3182 111.559C71.4806 112.428 71.1232 113.509 71.1232 114.713C71.1232 115.917 71.4694 116.998 72.3182 117.867C73.1335 118.726 74.1499 119.105 75.3226 119.105ZM85.5086 118.826H91.2494C91.752 118.826 92.2322 118.703 92.6008 118.336C92.9582 117.968 93.0811 117.466 93.0811 116.953C93.0811 116.441 92.9582 115.95 92.6008 115.582C92.2322 115.204 91.752 115.081 91.2494 115.081H85.5086V118.826ZM85.5086 113.208H90.7245C91.1377 113.208 91.6068 113.142 91.9307 112.863C92.2211 112.618 92.3104 112.272 92.3104 111.893C92.3104 111.525 92.2434 111.146 91.9419 110.89C91.6291 110.611 91.1265 110.556 90.7245 110.556H85.5086V113.208ZM105.065 115.727H109.242L107.143 111.537L105.065 115.727Z" fill="#977E2E"/>
</g>
<defs>
<clipPath id="clip0_1521_7496">
<rect width="172" height="214" fill="white"/>
</clipPath>
</defs>
</svg>
