<svg width="131" height="114" viewBox="0 0 131 114" fill="none" xmlns="http://www.w3.org/2000/svg">
<path fill-rule="evenodd" clip-rule="evenodd" d="M7.67392 109.585C7.67392 110.564 7.80573 111.218 8.07136 111.545C8.33842 111.868 8.84651 112.048 9.59958 112.078V113.088H4.59875V112.078C5.34492 112.048 5.85353 111.868 6.12058 111.545C6.39164 111.218 6.52494 110.564 6.52494 109.585V102.104C6.52494 101.264 6.43489 100.734 6.2544 100.515C6.07385 100.298 5.74431 100.173 5.26378 100.143L4.67357 100.104V99.0869H10.6251L13.8699 108.077L16.9829 99.0869H22.9049V100.104L22.3447 100.143C21.8641 100.173 21.5327 100.298 21.3541 100.515C21.1736 100.734 21.0831 101.264 21.0831 102.104V110.078C21.0831 110.916 21.1716 111.438 21.3487 111.656C21.5258 111.875 21.8573 112.004 22.3447 112.031L22.9049 112.078V113.088H15.9298V112.078L16.4138 112.031C16.9067 111.997 17.2431 111.866 17.4202 111.652C17.5973 111.438 17.6858 110.916 17.6858 110.078V100.199L13.169 113.088H12.2581L7.67392 100.22V109.585Z" fill="black"/>
<path fill-rule="evenodd" clip-rule="evenodd" d="M25.1443 99.1918C25.1443 98.7422 25.3036 98.3866 25.6229 98.1264C25.9426 97.8608 26.3779 97.731 26.9278 97.731C27.4796 97.731 27.91 97.8594 28.2243 98.121C28.5381 98.3782 28.6926 98.7353 28.6926 99.1918C28.6926 99.6428 28.5381 99.995 28.2243 100.254C27.91 100.516 27.4796 100.646 26.9278 100.646C26.3779 100.646 25.9426 100.516 25.6229 100.254C25.3036 99.995 25.1443 99.6428 25.1443 99.1918ZM25.5343 105.154C25.5343 104.385 25.4463 103.915 25.2727 103.733C25.099 103.554 24.705 103.443 24.0907 103.409V102.478H24.4798C25.2205 102.478 25.9352 102.45 26.6257 102.397C27.3148 102.341 27.9793 102.265 28.6178 102.164V110.399C28.6178 111.191 28.6926 111.673 28.8451 111.846C28.9981 112.024 29.3035 112.117 29.7668 112.136V113.087H24.0907V112.136C24.6913 112.11 25.0833 112.01 25.2623 111.827C25.4428 111.651 25.5343 111.172 25.5343 110.399V105.154Z" fill="black"/>
<path fill-rule="evenodd" clip-rule="evenodd" d="M35.1658 110.4C35.1658 111.191 35.242 111.673 35.393 111.847C35.546 112.024 35.8529 112.118 36.3143 112.137V113.088H30.6406V112.137C31.2407 112.11 31.6312 112.01 31.8117 111.828C31.9923 111.651 32.0823 111.172 32.0823 110.4V101.464C32.0823 100.702 31.9938 100.235 31.8206 100.056C31.647 99.8813 31.253 99.7716 30.6406 99.7352V98.7864H31.1994C31.888 98.7864 32.5629 98.7535 33.2259 98.689C33.8869 98.6285 34.5342 98.5346 35.1658 98.4165V110.4Z" fill="black"/>
<path fill-rule="evenodd" clip-rule="evenodd" d="M41.7143 110.4C41.7143 111.191 41.7906 111.673 41.9416 111.847C42.0941 112.024 42.4015 112.118 42.8629 112.137V113.088H37.1873V112.137C37.7893 112.11 38.1793 112.01 38.3598 111.828C38.5389 111.651 38.6309 111.172 38.6309 110.4V101.464C38.6309 100.702 38.5423 100.235 38.3687 100.056C38.195 99.8813 37.8011 99.7716 37.1873 99.7352V98.7864H37.7474C38.4365 98.7864 39.1114 98.7535 39.7725 98.689C40.4355 98.6285 41.0808 98.5346 41.7143 98.4165V110.4Z" fill="black"/>
<path fill-rule="evenodd" clip-rule="evenodd" d="M44.789 99.1918C44.789 98.7422 44.9484 98.3866 45.2676 98.1264C45.5874 97.8608 46.0226 97.731 46.5726 97.731C47.1244 97.731 47.5548 97.8594 47.8691 98.121C48.1814 98.3782 48.3374 98.7353 48.3374 99.1918C48.3374 99.6428 48.1814 99.995 47.8691 100.254C47.5548 100.516 47.1244 100.646 46.5726 100.646C46.0226 100.646 45.5874 100.516 45.2676 100.254C44.9484 99.995 44.789 99.6428 44.789 99.1918ZM45.1776 105.154C45.1776 104.385 45.0911 103.915 44.9174 103.733C44.7438 103.554 44.3498 103.443 43.7355 103.409V102.478H44.1245C44.8653 102.478 45.5799 102.45 46.269 102.397C46.9577 102.341 47.6227 102.265 48.2626 102.164V110.399C48.2626 111.191 48.3374 111.673 48.4903 111.846C48.6428 112.024 48.9482 112.117 49.4116 112.136V113.087H43.7355V112.136C44.336 112.11 44.7266 112.01 44.9071 111.827C45.0876 111.651 45.1776 111.172 45.1776 110.399V105.154Z" fill="black"/>
<path fill-rule="evenodd" clip-rule="evenodd" d="M61.3776 106.035V110.078C61.3776 111.041 61.5025 111.631 61.7523 111.849C62.0022 112.068 62.4842 112.174 63.1994 112.174C64.1866 112.174 64.9396 111.914 65.4585 111.383C65.9774 110.853 66.2357 110.086 66.2357 109.082C66.2357 107.987 65.9095 107.204 65.2588 106.727C64.6066 106.253 63.529 106.016 62.0228 106.016C61.9466 106.016 61.8374 106.019 61.6948 106.024C61.5526 106.031 61.4469 106.035 61.3776 106.035ZM61.3776 102.104V105.001C61.4848 105.006 61.6013 105.011 61.7297 105.014C61.8547 105.018 62.0351 105.02 62.2693 105.02C63.5151 105.02 64.3985 104.831 64.917 104.446C65.4359 104.062 65.6961 103.419 65.6961 102.516C65.6961 101.768 65.4757 101.178 65.035 100.75C64.5963 100.319 63.9992 100.104 63.2481 100.104C62.495 100.104 61.9933 100.207 61.7469 100.41C61.5005 100.609 61.3776 101.176 61.3776 102.104ZM62.2501 99.0869C64.8393 99.0869 66.6611 99.3456 67.7211 99.8522C68.7815 100.361 69.3108 101.213 69.3108 102.4C69.3108 103.26 68.9498 103.954 68.2243 104.477C67.5008 104.995 66.4231 105.336 64.9937 105.487C66.7147 105.724 67.9832 106.146 68.7988 106.752C69.6162 107.357 70.022 108.169 70.022 109.195C70.022 109.798 69.8937 110.345 69.6335 110.843C69.3747 111.341 68.995 111.766 68.4953 112.12C67.9956 112.466 67.3517 112.717 66.5637 112.866C65.7762 113.012 64.6169 113.085 63.0848 113.085H56.0349V112.078L56.6232 112.032C57.0983 112 57.421 111.879 57.5966 111.667C57.7697 111.455 57.8568 110.925 57.8568 110.078V102.104C57.8568 101.251 57.7697 100.72 57.5966 100.506C57.421 100.295 57.0949 100.173 56.6123 100.142L56.0349 100.104V99.0869H62.2501Z" fill="black"/>
<path fill-rule="evenodd" clip-rule="evenodd" d="M71.5986 112.137C72.1992 112.111 72.5898 112.01 72.7703 111.828C72.9508 111.651 73.0408 111.172 73.0408 110.4V105.155C73.0408 104.38 72.9508 103.905 72.7703 103.718C72.5898 103.535 72.1992 103.431 71.5986 103.409V102.479H71.9685C72.664 102.479 73.3394 102.451 73.995 102.397C74.6492 102.342 75.2842 102.267 75.8971 102.165V104.726C76.2458 103.947 76.6535 103.353 77.1218 102.946C77.5906 102.539 78.0937 102.336 78.6298 102.336C79.1935 102.336 79.6588 102.52 80.0248 102.895C80.3927 103.27 80.5766 103.742 80.5766 104.316C80.5766 104.816 80.4256 105.222 80.1256 105.526C79.8256 105.833 79.4316 105.987 78.9436 105.987C78.557 105.987 78.2412 105.883 77.9948 105.673C77.7484 105.465 77.6249 105.196 77.6249 104.87C77.6249 104.835 77.6284 104.785 77.6338 104.709C77.6407 104.632 77.6426 104.577 77.6426 104.535C77.6426 104.41 77.6181 104.314 77.5679 104.255C77.5177 104.196 77.4376 104.165 77.3303 104.165C76.926 104.165 76.624 104.514 76.4243 105.217C76.2246 105.913 76.1243 106.968 76.1243 108.378V110.4C76.1243 111.172 76.2266 111.649 76.4298 111.823C76.6309 112.003 77.0943 112.104 77.8143 112.137V113.088H71.5986V112.137Z" fill="black"/>
<path fill-rule="evenodd" clip-rule="evenodd" d="M86.6401 112.403C87.2731 112.403 87.7227 112.063 87.9863 111.377C88.2534 110.697 88.3857 109.495 88.3857 107.78C88.3857 106.078 88.2554 104.883 87.9918 104.192C87.7296 103.496 87.2908 103.149 86.678 103.149C86.0518 103.149 85.6077 103.489 85.3435 104.171C85.0819 104.85 84.95 106.056 84.95 107.78C84.95 109.495 85.0784 110.697 85.3352 111.377C85.592 112.063 86.0257 112.403 86.6401 112.403ZM86.6588 102.165C88.2156 102.165 89.4698 102.677 90.4211 103.699C91.3733 104.725 91.8489 106.085 91.8489 107.78C91.8489 109.46 91.3699 110.815 90.4122 111.849C89.4545 112.882 88.2017 113.399 86.6588 113.399C85.1148 113.399 83.8636 112.882 82.9059 111.849C81.9463 110.815 81.4672 109.46 81.4672 107.78C81.4672 106.085 81.9408 104.725 82.8921 103.699C83.8409 102.677 85.0957 102.165 86.6588 102.165Z" fill="black"/>
<path fill-rule="evenodd" clip-rule="evenodd" d="M100.031 113.086V112.137C100.359 112.102 100.577 112.048 100.685 111.984C100.792 111.922 100.848 111.822 100.848 111.69C100.848 111.621 100.817 111.519 100.756 111.38C100.697 111.241 100.616 111.092 100.515 110.932L98.6929 108.093L97.6206 109.121V110.365C97.6206 111.156 97.6949 111.637 97.8425 111.817C97.992 111.991 98.3008 112.102 98.7691 112.137V113.086H93.0935V112.137C93.6955 112.11 94.0861 112.008 94.2666 111.828C94.4466 111.649 94.5352 111.172 94.5352 110.4V101.464C94.5352 100.702 94.4486 100.235 94.275 100.056C94.1013 99.8808 93.7079 99.7716 93.0935 99.7352V98.7844H93.6537C94.3428 98.7844 95.0176 98.7529 95.6807 98.689C96.3417 98.6265 96.9871 98.5346 97.6206 98.4146V107.84L99.5467 105.722C99.984 105.23 100.259 104.882 100.378 104.682C100.494 104.483 100.553 104.304 100.553 104.15C100.553 103.92 100.44 103.738 100.216 103.605C99.9924 103.473 99.6835 103.407 99.2915 103.407V102.477H104.577V103.407H104.386C104.007 103.407 103.626 103.506 103.244 103.695C102.861 103.888 102.495 104.168 102.148 104.535L100.752 106.037L103.437 110.507C103.836 111.165 104.164 111.595 104.421 111.797C104.676 111.998 104.976 112.11 105.316 112.137V113.086H100.031Z" fill="black"/>
<path fill-rule="evenodd" clip-rule="evenodd" d="M109.577 106.575H112.329V105.541C112.329 104.715 112.223 104.114 112.011 103.747C111.8 103.381 111.46 103.198 110.991 103.198C110.549 103.198 110.202 103.405 109.952 103.812C109.702 104.226 109.577 104.804 109.577 105.541V106.575ZM109.558 107.562V108.057C109.558 109.516 109.749 110.578 110.127 111.232C110.507 111.888 111.121 112.212 111.968 112.212C112.627 112.212 113.183 112.009 113.634 111.6C114.087 111.192 114.404 110.606 114.588 109.842H115.641C115.446 110.986 114.986 111.867 114.26 112.478C113.537 113.094 112.594 113.401 111.437 113.401C109.825 113.401 108.533 112.891 107.566 111.873C106.598 110.852 106.114 109.492 106.114 107.779C106.114 106.11 106.575 104.753 107.498 103.712C108.423 102.665 109.612 102.144 111.068 102.144C112.44 102.144 113.518 102.61 114.304 103.543C115.088 104.477 115.48 105.759 115.48 107.394V107.562H109.558Z" fill="black"/>
<path fill-rule="evenodd" clip-rule="evenodd" d="M116.799 112.137C117.401 112.111 117.791 112.01 117.97 111.828C118.151 111.651 118.243 111.172 118.243 110.4V105.155C118.243 104.38 118.151 103.905 117.97 103.718C117.791 103.535 117.401 103.431 116.799 103.409V102.479H117.169C117.865 102.479 118.541 102.451 119.195 102.397C119.849 102.342 120.485 102.267 121.099 102.165V104.726C121.446 103.947 121.854 103.353 122.322 102.946C122.791 102.539 123.294 102.336 123.832 102.336C124.394 102.336 124.859 102.52 125.227 102.895C125.593 103.27 125.777 103.742 125.777 104.316C125.777 104.816 125.626 105.222 125.326 105.526C125.026 105.833 124.632 105.987 124.144 105.987C123.759 105.987 123.443 105.883 123.196 105.673C122.949 105.465 122.826 105.196 122.826 104.87C122.826 104.835 122.829 104.785 122.836 104.709C122.841 104.632 122.844 104.577 122.844 104.535C122.844 104.41 122.818 104.314 122.768 104.255C122.718 104.196 122.638 104.165 122.532 104.165C122.126 104.165 121.824 104.514 121.625 105.217C121.427 105.913 121.326 106.968 121.326 108.378V110.4C121.326 111.172 121.427 111.649 121.63 111.823C121.831 112.003 122.294 112.104 123.017 112.137V113.088H116.799V112.137Z" fill="black"/>
<path d="M31.4903 44.7472L26.2727 80.0011C25.6981 83.7874 25.1276 85.1042 23.4636 85.4494C22.8321 85.564 22.202 85.564 21.7441 85.6216C20.9403 85.6216 20.597 85.8503 20.597 86.1941C20.597 86.7686 21.2856 86.7686 21.8567 86.7686C23.9771 86.7686 26.672 86.5984 28.4501 86.5984C30.1701 86.5984 33.3245 86.7686 35.8458 86.7686C36.7621 86.7686 36.9928 86.5984 36.9928 86.1365C36.9928 85.7913 36.8207 85.6216 35.9619 85.6216C35.2157 85.564 34.7007 85.505 33.84 85.3353C32.4081 85.0471 31.8322 84.3619 31.8322 82.6974C31.8322 81.8386 31.8322 80.5736 32.0614 78.1098L33.7254 61.9433C34.8148 63.8935 37.3381 68.5957 38.3095 70.2563C40.489 73.9246 43.5828 80.1397 45.5886 83.3536C46.9545 85.4966 47.9122 87.6466 48.2993 88.1689C46.231 83.5149 47.2059 79.6558 47.6589 76.0086C47.9904 73.3432 47.411 70.9242 48.3042 67.7281L34.9279 44.8584C33.7254 43.0852 33.3245 42.5107 32.6929 42.5107C32.1204 42.5107 31.7176 43.0277 31.4903 44.7472Z" fill="black"/>
<path d="M31.4903 44.7472L26.2727 80.0011C25.6981 83.7874 25.1276 85.1042 23.4636 85.4494C22.8321 85.564 22.202 85.564 21.7441 85.6216C20.9403 85.6216 20.597 85.8503 20.597 86.1941C20.597 86.7686 21.2856 86.7686 21.8567 86.7686C23.9771 86.7686 26.672 86.5984 28.4501 86.5984C30.1701 86.5984 33.3245 86.7686 35.8458 86.7686C36.7621 86.7686 36.9928 86.5984 36.9928 86.1365C36.9928 85.7913 36.8207 85.6216 35.9619 85.6216C35.2157 85.564 34.7007 85.505 33.84 85.3353C32.4081 85.0471 31.8322 84.3619 31.8322 82.6974C31.8322 81.8386 31.8322 80.5736 32.0614 78.1098L33.7254 61.9433C34.8148 63.8935 37.3381 68.5957 38.3095 70.2563C40.489 73.9246 43.5828 80.1397 45.5886 83.3536C46.9545 85.4966 47.9122 87.6466 48.2993 88.1689C46.231 83.5149 47.2059 79.6558 47.6589 76.0086C47.9904 73.3432 47.411 70.9242 48.3042 67.7281L34.9279 44.8584C33.7254 43.0852 33.3245 42.5107 32.6929 42.5107C32.1204 42.5107 31.7176 43.0277 31.4903 44.7472Z" fill="#1D9BD1"/>
<path d="M70.7279 51.6567C68.2587 54.988 65.4635 58.0145 62.6938 61.0768L62.7337 61.3719L64.7985 81.8974C65.0262 84.4743 64.9672 84.8176 64.0509 85.1629C63.652 85.276 63.4208 85.5047 63.4208 85.7359C63.4208 86.0221 63.652 86.3655 64.7395 86.4245C70.7624 86.7403 75.1822 86.7664 79.5618 86.7683H79.7856H80.0074H80.2297H80.4535H80.6759H80.7172C81.6075 86.7649 82.0516 86.6449 82.0516 86.1938C82.0516 85.791 81.7083 85.6213 80.9636 85.6213C80.2175 85.5637 78.8417 85.4492 77.6962 85.1039C75.8035 84.5313 75.2304 83.098 74.771 79.3726L70.9655 51.3354C70.8873 51.4432 70.8076 51.5509 70.7279 51.6567Z" fill="black"/>
<path d="M70.7279 51.6567C68.2587 54.988 65.4635 58.0145 62.6938 61.0768L62.7337 61.3719L64.7985 81.8974C65.0262 84.4743 64.9672 84.8176 64.0509 85.1629C63.652 85.276 63.4208 85.5047 63.4208 85.7359C63.4208 86.0221 63.652 86.3655 64.7395 86.4245C70.7624 86.7403 75.1822 86.7664 79.5618 86.7683H80.7172C81.6075 86.7649 82.0516 86.6449 82.0516 86.1938C82.0516 85.791 81.7083 85.6213 80.9636 85.6213C80.2175 85.5637 78.8417 85.4492 77.6962 85.1039C75.8035 84.5313 75.2304 83.098 74.771 79.3726L70.9655 51.3354C70.8873 51.4432 70.8076 51.5509 70.7279 51.6567Z" fill="#1D9BD1"/>
<path d="M93.5091 43.4009H93.4049C91.1664 43.4043 87.8335 43.5745 84.1077 43.5745C81.8053 43.5745 79.463 43.4579 76.77 43.4166V44.1451V44.7038C76.8271 44.7107 76.8842 44.7141 76.9417 44.7176C78.6037 44.8912 79.4074 45.8091 79.463 48.1587C79.52 49.9929 79.5791 51.5978 79.5791 60.0254V68.509C79.5791 75.7326 79.463 79.059 79.2338 82.2119C79.0621 84.3337 78.4306 85.1946 77.3981 85.3662C76.9417 85.4789 76.4243 85.5379 75.6821 85.5954C74.8193 85.5954 74.5316 85.7671 74.5316 86.1699C74.5316 86.5688 74.9339 86.7424 75.7371 86.7424C78.8315 86.7424 81.5431 86.7685 84.0644 86.7685C85.7839 86.7685 92.5338 86.9121 94.6542 86.9121C106.063 86.9121 112.025 80.6064 112.025 74.2457C112.025 67.3084 106.924 63.6382 100.904 61.804C104.687 59.8537 107.897 56.873 107.897 52.2294C107.897 49.0209 105.604 43.4009 93.5091 43.4009ZM90.011 61.2314C89.7247 61.1744 89.4975 61.1134 89.4975 60.6589V47.8739C89.4975 47.0707 89.7247 46.9546 90.0681 46.8415C90.528 46.6663 91.2151 46.5552 92.1315 46.5552C96.66 46.5552 98.9541 50.4527 98.9541 55.0979C98.9541 57.5602 98.2655 59.5695 97.0629 60.5409C96.2612 61.2314 94.9405 61.4607 93.6218 61.4607C92.82 61.4607 90.9288 61.4036 90.011 61.2314ZM91.1005 82.6162C89.954 82.0397 89.7247 81.2936 89.6101 79.4614C89.4365 76.5358 89.4975 72.5261 89.4975 69.7721V65.1289C89.4975 64.8427 89.6101 64.7261 89.8394 64.7261C90.4134 64.6705 91.7876 64.6705 92.704 64.7261C94.4825 64.8427 96.4903 65.4167 98.0378 66.9076C100.676 69.3713 101.42 72.7514 101.42 75.7326C101.42 81.4657 97.8661 83.5321 94.8854 83.5321C93.7384 83.5321 92.3621 83.3589 91.1005 82.6162Z" fill="black"/>
<path d="M93.5091 43.4009H93.4049C91.1664 43.4043 87.8335 43.5745 84.1077 43.5745C81.8053 43.5745 79.463 43.4579 76.77 43.4166V44.1451V44.7038C76.8271 44.7107 76.8842 44.7141 76.9417 44.7176C78.6037 44.8912 79.4074 45.8091 79.463 48.1587C79.52 49.9929 79.5791 51.5978 79.5791 60.0254V68.509C79.5791 75.7326 79.463 79.059 79.2338 82.2119C79.0621 84.3337 78.4306 85.1946 77.3981 85.3662C76.9417 85.4789 76.4243 85.5379 75.6821 85.5954C74.8193 85.5954 74.5316 85.7671 74.5316 86.1699C74.5316 86.5688 74.9339 86.7424 75.7371 86.7424C78.8315 86.7424 81.5431 86.7685 84.0644 86.7685C85.7839 86.7685 92.5338 86.9121 94.6542 86.9121C106.063 86.9121 112.025 80.6064 112.025 74.2457C112.025 67.3084 106.924 63.6382 100.904 61.804C104.687 59.8537 107.897 56.873 107.897 52.2294C107.897 49.0209 105.604 43.4009 93.5091 43.4009ZM90.011 61.2314C89.7247 61.1744 89.4975 61.1134 89.4975 60.6589V47.8739C89.4975 47.0707 89.7247 46.9546 90.0681 46.8415C90.528 46.6663 91.2151 46.5552 92.1315 46.5552C96.66 46.5552 98.9541 50.4527 98.9541 55.0979C98.9541 57.5602 98.2655 59.5695 97.0629 60.5409C96.2612 61.2314 94.9405 61.4607 93.6218 61.4607C92.82 61.4607 90.9288 61.4036 90.011 61.2314ZM91.1005 82.6162C89.954 82.0397 89.7247 81.2936 89.6101 79.4614C89.4365 76.5358 89.4975 72.5261 89.4975 69.7721V65.1289C89.4975 64.8427 89.6101 64.7261 89.8394 64.7261C90.4134 64.6705 91.7876 64.6705 92.704 64.7261C94.4825 64.8427 96.4903 65.4167 98.0378 66.9076C100.676 69.3713 101.42 72.7514 101.42 75.7326C101.42 81.4657 97.8661 83.5321 94.8854 83.5321C93.7384 83.5321 92.3621 83.3589 91.1005 82.6162Z" fill="#1D9BD1"/>
<path fill-rule="evenodd" clip-rule="evenodd" d="M79.5502 16.0054C79.3077 25.4929 77.659 33.3637 73.2602 39.6694C69.4394 45.1404 64.6536 47.1275 57.2619 53.806C47.4826 64.1411 43.6736 73.3532 47.6995 86.9586C47.7429 87.1027 48.0011 87.783 48.2981 88.1716C49.2022 76.0078 57.9111 69.6347 66.0401 62.8568C69.3667 60.0822 72.7172 57.3563 75.7678 54.2571C84.6429 45.2358 86.0851 34.5698 82.2815 22.7272C81.5442 20.435 80.47 18.2433 79.5502 16.0054Z" fill="#F07D22"/>
<path fill-rule="evenodd" clip-rule="evenodd" d="M70.4407 8C69.573 14.587 69.2346 20.9773 66.1753 25.6382C63.5207 29.6863 59.8715 34.0555 55.7748 37.6126C49.5365 43.4481 44.9784 50.651 47.994 59.8232C48.027 59.9221 48.1401 60.2049 48.4106 60.717C48.9295 52.7645 52.6426 49.7297 58.3497 44.4894C60.5621 42.4575 64.6588 39.525 67.699 36.0997C72.4288 30.7763 74.9363 20.209 72.1809 12.4769C71.6325 10.9325 71.119 9.49084 70.4407 8Z" fill="#F07D22"/>
</svg>
