<svg width="56" height="56" viewBox="0 0 56 56" fill="none" xmlns="http://www.w3.org/2000/svg">
<mask id="mask0_1319_7401" style="mask-type:alpha" maskUnits="userSpaceOnUse" x="0" y="0" width="56" height="56">
<rect width="56" height="56" fill="#D9D9D9"/>
</mask>
<g mask="url(#mask0_1319_7401)">
<path d="M29.1833 48.5526L15.5724 43.75L4.64425 48.0666C4.30747 48.1961 3.98664 48.2317 3.68175 48.1734C3.37725 48.1151 3.09531 48.0017 2.83592 47.8333C2.57692 47.6649 2.37275 47.4477 2.22342 47.1817C2.07447 46.9161 2 46.6083 2 46.2583V13.3776C2 12.872 2.14583 12.4248 2.4375 12.0359C2.72917 11.647 3.11475 11.3553 3.59425 11.1609L14.2891 7.44739C14.4964 7.36962 14.7069 7.3177 14.9208 7.29165C15.1347 7.26559 15.3519 7.25256 15.5724 7.25256C15.7925 7.25256 16.0095 7.26559 16.2234 7.29165C16.4373 7.3177 16.6481 7.36962 16.8558 7.44739L30.4667 12.2109L41.3557 7.89423C41.6925 7.76473 42.0134 7.72273 42.3182 7.76823C42.6227 7.81334 42.9047 7.92028 43.1641 8.08906C43.4231 8.25745 43.6272 8.48106 43.7766 8.75989C43.9255 9.03834 44 9.35256 44 9.70256V42.8557C44 43.3092 43.8542 43.7045 43.5625 44.0416C43.2708 44.3788 42.8981 44.6316 42.4443 44.8L31.75 48.5526C31.5427 48.6303 31.3321 48.6823 31.1182 48.7083C30.9044 48.7344 30.6872 48.7474 30.4667 48.7474C30.2462 48.7474 30.029 48.7344 29.8151 48.7083C29.6012 48.6823 29.3906 48.6303 29.1833 48.5526ZM28.3667 44.1776V15.4391L17.6333 11.7833V40.5224L28.3667 44.1776ZM32.2557 44.1776L40.1109 41.5724V12.4442L32.2557 15.4391V44.1776ZM5.88908 43.5166L13.7442 40.5224V11.7833L5.88908 14.3891V43.5166Z" fill="#08658C"/>
</g>
</svg>
