<svg width="91" height="79" viewBox="0 0 91 79" fill="none" xmlns="http://www.w3.org/2000/svg">
<path fill-rule="evenodd" clip-rule="evenodd" d="M2.28994 75.6459C2.28994 76.3748 2.38809 76.8619 2.58589 77.1058C2.78476 77.3465 3.16312 77.4805 3.72389 77.5025V78.2548H0V77.5025C0.555635 77.4805 0.934373 77.3465 1.13324 77.1058C1.33508 76.8619 1.43434 76.3748 1.43434 75.6459V70.0757C1.43434 69.45 1.36729 69.0549 1.23288 68.8919C1.09844 68.7304 0.853044 68.6373 0.495213 68.6153L0.0557095 68.5857V67.8286H4.48753L6.90384 74.5229L9.22195 67.8286H13.6318V68.5857L13.2147 68.6153C12.8568 68.6373 12.6099 68.7304 12.477 68.8919C12.3426 69.0549 12.2752 69.45 12.2752 70.0757V76.0129C12.2752 76.637 12.3411 77.026 12.4729 77.1886C12.6048 77.3516 12.8517 77.4472 13.2147 77.4677L13.6318 77.5025V78.2548H8.43774V77.5025L8.79817 77.4677C9.16518 77.442 9.41572 77.345 9.54757 77.1849C9.67943 77.026 9.74533 76.637 9.74533 76.0129V68.6567L6.3819 78.2548H5.70355L2.28994 68.6725V75.6459Z" fill="black"/>
<path fill-rule="evenodd" clip-rule="evenodd" d="M15.2997 67.9067C15.2997 67.5719 15.4184 67.3071 15.6561 67.1133C15.8942 66.9156 16.2183 66.8188 16.6278 66.8188C17.0387 66.8188 17.3592 66.9145 17.5933 67.1093C17.8269 67.3008 17.942 67.5668 17.942 67.9067C17.942 68.2425 17.8269 68.5048 17.5933 68.6974C17.3592 68.8927 17.0387 68.9894 16.6278 68.9894C16.2183 68.9894 15.8942 68.8927 15.6561 68.6974C15.4184 68.5048 15.2997 68.2425 15.2997 67.9067ZM15.5902 72.3466C15.5902 71.7741 15.5246 71.424 15.3953 71.2881C15.266 71.1551 14.9726 71.0723 14.5151 71.0467V70.3541H14.8048C15.3564 70.3541 15.8887 70.3332 16.4029 70.2933C16.916 70.2519 17.4108 70.1951 17.8863 70.12V76.2525C17.8863 76.8418 17.942 77.2008 18.0555 77.33C18.1694 77.4619 18.3968 77.5319 18.7419 77.5458V78.2542H14.5151V77.5458C14.9624 77.5263 15.2543 77.4516 15.3876 77.3157C15.522 77.1843 15.5902 76.8275 15.5902 76.2525V72.3466Z" fill="black"/>
<path fill-rule="evenodd" clip-rule="evenodd" d="M22.7623 76.2525C22.7623 76.8419 22.819 77.2008 22.9315 77.3301C23.0454 77.4619 23.2739 77.5319 23.6175 77.5458V78.2542H19.3926V77.5458C19.8394 77.5264 20.1302 77.4517 20.2647 77.3158C20.3991 77.1843 20.4661 76.8275 20.4661 76.2525V69.5981C20.4661 69.0308 20.4002 68.6832 20.2713 68.5502C20.142 68.4198 19.8486 68.3382 19.3926 68.3111V67.6045H19.8087C20.3215 67.6045 20.824 67.58 21.3177 67.532C21.8099 67.487 22.292 67.417 22.7623 67.3291V76.2525Z" fill="black"/>
<path fill-rule="evenodd" clip-rule="evenodd" d="M27.6387 76.2525C27.6387 76.8419 27.6955 77.2008 27.8079 77.3301C27.9215 77.4619 28.1504 77.5319 28.4939 77.5458V78.2542H24.2676V77.5458C24.7159 77.5264 25.0063 77.4517 25.1408 77.3158C25.2741 77.1843 25.3426 76.8275 25.3426 76.2525V69.5981C25.3426 69.0308 25.2766 68.6832 25.1473 68.5502C25.018 68.4198 24.7247 68.3382 24.2676 68.3111V67.6045H24.6847C25.1979 67.6045 25.7004 67.58 26.1927 67.532C26.6864 67.487 27.1669 67.417 27.6387 67.3291V76.2525Z" fill="black"/>
<path fill-rule="evenodd" clip-rule="evenodd" d="M29.9281 67.9067C29.9281 67.5719 30.0468 67.3071 30.2845 67.1133C30.5226 66.9156 30.8467 66.8188 31.2562 66.8188C31.6672 66.8188 31.9876 66.9145 32.2217 67.1093C32.4542 67.3008 32.5704 67.5668 32.5704 67.9067C32.5704 68.2425 32.4542 68.5048 32.2217 68.6974C31.9876 68.8927 31.6672 68.9894 31.2562 68.9894C30.8467 68.9894 30.5226 68.8927 30.2845 68.6974C30.0468 68.5048 29.9281 68.2425 29.9281 67.9067ZM30.2175 72.3466C30.2175 71.7741 30.153 71.424 30.0237 71.2881C29.8944 71.1551 29.601 71.0723 29.1436 71.0467V70.3541H29.4333C29.9849 70.3541 30.5171 70.3332 31.0302 70.2933C31.543 70.2519 32.0382 70.1951 32.5147 70.12V76.2525C32.5147 76.8418 32.5704 77.2008 32.6843 77.33C32.7978 77.4619 33.0253 77.5319 33.3703 77.5458V78.2542H29.1436V77.5458C29.5907 77.5263 29.8816 77.4516 30.016 77.3157C30.1504 77.1843 30.2175 76.8275 30.2175 76.2525V72.3466Z" fill="black"/>
<path fill-rule="evenodd" clip-rule="evenodd" d="M42.2807 73.0025V76.0129C42.2807 76.73 42.3737 77.1695 42.5598 77.3322C42.7458 77.4952 43.1048 77.5739 43.6373 77.5739C44.3724 77.5739 44.9332 77.3802 45.3196 76.9846C45.706 76.5905 45.8983 76.0195 45.8983 75.2712C45.8983 74.4559 45.6555 73.8731 45.1709 73.5178C44.6852 73.1652 43.8827 72.9882 42.7612 72.9882C42.7044 72.9882 42.6231 72.9908 42.5169 72.9945C42.411 72.9999 42.3323 73.0025 42.2807 73.0025ZM42.2807 70.0757V72.2323C42.3605 72.2361 42.4473 72.24 42.5429 72.2425C42.636 72.2451 42.7704 72.2468 42.9447 72.2468C43.8724 72.2468 44.5303 72.1057 44.9163 71.8189C45.3028 71.5333 45.4965 71.0542 45.4965 70.3821C45.4965 69.8253 45.3324 69.3858 45.0042 69.0668C44.6775 68.7463 44.2329 68.5863 43.6736 68.5863C43.1128 68.5863 42.7392 68.6624 42.5557 68.8137C42.3722 68.9621 42.2807 69.3845 42.2807 70.0757ZM42.9304 67.8286C44.8585 67.8286 46.2151 68.0213 47.0044 68.3985C47.7941 68.7772 48.1882 69.4116 48.1882 70.2954C48.1882 70.9364 47.9194 71.4532 47.3791 71.8422C46.8404 72.2282 46.0378 72.4817 44.9735 72.5941C46.255 72.771 47.1996 73.0849 47.8069 73.5362C48.4156 73.987 48.7178 74.5918 48.7178 75.3554C48.7178 75.8048 48.6223 76.2121 48.4285 76.5828C48.2358 76.9538 47.9531 77.2703 47.5809 77.5336C47.2088 77.7911 46.7294 77.9783 46.1426 78.0892C45.5562 78.198 44.6929 78.2523 43.552 78.2523H38.3022V77.5028L38.7403 77.468C39.0941 77.4446 39.3344 77.3542 39.4651 77.1967C39.5941 77.0388 39.6589 76.6436 39.6589 76.0129V70.0757C39.6589 69.4398 39.5941 69.0446 39.4651 68.8857C39.3344 68.7281 39.0915 68.6377 38.7322 68.6143L38.3022 68.586V67.8286H42.9304Z" fill="black"/>
<path fill-rule="evenodd" clip-rule="evenodd" d="M49.8916 77.5459C50.3388 77.5264 50.6297 77.4517 50.7641 77.3158C50.8985 77.1844 50.9655 76.8276 50.9655 76.2526V72.3467C50.9655 71.7702 50.8985 71.4164 50.7641 71.2768C50.6297 71.1409 50.3388 71.0633 49.8916 71.0468V70.3542H50.167C50.685 70.3542 51.1879 70.3333 51.6761 70.2934C52.1632 70.252 52.6361 70.1963 53.0925 70.1201V72.0273C53.3521 71.4471 53.6557 71.0054 54.0044 70.7018C54.3535 70.3992 54.7282 70.2479 55.1274 70.2479C55.5472 70.2479 55.8937 70.3849 56.1662 70.664C56.4401 70.9431 56.5771 71.2947 56.5771 71.7226C56.5771 72.0947 56.4647 72.3968 56.2413 72.6232C56.0178 72.8518 55.7245 72.9668 55.3611 72.9668C55.0732 72.9668 54.8381 72.8891 54.6546 72.7327C54.4711 72.5778 54.3791 72.3775 54.3791 72.1346C54.3791 72.1086 54.3817 72.0713 54.3857 72.0145C54.3909 71.9577 54.3923 71.9163 54.3923 71.8852C54.3923 71.7922 54.374 71.7211 54.3367 71.6771C54.2993 71.6332 54.2396 71.6101 54.1597 71.6101C53.8587 71.6101 53.6338 71.8698 53.4851 72.3932C53.3364 72.9111 53.2617 73.6967 53.2617 74.7472V76.2526C53.2617 76.8276 53.3379 77.1829 53.4891 77.3122C53.6389 77.4466 53.984 77.5213 54.5202 77.5459V78.2542H49.8916V77.5459Z" fill="black"/>
<path fill-rule="evenodd" clip-rule="evenodd" d="M61.0928 77.7441C61.5641 77.7441 61.899 77.491 62.0953 76.9805C62.2941 76.4739 62.3927 75.5788 62.3927 74.3019C62.3927 73.0343 62.2956 72.1442 62.0993 71.63C61.904 71.1117 61.5774 70.8535 61.121 70.8535C60.6547 70.8535 60.324 71.1066 60.1273 71.6142C59.9324 72.1197 59.8343 73.0178 59.8343 74.3019C59.8343 75.5788 59.9299 76.4739 60.1211 76.9805C60.3123 77.491 60.6353 77.7441 61.0928 77.7441ZM61.1067 70.1206C62.266 70.1206 63.1999 70.5019 63.9083 71.263C64.6174 72.0267 64.9716 73.0398 64.9716 74.3019C64.9716 75.5527 64.6148 76.5618 63.9017 77.3321C63.1886 78.1009 62.2557 78.4858 61.1067 78.4858C59.957 78.4858 59.0252 78.1009 58.3121 77.3321C57.5975 76.5618 57.2407 75.5527 57.2407 74.3019C57.2407 73.0398 57.5935 72.0267 58.3018 71.263C59.0083 70.5019 59.9427 70.1206 61.1067 70.1206Z" fill="black"/>
<path fill-rule="evenodd" clip-rule="evenodd" d="M71.0643 78.2527V77.5458C71.3086 77.5198 71.4712 77.4799 71.5514 77.4322C71.6313 77.3858 71.6727 77.3117 71.6727 77.2136C71.6727 77.162 71.6496 77.0858 71.6042 76.9825C71.5602 76.8792 71.4998 76.7678 71.4247 76.6492L70.068 74.5351L69.2696 75.3002V76.2265C69.2696 76.8158 69.3249 77.1737 69.4348 77.3081C69.5461 77.4374 69.7761 77.5198 70.1248 77.5458V78.2527H65.8984V77.5458C66.3467 77.5264 66.6376 77.4502 66.772 77.3158C66.906 77.1828 66.972 76.8275 66.972 76.2525V69.5981C66.972 69.0308 66.9075 68.6832 66.7782 68.5502C66.6489 68.4195 66.3559 68.3382 65.8984 68.311V67.6031H66.3156C66.8287 67.6031 67.3313 67.5796 67.825 67.532C68.3173 67.4855 68.7978 67.417 69.2696 67.3276V74.3464L70.7039 72.7689C71.0295 72.403 71.2346 72.1433 71.3225 71.995C71.4093 71.8463 71.4533 71.7133 71.4533 71.5983C71.4533 71.4276 71.3691 71.2921 71.2024 71.1925C71.0357 71.0943 70.8057 71.0452 70.5138 71.0452V70.3527H74.4497V71.0452H74.3076C74.0256 71.0452 73.7414 71.1189 73.4571 71.2595C73.1718 71.4031 72.899 71.6122 72.6407 71.8851L71.6016 73.0041L73.6007 76.3324C73.8977 76.822 74.142 77.1425 74.3333 77.2927C74.5233 77.4425 74.7467 77.5264 74.9998 77.5458V78.2527H71.0643Z" fill="black"/>
<path fill-rule="evenodd" clip-rule="evenodd" d="M78.173 73.4042H80.2223V72.6343C80.2223 72.0193 80.1432 71.5721 79.9857 71.2981C79.8282 71.0256 79.5747 70.8898 79.226 70.8898C78.8964 70.8898 78.6382 71.0436 78.4521 71.3472C78.2661 71.6549 78.173 72.0853 78.173 72.6343V73.4042ZM78.1587 74.1397V74.5078C78.1587 75.5945 78.3008 76.3853 78.5825 76.8724C78.8653 77.361 79.3228 77.6024 79.9535 77.6024C80.4443 77.6024 80.8578 77.4511 81.194 77.1464C81.531 76.8427 81.7676 76.4058 81.9046 75.8374H82.6888C82.543 76.6889 82.2005 77.3453 81.6603 77.8002C81.1215 78.2588 80.4197 78.4877 79.5579 78.4877C78.3577 78.4877 77.3951 78.1078 76.6754 77.3493C75.9542 76.5893 75.5938 75.5766 75.5938 74.3012C75.5938 73.0581 75.9377 72.0476 76.6248 71.2725C77.3138 70.4931 78.1987 70.1045 79.2828 70.1045C80.3047 70.1045 81.1072 70.4517 81.6925 71.1469C82.2767 71.8421 82.5686 72.797 82.5686 74.0144V74.1397H78.1587Z" fill="black"/>
<path fill-rule="evenodd" clip-rule="evenodd" d="M83.5513 77.5459C83.9996 77.5264 84.29 77.4517 84.4234 77.3158C84.5578 77.1844 84.6263 76.8276 84.6263 76.2526V72.3467C84.6263 71.7702 84.5578 71.4164 84.4234 71.2768C84.29 71.1409 83.9996 71.0633 83.5513 71.0468V70.3542H83.8264C84.3446 70.3542 84.8482 70.3333 85.3354 70.2934C85.8225 70.252 86.2957 70.1963 86.7528 70.1201V72.0273C87.0114 71.4471 87.3151 71.0054 87.6638 70.7018C88.0128 70.3992 88.3875 70.2479 88.7882 70.2479C89.2068 70.2479 89.553 70.3849 89.8269 70.664C90.0994 70.9431 90.2364 71.2947 90.2364 71.7226C90.2364 72.0947 90.124 72.3968 89.9005 72.6232C89.6771 72.8518 89.3837 72.9668 89.0208 72.9668C88.7336 72.9668 88.4985 72.8891 88.315 72.7327C88.1304 72.5778 88.0388 72.3775 88.0388 72.1346C88.0388 72.1086 88.0414 72.0713 88.0465 72.0145C88.0503 71.9577 88.0527 71.9163 88.0527 71.8852C88.0527 71.7922 88.0333 71.7211 87.996 71.6771C87.9586 71.6332 87.8993 71.6101 87.8201 71.6101C87.518 71.6101 87.2931 71.8698 87.1444 72.3932C86.9971 72.9111 86.9224 73.6967 86.9224 74.7472V76.2526C86.9224 76.8276 86.9971 77.1829 87.1484 77.3122C87.2982 77.4466 87.6432 77.5213 88.1809 77.5459V78.2542H83.5513V77.5459Z" fill="black"/>
<path d="M20.0248 27.3641L16.1395 53.6161C15.7116 56.4356 15.2868 57.4162 14.0477 57.6733C13.5774 57.7586 13.1082 57.7586 12.7672 57.8015C12.1687 57.8015 11.9131 57.9718 11.9131 58.2278C11.9131 58.6556 12.4258 58.6556 12.8511 58.6556C14.4301 58.6556 16.4369 58.5289 17.7609 58.5289C19.0418 58.5289 21.3907 58.6556 23.2682 58.6556C23.9505 58.6556 24.1223 58.5289 24.1223 58.1849C24.1223 57.9278 23.9941 57.8015 23.3546 57.8015C22.799 57.7586 22.4155 57.7147 21.7745 57.5883C20.7083 57.3737 20.2794 56.8635 20.2794 55.624C20.2794 54.9845 20.2794 54.0425 20.4501 52.2078L21.6892 40.1693C22.5005 41.6215 24.3794 45.1231 25.1028 46.3596C26.7257 49.0912 29.0296 53.7194 30.5232 56.1126C31.5403 57.7084 32.2535 59.3094 32.5417 59.6984C31.0016 56.2328 31.7275 53.359 32.0649 50.6431C32.3117 48.6583 31.8802 46.857 32.5454 44.477L22.5847 27.4469C21.6892 26.1265 21.3907 25.6987 20.9204 25.6987C20.494 25.6987 20.1941 26.0837 20.0248 27.3641Z" fill="black"/>
<path d="M20.0248 27.3641L16.1395 53.6161C15.7116 56.4356 15.2868 57.4162 14.0477 57.6733C13.5774 57.7586 13.1082 57.7586 12.7672 57.8015C12.1687 57.8015 11.9131 57.9718 11.9131 58.2278C11.9131 58.6556 12.4258 58.6556 12.8511 58.6556C14.4301 58.6556 16.4369 58.5289 17.7609 58.5289C19.0418 58.5289 21.3907 58.6556 23.2682 58.6556C23.9505 58.6556 24.1223 58.5289 24.1223 58.1849C24.1223 57.9278 23.9941 57.8015 23.3546 57.8015C22.799 57.7586 22.4155 57.7147 21.7745 57.5883C20.7083 57.3737 20.2794 56.8635 20.2794 55.624C20.2794 54.9845 20.2794 54.0425 20.4501 52.2078L21.6892 40.1693C22.5005 41.6215 24.3794 45.1231 25.1028 46.3596C26.7257 49.0912 29.0296 53.7194 30.5232 56.1126C31.5403 57.7084 32.2535 59.3094 32.5417 59.6984C31.0016 56.2328 31.7275 53.359 32.0649 50.6431C32.3117 48.6583 31.8802 46.857 32.5454 44.477L22.5847 27.4469C21.6892 26.1265 21.3907 25.6987 20.9204 25.6987C20.494 25.6987 20.1941 26.0837 20.0248 27.3641Z" fill="#1D9BD1"/>
<path d="M49.2434 32.5092C47.4047 34.9899 45.3232 37.2436 43.2607 39.524L43.2904 39.7437L44.828 55.0282C44.9975 56.947 44.9536 57.2027 44.2713 57.4598C43.9742 57.544 43.8021 57.7144 43.8021 57.8865C43.8021 58.0997 43.9742 58.3553 44.784 58.3993C49.269 58.6344 52.5603 58.6539 55.8216 58.6553H55.9882H56.1534H56.3189H56.4856H56.6511H56.6819C57.3449 58.6527 57.6756 58.5634 57.6756 58.2275C57.6756 57.9275 57.42 57.8012 56.8654 57.8012C56.3098 57.7583 55.2853 57.673 54.4323 57.4159C53.0229 56.9895 52.5962 55.9222 52.2541 53.1481L49.4203 32.27C49.362 32.3502 49.3027 32.4304 49.2434 32.5092Z" fill="black"/>
<path d="M49.2434 32.5092C47.4047 34.9899 45.3232 37.2436 43.2607 39.524L43.2904 39.7437L44.828 55.0282C44.9975 56.947 44.9536 57.2027 44.2713 57.4598C43.9742 57.544 43.8021 57.7144 43.8021 57.8865C43.8021 58.0997 43.9742 58.3553 44.784 58.3993C49.269 58.6344 52.5603 58.6539 55.8216 58.6553H56.6819C57.3449 58.6527 57.6756 58.5634 57.6756 58.2275C57.6756 57.9275 57.42 57.8012 56.8654 57.8012C56.3098 57.7583 55.2853 57.673 54.4323 57.4159C53.0229 56.9895 52.5962 55.9222 52.2541 53.1481L49.4203 32.27C49.362 32.3502 49.3027 32.4304 49.2434 32.5092Z" fill="#1D9BD1"/>
<path d="M66.2079 26.3613H66.1303C64.4634 26.3639 61.9815 26.4906 59.207 26.4906C57.4925 26.4906 55.7484 26.4038 53.743 26.3731V26.9155V27.3316C53.7855 27.3367 53.828 27.3393 53.8708 27.3419C55.1085 27.4711 55.707 28.1546 55.7483 29.9043C55.7908 31.2701 55.8348 32.4652 55.8348 38.7409V45.0583C55.8348 50.4373 55.7484 52.9144 55.5777 55.2622C55.4498 56.8422 54.9796 57.4832 54.2107 57.6111C53.8708 57.6949 53.4856 57.7389 52.9329 57.7818C52.2904 57.7818 52.0762 57.9096 52.0762 58.2095C52.0762 58.5066 52.3757 58.6359 52.9739 58.6359C55.2781 58.6359 57.2973 58.6553 59.1748 58.6553C60.4553 58.6553 65.4816 58.7622 67.0606 58.7622C75.5562 58.7622 79.9961 54.0667 79.9961 49.3301C79.9961 44.1642 76.1972 41.4311 71.7147 40.0653C74.5318 38.6131 76.922 36.3935 76.922 32.9355C76.922 30.5463 75.2141 26.3613 66.2079 26.3613ZM63.603 39.639C63.3898 39.5965 63.2206 39.551 63.2206 39.2126V29.6922C63.2206 29.0941 63.3898 29.0077 63.6455 28.9234C63.988 28.793 64.4997 28.7102 65.182 28.7102C68.5542 28.7102 70.2625 31.6125 70.2625 35.0716C70.2625 36.9051 69.7497 38.4014 68.8542 39.1247C68.2572 39.639 67.2737 39.8097 66.2918 39.8097C65.6948 39.8097 64.2865 39.7672 63.603 39.639ZM64.4143 55.5632C63.5605 55.134 63.3898 54.5784 63.3045 53.214C63.1752 51.0354 63.2206 48.0496 63.2206 45.9989V42.5413C63.2206 42.3281 63.3045 42.2413 63.4752 42.2413C63.9026 42.1999 64.926 42.1999 65.6083 42.2413C66.9327 42.3281 68.4278 42.7555 69.5802 43.8657C71.5444 45.7003 72.0986 48.2174 72.0986 50.4373C72.0986 54.7066 69.4523 56.2453 67.2327 56.2453C66.3786 56.2453 65.3538 56.1163 64.4143 55.5632Z" fill="black"/>
<path d="M66.2079 26.3613H66.1303C64.4634 26.3639 61.9815 26.4906 59.207 26.4906C57.4925 26.4906 55.7484 26.4038 53.743 26.3731V26.9155V27.3316C53.7855 27.3367 53.828 27.3393 53.8708 27.3419C55.1085 27.4711 55.707 28.1546 55.7483 29.9043C55.7908 31.2701 55.8348 32.4652 55.8348 38.7409V45.0583C55.8348 50.4373 55.7484 52.9144 55.5777 55.2622C55.4498 56.8422 54.9796 57.4832 54.2107 57.6111C53.8708 57.6949 53.4856 57.7389 52.9329 57.7818C52.2904 57.7818 52.0762 57.9096 52.0762 58.2095C52.0762 58.5066 52.3757 58.6359 52.9739 58.6359C55.2781 58.6359 57.2973 58.6553 59.1748 58.6553C60.4553 58.6553 65.4816 58.7622 67.0606 58.7622C75.5562 58.7622 79.9961 54.0667 79.9961 49.3301C79.9961 44.1642 76.1972 41.4311 71.7147 40.0653C74.5318 38.6131 76.922 36.3935 76.922 32.9355C76.922 30.5463 75.2141 26.3613 66.2079 26.3613ZM63.603 39.639C63.3898 39.5965 63.2206 39.551 63.2206 39.2126V29.6922C63.2206 29.0941 63.3898 29.0077 63.6455 28.9234C63.988 28.793 64.4997 28.7102 65.182 28.7102C68.5542 28.7102 70.2625 31.6125 70.2625 35.0716C70.2625 36.9051 69.7497 38.4014 68.8542 39.1247C68.2572 39.639 67.2737 39.8097 66.2918 39.8097C65.6948 39.8097 64.2865 39.7672 63.603 39.639ZM64.4143 55.5632C63.5605 55.134 63.3898 54.5784 63.3045 53.214C63.1752 51.0354 63.2206 48.0496 63.2206 45.9989V42.5413C63.2206 42.3281 63.3045 42.2413 63.4752 42.2413C63.9026 42.1999 64.926 42.1999 65.6083 42.2413C66.9327 42.3281 68.4278 42.7555 69.5802 43.8657C71.5444 45.7003 72.0986 48.2174 72.0986 50.4373C72.0986 54.7066 69.4523 56.2453 67.2327 56.2453C66.3786 56.2453 65.3538 56.1163 64.4143 55.5632Z" fill="#1D9BD1"/>
<path fill-rule="evenodd" clip-rule="evenodd" d="M55.8128 5.96094C55.6323 13.0259 54.4045 18.8869 51.129 23.5825C48.2838 27.6565 44.72 29.1362 39.2157 34.1094C31.9336 41.8055 29.0972 48.6653 32.0951 58.7967C32.1273 58.904 32.3196 59.4106 32.5408 59.6999C33.214 50.6421 39.6992 45.8963 45.7525 40.8491C48.2296 38.783 50.7246 36.7531 52.9962 34.4453C59.6052 27.7275 60.6791 19.785 57.8467 10.9664C57.2977 9.25952 56.4978 7.62746 55.8128 5.96094Z" fill="#F07D22"/>
<path fill-rule="evenodd" clip-rule="evenodd" d="M49.0296 0C48.3835 4.90507 48.1315 9.66366 45.8533 13.1344C43.8765 16.1488 41.1592 19.4024 38.1085 22.0512C33.4631 26.3967 30.0689 31.7603 32.3145 38.5905C32.3391 38.6641 32.4233 38.8747 32.6247 39.256C33.0112 33.3342 35.7761 31.0743 40.026 27.172C41.6734 25.659 44.7241 23.4753 46.988 20.9246C50.51 16.9605 52.3773 9.09154 50.3254 3.33377C49.917 2.1837 49.5346 1.11017 49.0296 0Z" fill="#F07D22"/>
</svg>
