<svg width="57" height="57" viewBox="0 0 57 57" fill="none" xmlns="http://www.w3.org/2000/svg">
<mask id="mask0_1689_7392" style="mask-type:alpha" maskUnits="userSpaceOnUse" x="0" y="0" width="57" height="57">
<rect y="6.10352e-05" width="56.4682" height="56.4682" fill="#D9D9D9"/>
</mask>
<g mask="url(#mask0_1689_7392)">
<path d="M47.8404 20.8421L36.2527 32.371C34.9586 33.6651 33.3836 34.3121 31.5276 34.3121C29.6716 34.3121 28.0966 33.6651 26.8025 32.371L24.0379 29.6064C23.5281 29.0966 22.8876 28.8417 22.1162 28.8417C21.3449 28.8417 20.7043 29.0966 20.1945 29.6064L8.82267 40.9789C8.44347 41.3577 7.98604 41.5471 7.45037 41.5471C6.91432 41.5471 6.45669 41.3577 6.07749 40.9789C5.69868 40.5997 5.50928 40.142 5.50928 39.606C5.50928 39.0703 5.69868 38.6129 6.07749 38.2337L17.4499 26.8618C18.744 25.5678 20.319 24.9207 22.175 24.9207C24.031 24.9207 25.6061 25.5678 26.9001 26.8618L29.6059 29.5676C30.1549 30.1166 30.8053 30.3911 31.557 30.3911C32.3087 30.3911 32.9591 30.1166 33.5081 29.5676L45.037 18.0387H40.3902C39.8278 18.0387 39.3604 17.8524 38.9879 17.4799C38.6153 17.1073 38.4291 16.6399 38.4291 16.0776C38.4291 15.5156 38.6153 15.0484 38.9879 14.6759C39.3604 14.3033 39.8278 14.1171 40.3902 14.1171H49.8015C50.3635 14.1171 50.8307 14.3033 51.2032 14.6759C51.5758 15.0484 51.762 15.5156 51.762 16.0776V25.4889C51.762 26.0513 51.5758 26.5187 51.2032 26.8912C50.8307 27.2638 50.3635 27.45 49.8015 27.45C49.2392 27.45 48.7718 27.2638 48.3992 26.8912C48.0267 26.5187 47.8404 26.0513 47.8404 25.4889V20.8421Z" fill="#08658C"/>
</g>
</svg>
