<svg width="56" height="56" viewBox="0 0 56 56" fill="none" xmlns="http://www.w3.org/2000/svg">
<mask id="mask0_1347_7420" style="mask-type:alpha" maskUnits="userSpaceOnUse" x="0" y="0" width="56" height="56">
<rect width="56" height="56" fill="#D9D9D9"/>
</mask>
<g mask="url(#mask0_1347_7420)">
<path d="M14.9442 37.3334H25.0557C25.6063 37.3334 26.0681 37.1471 26.4411 36.7745C26.8136 36.4016 26.9999 35.9398 26.9999 35.3891V27.6109C26.9999 27.0603 26.8136 26.5985 26.4411 26.2255C26.0681 25.853 25.6063 25.6667 25.0557 25.6667H24.6666V23.3334C24.6666 22.05 24.2096 20.9514 23.2958 20.0375C22.3819 19.1236 21.2833 18.6667 19.9999 18.6667C18.7166 18.6667 17.618 19.1236 16.7041 20.0375C15.7902 20.9514 15.3333 22.05 15.3333 23.3334V25.6667H14.9442C14.3935 25.6667 13.9317 25.853 13.5588 26.2255C13.1862 26.5985 12.9999 27.0603 12.9999 27.6109V35.3891C12.9999 35.9398 13.1862 36.4016 13.5588 36.7745C13.9317 37.1471 14.3935 37.3334 14.9442 37.3334ZM17.2775 25.6667V23.3334C17.2775 22.5945 17.5466 21.9756 18.0848 21.4766C18.6227 20.9773 19.261 20.7276 19.9999 20.7276C20.7388 20.7276 21.3772 20.9773 21.915 21.4766C22.4532 21.9763 22.7223 22.5952 22.7223 23.3334V25.6667H17.2775ZM19.9999 51.1C19.7713 51.1 19.5589 51.0806 19.3629 51.0417C19.1669 51.0028 18.9709 50.9445 18.7749 50.8667C13.4211 49.065 9.17578 45.8016 6.039 41.0766C2.90184 36.3516 1.33325 31.2006 1.33325 25.6235V14.3308C1.33325 13.5075 1.56814 12.7665 2.03792 12.1077C2.50809 11.4489 3.11572 10.9714 3.86084 10.675L18.639 5.15261C19.1057 4.98422 19.5593 4.90002 19.9999 4.90002C20.4405 4.90002 20.8942 4.98422 21.3608 5.15261L36.139 10.675C36.8841 10.9714 37.4918 11.4489 37.9619 12.1077C38.4317 12.7665 38.6666 13.5075 38.6666 14.3308V25.6235C38.6666 31.2006 37.098 36.3516 33.9608 41.0766C30.8241 45.8016 26.5788 49.065 21.2249 50.8667C21.0289 50.9445 20.8329 51.0028 20.6369 51.0417C20.4409 51.0806 20.2286 51.1 19.9999 51.1ZM19.9999 47.25C24.3294 45.8372 27.8747 43.1214 30.6358 39.1026C33.3969 35.0842 34.7775 30.5926 34.7775 25.6276V14.3308L19.9999 8.76928L5.22234 14.3308V25.6276C5.22234 30.5926 6.60289 35.0842 9.364 39.1026C12.1251 43.1214 15.6704 45.8372 19.9999 47.25Z" fill="#08658C"/>
</g>
</svg>
