<svg width="57" height="57" viewBox="0 0 57 57" fill="none" xmlns="http://www.w3.org/2000/svg">
<mask id="mask0_1712_7419" style="mask-type:alpha" maskUnits="userSpaceOnUse" x="0" y="0" width="57" height="57">
<rect width="56.4682" height="56.4682" fill="#D9D9D9"/>
</mask>
<g mask="url(#mask0_1712_7419)">
<path d="M32.4498 28.6851C35.6261 26.4629 38.1162 24.0151 39.9201 21.3419C41.7239 18.6691 42.6258 15.9863 42.6258 13.2934C42.6258 11.777 42.3741 10.6202 41.8706 9.823C41.3675 9.02578 40.6846 8.62716 39.8218 8.62716C37.7172 8.62716 35.9069 10.2577 34.3909 13.5187C32.8745 16.7802 32.1163 20.5676 32.1163 24.8812C32.1163 25.587 32.1392 26.257 32.1851 26.8911C32.2306 27.5248 32.3188 28.1228 32.4498 28.6851ZM8.82316 38.4688C8.44396 38.848 7.98652 39.0376 7.45086 39.0376C6.9148 39.0376 6.45718 38.848 6.07798 38.4688C5.69917 38.0896 5.50977 37.6322 5.50977 37.0966C5.50977 36.5605 5.69917 36.1029 6.07798 35.7237L8.47023 33.332L6.07798 30.9398C5.69917 30.5606 5.50977 30.1031 5.50977 29.5675C5.50977 29.0314 5.69917 28.5738 6.07798 28.1946C6.45718 27.8158 6.9148 27.6264 7.45086 27.6264C7.98652 27.6264 8.44396 27.8158 8.82316 28.1946L11.2154 30.5868L13.6071 28.1946C13.9863 27.8158 14.4439 27.6264 14.98 27.6264C15.5156 27.6264 15.973 27.8158 16.3522 28.1946C16.7314 28.5738 16.921 29.0314 16.921 29.5675C16.921 30.1031 16.7314 30.5606 16.3522 30.9398L13.96 33.332L16.3522 35.7237C16.7314 36.1029 16.921 36.5605 16.921 37.0966C16.921 37.6322 16.7314 38.0896 16.3522 38.4688C15.973 38.848 15.5156 39.0376 14.98 39.0376C14.4439 39.0376 13.9863 38.848 13.6071 38.4688L11.2154 36.0766L8.82316 38.4688ZM36.3514 37.6454C35.1228 37.6454 34.0117 37.3871 33.018 36.8707C32.0247 36.3546 31.1752 35.5737 30.4693 34.5278C29.7634 34.92 29.0445 35.286 28.3123 35.626C27.5806 35.9656 26.8422 36.3054 26.0971 36.6454C25.574 36.8677 25.0674 36.8775 24.5772 36.6748C24.087 36.4721 23.7374 36.1093 23.5284 35.5866C23.3194 35.0639 23.3357 34.5541 23.5772 34.0573C23.8192 33.5604 24.2015 33.201 24.7242 32.9791C25.4693 32.6654 26.1883 32.3419 26.8812 32.0085C27.5741 31.6752 28.2408 31.3254 28.8811 30.9592C28.6329 30.0706 28.4531 29.1098 28.3417 28.0769C28.2308 27.0444 28.1753 25.94 28.1753 24.7635C28.1753 19.0646 29.2733 14.2967 31.4693 10.46C33.6652 6.62372 36.4494 4.70557 39.8218 4.70557C41.8347 4.70557 43.4556 5.49318 44.6846 7.06841C45.9132 8.64324 46.5274 10.7835 46.5274 13.4893C46.5274 16.9143 45.4196 20.2737 43.2041 23.5677C40.9885 26.8617 37.9004 29.8223 33.9397 32.4497C34.2927 32.881 34.675 33.2046 35.0868 33.4202C35.4985 33.6359 35.9397 33.7438 36.4102 33.7438C37.469 33.7438 38.6062 33.2928 39.8218 32.3909C41.0375 31.4889 42.1943 30.2078 43.2923 28.5475C43.6323 28.0769 44.0538 27.7601 44.5569 27.597C45.0601 27.4334 45.5665 27.4628 46.0763 27.6852C46.5861 27.9464 46.9782 28.3287 47.2527 28.8322C47.5272 29.3353 47.6188 29.881 47.5274 30.4692C47.449 31.0182 47.4162 31.5607 47.4292 32.0968C47.4425 32.6324 47.4949 33.1879 47.5862 33.7632C47.887 33.6063 48.204 33.4136 48.5374 33.185C48.8707 32.9559 49.2138 32.6912 49.5667 32.3909C49.9847 32.0379 50.4651 31.8321 51.0078 31.7732C51.5502 31.7144 52.037 31.8548 52.4684 32.1944C52.9127 32.5473 53.1544 32.9983 53.1936 33.5473C53.2329 34.0963 53.0631 34.5472 52.6842 34.9002C51.8082 35.7499 50.8965 36.4199 49.9491 36.9101C49.0013 37.4003 48.1025 37.6454 47.2527 37.6454C46.3508 37.6454 45.5959 37.3414 44.9881 36.7336C44.3803 36.1258 43.9654 35.2337 43.7434 34.0573C42.6192 35.2207 41.4296 36.1095 40.1748 36.7236C38.9199 37.3381 37.6455 37.6454 36.3514 37.6454ZM9.01903 49.4096C8.45709 49.4096 7.98986 49.2233 7.61732 48.8508C7.24479 48.4782 7.05852 48.011 7.05852 47.4491C7.05852 46.8867 7.24479 46.4193 7.61732 46.0468C7.98986 45.6742 8.45709 45.488 9.01903 45.488C9.58136 45.488 10.0488 45.6742 10.4213 46.0468C10.7939 46.4193 10.9801 46.8867 10.9801 47.4491C10.9801 48.011 10.7939 48.4782 10.4213 48.8508C10.0488 49.2233 9.58136 49.4096 9.01903 49.4096ZM18.6269 49.4096C18.0645 49.4096 17.5971 49.2233 17.2246 48.8508C16.852 48.4782 16.6658 48.011 16.6658 47.4491C16.6658 46.8867 16.852 46.4193 17.2246 46.0468C17.5971 45.6742 18.0645 45.488 18.6269 45.488C19.1888 45.488 19.656 45.6742 20.0286 46.0468C20.4011 46.4193 20.5874 46.8867 20.5874 47.4491C20.5874 48.011 20.4011 48.4782 20.0286 48.8508C19.656 49.2233 19.1888 49.4096 18.6269 49.4096ZM28.2341 49.4096C27.6722 49.4096 27.2049 49.2233 26.8324 48.8508C26.4599 48.4782 26.2736 48.011 26.2736 47.4491C26.2736 46.8867 26.4599 46.4193 26.8324 46.0468C27.2049 45.6742 27.6722 45.488 28.2341 45.488C28.796 45.488 29.2633 45.6742 29.6358 46.0468C30.0083 46.4193 30.1946 46.8867 30.1946 47.4491C30.1946 48.011 30.0083 48.4782 29.6358 48.8508C29.2633 49.2233 28.796 49.4096 28.2341 49.4096ZM37.8413 49.4096C37.2794 49.4096 36.8122 49.2233 36.4396 48.8508C36.0671 48.4782 35.8808 48.011 35.8808 47.4491C35.8808 46.8867 36.0671 46.4193 36.4396 46.0468C36.8122 45.6742 37.2794 45.488 37.8413 45.488C38.4037 45.488 38.8711 45.6742 39.2436 46.0468C39.6162 46.4193 39.8024 46.8867 39.8024 47.4491C39.8024 48.011 39.6162 48.4782 39.2436 48.8508C38.8711 49.2233 38.4037 49.4096 37.8413 49.4096ZM47.4492 49.4096C46.8868 49.4096 46.4194 49.2233 46.0469 48.8508C45.6743 48.4782 45.4881 48.011 45.4881 47.4491C45.4881 46.8867 45.6743 46.4193 46.0469 46.0468C46.4194 45.6742 46.8868 45.488 47.4492 45.488C48.0111 45.488 48.4783 45.6742 48.8509 46.0468C49.2234 46.4193 49.4097 46.8867 49.4097 47.4491C49.4097 48.011 49.2234 48.4782 48.8509 48.8508C48.4783 49.2233 48.0111 49.4096 47.4492 49.4096Z" fill="#08658C"/>
</g>
</svg>
