<svg width="57" height="57" viewBox="0 0 57 57" fill="none" xmlns="http://www.w3.org/2000/svg">
<mask id="mask0_1762_7407" style="mask-type:alpha" maskUnits="userSpaceOnUse" x="0" y="0" width="57" height="57">
<rect width="56.4682" height="56.4682" fill="#D9D9D9"/>
</mask>
<g mask="url(#mask0_1762_7407)">
<path d="M8.62717 45.4881H47.8408V39.8024H8.62717V45.4881ZM23.0183 23.4302C23.0183 21.9906 23.525 20.7583 24.5383 19.7333C25.5512 18.7078 26.7831 18.1951 28.234 18.1951C28.7896 18.1951 29.2553 18.0067 29.631 17.6298C30.0067 17.2526 30.1945 16.7852 30.1945 16.2275C30.1945 15.6703 30.0067 15.2054 29.631 14.8329C29.2553 14.4604 28.7896 14.2741 28.234 14.2741C25.698 14.2741 23.5412 15.1725 21.7637 16.9693C19.9861 18.7665 19.0973 20.9268 19.0973 23.4502V28.6653C19.0973 29.2209 19.2857 29.6866 19.6626 30.0623C20.0398 30.4383 20.5073 30.6263 21.0649 30.6263C21.6221 30.6263 22.087 30.4383 22.4595 30.0623C22.8321 29.6866 23.0183 29.2209 23.0183 28.6653V23.4302ZM15.8033 35.8808H40.6646V23.4302C40.6646 19.9856 39.4588 17.0495 37.0471 14.6217C34.6355 12.194 31.6978 10.9801 28.234 10.9801C24.7702 10.9801 21.8325 12.194 19.4208 14.6217C17.0092 17.0495 15.8033 19.9856 15.8033 23.4302V35.8808ZM8.62717 49.4097C7.54878 49.4097 6.62549 49.0258 5.85728 48.258C5.08947 47.4897 4.70557 46.5665 4.70557 45.4881V39.8024C4.70557 38.724 5.08947 37.8007 5.85728 37.0325C6.62549 36.2647 7.54878 35.8808 8.62717 35.8808H11.8817V23.4502C11.8817 18.9143 13.4732 15.0484 16.6562 11.8524C19.8389 8.65649 23.6981 7.05852 28.234 7.05852C32.7699 7.05852 36.6291 8.65649 39.8117 11.8524C42.9947 15.0484 44.5862 18.9143 44.5862 23.4502V35.8808H47.8408C48.9192 35.8808 49.8425 36.2647 50.6107 37.0325C51.3785 37.8007 51.7624 38.724 51.7624 39.8024V45.4881C51.7624 46.5665 51.3785 47.4897 50.6107 48.258C49.8425 49.0258 48.9192 49.4097 47.8408 49.4097H8.62717Z" fill="#08658C"/>
</g>
</svg>
