<svg width="55" height="54" viewBox="0 0 55 54" fill="none" xmlns="http://www.w3.org/2000/svg">
<path d="M17.9312 19.2856L18.2857 18.8804L20.6665 20.9692C20.4873 21.1886 20.3162 21.4187 20.1538 21.6597C19.0523 23.2944 18.6751 24.8948 18.6187 26.6909C18.5858 27.729 18.8315 28.8467 19.1734 29.8335C19.7564 31.5164 21.0716 33.1934 22.6187 34.23C26.4035 36.7661 31.3789 36.0518 34.2945 32.9282L36.6538 34.9985C36.5122 35.153 36.3706 35.3059 36.229 35.4644L37.2603 38.4634C37.0044 38.8129 35.8498 39.5482 35.3931 39.813L34.7671 40.1392L32.395 38.0044C32.0931 38.104 31.8244 38.2281 31.5269 38.3237C31.2502 38.4126 30.9498 38.4784 30.6968 38.5757C30.4801 39.22 30.2704 41.2716 30.0718 41.7085C29.5544 41.8626 27.8581 41.9689 27.1363 41.895C27.0111 41.719 26.6949 40.6218 26.6158 40.3569C26.4981 39.9634 26.2961 39.2064 26.1265 38.854C25.9571 38.7978 24.9292 38.6375 24.3521 38.4751L22.2564 40.9048C21.4695 40.644 20.3528 40.078 19.6128 39.5855L19.6363 39.3413C19.6505 39.27 19.6672 39.2139 19.6831 39.1489L20.2456 36.4438L18.9243 35.2524C18.6385 35.2842 17.7513 35.6471 17.4165 35.7661C16.937 35.9362 16.3346 36.1722 15.9029 36.2915C15.4517 35.8602 14.3911 34.2765 14.2564 33.7856L16.398 31.4077C15.5768 29.5781 16.2403 29.776 15.1646 29.5913C14.7535 29.5208 14.3218 29.4201 13.9243 29.3501C13.6011 29.2932 12.9582 29.2022 12.6763 29.103C12.5964 28.79 12.5196 28.0196 12.5083 27.646C12.4926 27.1285 12.4553 26.7099 12.4966 26.1499C12.8351 25.9478 15.1201 25.362 15.5435 25.145C15.6816 24.541 15.7373 24.0138 15.9077 23.3726L13.4683 21.271C13.9144 20.4351 14.1818 19.4725 14.8169 18.6118L17.9312 19.2856Z" fill="#373435"/>
<path d="M24.9097 12.188C25.428 12.034 27.1251 11.9275 27.8462 12.0015C27.9718 12.1803 28.286 13.276 28.3648 13.5396C28.4824 13.9332 28.6844 14.6903 28.854 15.0425C29.0234 15.0986 30.0513 15.259 30.6284 15.4214L32.7241 12.9917C33.511 13.2525 34.6277 13.8176 35.3677 14.3101L35.3443 14.5552C35.33 14.6264 35.3133 14.6826 35.2974 14.7476L34.7339 17.4517L36.0552 18.6431C36.3403 18.6118 37.2289 18.2495 37.564 18.1304C38.0436 17.9602 38.6458 17.7224 39.0777 17.603C39.5286 18.0338 40.5895 19.6191 40.7241 20.1099L38.5835 22.4878C39.4051 24.3181 38.7409 24.1202 39.8179 24.3052C40.2288 24.3757 40.6599 24.4754 41.0572 24.5454C41.3803 24.6023 42.0213 24.6944 42.3033 24.7935C42.3831 25.1066 42.4609 25.8769 42.4722 26.2505C42.488 26.7677 42.5252 27.1858 42.4839 27.7456C42.1444 27.9479 39.8594 28.5347 39.437 28.7515C39.2989 29.3555 39.2433 29.8826 39.0728 30.5239L41.5122 32.6255C41.0661 33.4615 40.7989 34.4241 40.1636 35.2847L37.0503 34.6108L36.6949 35.0161L34.314 32.9272C34.4932 32.7079 34.6644 32.4777 34.8267 32.2368C35.9283 30.602 36.3054 29.0009 36.3618 27.2046C36.3947 26.1666 36.148 25.0498 35.8062 24.063C35.2232 22.38 33.909 20.7021 32.3618 19.6655C28.577 17.1295 23.6016 17.8437 20.6861 20.9673L18.3267 18.898C18.4685 18.7432 18.6116 18.5909 18.7534 18.4321L17.7193 15.4321C17.9749 15.0828 19.1304 14.3485 19.5874 14.0835L20.2124 13.7563L22.5874 15.8911C22.8888 15.7916 23.1557 15.6673 23.4527 15.5718C23.7294 15.4828 24.0296 15.4162 24.2827 15.3188C24.4993 14.6743 24.7112 12.6253 24.9097 12.188Z" fill="#373435"/>
</svg>
