<svg width="56" height="56" viewBox="0 0 56 56" fill="none" xmlns="http://www.w3.org/2000/svg">
<mask id="mask0_1230_7392" style="mask-type:alpha" maskUnits="userSpaceOnUse" x="0" y="0" width="56" height="56">
<rect width="56" height="56" fill="#D9D9D9"/>
</mask>
<g mask="url(#mask0_1230_7392)">
<path d="M39.8224 34.1833C38.2544 34.1833 36.929 33.642 35.8464 32.5593C34.7637 31.4767 34.2224 30.1513 34.2224 28.5833C34.2224 27.0153 34.7637 25.69 35.8464 24.6073C36.929 23.5247 38.2544 22.9833 39.8224 22.9833C41.3904 22.9833 42.7157 23.5247 43.7984 24.6073C44.8811 25.69 45.4224 27.0153 45.4224 28.5833C45.4224 30.1513 44.8811 31.4767 43.7984 32.5593C42.7157 33.642 41.3904 34.1833 39.8224 34.1833ZM28.3109 44.7224V43.5943C28.3109 42.6897 28.5345 41.8511 28.9817 41.0783C29.4289 40.3056 30.0609 39.7184 30.8775 39.3167C32.2775 38.6427 33.7262 38.1372 35.2234 37.8C36.7206 37.4628 38.2536 37.2943 39.8224 37.2943C41.3908 37.2943 42.93 37.4595 44.4401 37.7901C45.9505 38.1206 47.3927 38.6295 48.7666 39.3167C49.6094 39.6927 50.2477 40.2712 50.6817 41.0521C51.1161 41.833 51.3333 42.6804 51.3333 43.5943V44.7224C51.3333 45.2731 51.147 45.7349 50.7745 46.1078C50.4015 46.4804 49.9397 46.6667 49.389 46.6667H30.2557C29.7047 46.6667 29.2429 46.4804 28.8703 46.1078C28.4974 45.7349 28.3109 45.2731 28.3109 44.7224ZM23.3333 27.9609C20.7666 27.9609 18.6342 27.112 16.9359 25.4141C15.238 23.7158 14.389 21.5833 14.389 19.0167C14.389 16.45 15.238 14.3175 16.9359 12.6193C18.6342 10.9214 20.7666 10.0724 23.3333 10.0724C25.9 10.0724 28.0324 10.9214 29.7307 12.6193C31.4286 14.3175 32.2775 16.45 32.2775 19.0167C32.2775 21.5833 31.4286 23.7158 29.7307 25.4141C28.0324 27.112 25.9 27.9609 23.3333 27.9609ZM4.66663 40.8333C4.66663 39.5111 4.99718 38.2958 5.65829 37.1875C6.3194 36.0792 7.28074 35.2333 8.54229 34.65C11.0658 33.4833 13.5428 32.6019 15.9734 32.0058C18.4039 31.4092 20.8539 31.1109 23.3234 31.1109C24.6133 31.1109 25.8092 31.1887 26.9109 31.3443C28.013 31.4998 29.1668 31.7073 30.3724 31.9667C29.8213 32.5177 29.2703 33.0686 28.7192 33.6193C28.1685 34.1703 27.6177 34.7214 27.0666 35.2724C26.4961 35.1558 25.8998 35.0811 25.2775 35.0484C24.6553 35.0161 24.0072 35 23.3333 35C21.1135 35 18.9414 35.2398 16.8169 35.7193C14.6928 36.1991 12.4835 37.0094 10.189 38.15C9.69632 38.3962 9.30082 38.772 9.00254 39.2776C8.70465 39.7831 8.55571 40.3017 8.55571 40.8333V42.7776H24.4224V44.6151C24.4224 45.0234 24.5066 45.4059 24.675 45.7625C24.8434 46.1191 25.0637 46.4205 25.3359 46.6667H8.55571C7.48627 46.6667 6.57063 46.2859 5.80879 45.5245C5.04735 44.7627 4.66663 43.847 4.66663 42.7776V40.8333ZM23.3333 24.0724C24.7722 24.0724 25.9744 23.5894 26.94 22.6234C27.906 21.6578 28.389 20.4556 28.389 19.0167C28.389 17.5778 27.906 16.3755 26.94 15.4099C25.9744 14.4439 24.7722 13.9609 23.3333 13.9609C21.8944 13.9609 20.6922 14.4439 19.7265 15.4099C18.7605 16.3755 18.2775 17.5778 18.2775 19.0167C18.2775 20.4556 18.7605 21.6578 19.7265 22.6234C20.6922 23.5894 21.8944 24.0724 23.3333 24.0724Z" fill="#08658C"/>
</g>
</svg>
