<svg width="45" height="45" viewBox="0 0 45 45" fill="none" xmlns="http://www.w3.org/2000/svg">
<mask id="mask0_1243_7434" style="mask-type:luminance" maskUnits="userSpaceOnUse" x="6" y="6" width="33" height="33">
<path d="M38.9189 6.08105H6.08105V38.9189H38.9189V6.08105Z" fill="white"/>
</mask>
<g mask="url(#mask0_1243_7434)">
<path d="M38.9189 22.5C38.9189 13.4321 31.5678 6.08105 22.5 6.08105C13.4321 6.08105 6.08105 13.4321 6.08105 22.5C6.08105 31.5678 13.4321 38.9189 22.5 38.9189C31.5678 38.9189 38.9189 31.5678 38.9189 22.5Z" fill="white"/>
<path d="M27.2673 15.325C27.4612 15.322 27.6983 15.3442 27.9467 15.4093C28.1581 15.4647 28.4691 15.5747 28.7734 15.806L28.9029 15.9117L29.0086 16.0127C29.3743 16.3847 29.5233 16.8046 29.587 17.0697L29.6285 17.2883C29.6582 17.4794 29.6949 17.8641 29.663 18.2301C29.4707 20.4466 28.6567 25.6957 28.2497 28.0834C28.1424 28.712 27.9555 29.3201 27.613 29.8198C27.2391 30.3652 26.6564 30.8005 25.9003 30.8769C24.9901 30.9688 24.2793 30.6139 23.823 30.3199C23.597 30.1742 23.3886 30.0139 23.228 29.8887C23.0502 29.7502 22.9225 29.6475 22.7837 29.5478C22.2284 29.1488 21.7941 28.8257 21.3728 28.511C20.9514 28.1962 20.5454 27.8916 20.0318 27.5204H20.0306C19.6287 27.2298 19.1869 26.831 18.9225 26.2757C18.8718 26.169 18.8322 26.0617 18.799 25.955C18.4861 26.0499 18.1539 26.1042 17.8049 26.0963H17.8025C17.3565 26.0856 16.8603 25.9647 16.5055 25.8671C16.1073 25.7575 15.6963 25.6222 15.357 25.5012C15.1106 25.4134 14.5446 25.2356 14.155 25.0286C13.9326 24.9104 13.585 24.6955 13.307 24.3206C12.9866 23.8885 12.8434 23.3595 12.9056 22.8158C12.993 22.0486 13.4763 21.5606 13.7726 21.3194C14.0911 21.0601 14.4649 20.8638 14.8178 20.7088C18.386 19.0033 20.7816 17.8713 21.9916 17.3191L24.1069 16.3654C24.676 16.1141 25.1208 15.9245 25.4751 15.7834C26.1496 15.5149 26.694 15.336 27.2603 15.325H27.2673ZM27.2935 17.027C26.8301 17.036 26.1191 17.3073 22.6982 18.8679C21.5 19.4148 19.105 20.5457 15.5138 22.2624C14.9305 22.5169 14.6255 22.7661 14.598 23.0094C14.5448 23.4763 15.1573 23.6218 15.9283 23.8967C16.5572 24.1211 17.4042 24.3838 17.8441 24.3943C18.2429 24.4031 18.6886 24.2231 19.1802 23.8528C22.5356 21.3683 24.2678 20.1123 24.3765 20.0853C24.4529 20.0663 24.5586 20.0427 24.6307 20.1127C24.7027 20.1827 24.6965 20.3152 24.6888 20.3514C24.6278 20.6362 21.4796 23.7775 21.2944 23.9881C20.6015 24.7777 19.8123 25.261 21.0284 26.1402C22.0806 26.9008 22.6939 27.3864 23.7779 28.1653C24.4709 28.6636 25.0142 29.2554 25.7293 29.1832C26.0584 29.1499 26.3986 28.8101 26.5714 27.7971C26.9794 25.4037 27.7817 20.2183 27.9669 18.0816C27.9832 17.8943 27.9631 17.655 27.9467 17.5496C27.9304 17.4445 27.8954 17.2944 27.771 17.1837C27.6232 17.0526 27.3954 17.0254 27.2935 17.027Z" fill="#08658C"/>
</g>
</svg>
