<svg width="153" height="51" viewBox="0 0 153 51" fill="none" xmlns="http://www.w3.org/2000/svg">
<g clip-path="url(#clip0_1031_7459)">
<path d="M35.2471 36.3278C35.0846 36.3278 34.9627 36.3278 34.8408 36.3278C31.8993 36.3278 28.966 36.3198 26.0245 36.3357C25.7076 36.3357 25.5857 36.2321 25.4801 35.9611C24.9357 34.5504 24.3669 33.1396 23.8225 31.7289C23.725 31.4818 23.6031 31.3941 23.3268 31.3941C19.7516 31.4021 16.1763 31.4021 12.601 31.3941C12.3004 31.3941 12.1785 31.4978 12.081 31.7528C11.5285 33.1795 10.9597 34.5982 10.4071 36.0169C10.3259 36.2241 10.2365 36.3357 9.97648 36.3357C6.92938 36.3278 3.88229 36.3278 0.835188 36.3278C0.79456 36.3278 0.753932 36.3198 0.664551 36.3118C0.713304 36.1843 0.762058 36.0647 0.810811 35.9452C4.93049 26.054 9.05016 16.1629 13.1617 6.26381C13.2836 5.96891 13.4136 5.8653 13.7468 5.8653C16.5663 5.88124 19.3778 5.88124 22.1974 5.8653C22.5061 5.8653 22.6362 5.96891 22.7499 6.2399C26.8615 16.131 30.9811 26.0222 35.1008 35.9213C35.1496 36.0408 35.1902 36.1684 35.2471 36.3278ZM17.9558 16.8962C16.9239 19.5104 15.9325 22.0211 14.9412 24.5477C16.9889 24.5477 18.9634 24.5477 20.9785 24.5477C19.971 21.9972 18.9796 19.4945 17.9558 16.8962Z" fill="#373435"/>
<path d="M152.044 36.3278C150.102 36.3278 148.209 36.2959 146.316 36.3437C145.649 36.3596 145.3 36.1604 144.967 35.5865C143.131 32.4303 141.237 29.3059 139.36 26.1656C139.287 26.0381 139.206 25.9186 139.051 25.8149C139.051 29.3059 139.051 32.7969 139.051 36.3039C137.134 36.3039 135.273 36.3039 133.388 36.3039C133.388 30.0153 133.388 23.7427 133.388 17.4302C133.534 17.4222 133.664 17.4063 133.794 17.4063C135.744 17.4063 137.695 17.4143 139.645 17.3983C139.929 17.3983 140.075 17.494 140.213 17.7251C142.164 21.0009 144.122 24.2767 146.072 27.5525C146.137 27.6641 146.21 27.7756 146.356 27.8872C146.356 24.4122 146.356 20.9371 146.356 17.4382C148.282 17.4382 150.143 17.4382 152.028 17.4382C152.044 23.7347 152.044 30.0073 152.044 36.3278Z" fill="#373435"/>
<path d="M36.531 17.4143C36.726 17.4143 36.8804 17.4143 37.0429 17.4143C40.2607 17.4143 43.4865 17.3983 46.7042 17.4222C48.2969 17.4302 49.8489 17.6454 51.3196 18.3308C53.936 19.5583 54.773 23.4797 52.4572 25.4085C52.0265 25.7671 51.4983 26.0301 51.0108 26.349C51.2546 26.4605 51.5471 26.5801 51.8234 26.7156C53.2372 27.409 54.196 28.4531 54.4317 30.0392C54.773 32.3347 53.5135 34.5345 51.3521 35.4829C50.0682 36.0488 48.7194 36.3118 47.3299 36.3198C43.8115 36.3517 40.2932 36.3357 36.7748 36.3357C36.6935 36.3357 36.6204 36.3278 36.531 36.3198C36.531 30.0073 36.531 23.7267 36.531 17.4143ZM42.2027 31.9361C43.9172 31.9361 45.591 31.9441 47.2649 31.9282C47.5006 31.9282 47.7443 31.8564 47.9718 31.7688C48.6381 31.5376 49.0119 30.9956 48.9957 30.35C48.9713 29.6088 48.6056 29.1226 47.8825 28.9234C47.5493 28.8357 47.1918 28.7719 46.8505 28.764C45.4042 28.748 43.9578 28.756 42.5114 28.756C42.4058 28.756 42.3083 28.7719 42.2027 28.7879C42.2027 29.8479 42.2027 30.8841 42.2027 31.9361ZM42.2027 24.7708C43.7872 24.7708 45.331 24.8107 46.8668 24.7549C47.9068 24.723 48.5081 23.9579 48.3619 23.0253C48.2481 22.308 47.7037 21.8378 46.7449 21.8059C45.2579 21.7581 43.7709 21.7979 42.2758 21.7979C42.2514 21.7979 42.2352 21.8218 42.2027 21.8457C42.2027 22.8102 42.2027 23.7746 42.2027 24.7708Z" fill="#373435"/>
<path d="M120.915 36.9335C119.087 36.8379 117.324 36.5749 115.658 35.8097C113.261 34.7098 111.685 32.9085 110.929 30.4377C110.116 27.7916 110.124 25.1455 111.181 22.5551C112.278 19.8771 114.301 18.1715 117.121 17.3904C119.761 16.6651 122.427 16.681 125.043 17.478C127.871 18.3388 129.829 20.18 130.804 22.9297C131.682 25.3925 131.739 27.9032 130.942 30.4059C129.894 33.6976 127.57 35.6742 124.19 36.4633C123.125 36.7183 122.012 36.7821 120.915 36.9335ZM125.766 26.8591C125.75 26.6439 125.75 26.3649 125.717 26.086C125.457 23.6231 124.052 21.6545 121.126 21.5429C118.892 21.4632 117.137 22.5711 116.446 24.6593C115.942 26.1736 115.991 27.696 116.487 29.2023C116.706 29.8798 117.088 30.4776 117.608 30.9797C118.689 32.0238 120.038 32.2789 121.468 32.1673C123.247 32.0238 124.531 31.1551 125.254 29.5212C125.62 28.7002 125.75 27.8235 125.766 26.8591Z" fill="#373435"/>
<path d="M105.103 29.4016C106.395 31.705 107.678 33.9925 108.995 36.3278C108.816 36.3278 108.694 36.3278 108.58 36.3278C106.809 36.3278 105.03 36.3198 103.258 36.3358C102.99 36.3358 102.852 36.2481 102.73 36.0249C101.771 34.3034 100.788 32.5897 99.8373 30.8682C99.6748 30.5812 99.496 30.4856 99.1791 30.4936C98.586 30.5175 97.9928 30.5015 97.3427 30.5015C97.3427 32.4463 97.3427 34.3671 97.3427 36.3039C95.4332 36.3039 93.5725 36.3039 91.6792 36.3039C91.6792 30.0233 91.6792 23.7427 91.6792 17.4462C91.7848 17.4302 91.8742 17.4143 91.9636 17.4143C95.1082 17.4223 98.2447 17.3904 101.389 17.4621C103.12 17.502 104.794 17.9085 106.265 18.8808C107.743 19.8532 108.491 21.264 108.735 22.9616C108.914 24.205 108.865 25.4244 108.28 26.5801C107.662 27.7916 106.695 28.6524 105.468 29.2342C105.355 29.2821 105.249 29.3379 105.103 29.4016ZM97.3509 26.2135C98.6347 26.2135 99.8617 26.2534 101.089 26.1976C101.828 26.1657 102.535 25.9186 102.901 25.1853C103.583 23.8304 102.884 22.3559 101.373 22.1726C100.057 22.0132 98.7078 22.061 97.3427 22.0132C97.3509 23.4558 97.3509 24.8346 97.3509 26.2135Z" fill="#373435"/>
<path d="M79.7346 28.9951C79.7346 29.9197 79.7346 30.7804 79.7346 31.6891C82.9686 31.6891 86.2025 31.6891 89.4528 31.6891C89.4528 33.2512 89.4528 34.7736 89.4528 36.3118C84.3337 36.3118 79.2145 36.3118 74.071 36.3118C74.071 30.0312 74.071 23.7427 74.071 17.4382C79.1495 17.4382 84.2037 17.4382 89.3065 17.4382C89.3065 18.9605 89.3065 20.4749 89.3065 22.037C86.1294 22.037 82.9523 22.037 79.7508 22.037C79.7508 22.8659 79.7508 23.655 79.7508 24.5078C82.7167 24.5078 85.6825 24.5078 88.6809 24.5078C88.6809 26.0301 88.6809 27.4967 88.6809 28.9951C85.6988 28.9951 82.7329 28.9951 79.7346 28.9951Z" fill="#373435"/>
<path d="M61.1676 39.5797C61.4601 38.6232 61.7445 37.7146 62.0371 36.7582C59.6725 36.4952 57.4867 35.8416 55.5691 34.383C56.4223 33.1397 57.2592 31.9122 58.0474 30.7565C59.0956 31.1551 60.0788 31.6014 61.1107 31.8963C62.549 32.3107 64.0197 32.3028 65.4904 32.0158C65.7098 31.976 65.9292 31.8804 66.1242 31.7688C66.8637 31.3224 66.9287 30.2943 66.173 29.8957C65.5067 29.5451 64.751 29.3219 64.0116 29.1625C62.0858 28.748 60.1926 28.2778 58.5187 27.2018C56.6823 26.0142 55.8941 24.3165 56.0973 22.1964C56.2841 20.1879 57.3242 18.7214 59.1606 17.8128C60.7126 17.0476 62.3865 16.8723 64.0928 16.8803C66.2867 16.8962 68.4319 17.1911 70.4633 18.0599C70.959 18.2751 71.4302 18.5221 71.9422 18.7692C71.0727 20.0445 70.2358 21.2799 69.3989 22.4993C68.635 22.2762 67.8956 22.0211 67.1318 21.8537C65.7667 21.5588 64.3854 21.3835 62.9878 21.6545C62.0614 21.8298 61.5902 22.5073 61.8502 23.2406C62.0046 23.671 62.354 23.9101 62.7684 24.0216C63.7434 24.2926 64.7266 24.5238 65.7098 24.7629C66.9855 25.0737 68.2369 25.4483 69.407 26.0381C71.4059 27.0424 72.4378 28.6285 72.3972 30.8362C72.3566 33.1237 71.3327 34.8214 69.1957 35.8177C68.1231 36.3198 66.9774 36.5669 65.7992 36.6864C65.5311 36.7183 65.4336 36.8219 65.3604 37.0531C65.1492 37.7943 64.9216 38.5276 64.686 39.2608C64.6535 39.3724 64.5154 39.5318 64.426 39.5398C63.3697 39.5876 62.2971 39.5797 61.1676 39.5797Z" fill="#373435"/>
<path d="M36.5308 0.381753C37.8228 0.381753 39.0904 0.373783 40.358 0.389724C41.1705 0.397694 41.9831 0.397694 42.7875 0.493337C44.9083 0.748387 46.1028 2.42215 45.599 4.37487C45.3877 5.19581 44.8677 5.77764 44.0551 6.16819C44.1933 6.23992 44.307 6.29571 44.4127 6.3515C45.6396 6.90942 46.2003 7.8818 46.1922 9.18096C46.184 10.4881 45.6071 11.4764 44.4208 12.0981C43.6732 12.4886 42.8607 12.5843 42.0319 12.648C41.845 12.664 41.65 12.664 41.4631 12.664C39.8298 12.664 38.1885 12.664 36.5227 12.664C36.5308 8.57522 36.5308 4.51037 36.5308 0.381753ZM37.8066 11.5322C39.2854 11.5322 40.7155 11.5402 42.1537 11.5242C42.4706 11.5242 42.8038 11.4525 43.1126 11.3728C44.2258 11.0859 44.8921 10.233 44.8839 9.14111C44.8677 7.97744 44.2339 7.12462 43.1613 6.87754C42.8607 6.80581 42.5438 6.7819 42.235 6.77393C40.8861 6.76596 39.5292 6.76596 38.1722 6.77393C38.0503 6.77393 37.9366 6.78987 37.7984 6.79784C37.8065 8.38393 37.8066 9.94611 37.8066 11.5322ZM37.8066 5.66606C39.4479 5.66606 41.0487 5.68997 42.6413 5.65809C43.4945 5.63418 44.1039 5.11611 44.2908 4.31111C44.5914 3.00398 44.2501 1.80844 42.5681 1.54542C42.4381 1.52151 42.3 1.50556 42.1619 1.49759C40.8049 1.48165 39.456 1.46571 38.0991 1.45774C38.0097 1.45774 37.9122 1.48165 37.8066 1.48962C37.8066 2.88443 37.8066 4.26329 37.8066 5.66606Z" fill="#373435"/>
<path d="M97.294 7.91368C97.294 9.52368 97.294 11.0619 97.294 12.6321C96.8715 12.6321 96.4733 12.6321 96.0508 12.6321C96.0508 8.55927 96.0508 4.49442 96.0508 0.445512C96.0833 0.421601 96.0914 0.40566 96.1077 0.40566C98.0822 0.41363 100.065 0.310017 102.031 0.453482C104.193 0.612888 105.387 2.08739 105.355 4.23937C105.322 6.38338 103.981 7.76224 101.731 7.8818C100.439 7.94556 99.1304 7.91368 97.8303 7.92165C97.6678 7.91368 97.5134 7.91368 97.294 7.91368ZM97.3184 1.52947C97.3184 3.25903 97.3184 5.00452 97.3184 6.76596C97.3834 6.7819 97.4403 6.81378 97.489 6.80581C98.9516 6.79784 100.414 6.81378 101.869 6.75798C102.893 6.71813 103.713 6.00081 103.949 5.02046C104.046 4.61398 104.054 4.17561 104.03 3.76115C103.957 2.58952 103.25 1.66497 102.072 1.56135C100.52 1.42586 98.9435 1.50556 97.3752 1.48962C97.359 1.48962 97.3427 1.50556 97.3184 1.52947Z" fill="#373435"/>
<path d="M115.829 12.6481C115.43 12.6481 115.065 12.6481 114.642 12.6481C114.642 12.1061 114.642 11.5721 114.642 11.1178C114.106 11.5482 113.635 12.0901 113.033 12.393C110.588 13.6284 107.605 12.0742 107.126 9.3643C106.866 7.87386 107.077 6.48702 108.085 5.27554C109.417 3.66554 112.911 3.07574 114.463 5.54653C114.488 5.58638 114.528 5.62623 114.634 5.73782C114.634 5.13207 114.634 4.61401 114.634 4.06405C115.065 4.06405 115.438 4.06405 115.837 4.06405C115.829 6.91742 115.829 9.76282 115.829 12.6481ZM114.626 8.22455C114.602 8.03326 114.577 7.69054 114.504 7.35579C114.212 6.02475 113.236 5.09222 111.985 4.93282C110.555 4.7495 109.336 5.31539 108.751 6.47905C108.142 7.69054 108.134 8.94187 108.735 10.1613C109.645 12.0025 112.221 12.401 113.675 10.9344C114.374 10.2251 114.618 9.34039 114.626 8.22455Z" fill="#373435"/>
<path d="M79.6046 11.5641C78.4589 12.6481 76.9963 12.9509 75.4361 12.7756C73.3804 12.5365 72.0478 11.0859 71.8609 9.00563C71.7471 7.74632 71.8771 6.52687 72.6653 5.46682C73.7379 4.02419 75.2411 3.64162 76.9475 3.92855C78.7026 4.23142 79.6452 5.39508 80.0352 7.02102C80.1734 7.59488 80.2059 8.19266 80.2871 8.83028C77.8576 8.83028 75.5093 8.83028 73.161 8.83028C73.0147 10.3287 74.1929 11.6677 75.688 11.7873C76.8987 11.8829 77.9551 11.5163 78.8895 10.783C79.1252 11.0381 79.3527 11.2851 79.6046 11.5641ZM78.9383 7.79414C78.8651 5.953 77.5975 4.76543 75.8505 4.8531C74.2904 4.93281 73.0472 6.28776 73.1691 7.79414C75.0786 7.79414 76.9881 7.79414 78.9383 7.79414Z" fill="#373435"/>
<path d="M133.355 12.6321C133.242 12.648 133.217 12.648 133.185 12.656C132.291 12.8234 131.698 12.4966 131.178 11.7474C130.325 10.5359 129.35 9.41209 128.391 8.20857C127.944 8.58318 127.513 8.93387 127.099 9.30847C127.026 9.38021 127.017 9.54758 127.017 9.67511C127.009 10.6475 127.017 11.6119 127.017 12.6161C126.619 12.6161 126.237 12.6161 125.823 12.6161C125.823 8.32016 125.823 4.00823 125.823 -0.319641C126.205 -0.319641 126.579 -0.319641 126.993 -0.319641C126.993 2.39026 126.993 5.10016 126.993 7.91367C127.196 7.75427 127.334 7.65065 127.456 7.54704C128.716 6.47902 129.983 5.41897 131.235 4.34298C131.487 4.12778 131.73 4.00823 132.063 4.03214C132.437 4.06402 132.811 4.04011 133.307 4.04011C131.901 5.22768 130.585 6.33555 129.236 7.47531C130.617 9.19689 131.966 10.8946 133.355 12.6321Z" fill="#373435"/>
<path d="M69.7646 12.648C69.2933 12.648 68.9277 12.648 68.5051 12.648C68.5051 12.4807 68.5051 12.3292 68.5051 12.1778C68.4889 10.5598 68.5295 8.93388 68.4401 7.32388C68.3264 5.34725 66.4737 4.29517 64.6211 5.10814C63.4835 5.61027 63.191 6.60655 63.1748 7.70645C63.1504 9.1969 63.1666 10.6794 63.1666 12.1698C63.1666 12.3133 63.1666 12.4568 63.1666 12.6321C62.7604 12.6321 62.3703 12.6321 61.9722 12.6321C61.9722 9.7867 61.9722 6.94928 61.9722 4.07997C62.3541 4.07997 62.736 4.07997 63.1504 4.07997C63.1504 4.47849 63.1504 4.877 63.1504 5.26754C63.2073 5.26754 63.2398 5.27551 63.2479 5.26754C64.0604 3.96042 65.3118 3.72131 66.7094 3.95245C68.3751 4.22344 69.464 5.24363 69.6102 6.93334C69.7727 8.81433 69.7159 10.7192 69.7646 12.648Z" fill="#373435"/>
<path d="M54.0983 11.6517C55.9997 11.6517 57.8117 11.6517 59.64 11.6517C59.64 11.9865 59.64 12.2894 59.64 12.6161C57.1861 12.6161 54.7484 12.6161 52.2945 12.6161C52.2213 12.2814 52.2701 12.0104 52.4976 11.7314C54.1877 9.64322 55.8616 7.53906 57.5436 5.44288C57.6248 5.33926 57.698 5.22768 57.828 5.0603C56.016 5.0603 54.269 5.0603 52.4895 5.0603C52.4895 4.70961 52.4895 4.40674 52.4895 4.07996C54.8703 4.07996 57.2429 4.07996 59.6319 4.07996C59.7456 4.43065 59.6319 4.70961 59.4043 4.98857C57.7305 7.07679 56.0647 9.165 54.399 11.2612C54.3177 11.3568 54.2446 11.4684 54.0983 11.6517Z" fill="#373435"/>
<path d="M81.8474 11.7155C82.0424 11.4445 82.2293 11.1895 82.4325 10.9025C83.2206 11.3887 84.0576 11.7315 84.9758 11.7474C85.6014 11.7554 86.2434 11.6836 86.8528 11.5481C87.4216 11.4206 87.7954 11.0141 87.836 10.4164C87.8685 9.83453 87.6166 9.36428 87.0397 9.16503C86.4709 8.96577 85.8696 8.85418 85.2927 8.67884C84.5776 8.46364 83.8138 8.3122 83.1556 7.96948C81.6605 7.18839 81.628 5.31537 83.0744 4.44661C83.4725 4.19953 83.9682 4.04013 84.4314 3.97636C85.6746 3.80102 86.9178 3.87275 88.0879 4.40676C88.2423 4.47849 88.3885 4.57414 88.5673 4.66978C88.3641 4.95671 88.1854 5.21176 87.9741 5.50666C87.1859 5.08423 86.3327 4.86904 85.4471 4.92483C84.9108 4.95671 84.3257 5.05235 83.8626 5.29146C83.0256 5.72983 83.0744 6.74206 83.9113 7.16448C84.3501 7.38765 84.8458 7.5072 85.3252 7.6427C85.9752 7.81805 86.6415 7.92166 87.2834 8.12889C88.5023 8.51146 89.0548 9.21285 89.0792 10.3048C89.1036 11.3489 88.5592 12.1459 87.3891 12.5125C85.5364 13.0864 83.7325 12.9031 82.0506 11.8909C81.9855 11.8351 81.9287 11.7793 81.8474 11.7155Z" fill="#373435"/>
<path d="M119.534 12.6481C119.111 12.6481 118.746 12.6481 118.347 12.6481C118.347 9.79469 118.347 6.94929 118.347 4.07999C118.721 4.07999 119.103 4.07999 119.534 4.07999C119.534 4.4785 119.534 4.86905 119.534 5.30741C120.842 3.809 122.288 3.48221 124.1 4.27127C124.011 4.41474 123.93 4.5582 123.84 4.70167C123.751 4.84513 123.653 4.9886 123.58 5.09221C123.085 5.02048 122.621 4.90093 122.15 4.90093C120.558 4.90093 119.582 5.84142 119.542 7.43548C119.501 8.99766 119.526 10.5678 119.526 12.13C119.534 12.2974 119.534 12.4488 119.534 12.6481Z" fill="#373435"/>
<path d="M87.6084 44.1068C87.6572 44.0829 87.6653 44.0749 87.6815 44.0749C88.4616 44.0112 88.4616 44.0112 88.7622 44.7205C89.331 46.0675 89.8917 47.4145 90.4605 48.7615C90.5092 48.881 90.5742 49.0006 90.6555 49.1759C91.1755 47.9405 91.6712 46.7689 92.1587 45.5973C92.305 45.2386 92.4838 44.8959 92.5975 44.5292C92.7113 44.1467 92.9225 43.9793 93.3288 44.051C93.4344 44.067 93.5401 44.051 93.6782 44.051C93.6782 46.0436 93.6782 48.0123 93.6782 50.0128C93.4994 50.0128 93.3207 50.0128 93.0932 50.0128C93.0932 48.3948 93.0932 46.7848 93.0932 45.1669C93.0607 45.1589 93.0282 45.1509 92.9957 45.1429C92.9307 45.2784 92.8657 45.4139 92.8088 45.5494C92.2237 46.9363 91.6468 48.3231 91.0699 49.702C90.9968 49.8853 90.948 50.0526 90.6636 50.0526C90.3792 50.0526 90.298 49.9092 90.2167 49.702C89.6317 48.2912 89.0385 46.8805 88.4453 45.4777C88.3966 45.3581 88.3397 45.2386 88.2097 45.127C88.2097 46.7529 88.2097 48.3789 88.2097 50.0287C87.9822 50.0287 87.8197 50.0287 87.6165 50.0287C87.6084 48.0521 87.6084 46.0834 87.6084 44.1068Z" fill="#373435" stroke="#373435" stroke-width="0.406935"/>
<path d="M52.8716 44.0988C53.3835 43.9554 53.6841 44.1148 53.9604 44.5452C54.9355 46.0675 55.9593 47.5659 57.0481 49.0643C57.0481 47.4145 57.0481 45.7566 57.0481 44.0829C57.2757 44.0829 57.4463 44.0829 57.6494 44.0829C57.6494 46.0515 57.6494 48.0202 57.6494 49.9889C57.0563 50.1483 56.9588 50.1164 56.6337 49.6302C55.6749 48.1876 54.708 46.745 53.7491 45.3023C53.6841 45.2067 53.6191 45.119 53.4891 44.9357C53.4891 46.6971 53.4891 48.347 53.4891 50.0287C53.2697 50.0287 53.091 50.0287 52.8797 50.0287C52.8716 48.0521 52.8716 46.0834 52.8716 44.0988Z" fill="#373435" stroke="#373435" stroke-width="0.406935"/>
<path d="M140.409 46.7848C140.352 45.0393 139.125 44.1705 137.386 44.585C136.963 44.6886 136.557 44.8799 136.102 45.0473C136.029 44.9596 135.923 44.8241 135.777 44.6488C136.061 44.5053 136.305 44.3459 136.573 44.2423C137.256 43.9633 137.979 43.9235 138.694 44.0111C139.694 44.1387 140.441 44.6488 140.782 45.6132C141.148 46.6493 141.164 47.7014 140.701 48.7136C140.36 49.4548 139.775 49.9331 138.954 50.0446C138.467 50.1164 137.947 50.1483 137.467 50.0606C135.98 49.7896 135.208 48.4745 135.371 46.7848C137.036 46.7848 138.71 46.7848 140.409 46.7848ZM140.417 47.3507C138.93 47.3507 137.459 47.3507 135.98 47.3507C135.907 48.6738 136.703 49.5186 138.052 49.5983C139.474 49.678 140.335 48.881 140.417 47.3507Z" fill="#373435" stroke="#373435" stroke-width="0.406935"/>
<path d="M96.7659 46.7689C98.456 46.7689 100.114 46.7689 101.771 46.7689C101.861 45.5176 101.072 44.6169 99.8373 44.5213C99.0166 44.4575 98.2528 44.6408 97.5459 45.1031C97.4322 44.9676 97.3265 44.8321 97.1884 44.6727C97.3753 44.5531 97.5297 44.4256 97.7084 44.3459C98.5372 43.9713 99.4067 43.8836 100.284 44.051C101.276 44.2343 101.934 44.8162 102.234 45.7646C102.494 46.5776 102.519 47.4145 102.283 48.2354C101.966 49.3273 101.235 49.9809 100.073 50.1164C97.7572 50.3874 96.5708 48.8412 96.7659 46.7689ZM97.3997 47.3427C97.2534 48.626 98.131 49.5585 99.5204 49.5983C100.926 49.6462 101.869 48.7136 101.796 47.3427C100.325 47.3427 98.8623 47.3427 97.3997 47.3427Z" fill="#373435" stroke="#373435" stroke-width="0.406935"/>
<path d="M44.1771 46.7769C45.8591 46.7769 47.5248 46.7769 49.1824 46.7769C49.2962 45.5574 48.508 44.6249 47.2973 44.5213C46.4604 44.4495 45.6884 44.6249 44.9571 45.0951C44.8434 44.9596 44.7377 44.8321 44.5996 44.6647C44.7865 44.5452 44.9409 44.4176 45.1196 44.3379C45.9403 43.9633 46.8179 43.8757 47.6955 44.0351C48.6462 44.2104 49.3125 44.7524 49.6131 45.669C49.9463 46.6812 49.9625 47.7094 49.5075 48.6977C49.1662 49.4389 48.5893 49.9171 47.7686 50.0367C47.2811 50.1084 46.761 50.1563 46.2816 50.0606C44.7946 49.7657 43.9902 48.4825 44.1771 46.7769ZM49.1987 47.3427C47.7361 47.3427 46.2735 47.3427 44.819 47.3427C44.689 48.6658 45.5828 49.5904 46.9804 49.6063C48.378 49.6143 49.28 48.7057 49.1987 47.3427Z" fill="#373435" stroke="#373435" stroke-width="0.406935"/>
<path d="M118.266 46.7928C118.25 45.0632 117.015 44.1705 115.276 44.585C114.845 44.6886 114.447 44.8799 113.976 45.0473C113.911 44.9676 113.797 44.84 113.667 44.6727C113.838 44.5611 113.984 44.4415 114.147 44.3698C115.057 43.9394 116.024 43.8597 116.99 44.0988C117.779 44.2981 118.356 44.7922 118.632 45.5653C119.014 46.6254 119.038 47.7014 118.551 48.7375C118.226 49.4309 117.673 49.8773 116.909 50.0446C114.602 50.5468 113.009 49.1599 113.22 46.8007C114.902 46.7928 116.568 46.7928 118.266 46.7928ZM113.862 47.3427C113.813 48.7455 114.675 49.6142 116.072 49.6063C117.47 49.5983 118.356 48.6897 118.258 47.3427C116.804 47.3427 115.349 47.3427 113.862 47.3427Z" fill="#373435" stroke="#373435" stroke-width="0.406935"/>
<path d="M16.7045 46.7769C18.3865 46.7769 20.0441 46.7769 21.7017 46.7769C21.8236 45.5654 21.0273 44.6169 19.8247 44.5213C18.9634 44.4495 18.3865 44.585 17.4764 45.0871C17.3708 44.9596 17.2652 44.8321 17.127 44.6647C17.3139 44.5452 17.4683 44.4176 17.6471 44.3379C18.4678 43.9633 19.3372 43.8757 20.2229 44.0351C21.1736 44.2104 21.8399 44.7524 22.1405 45.669C22.4818 46.6972 22.4899 47.7333 22.0186 48.7296C21.6774 49.4469 21.1005 49.9251 20.296 50.0367C19.7922 50.1005 19.2559 50.1483 18.7765 50.0447C17.3058 49.7338 16.5339 48.4984 16.7045 46.7769ZM21.7342 47.3427C20.2473 47.3427 18.7928 47.3427 17.3383 47.3427C17.2164 48.6499 18.0534 49.5425 19.4347 49.5983C20.8486 49.6621 21.7505 48.7933 21.7342 47.3427Z" fill="#373435" stroke="#373435" stroke-width="0.406935"/>
<path d="M48.5649 4.07202C48.9631 4.07202 49.3287 4.07202 49.735 4.07202C49.735 6.92539 49.735 9.76281 49.735 12.6321C49.3531 12.6321 48.9712 12.6321 48.5649 12.6321C48.5649 9.77875 48.5649 6.93336 48.5649 4.07202Z" fill="#373435"/>
<path d="M3.70378 50.1323C1.86739 50.1243 0.689182 48.889 0.697307 46.9601C0.697307 45.2067 1.9649 43.9793 3.7444 43.9872C5.53204 43.9952 6.74275 45.2545 6.74275 47.1036C6.73462 48.889 5.49141 50.1323 3.70378 50.1323ZM1.3311 46.9681C1.37173 47.9086 1.55862 48.7216 2.35493 49.2237C3.18374 49.7497 4.07755 49.7577 4.93887 49.3114C5.84893 48.8332 6.11708 47.9644 6.10083 47.0159C6.08458 46.1551 5.85706 45.3422 5.03637 44.864C4.20756 44.3778 3.33 44.3698 2.48494 44.8161C1.59925 45.2864 1.37173 46.1233 1.3311 46.9681Z" fill="#373435" stroke="#373435" stroke-width="0.406935"/>
<path d="M106.07 50.0367C105.826 50.0367 105.655 50.0367 105.452 50.0367C105.452 48.0521 105.452 46.0834 105.452 44.0829C105.639 44.0829 105.826 44.0829 106.045 44.0829C106.045 44.9357 106.045 45.7965 106.045 46.6812C107.224 46.6812 108.369 46.6812 109.556 46.6812C109.556 45.8284 109.556 44.9756 109.556 44.0909C109.783 44.0909 109.962 44.0909 110.173 44.0909C110.173 46.0515 110.173 48.0202 110.173 50.0208C110.002 50.0208 109.816 50.0208 109.588 50.0208C109.588 49.1201 109.588 48.2115 109.588 47.279C108.402 47.279 107.256 47.279 106.07 47.279C106.07 48.1796 106.07 49.0882 106.07 50.0367Z" fill="#373435" stroke="#373435" stroke-width="0.406935"/>
<path d="M75.5337 44.0749C76.8744 44.0749 78.1826 44.0749 79.5315 44.0749C79.5396 44.2263 79.5477 44.3618 79.5559 44.5611C78.4183 44.5611 77.3051 44.5611 76.1594 44.5611C76.1594 45.3023 76.1594 45.9798 76.1594 46.7131C77.2076 46.7131 78.2558 46.7131 79.3202 46.7131C79.3202 46.9123 79.3202 47.0478 79.3202 47.2391C78.272 47.2391 77.2319 47.2391 76.1594 47.2391C76.1594 48.0202 76.1594 48.7535 76.1594 49.5345C77.3051 49.5345 78.4183 49.5345 79.564 49.5345C79.564 49.7179 79.564 49.8533 79.564 50.0287C78.2314 50.0287 76.9069 50.0287 75.5418 50.0287C75.5337 48.0521 75.5337 46.0834 75.5337 44.0749Z" fill="#373435" stroke="#373435" stroke-width="0.406935"/>
<path d="M66.0838 50.0048C65.6775 50.1244 65.4175 50.0526 65.2875 49.6222C65.1656 49.2317 64.9625 48.865 64.8243 48.4745C64.7512 48.2673 64.6456 48.1876 64.4099 48.1955C63.6786 48.2115 62.9473 48.2115 62.216 48.1955C61.9885 48.1876 61.8748 48.2673 61.7935 48.4665C61.6554 48.8411 61.4522 49.1918 61.3466 49.5744C61.2166 50.0207 60.9566 50.1323 60.4934 49.9968C60.8428 49.1918 61.1841 48.3868 61.5254 47.5818C61.9966 46.4819 62.4598 45.382 62.9473 44.2821C62.9961 44.1705 63.1749 44.059 63.2967 44.059C63.4186 44.059 63.6055 44.1626 63.6543 44.2662C64.4668 46.1153 65.2631 47.9803 66.0594 49.8374C66.0676 49.9012 66.0676 49.957 66.0838 50.0048ZM64.4506 47.6456C64.0605 46.729 63.703 45.8602 63.2967 44.9118C62.8905 45.8762 62.5248 46.7449 62.151 47.6456C62.9311 47.6456 63.6543 47.6456 64.4506 47.6456Z" fill="#373435" stroke="#373435" stroke-width="0.406935"/>
<path d="M41.0731 44.4575C40.9512 44.6249 40.8699 44.7444 40.7724 44.872C40.4718 44.7763 40.1874 44.6249 39.8867 44.601C39.3423 44.5691 38.7898 44.5611 38.2535 44.6408C37.8472 44.7046 37.6359 45.0393 37.6197 45.4618C37.6034 45.8922 37.8228 46.1871 38.2047 46.3305C38.7085 46.5138 39.2448 46.6175 39.7567 46.7848C40.0736 46.8884 40.3905 47.016 40.6749 47.1913C41.2925 47.5659 41.4468 48.1557 41.3493 48.8173C41.26 49.431 40.8699 49.8375 40.2686 49.9809C39.0742 50.2679 37.9122 50.1881 36.8071 49.5186C36.9209 49.3433 37.0184 49.2078 37.1322 49.0404C37.9285 49.5107 38.7816 49.6701 39.6755 49.5665C40.4393 49.4788 40.7887 49.0723 40.7399 48.3789C40.7155 48.0282 40.5449 47.7492 40.228 47.6217C39.7811 47.4384 39.3098 47.3268 38.8548 47.1674C38.4973 47.0479 38.1316 46.9522 37.7903 46.7848C37.1809 46.482 36.9128 45.9719 36.9859 45.3103C37.0509 44.7046 37.4328 44.322 38.0016 44.1387C39.0579 43.8119 40.0655 43.9474 41.0731 44.4575Z" fill="#373435" stroke="#373435" stroke-width="0.406935"/>
<path d="M143.772 49.5266C143.902 49.3273 143.992 49.1998 144.097 49.0404C144.91 49.5106 145.771 49.678 146.681 49.5585C147.494 49.4549 147.933 48.8571 147.656 48.1637C147.551 47.9006 147.266 47.6536 146.998 47.5181C146.641 47.3427 146.226 47.2869 145.836 47.1674C145.487 47.0638 145.138 46.9602 144.804 46.8087C144.195 46.5298 143.878 45.9798 143.943 45.3581C144.008 44.7205 144.39 44.314 144.999 44.1307C146.031 43.8119 147.023 43.9474 148.006 44.4336C147.949 44.5372 147.908 44.6169 147.86 44.6886C147.819 44.7524 147.762 44.8082 147.697 44.8799C147.039 44.577 146.373 44.4097 145.649 44.5212C145.487 44.5451 145.333 44.577 145.178 44.6328C144.804 44.7763 144.585 45.0473 144.569 45.4458C144.553 45.8682 144.756 46.1791 145.146 46.3146C145.649 46.4979 146.186 46.6095 146.698 46.7768C147.006 46.8725 147.307 46.992 147.583 47.1514C148.225 47.5181 148.396 48.1079 148.307 48.7933C148.217 49.4548 147.787 49.8534 147.169 49.9968C146.015 50.2678 144.878 50.1722 143.772 49.5266Z" fill="#373435" stroke="#373435" stroke-width="0.406935"/>
<path d="M13.1048 44.585C11.8372 44.585 10.6671 44.585 9.45639 44.585C9.45639 44.4017 9.45639 44.2582 9.45639 44.0829C10.9515 44.0829 12.4466 44.0829 14.0392 44.0829C13.9498 44.2821 13.9092 44.4734 13.8036 44.6169C12.731 46.1153 11.6584 47.6058 10.5777 49.1042C10.4965 49.2237 10.4152 49.3353 10.2852 49.5266C11.5528 49.5266 12.7473 49.5266 13.9823 49.5266C13.9905 49.7099 13.9986 49.8534 14.0067 50.0287C12.4791 50.0287 10.9759 50.0287 9.35889 50.0287C9.44827 49.8215 9.4889 49.6302 9.59453 49.4788C10.659 47.9883 11.7316 46.5138 12.8041 45.0314C12.8854 44.8959 12.9667 44.7763 13.1048 44.585Z" fill="#373435" stroke="#373435" stroke-width="0.406935"/>
<path d="M70.0327 46.9203C70.6178 46.0675 71.1866 45.2784 71.6985 44.4575C71.9422 44.0749 72.2185 43.9793 72.6736 44.1068C72.5517 44.2821 72.446 44.4415 72.3404 44.6009C71.731 45.4936 71.1216 46.3863 70.5284 47.2869C70.4228 47.4543 70.3496 47.6775 70.3496 47.8688C70.3253 48.5781 70.3415 49.2955 70.3415 50.0207C70.1221 50.0207 69.9515 50.0207 69.7321 50.0207C69.7321 49.3114 69.7483 48.61 69.724 47.9086C69.7158 47.6855 69.6427 47.4384 69.5208 47.2551C68.8301 46.203 68.1151 45.1589 67.3838 44.0829C67.8388 43.9952 68.1313 44.051 68.3832 44.4655C68.8708 45.2944 69.4477 46.0675 70.0327 46.9203Z" fill="#373435" stroke="#373435" stroke-width="0.406935"/>
<path d="M25.3989 44.0749C25.6021 44.0749 25.7727 44.0749 25.9921 44.0749C25.9921 45.8841 25.9921 47.6775 25.9921 49.5345C27.0647 49.5345 28.1047 49.5345 29.153 49.5345C29.153 49.7258 29.153 49.8693 29.153 50.0287C27.9016 50.0287 26.6665 50.0287 25.3989 50.0287C25.3989 48.0521 25.3989 46.0834 25.3989 44.0749Z" fill="#373435" stroke="#373435" stroke-width="0.406935"/>
<path d="M121.939 44.0749C122.134 44.0749 122.305 44.0749 122.524 44.0749C122.524 45.8841 122.524 47.6775 122.524 49.5345C123.605 49.5345 124.637 49.5345 125.685 49.5345C125.685 49.7258 125.685 49.8693 125.685 50.0287C124.434 50.0287 123.199 50.0287 121.931 50.0287C121.939 48.0521 121.939 46.0834 121.939 44.0749Z" fill="#373435" stroke="#373435" stroke-width="0.406935"/>
<path d="M128.74 44.0749C128.935 44.0749 129.09 44.0749 129.301 44.0749C129.301 45.8762 129.301 47.6775 129.301 49.5186C130.373 49.5186 131.397 49.5186 132.454 49.5186C132.454 49.7099 132.454 49.8613 132.454 50.0287C131.227 50.0287 130 50.0287 128.74 50.0287C128.74 48.0521 128.74 46.0834 128.74 44.0749Z" fill="#373435" stroke="#373435" stroke-width="0.406935"/>
<path d="M151.394 44.0749C151.589 44.0749 151.752 44.0749 151.939 44.0749C151.939 46.0515 151.939 48.0282 151.939 50.0287C151.76 50.0287 151.589 50.0287 151.394 50.0287C151.394 48.0521 151.394 46.0834 151.394 44.0749Z" fill="#373435" stroke="#373435" stroke-width="0.406935"/>
<path d="M49.9787 1.53747C49.9787 1.96786 49.5968 2.35044 49.1499 2.35044C48.703 2.35841 48.3292 1.99177 48.313 1.54544C48.2967 1.09113 48.6949 0.700585 49.158 0.708555C49.6049 0.724496 49.9787 1.09113 49.9787 1.53747Z" fill="#373435"/>
<path d="M2.85049 42.751C2.74485 42.6075 2.58234 42.48 2.54984 42.3206C2.49296 42.0735 2.67985 41.8822 2.91549 41.9221C3.06988 41.946 3.28927 42.1373 3.29739 42.2728C3.31364 42.4242 3.12676 42.5916 3.02925 42.751C2.96424 42.751 2.90736 42.751 2.85049 42.751Z" fill="#373435" stroke="#373435" stroke-width="0.406935"/>
<path d="M5.06868 42.3047C4.81679 42.488 4.64615 42.6952 4.53239 42.6713C4.36988 42.6394 4.248 42.4322 4.10986 42.2967C4.248 42.1692 4.37801 41.9619 4.54052 41.9301C4.6624 41.9061 4.82492 42.1213 5.06868 42.3047Z" fill="#373435" stroke="#373435" stroke-width="0.406935"/>
<path d="M151.581 42.7589C151.475 42.5995 151.289 42.4401 151.297 42.2887C151.305 42.1532 151.532 41.938 151.662 41.93C151.792 41.9221 152.02 42.1373 152.036 42.2727C152.052 42.4242 151.874 42.5916 151.776 42.751C151.711 42.751 151.646 42.751 151.581 42.7589Z" fill="#373435" stroke="#373435" stroke-width="0.406935"/>
</g>
<defs>
<clipPath id="clip0_1031_7459">
<rect width="153" height="51" fill="white"/>
</clipPath>
</defs>
</svg>
