<svg width="45" height="45" viewBox="0 0 45 45" fill="none" xmlns="http://www.w3.org/2000/svg">
<mask id="mask0_1243_7416" style="mask-type:luminance" maskUnits="userSpaceOnUse" x="6" y="6" width="33" height="33">
<path d="M38.9189 6.08112H6.08105V38.919H38.9189V6.08112Z" fill="white"/>
</mask>
<g mask="url(#mask0_1243_7416)">
<path d="M38.9189 22.5C38.9189 13.4321 31.5678 6.08112 22.5 6.08112C13.4321 6.08112 6.08105 13.4321 6.08105 22.5C6.08105 31.5679 13.4321 38.919 22.5 38.919C31.5678 38.919 38.9189 31.5679 38.9189 22.5Z" fill="white"/>
<mask id="mask1_1243_7416" style="mask-type:luminance" maskUnits="userSpaceOnUse" x="13" y="13" width="19" height="19">
<path d="M31.6217 13.3784H13.3784V31.6217H31.6217V13.3784Z" fill="white"/>
</mask>
<g mask="url(#mask1_1243_7416)">
<path fill-rule="evenodd" clip-rule="evenodd" d="M28.9635 16.0294C27.2488 14.3208 24.9682 13.3793 22.5384 13.3784C17.5314 13.3784 13.4564 17.4334 13.4547 22.4177C13.4538 24.0111 13.8723 25.5662 14.6672 26.9369L13.3784 31.6217L18.1938 30.3646C19.5204 31.0851 21.0143 31.4643 22.5345 31.4648H22.5384C27.5444 31.4648 31.62 27.4094 31.6217 22.425C31.6225 20.0095 30.6786 17.7381 28.9635 16.0294ZM22.5384 29.9382H22.5353C21.1807 29.9377 19.8519 29.5753 18.6926 28.8909L18.4168 28.7279L15.5592 29.4738L16.3218 26.7011L16.1424 26.4167C15.3867 25.2205 14.9873 23.8376 14.9882 22.4182C14.9899 18.2756 18.3767 14.905 22.5414 14.905C24.558 14.9059 26.4535 15.6883 27.879 17.1087C29.3045 18.5287 30.089 20.4169 30.0881 22.4241C30.0863 26.5672 26.6995 29.9382 22.5384 29.9382ZM26.6794 24.311C26.4526 24.1979 25.3367 23.6517 25.1285 23.5763C24.9203 23.5009 24.7693 23.4632 24.6181 23.6894C24.4669 23.9157 24.0319 24.4246 23.8994 24.575C23.767 24.7258 23.6346 24.7444 23.4077 24.6313C23.1808 24.5182 22.4494 24.2799 21.5823 23.5104C20.9076 22.9114 20.4521 22.1719 20.3197 21.9457C20.1873 21.7194 20.3057 21.5971 20.419 21.4849C20.5209 21.3834 20.6459 21.2209 20.7596 21.0891C20.8732 20.9574 20.9107 20.8629 20.9865 20.7124C21.0624 20.5616 21.0244 20.4299 20.9679 20.3167C20.9112 20.2036 20.4573 19.0917 20.2678 18.6396C20.0835 18.1993 19.8964 18.2591 19.7575 18.2518C19.625 18.2452 19.4739 18.244 19.3223 18.244C19.1708 18.244 18.9251 18.3003 18.7169 18.5265C18.5087 18.7528 17.9225 19.2994 17.9225 20.4108C17.9225 21.5222 18.7356 22.5967 18.8493 22.7475C18.9629 22.8985 20.4499 25.1796 22.7265 26.1584C23.268 26.3912 23.6908 26.5303 24.0206 26.6343C24.5641 26.8064 25.0588 26.7822 25.45 26.7241C25.886 26.659 26.7928 26.1775 26.9818 25.6499C27.1708 25.1224 27.1708 24.6699 27.1142 24.5759C27.0576 24.4819 26.9064 24.4241 26.6794 24.311Z" fill="#08658C"/>
</g>
</g>
</svg>
