<svg width="56" height="56" viewBox="0 0 56 56" fill="none" xmlns="http://www.w3.org/2000/svg">
<mask id="mask0_1319_7392" style="mask-type:alpha" maskUnits="userSpaceOnUse" x="0" y="0" width="56" height="56">
<rect width="56" height="56" fill="#D9D9D9"/>
</mask>
<g mask="url(#mask0_1319_7392)">
<path d="M25.0001 11.1609L5.55583 18.9391V45.1109H11.7777V30.3333C11.7777 29.2639 12.1586 28.3484 12.9204 27.587C13.6819 26.8252 14.5973 26.4442 15.6668 26.4442H34.3334C35.4029 26.4442 36.3183 26.8252 37.0798 27.587C37.8416 28.3484 38.2225 29.2639 38.2225 30.3333V45.1109H44.4443V18.9391L25.0001 11.1609ZM1.66675 45.1109V18.9776C1.66675 18.1652 1.89036 17.4339 2.33758 16.7836C2.7848 16.1334 3.37786 15.6592 4.11675 15.3609L23.561 7.58332C24.0277 7.37604 24.5074 7.2724 25.0001 7.2724C25.4928 7.2724 25.9725 7.37604 26.4392 7.58332L45.8834 15.3609C46.6223 15.6592 47.2154 16.1334 47.6626 16.7836C48.1098 17.4339 48.3334 18.1652 48.3334 18.9776V45.1109C48.3334 46.1803 47.9527 47.096 47.1913 47.8578C46.4294 48.6193 45.5138 49 44.4443 49H34.3334V30.3333H15.6668V49H5.55583C4.48639 49 3.57075 48.6193 2.80892 47.8578C2.04747 47.096 1.66675 46.1803 1.66675 45.1109ZM18.3892 49V45.1109H22.2777V49H18.3892ZM23.0558 42V38.1109H26.9443V42H23.0558ZM27.7225 49V45.1109H31.611V49H27.7225Z" fill="#08658C"/>
</g>
</svg>
