<svg width="57" height="57" viewBox="0 0 57 57" fill="none" xmlns="http://www.w3.org/2000/svg">
<mask id="mask0_1762_7395" style="mask-type:alpha" maskUnits="userSpaceOnUse" x="0" y="0" width="57" height="57">
<rect width="56.4682" height="56.4682" fill="#D9D9D9"/>
</mask>
<g mask="url(#mask0_1762_7395)">
<path d="M28.2339 51.7625C22.8615 51.7625 18.3813 49.9194 14.7933 46.2333C11.2052 42.5472 9.41113 37.9592 9.41113 32.4692C9.41113 29.9858 9.97327 27.5153 11.0975 25.0578C12.2214 22.6002 13.6264 20.2409 15.3126 17.9798C16.9989 15.7183 18.8223 13.6008 20.783 11.6271C22.7437 9.65311 24.5738 7.91456 26.2734 6.41148C26.5608 6.14993 26.8712 5.96366 27.2045 5.85268C27.5378 5.74171 27.8809 5.68622 28.2339 5.68622C28.5868 5.68622 28.9299 5.74171 29.2632 5.85268C29.5966 5.96366 29.9069 6.14993 30.1944 6.41148C31.8939 7.91456 33.724 9.65311 35.6847 11.6271C37.6454 13.6008 39.4689 15.7183 41.1551 17.9798C42.8413 20.2409 44.2463 22.6002 45.3702 25.0578C46.4945 27.5153 47.0566 29.9858 47.0566 32.4692C47.0566 37.9592 45.2626 42.5472 41.6745 46.2333C38.0864 49.9194 33.6062 51.7625 28.2339 51.7625ZM28.2339 47.8409C32.5211 47.8409 36.0765 46.3802 38.8999 43.4587C41.7233 40.5373 43.135 36.8741 43.135 32.4692C43.135 29.4497 41.8704 26.025 39.341 22.1949C36.8117 18.3653 33.1093 14.2741 28.2339 9.92133C23.3584 14.2741 19.656 18.3653 17.1267 22.1949C14.5974 26.025 13.3327 29.4497 13.3327 32.4692C13.3327 36.8741 14.7444 40.5373 17.5678 43.4587C20.3913 46.3802 23.9466 47.8409 28.2339 47.8409ZM28.4103 44.3905C28.9856 44.3771 29.4399 44.243 29.7732 43.9881C30.1065 43.7332 30.2732 43.3836 30.2732 42.9394C30.2732 42.4688 30.1032 42.0996 29.7632 41.8318C29.4232 41.5635 28.9395 41.4361 28.3121 41.4494C26.6784 41.4886 24.9922 40.9951 23.2535 39.9689C21.5151 38.9427 20.4107 37.1159 19.9401 34.4885C19.8617 34.1097 19.6754 33.8027 19.3813 33.5674C19.0872 33.3321 18.7637 33.2145 18.4108 33.2145C17.9402 33.2145 17.5677 33.3941 17.2932 33.7533C17.0187 34.1129 16.9271 34.5019 17.0185 34.9203C17.6329 38.3056 19.0839 40.7434 21.3712 42.2335C23.659 43.7236 26.0053 44.4426 28.4103 44.3905Z" fill="#08658C"/>
</g>
</svg>
