<svg width="88" height="80" viewBox="0 0 88 80" fill="none" xmlns="http://www.w3.org/2000/svg">
<g clip-path="url(#clip0_1786_7539)">
<path fill-rule="evenodd" clip-rule="evenodd" d="M45.323 46.052L43.6321 48.9295L42.0383 51.9912L32.0935 52.0164C32.2134 51.5228 33.1849 50.0128 33.5008 49.4687C34.4145 47.8961 37.2309 43.1606 37.8683 41.8611L31.9804 37.7291C25.8016 33.1155 14.9624 22.8887 18.3691 14.6378C20.6592 9.09157 29.1324 7.61203 36.6639 8.08141C36.5278 8.39094 36.3316 8.83695 36.1453 9.14289C34.4007 9.15637 32.9097 9.24296 30.1667 9.72883C24.5915 10.7166 19.4392 13.633 23.0298 20.3901C27.7905 29.3497 43.9592 38.7652 53.1009 43.4698C56.045 44.9849 59.1384 46.339 62.184 47.7208L68.9801 50.8613C69.5703 51.1365 70.8957 51.6068 71.237 51.9998C69.2228 52.1083 66.9315 52.0098 64.8805 52.0281C62.7899 52.0465 60.6219 52.1006 58.539 52.066C57.5399 52.0496 46.8929 46.8048 45.3228 46.0521L45.323 46.052Z" fill="#ED3237"/>
<path fill-rule="evenodd" clip-rule="evenodd" d="M70.7223 51.0759C69.3487 50.7516 59.7271 46.083 58.3789 45.4086C57.5442 44.9912 57.6174 45.1522 57.1778 44.3097L54.8656 39.9544C54.3907 39.0496 53.842 38.0011 53.3217 37.0306C52.9099 36.2623 52.2548 34.7289 51.7326 34.1789L48.3823 40.2211C47.7544 40.0407 41.7496 36.3531 41.4053 35.9717L50.4473 20.1423C50.7972 19.5006 51.3713 18.3771 51.7695 17.9424L51.8864 18.0684C51.9008 18.0857 51.9252 18.1127 51.9403 18.1322C51.9551 18.1514 51.9746 18.1778 51.9893 18.198C52.071 18.3116 52.082 18.3457 52.1542 18.4717L60.7336 33.4667C61.1011 34.0781 70.523 50.4192 70.7224 51.0759H70.7223Z" fill="#4598BB"/>
<path fill-rule="evenodd" clip-rule="evenodd" d="M33.8294 39.8976C33.7354 40.0272 33.4926 40.5181 33.4095 40.6516L30.211 45.8572C29.5816 46.8848 29.0528 47.7066 28.3861 48.8326C27.7883 49.8425 27.1806 50.6754 26.5675 51.808L16.7671 51.8069C16.8401 51.3904 17.7636 50.0011 18.0443 49.5344L25.8133 36.8972C26.048 36.5053 26.8076 35.0828 27.1861 34.8164L33.8292 39.8977L33.8294 39.8976Z" fill="#4598BB"/>
<path fill-rule="evenodd" clip-rule="evenodd" d="M37.3475 18.0059L47.1481 18.0259C47.1632 18.5131 40.8373 28.5198 40.0979 29.7628C39.7008 30.43 38.0649 33.2506 37.6752 33.5823C37.0442 33.2659 34.954 31.601 34.286 31.065L31.1519 28.3373C31.3282 27.6366 33.5998 24.2188 34.2357 23.1643L37.3475 18.0059Z" fill="#4598BB"/>
<path fill-rule="evenodd" clip-rule="evenodd" d="M33.7224 13.6884C30.1824 13.8949 25.5739 14.1383 23.8304 17.5722C23.6787 17.8709 23.6396 17.9656 23.5597 18.275C23.3974 18.904 23.4608 18.7732 23.2035 19.0231C22.7951 17.3579 22.2002 16.0002 23.0412 14.1749C24.8383 10.2743 31.9014 9.73971 35.8809 9.73584C35.5827 10.3023 34.1023 12.9825 33.7221 13.6884H33.7224Z" fill="#4598BB"/>
<path d="M4.78769 64.1365L7.27658 60.6935H5.32776L3.71761 62.9392L2.10761 60.6935H0.158787L2.6425 64.1365L-0.000488281 67.7856H1.94833L3.71747 65.332L5.48689 67.7856H7.43571L4.78754 64.1365H4.78769ZM7.98756 67.7856H9.63997V60.6935H7.98756V67.7856ZM15.4864 66.3975H18.3511L18.8963 67.7856H20.6774L17.7366 60.6935H16.101L13.1601 67.7856H14.9412L15.4864 66.3975ZM16.9188 62.7738L17.806 65.0196H16.0315L16.9188 62.7738ZM21.2277 67.7856H22.8801V63.0573L25.6432 67.7856H27.736V60.6935H26.0836V65.4215L23.3204 60.6935H21.2277V67.7856ZM33.4539 66.3975H36.3186L36.8638 67.7856H38.6449L35.704 60.6935H34.0684L31.1276 67.7856H32.9087L33.4539 66.3975ZM34.8862 62.7738L35.7735 65.0196H33.999L34.8862 62.7738ZM42.6322 67.7838C44.8823 67.7838 45.502 66.661 45.502 65.6563C45.502 64.812 44.9705 64.2294 44.0342 64.0318C44.7131 63.8983 45.248 63.3208 45.248 62.5864C45.248 61.6559 44.7826 60.6935 42.5527 60.6935H39.1952V67.7838H42.6322ZM40.8476 66.4094V64.8068H42.5915C43.5482 64.8068 43.8157 65.0736 43.8157 65.6074C43.8157 66.1376 43.5483 66.4094 42.5915 66.4094H40.8476ZM40.8476 63.4797V62.0714H42.5915C43.3653 62.0714 43.582 62.3786 43.582 62.7756C43.582 63.1723 43.3652 63.4798 42.5915 63.4798H40.8476V63.4797ZM51.7463 61.2136C51.0656 60.7577 50.1378 60.501 48.9866 60.501C46.9413 60.501 46.2267 61.5293 46.2267 62.6152C46.2267 63.76 47.0258 64.5604 48.9119 64.9555C49.8856 65.1531 50.3614 65.3406 50.3614 65.815C50.3614 66.2792 49.9839 66.5495 48.9866 66.5495C48.3719 66.5495 47.5371 66.4262 46.8024 65.9668L45.9983 67.1287C46.7534 67.7113 47.7016 67.978 48.9866 67.978C50.832 67.978 52.0341 67.2908 52.0341 65.815C52.0341 64.481 51.0267 63.8748 49.2252 63.493C48.3617 63.3208 47.8997 63.0896 47.8997 62.6151C47.8997 62.1809 48.2567 61.9295 48.9866 61.9295C49.6011 61.9295 50.2224 62.0172 50.9421 62.3735L51.7463 61.2134V61.2136ZM57.4708 63.4493H54.379V60.6937H52.7266V67.7857H54.379V64.878H57.4708V67.7857H59.1232V60.6937H57.4708V63.4493ZM61.7746 63.4493V62.1222H65.4114V60.6937H60.1222V67.7857H65.4606V66.3572H61.7746V64.878H65.1981V63.4493H61.7746ZM68.0053 67.7857V65.344H69.2634L70.6299 67.7857H72.4024L70.9125 65.1313C71.6525 64.8173 72.333 64.211 72.333 63.0948C72.333 61.7911 71.4645 60.6937 69.5359 60.6937H66.3529V67.7857H68.0053ZM69.5359 62.1222C70.3927 62.1222 70.6602 62.5781 70.6602 63.0948C70.6602 63.6115 70.3927 64.0674 69.5359 64.0674H68.0053V62.1222H69.5359ZM76.8486 60.501C74.17 60.501 73.0035 62.2589 73.0035 64.2395C73.0035 66.2186 74.17 67.9781 76.8486 67.9781C79.5271 67.9781 80.6937 66.2186 80.6937 64.2395C80.6937 62.2589 79.5271 60.501 76.8486 60.501ZM76.8486 61.9296C78.3367 61.9296 78.9971 62.9359 78.9971 64.2395C78.9971 65.5432 78.3367 66.5496 76.8486 66.5496C75.3604 66.5496 74.7 65.5432 74.7 64.2395C74.7 62.9359 75.3604 61.9296 76.8486 61.9296ZM81.491 67.7856H83.1435V63.0573L85.9066 67.7856H87.9993V60.6935H86.3469V65.4215L83.5838 60.6935H81.491V67.7856ZM10.4292 63.3749H11.8225L13.0568 60.6935H11.4754L10.4292 63.3749Z" fill="#4598BB"/>
<path d="M24.0435 74.029H23.4355V79.9242H27.099V79.3936H24.0435V74.029ZM30.7161 80.0002C32.6133 80.0002 33.6293 78.6316 33.6293 76.9767C33.6293 75.3217 32.6133 73.9533 30.7161 73.9533C28.8188 73.9533 27.8027 75.3218 27.8027 76.9767C27.8027 78.6317 28.8188 80.0002 30.7161 80.0002ZM30.7161 79.4696C29.1736 79.4696 28.4277 78.3453 28.4277 76.9767C28.4277 75.6082 29.1736 74.4839 30.7161 74.4839C32.2585 74.4839 33.0044 75.6082 33.0044 76.9767C33.0044 78.3453 32.2585 79.4696 30.7161 79.4696ZM37.3728 74.4839C38.1625 74.4839 38.7888 74.6635 39.2869 75.0579L39.6106 74.6397C39.0323 74.1779 38.3272 73.9531 37.3728 73.9531C35.4743 73.9531 34.4582 75.3204 34.4582 76.971C34.4582 78.6302 35.4743 80 37.3728 80C38.3314 80 39.0408 79.8119 39.6599 79.3179V76.6818H37.5305V77.2124H39.0941V79.0089C38.7521 79.2714 38.2272 79.4693 37.3728 79.4693C35.8291 79.4693 35.0832 78.3409 35.0832 76.9708C35.0832 75.6079 35.8291 74.4836 37.3728 74.4836V74.4839ZM40.7296 79.9243H41.3375V74.0291H40.7296V79.9243ZM46.362 74.4432C45.9018 74.1498 45.3037 73.9533 44.4239 73.9533C43.1124 73.9533 42.41 74.5696 42.41 75.4566C42.41 76.3479 43.0137 76.8405 44.4535 77.1578C45.6865 77.4329 46.0496 77.7614 46.0496 78.3986C46.0496 79.0835 45.609 79.4696 44.5818 79.4696C43.7598 79.4696 43.0843 79.2646 42.5621 78.9152L42.2497 79.3712C42.8043 79.8162 43.6613 80.0002 44.5819 80.0002C45.902 80.0002 46.6663 79.4582 46.6663 78.3986C46.6663 77.3627 45.9723 76.891 44.5565 76.5739C43.4474 76.324 43.0267 76.0643 43.0267 75.4566C43.0267 74.7828 43.5952 74.4839 44.4241 74.4839C45.039 74.4839 45.6373 74.6397 46.0497 74.8979L46.3621 74.4432H46.362ZM47.333 74.0291V74.5597H49.4147V79.9243H50.0226V74.5597H52.1042V74.0291H47.333ZM53.0077 79.9243H53.6156V74.0291H53.0077V79.9243ZM55.2371 76.9767C55.2371 75.6082 55.983 74.4839 57.5255 74.4839C58.2882 74.4839 58.8117 74.7296 59.1622 74.9597L59.4874 74.5161C59.0553 74.1905 58.4361 73.9533 57.5255 73.9533C55.6283 73.9533 54.6121 75.3218 54.6121 76.9767C54.6121 78.6317 55.6283 80.0002 57.5255 80.0002C58.436 80.0002 59.0553 79.7629 59.4874 79.4373L59.1622 78.9937C58.8119 79.2238 58.2884 79.4696 57.5255 79.4696C55.983 79.4696 55.2371 78.3453 55.2371 76.9767ZM64.2599 74.4432C63.7997 74.1498 63.2016 73.9533 62.3218 73.9533C61.0103 73.9533 60.3079 74.5696 60.3079 75.4566C60.3079 76.3479 60.9116 76.8405 62.3514 77.1578C63.5844 77.4329 63.9475 77.7614 63.9475 78.3986C63.9475 79.0835 63.5069 79.4696 62.4797 79.4696C61.6577 79.4696 60.9822 79.2646 60.46 78.9152L60.1476 79.3712C60.7022 79.8162 61.5592 80.0002 62.4798 80.0002C63.7999 80.0002 64.5642 79.4582 64.5642 78.3986C64.5642 77.3627 63.8702 76.891 62.4544 76.5739C61.3453 76.324 60.9246 76.0643 60.9246 75.4566C60.9246 74.7828 61.4931 74.4839 62.322 74.4839C62.9369 74.4839 63.5352 74.6397 63.9476 74.8979L64.26 74.4432H64.2599Z" fill="#4598BB"/>
</g>
<defs>
<clipPath id="clip0_1786_7539">
<rect width="88" height="80" fill="white"/>
</clipPath>
</defs>
</svg>
