<svg width="45" height="45" viewBox="0 0 45 45" fill="none" xmlns="http://www.w3.org/2000/svg">
<mask id="mask0_1243_7427" style="mask-type:luminance" maskUnits="userSpaceOnUse" x="6" y="6" width="33" height="33">
<path d="M38.9189 6.08105H6.08105V38.9189H38.9189V6.08105Z" fill="white"/>
</mask>
<g mask="url(#mask0_1243_7427)">
<path d="M38.9189 22.5C38.9189 13.4321 31.5678 6.08105 22.5 6.08105C13.4321 6.08105 6.08105 13.4321 6.08105 22.5C6.08105 31.5678 13.4321 38.9189 22.5 38.9189C31.5678 38.9189 38.9189 31.5678 38.9189 22.5Z" fill="white"/>
<path d="M22.4928 17.027V15.2027H22.6236C22.7026 15.203 22.8178 15.2038 22.9633 15.2051C23.2542 15.2076 23.6683 15.2128 24.1628 15.2229C24.9026 15.238 25.8295 15.2641 26.7996 15.3108L27.7781 15.3642L27.8483 15.3702C28.0603 15.3916 29.4709 15.4007 30.681 16.4629L30.6821 16.4617C30.6843 16.4635 30.686 16.4658 30.688 16.4676C30.6941 16.473 30.7009 16.4776 30.707 16.483L30.7059 16.4842C31.3407 17.0423 31.6462 17.7946 31.7831 18.1886C31.8932 18.5052 31.9552 18.7843 31.9887 18.9463C31.9855 18.9341 31.9804 18.9216 31.9767 18.9084C31.9817 18.9268 31.9881 18.9438 31.9922 18.9606C31.994 18.9682 31.9952 18.976 31.9969 18.9832C31.9984 18.9898 32.0016 18.9958 32.0029 19.0022L32.0266 19.1293L32.1276 20.0082C32.1774 20.5246 32.2277 21.2103 32.2297 21.9026V23.0867C32.2297 23.7968 32.1796 24.4908 32.1311 24.9954C32.1066 25.25 32.081 25.4628 32.0623 25.6141C32.0529 25.69 32.0455 25.7518 32.0397 25.7947C32.0368 25.8156 32.0343 25.8324 32.0326 25.8446C32.0317 25.8508 32.0307 25.8563 32.0301 25.86V25.8672L30.2237 25.6071L32.0231 25.9064V25.9123C32.0226 25.9149 32.0213 25.9176 32.0207 25.9206C32.0196 25.9268 32.0186 25.9348 32.0171 25.9432C32.0141 25.9598 32.0101 25.9804 32.0052 26.0049C31.9956 26.0544 31.9817 26.1198 31.9636 26.1973C31.928 26.3503 31.8731 26.5619 31.7914 26.7984C31.6554 27.1925 31.3488 27.9495 30.7107 28.511L30.7119 28.5133C30.7056 28.5191 30.698 28.5232 30.6917 28.5288C30.6894 28.5307 30.6879 28.534 30.6857 28.536L30.6845 28.5347C29.4755 29.5956 28.0686 29.6048 27.853 29.6263C27.8292 29.6286 27.8044 29.6308 27.7806 29.6323C26.4724 29.712 25.1539 29.7535 24.1675 29.7747C23.6732 29.7854 23.2589 29.7907 22.968 29.7938C22.823 29.7952 22.7085 29.7968 22.6294 29.7973H22.4406C22.4139 29.7971 22.3744 29.7956 22.3243 29.7949C22.2235 29.7936 22.0775 29.7928 21.8991 29.7901C21.5423 29.7849 21.0506 29.7761 20.5129 29.7641C19.4564 29.7404 18.1564 29.7015 17.3643 29.637C17.3163 29.633 17.2682 29.6269 17.2206 29.6191C17.2183 29.6188 17.1987 29.6156 17.1434 29.6096C17.1041 29.6054 16.9982 29.5955 16.9225 29.587C16.7423 29.5671 16.4952 29.5348 16.2206 29.4743C15.6769 29.3543 14.9593 29.105 14.306 28.53L14.3048 28.5312C14.3016 28.5284 14.2996 28.5244 14.2965 28.5217C14.2929 28.5186 14.2882 28.5165 14.2846 28.5133L14.2858 28.5122C13.6488 27.9501 13.3442 27.1912 13.2085 26.7971C13.1274 26.5616 13.0719 26.351 13.0363 26.1985C13.0183 26.1212 13.0044 26.0554 12.9947 26.0061C12.9899 25.9817 12.9859 25.961 12.9829 25.9443C12.9814 25.9361 12.9804 25.928 12.9793 25.9218C12.9788 25.9189 12.9773 25.9159 12.9769 25.9134V25.9076C12.9748 25.8946 12.9717 25.8813 12.9698 25.8683V25.86C12.9693 25.8564 12.9682 25.8516 12.9674 25.8458C12.9657 25.8335 12.9632 25.816 12.9603 25.7947C12.9545 25.7518 12.9459 25.6911 12.9365 25.6153C12.9179 25.4638 12.8933 25.2494 12.8688 24.9942C12.8204 24.4895 12.7703 23.7966 12.7703 23.0879V21.9086C12.7703 21.1985 12.8204 20.5055 12.8688 20.001C12.8933 19.746 12.9178 19.5324 12.9365 19.381C12.9459 19.3054 12.9545 19.2447 12.9603 19.2017C12.9632 19.1803 12.9657 19.1629 12.9674 19.1507C12.9682 19.1448 12.9693 19.1401 12.9698 19.1364V19.128C12.9714 19.1173 12.974 19.1068 12.9757 19.096V19.0924L12.9769 19.0889C12.9773 19.0864 12.9776 19.0836 12.9781 19.0806C12.9792 19.0743 12.9802 19.0664 12.9817 19.058C12.9846 19.0414 12.9888 19.0208 12.9935 18.9962C13.0031 18.9467 13.016 18.8803 13.0339 18.8027C13.0693 18.6496 13.125 18.4383 13.2062 18.2017C13.3414 17.8071 13.6458 17.0491 14.2846 16.4866L14.2834 16.4842C14.2892 16.4791 14.2966 16.4751 14.3024 16.47C14.3054 16.4674 14.3077 16.4631 14.3107 16.4605L14.3119 16.4617C15.5215 15.4003 16.9347 15.3925 17.1387 15.3714L17.2135 15.3642C18.5243 15.2828 19.8439 15.243 20.8301 15.2229C21.3242 15.2128 21.7378 15.2076 22.0285 15.2051C22.1738 15.2038 22.2891 15.203 22.3682 15.2027H22.4928C22.4928 15.2027 22.4928 15.2027 22.4928 17.027ZM22.4928 17.027C22.4928 17.027 19.8787 17.0265 17.3263 17.185C16.9693 17.222 16.1925 17.2258 15.4984 17.8454C14.9566 18.3112 14.7803 19.3642 14.7763 19.3882C14.7763 19.3882 14.5946 20.6472 14.5946 21.9086V23.0879C14.5946 24.3467 14.7763 25.6083 14.7763 25.6083C14.7773 25.6141 14.9556 26.6815 15.4984 27.1523C16.1927 27.7717 17.1054 27.7525 17.5128 27.8185C18.9634 27.9366 22.4528 27.9725 22.5 27.973C22.5 27.973 25.1191 27.9671 27.6701 27.8115C28.0271 27.7756 28.8035 27.7719 29.498 27.1523C30.0464 26.6812 30.2237 25.6071 30.2237 25.6071C30.2269 25.5851 30.4054 24.337 30.4054 23.0867V21.9073C30.4016 20.6624 30.2239 19.4152 30.2202 19.3882C30.216 19.3641 30.0348 18.3111 29.4932 17.8454C28.7988 17.2259 28.0209 17.2209 27.6654 17.185C25.1144 17.0265 22.4988 17.027 22.4988 17.027H22.4928ZM32.029 25.8683C32.0272 25.8806 32.0263 25.893 32.0243 25.9052L30.2237 25.6071L32.029 25.8683ZM20.6627 20.8693C20.6689 20.4205 21.1427 20.1334 21.5439 20.3348L24.4799 21.8087C24.9221 22.0308 24.9285 22.6603 24.4906 22.8908L21.5142 24.4562C21.1061 24.6708 20.6173 24.3709 20.6234 23.9098L20.6627 20.8693ZM31.1382 20.962C31.1604 20.949 31.1801 20.9398 31.194 20.9311C31.2188 20.9154 31.2398 20.8964 31.2617 20.8811C31.2252 20.9066 31.1845 20.9348 31.1382 20.962ZM31.5314 20.6555C31.5269 20.6601 31.5224 20.6656 31.5171 20.6709C31.5145 20.6736 31.5108 20.6759 31.5075 20.6792L31.504 20.6816C31.4994 20.6863 31.4948 20.6911 31.4898 20.6959C31.4762 20.7091 31.4582 20.7235 31.4387 20.741C31.4442 20.736 31.4512 20.7341 31.4554 20.7303C31.4653 20.7212 31.4743 20.7109 31.4838 20.7018C31.4932 20.6928 31.5018 20.685 31.5075 20.6792L31.5409 20.6472C31.5385 20.6495 31.5349 20.6518 31.5314 20.6555ZM29.6583 17.6518C29.6473 17.6553 29.6369 17.66 29.6263 17.6636C29.6364 17.6601 29.6466 17.6564 29.6572 17.6529L29.6583 17.6518ZM30.2 17.5662C30.2359 17.5658 30.2714 17.567 30.3068 17.5686C30.2907 17.5678 30.2744 17.5654 30.2581 17.5651C30.2385 17.5646 30.2191 17.566 30.2 17.5662Z" fill="#08658C"/>
</g>
</svg>
