<svg width="57" height="57" viewBox="0 0 57 57" fill="none" xmlns="http://www.w3.org/2000/svg">
<mask id="mask0_1762_7419" style="mask-type:alpha" maskUnits="userSpaceOnUse" x="0" y="0" width="57" height="57">
<rect width="56.5879" height="56.5879" fill="#D9D9D9"/>
</mask>
<g mask="url(#mask0_1762_7419)">
<path d="M4.71582 11.8675V6.28771C4.71582 5.22669 5.10545 4.30635 5.88471 3.5267C6.66437 2.74744 7.58471 2.3578 8.64573 2.3578H14.2255C14.7824 2.3578 15.249 2.54682 15.6255 2.92486C16.0024 3.30251 16.1908 3.77073 16.1908 4.32954C16.1908 4.88834 16.0024 5.35441 15.6255 5.72773C15.249 6.10105 14.7824 6.28771 14.2255 6.28771H8.64573V11.8675C8.64573 12.4244 8.45671 12.891 8.07867 13.2675C7.70064 13.6443 7.23241 13.8328 6.674 13.8328C6.11519 13.8328 5.64913 13.6443 5.2758 13.2675C4.90248 12.891 4.71582 12.4244 4.71582 11.8675ZM8.64573 49.5144C7.58471 49.5144 6.66437 49.1247 5.88471 48.3455C5.10545 47.5658 4.71582 46.6455 4.71582 45.5845V40.0047C4.71582 39.4478 4.90484 38.9812 5.28288 38.6047C5.66052 38.2279 6.12875 38.0394 6.68755 38.0394C7.24636 38.0394 7.71242 38.2279 8.08575 38.6047C8.45907 38.9812 8.64573 39.4478 8.64573 40.0047V45.5845H14.2255C14.7824 45.5845 15.249 45.7735 15.6255 46.1515C16.0024 46.5296 16.1908 46.9978 16.1908 47.5562C16.1908 48.115 16.0024 48.5811 15.6255 48.9544C15.249 49.3277 14.7824 49.5144 14.2255 49.5144H8.64573ZM47.9425 11.8675V6.28771H42.3627C41.8058 6.28771 41.3392 6.09869 40.9627 5.72066C40.5859 5.34262 40.3974 4.87439 40.3974 4.31598C40.3974 3.75717 40.5859 3.29111 40.9627 2.91779C41.3392 2.54446 41.8058 2.3578 42.3627 2.3578H47.9425C49.0035 2.3578 49.9238 2.74744 50.7035 3.5267C51.4828 4.30635 51.8724 5.22669 51.8724 6.28771V11.8675C51.8724 12.4244 51.6834 12.891 51.3053 13.2675C50.9277 13.6443 50.4595 13.8328 49.9007 13.8328C49.3419 13.8328 48.8758 13.6443 48.5025 13.2675C48.1291 12.891 47.9425 12.4244 47.9425 11.8675ZM31.8338 19.4916C30.6136 19.4916 29.5679 19.0569 28.6967 18.1877C27.8259 17.3188 27.3905 16.2743 27.3905 15.0541C27.3905 13.8336 27.8249 12.7879 28.6938 11.917C29.5626 11.0458 30.6073 10.6102 31.8279 10.6102C33.0481 10.6102 34.0938 11.0446 34.965 11.9135C35.8358 12.7827 36.2712 13.8275 36.2712 15.0476C36.2712 16.2678 35.8368 17.3135 34.9679 18.1847C34.0991 19.0559 33.0544 19.4916 31.8338 19.4916ZM20.9453 40.2794L23.539 27.0366L18.1949 29.4333V35.4069C18.1949 35.9634 18.0059 36.43 17.6279 36.8069C17.2498 37.1833 16.7816 37.3716 16.2232 37.3716C15.6644 37.3716 15.1983 37.1833 14.825 36.8069C14.4517 36.43 14.265 35.9634 14.265 35.4069V28.0976C14.265 27.6956 14.3715 27.3357 14.5845 27.0177C14.7971 26.6998 15.0836 26.4572 15.4439 26.2898L23.8142 22.753C25.111 22.1899 26.0443 21.8329 26.6142 21.682C27.184 21.5315 27.7386 21.4562 28.2782 21.4562C29.0877 21.4562 29.8135 21.6395 30.4556 22.0062C31.0974 22.3732 31.6344 22.8972 32.0666 23.5783L34.5029 27.4687C35.0923 28.3725 35.78 29.2141 36.566 29.9933C37.3519 30.773 38.2361 31.4247 39.2185 31.9486L37.2344 35.348C36.252 34.7844 35.3252 34.1066 34.4539 33.3143C33.5827 32.5217 32.7477 31.5949 31.9487 30.5339L29.7088 40.2794H20.9453ZM35.7608 51.8722C35.0141 51.8722 34.4541 51.5317 34.0808 50.8507C33.7075 50.1693 33.6977 49.5142 34.0513 48.8854L43.4826 32.4201C43.8623 31.7257 44.4321 31.3785 45.1921 31.3785C45.9517 31.3785 46.5345 31.7126 46.9404 32.3806L56.3717 48.8854C56.7781 49.5405 56.7682 50.2021 56.3423 50.8701C55.9167 51.5382 55.3437 51.8722 54.6234 51.8722H35.7608ZM45.1921 49.5144C45.4538 49.5144 45.6829 49.4161 45.8794 49.2197C46.0759 49.0232 46.1741 48.7939 46.1741 48.5318C46.1741 48.27 46.0759 48.0409 45.8794 47.8444C45.6829 47.648 45.4538 47.5497 45.1921 47.5497C44.93 47.5497 44.7007 47.648 44.5042 47.8444C44.3077 48.0409 44.2095 48.27 44.2095 48.5318C44.2095 48.7939 44.3077 49.0232 44.5042 49.2197C44.7007 49.4161 44.93 49.5144 45.1921 49.5144ZM45.1921 45.3882C45.4538 45.3882 45.6829 45.2899 45.8794 45.0935C46.0759 44.897 46.1741 44.6677 46.1741 44.4056V36.7426C46.1741 36.4809 46.0759 36.2518 45.8794 36.0553C45.6829 35.8588 45.4538 35.7606 45.1921 35.7606C44.93 35.7606 44.7007 35.8588 44.5042 36.0553C44.3077 36.2518 44.2095 36.4809 44.2095 36.7426V44.4056C44.2095 44.6677 44.3077 44.897 44.5042 45.0935C44.7007 45.2899 44.93 45.3882 45.1921 45.3882Z" fill="#08658C"/>
</g>
</svg>
