<svg width="170" height="100" viewBox="0 0 170 100" fill="none" xmlns="http://www.w3.org/2000/svg">
<mask id="mask0_1863_7678" style="mask-type:alpha" maskUnits="userSpaceOnUse" x="9" y="50" width="40" height="40">
<rect x="9" y="50" width="39.7339" height="39.7339" fill="#08658C"/>
</mask>
<g mask="url(#mask0_1863_7678)">
<path d="M13.9671 89.7339C13.498 89.7339 13.1048 89.5753 12.7875 89.258C12.4702 88.9406 12.3115 88.5474 12.3115 88.0784V84.7672C12.3115 84.2981 12.4702 83.9049 12.7875 83.5876C13.1048 83.2703 13.498 83.1116 13.9671 83.1116H43.7676C44.2366 83.1116 44.6298 83.2703 44.9472 83.5876C45.2645 83.9049 45.4231 84.2981 45.4231 84.7672V88.0784C45.4231 88.5474 45.2645 88.9406 44.9472 89.258C44.6298 89.5753 44.2366 89.7339 43.7676 89.7339H13.9671ZM20.7964 78.1449C20.1617 78.1449 19.6582 77.8758 19.2857 77.3378C18.9132 76.7997 18.8373 76.2272 19.058 75.6201L26.3426 56.2084C26.4805 55.8221 26.7151 55.5186 27.0462 55.2979C27.3773 55.0771 27.736 54.9667 28.1223 54.9667H29.6123C30.0262 54.9667 30.3918 55.0771 30.7092 55.2979C31.0265 55.5186 31.2541 55.8221 31.3921 56.2084L38.718 75.6615C38.9388 76.2685 38.8629 76.8342 38.4904 77.3585C38.1179 77.8827 37.6143 78.1449 36.9797 78.1449C36.5934 78.1449 36.2347 78.0345 35.9036 77.8138C35.5724 77.593 35.3379 77.2895 35.1999 76.9032L33.5857 72.1848H24.2317L22.5347 76.9446C22.3968 77.3309 22.1691 77.6275 21.8518 77.8344C21.5345 78.0414 21.1827 78.1449 20.7964 78.1449ZM25.3906 68.8736H32.3441L28.9501 59.2712H28.7846L25.3906 68.8736Z" fill="#08658C"/>
</g>
<rect x="72.5" y="10.5" width="88" height="8" rx="4" stroke="#B2CEDA"/>
<rect x="72.5" y="25.5" width="53" height="8" rx="4" stroke="#B2CEDA"/>
<rect x="72.5" y="40.5" width="25" height="8" rx="4" stroke="#DDDDDD"/>
<rect x="104.5" y="40.5" width="56" height="8" rx="4" stroke="#DDDDDD"/>
<rect x="72.5" y="55.5" width="44" height="8" rx="4" stroke="#DDDDDD"/>
</svg>
