<svg width="170" height="100" viewBox="0 0 170 100" fill="none" xmlns="http://www.w3.org/2000/svg">
<rect x="85.5" y="10.5" width="75" height="8" rx="4" stroke="#DDDDDD"/>
<rect x="85.5" y="25.5" width="45" height="8" rx="4" stroke="#DDDDDD"/>
<rect x="85.5" y="40.5" width="51" height="8" rx="4" stroke="#DDDDDD"/>
<path d="M76.457 20.1709C75.5889 20.1709 75.0078 19.6104 75.0078 18.7422V12.6172H74.9531L73.9072 13.3418C73.6611 13.5127 73.5039 13.5674 73.2305 13.5674C72.6904 13.5674 72.2734 13.1641 72.2734 12.5898C72.2734 12.1865 72.4375 11.8584 72.8203 11.5986L74.6113 10.4023C75.1855 10.0195 75.6846 9.96484 76.2451 9.96484C77.291 9.96484 77.9062 10.5938 77.9062 11.585V18.7422C77.9062 19.6104 77.3252 20.1709 76.457 20.1709ZM73.9482 34C73.0049 34 72.5947 33.4736 72.5947 32.749C72.5947 32.2158 72.8408 31.8057 73.3877 31.3477L76.1016 29.0234C77.209 28.0732 77.5234 27.6426 77.5234 27.0547C77.5234 26.4326 77.0449 26.002 76.3408 26.002C75.8213 26.002 75.4658 26.2412 75.0967 26.7744C74.7139 27.335 74.3652 27.54 73.8115 27.54C73.0732 27.54 72.6221 27.1094 72.6221 26.4121C72.6221 26.1865 72.6631 25.9746 72.752 25.7695C73.2715 24.5938 74.6592 23.8623 76.3818 23.8623C78.7812 23.8623 80.3125 25.0723 80.3125 26.8633C80.3125 28.1895 79.6289 28.8799 78.0977 30.2061L76.2998 31.7578V31.8125H79.4307C80.1553 31.8125 80.5654 32.2432 80.5654 32.9062C80.5654 33.5557 80.1553 34 79.4307 34H73.9482ZM76.6006 48.2734C74.3037 48.2734 73.0596 47.1797 72.7246 46.2432C72.6631 46.0723 72.6357 45.8809 72.6357 45.7305C72.6357 45.0127 73.1143 44.5684 73.8936 44.5684C74.4336 44.5684 74.7891 44.7461 75.0762 45.1631C75.4453 45.7031 75.8076 46.0244 76.6689 46.0244C77.3936 46.0244 77.9131 45.5869 77.9131 44.9785C77.9131 44.2744 77.373 43.8984 76.3682 43.8984H76.2998C75.623 43.8984 75.2812 43.5225 75.2812 42.9414C75.2812 42.3877 75.623 41.9912 76.2998 41.9912H76.3682C77.2637 41.9912 77.7832 41.6016 77.7832 40.9658C77.7832 40.3574 77.332 39.9746 76.6006 39.9746C76.0127 39.9746 75.5957 40.2139 75.3154 40.7061C74.9873 41.2871 74.6318 41.499 74.0029 41.499C73.21 41.499 72.8203 41.0342 72.8203 40.3916C72.8203 40.2002 72.8477 40.0498 72.916 39.8584C73.2646 38.9082 74.4678 37.8623 76.5869 37.8623C78.7812 37.8623 80.4492 38.792 80.4492 40.5488C80.4492 41.8271 79.5127 42.6201 78.4258 42.8389V42.8936C79.9297 43.0508 80.8594 43.8779 80.8594 45.1904C80.8594 47.0771 79.2393 48.2734 76.6006 48.2734Z" fill="#B2CEDA"/>
<mask id="mask0_1863_7681" style="mask-type:alpha" maskUnits="userSpaceOnUse" x="9" y="50" width="40" height="40">
<rect x="9" y="50" width="39.7339" height="39.7339" fill="#08658C"/>
</mask>
<g mask="url(#mask0_1863_7681)">
<path d="M15.2085 86.4229C14.8498 86.4229 14.5531 86.3056 14.3186 86.0711C14.0841 85.8366 13.9668 85.5399 13.9668 85.1812C13.9668 84.8225 14.0841 84.5259 14.3186 84.2913C14.5531 84.0568 14.8498 83.9395 15.2085 83.9395H18.1057V82.6978H16.8641C16.5054 82.6978 16.2087 82.5806 15.9742 82.346C15.7396 82.1115 15.6224 81.8149 15.6224 81.4562C15.6224 81.0974 15.7396 80.8008 15.9742 80.5663C16.2087 80.3317 16.5054 80.2145 16.8641 80.2145H18.1057V78.9728H15.2085C14.8498 78.9728 14.5531 78.8555 14.3186 78.621C14.0841 78.3864 13.9668 78.0898 13.9668 77.7311C13.9668 77.3724 14.0841 77.0758 14.3186 76.8412C14.5531 76.6067 14.8498 76.4894 15.2085 76.4894H18.9335C19.4026 76.4894 19.7958 76.6481 20.1131 76.9654C20.4305 77.2827 20.5891 77.6759 20.5891 78.145V79.8006C20.5891 80.2697 20.4305 80.6629 20.1131 80.9802C19.7958 81.2975 19.4026 81.4562 18.9335 81.4562C19.4026 81.4562 19.7958 81.6148 20.1131 81.9321C20.4305 82.2495 20.5891 82.6427 20.5891 83.1117V84.7673C20.5891 85.2364 20.4305 85.6296 20.1131 85.9469C19.7958 86.2642 19.4026 86.4229 18.9335 86.4229H15.2085ZM15.2085 74.8338C14.8498 74.8338 14.5531 74.7166 14.3186 74.482C14.0841 74.2475 13.9668 73.9509 13.9668 73.5921V70.281C13.9668 69.8119 14.1255 69.4187 14.4428 69.1014C14.7601 68.7841 15.1533 68.6254 15.6224 68.6254H18.1057V67.3837H15.2085C14.8498 67.3837 14.5531 67.2664 14.3186 67.0319C14.0841 66.7974 13.9668 66.5007 13.9668 66.142C13.9668 65.7833 14.0841 65.4867 14.3186 65.2522C14.5531 65.0176 14.8498 64.9003 15.2085 64.9003H18.9335C19.4026 64.9003 19.7958 65.059 20.1131 65.3763C20.4305 65.6936 20.5891 66.0868 20.5891 66.5559V69.4532C20.5891 69.9223 20.4305 70.3155 20.1131 70.6328C19.7958 70.9501 19.4026 71.1088 18.9335 71.1088H16.4502V72.3505H19.3474C19.7061 72.3505 20.0028 72.4677 20.2373 72.7023C20.4719 72.9368 20.5891 73.2334 20.5891 73.5921C20.5891 73.9509 20.4719 74.2475 20.2373 74.482C20.0028 74.7166 19.7061 74.8338 19.3474 74.8338H15.2085ZM17.6919 63.2448C17.3331 63.2448 17.0365 63.1275 16.802 62.893C16.5674 62.6584 16.4502 62.3618 16.4502 62.0031V55.7947H15.2085C14.8498 55.7947 14.5531 55.6774 14.3186 55.4428C14.0841 55.2083 13.9668 54.9117 13.9668 54.553C13.9668 54.1943 14.0841 53.8976 14.3186 53.6631C14.5531 53.4285 14.8498 53.3113 15.2085 53.3113H17.6919C18.0506 53.3113 18.3472 53.4285 18.5817 53.6631C18.8163 53.8976 18.9335 54.1943 18.9335 54.553V62.0031C18.9335 62.3618 18.8163 62.6584 18.5817 62.893C18.3472 63.1275 18.0506 63.2448 17.6919 63.2448ZM25.5559 81.4562C25.0868 81.4562 24.6936 81.2975 24.3763 80.9802C24.0589 80.6629 23.9003 80.2697 23.9003 79.8006C23.9003 79.3315 24.0589 78.9383 24.3763 78.621C24.6936 78.3037 25.0868 78.145 25.5559 78.145H42.1117C42.5808 78.145 42.974 78.3037 43.2913 78.621C43.6086 78.9383 43.7673 79.3315 43.7673 79.8006C43.7673 80.2697 43.6086 80.6629 43.2913 80.9802C42.974 81.2975 42.5808 81.4562 42.1117 81.4562H25.5559ZM25.5559 71.5227C25.0868 71.5227 24.6936 71.364 24.3763 71.0467C24.0589 70.7294 23.9003 70.3362 23.9003 69.8671C23.9003 69.398 24.0589 69.0048 24.3763 68.6875C24.6936 68.3702 25.0868 68.2115 25.5559 68.2115H42.1117C42.5808 68.2115 42.974 68.3702 43.2913 68.6875C43.6086 69.0048 43.7673 69.398 43.7673 69.8671C43.7673 70.3362 43.6086 70.7294 43.2913 71.0467C42.974 71.364 42.5808 71.5227 42.1117 71.5227H25.5559ZM25.5559 61.5892C25.0868 61.5892 24.6936 61.4305 24.3763 61.1132C24.0589 60.7959 23.9003 60.4027 23.9003 59.9336C23.9003 59.4645 24.0589 59.0713 24.3763 58.754C24.6936 58.4367 25.0868 58.278 25.5559 58.278H42.1117C42.5808 58.278 42.974 58.4367 43.2913 58.754C43.6086 59.0713 43.7673 59.4645 43.7673 59.9336C43.7673 60.4027 43.6086 60.7959 43.2913 61.1132C42.974 61.4305 42.5808 61.5892 42.1117 61.5892H25.5559Z" fill="#08658C"/>
</g>
</svg>
