<svg width="170" height="100" viewBox="0 0 170 100" fill="none" xmlns="http://www.w3.org/2000/svg">
<mask id="mask0_1863_7682" style="mask-type:alpha" maskUnits="userSpaceOnUse" x="9" y="55" width="40" height="40">
<rect x="9" y="55" width="39.7339" height="39.7339" fill="#08658C"/>
</mask>
<g mask="url(#mask0_1863_7682)">
<path d="M18.9329 83.1449C18.4638 83.1449 18.0706 82.9863 17.7533 82.6689C17.436 82.3516 17.2773 81.9584 17.2773 81.4893V68.2447C17.2773 67.7756 17.436 67.3824 17.7533 67.0651C18.0706 66.7478 18.4638 66.5891 18.9329 66.5891C19.402 66.5891 19.7952 66.7478 20.1125 67.0651C20.4298 67.3824 20.5885 67.7756 20.5885 68.2447V73.2114H27.2108V68.2447C27.2108 67.7756 27.3695 67.3824 27.6868 67.0651C28.0041 66.7478 28.3973 66.5891 28.8664 66.5891C29.3355 66.5891 29.7287 66.7478 30.046 67.0651C30.3633 67.3824 30.522 67.7756 30.522 68.2447V81.4893C30.522 81.9584 30.3633 82.3516 30.046 82.6689C29.7287 82.9863 29.3355 83.1449 28.8664 83.1449C28.3973 83.1449 28.0041 82.9863 27.6868 82.6689C27.3695 82.3516 27.2108 81.9584 27.2108 81.4893V76.5226H20.5885V81.4893C20.5885 81.9584 20.4298 82.3516 20.1125 82.6689C19.7952 82.9863 19.402 83.1449 18.9329 83.1449ZM38.7999 83.1449C38.3308 83.1449 37.9376 82.9863 37.6203 82.6689C37.303 82.3516 37.1443 81.9584 37.1443 81.4893V69.9003H35.4887C35.0197 69.9003 34.6265 69.7416 34.3091 69.4243C33.9918 69.107 33.8332 68.7138 33.8332 68.2447C33.8332 67.7756 33.9918 67.3824 34.3091 67.0651C34.6265 66.7478 35.0197 66.5891 35.4887 66.5891H38.7999C39.269 66.5891 39.6622 66.7478 39.9795 67.0651C40.2968 67.3824 40.4555 67.7756 40.4555 68.2447V81.4893C40.4555 81.9584 40.2968 82.3516 39.9795 82.6689C39.6622 82.9863 39.269 83.1449 38.7999 83.1449Z" fill="#08658C"/>
</g>
<rect x="71.5" y="10.5" width="88" height="22" rx="5.5" stroke="#B2CEDA"/>
<rect x="71.5" y="40.5" width="25" height="8" rx="4" stroke="#DDDDDD"/>
<rect x="103.5" y="40.5" width="56" height="8" rx="4" stroke="#DDDDDD"/>
<rect x="71.5" y="55.5" width="44" height="8" rx="4" stroke="#DDDDDD"/>
</svg>
