<svg width="170" height="100" viewBox="0 0 170 100" fill="none" xmlns="http://www.w3.org/2000/svg">
<mask id="mask0_1863_7679" style="mask-type:alpha" maskUnits="userSpaceOnUse" x="9" y="52" width="40" height="40">
<rect x="9" y="52.0001" width="39.7339" height="39.7339" fill="#08658C"/>
</mask>
<g mask="url(#mask0_1863_7679)">
<path d="M17.278 86.7673C16.3674 86.7673 15.5879 86.443 14.9395 85.7946C14.291 85.1462 13.9668 84.3667 13.9668 83.4561V60.278C13.9668 59.3674 14.291 58.5879 14.9395 57.9395C15.5879 57.291 16.3674 56.9668 17.278 56.9668H28.867C29.3361 56.9668 29.7293 57.1255 30.0466 57.4428C30.364 57.7601 30.5226 58.1533 30.5226 58.6224C30.5226 59.0915 30.364 59.4847 30.0466 59.802C29.7293 60.1193 29.3361 60.278 28.867 60.278H17.278V83.4561H40.4561V71.867C40.4561 71.3979 40.6148 71.0047 40.9321 70.6874C41.2494 70.3701 41.6426 70.2114 42.1117 70.2114C42.5808 70.2114 42.974 70.3701 43.2913 70.6874C43.6086 71.0047 43.7673 71.3979 43.7673 71.867V83.4561C43.7673 84.3667 43.443 85.1462 42.7946 85.7946C42.1462 86.443 41.3667 86.7673 40.4561 86.7673H17.278ZM18.9335 80.1449H38.8005L32.5921 71.867L27.6253 78.4894L23.9003 73.5226L18.9335 80.1449ZM37.1449 63.5891H35.4894C35.0203 63.5891 34.6271 63.4305 34.3098 63.1131C33.9924 62.7958 33.8338 62.4026 33.8338 61.9335C33.8338 61.4645 33.9924 61.0713 34.3098 60.7539C34.6271 60.4366 35.0203 60.278 35.4894 60.278H37.1449V58.6224C37.1449 58.1533 37.3036 57.7601 37.6209 57.4428C37.9382 57.1255 38.3314 56.9668 38.8005 56.9668C39.2696 56.9668 39.6628 57.1255 39.9801 57.4428C40.2974 57.7601 40.4561 58.1533 40.4561 58.6224V60.278H42.1117C42.5808 60.278 42.974 60.4366 43.2913 60.7539C43.6086 61.0713 43.7673 61.4645 43.7673 61.9335C43.7673 62.4026 43.6086 62.7958 43.2913 63.1131C42.974 63.4305 42.5808 63.5891 42.1117 63.5891H40.4561V65.2447C40.4561 65.7138 40.2974 66.107 39.9801 66.4243C39.6628 66.7416 39.2696 66.9003 38.8005 66.9003C38.3314 66.9003 37.9382 66.7416 37.6209 66.4243C37.3036 66.107 37.1449 65.7138 37.1449 65.2447V63.5891Z" fill="#08658C"/>
</g>
<path d="M98.0197 28.6316H83.2118C82.3005 28.6316 81.7803 27.5912 82.3271 26.8621L84.9232 23.4007C85.3655 22.8109 86.2503 22.8109 86.6926 23.4007L88.5291 25.8493C88.9714 26.4391 89.8562 26.4391 90.2986 25.8493L93.337 21.7981C93.7793 21.2082 94.6641 21.2082 95.1064 21.7981L98.9045 26.8621C99.4513 27.5912 98.9311 28.6316 98.0197 28.6316Z" fill="#B2CEDA"/>
<path d="M147.02 28.6316H132.212C131.301 28.6316 130.78 27.5912 131.327 26.8621L133.923 23.4007C134.366 22.8109 135.25 22.8109 135.693 23.4007L137.529 25.8493C137.971 26.4391 138.856 26.4391 139.299 25.8493L142.337 21.7981C142.779 21.2082 143.664 21.2082 144.106 21.7981L147.904 26.8621C148.451 27.5912 147.931 28.6316 147.02 28.6316Z" fill="#B2CEDA"/>
<path d="M123.02 59.6316H108.212C107.301 59.6316 106.78 58.5912 107.327 57.8621L109.923 54.4007C110.366 53.8109 111.25 53.8109 111.693 54.4007L113.529 56.8493C113.971 57.4391 114.856 57.4391 115.299 56.8493L118.337 52.7981C118.779 52.2082 119.664 52.2082 120.106 52.7981L123.904 57.8621C124.451 58.5912 123.931 59.6316 123.02 59.6316Z" fill="#B2CEDA"/>
<rect x="121.5" y="10.5" width="39" height="23" rx="4.5" stroke="#DDDDDD"/>
<rect x="72.5" y="10.5" width="39" height="23" rx="4.5" stroke="#DDDDDD"/>
<rect x="72.5" y="41.5" width="88" height="23" rx="4.5" stroke="#DDDDDD"/>
<rect x="97.5791" y="15.3684" width="4.42105" height="4.42105" rx="2.21053" fill="#B2CEDA"/>
<rect x="146.579" y="15.3684" width="4.42105" height="4.42105" rx="2.21053" fill="#B2CEDA"/>
<rect x="122.579" y="46.3684" width="4.42105" height="4.42105" rx="2.21053" fill="#B2CEDA"/>
</svg>
