<svg width="170" height="100" viewBox="0 0 170 100" fill="none" xmlns="http://www.w3.org/2000/svg">
<mask id="mask0_1863_7677" style="mask-type:alpha" maskUnits="userSpaceOnUse" x="9" y="51" width="40" height="40">
<rect x="9" y="51" width="39.7339" height="39.7339" fill="#08658C"/>
</mask>
<g mask="url(#mask0_1863_7677)">
<path d="M23.9 72.5226H33.8335C34.3025 72.5226 34.6957 72.364 35.0131 72.0466C35.3304 71.7293 35.489 71.3361 35.489 70.867C35.489 70.3979 35.3304 70.0047 35.0131 69.6874C34.6957 69.3701 34.3025 69.2114 33.8335 69.2114H23.9C23.4309 69.2114 23.0377 69.3701 22.7204 69.6874C22.4031 70.0047 22.2444 70.3979 22.2444 70.867C22.2444 71.3361 22.4031 71.7293 22.7204 72.0466C23.0377 72.364 23.4309 72.5226 23.9 72.5226ZM23.9 77.4894H33.8335C34.3025 77.4894 34.6957 77.3307 35.0131 77.0134C35.3304 76.6961 35.489 76.3029 35.489 75.8338C35.489 75.3647 35.3304 74.9715 35.0131 74.6542C34.6957 74.3369 34.3025 74.1782 33.8335 74.1782H23.9C23.4309 74.1782 23.0377 74.3369 22.7204 74.6542C22.4031 74.9715 22.2444 75.3647 22.2444 75.8338C22.2444 76.3029 22.4031 76.6961 22.7204 77.0134C23.0377 77.3307 23.4309 77.4894 23.9 77.4894ZM23.9 82.4561H28.8667C29.3358 82.4561 29.729 82.2974 30.0463 81.9801C30.3636 81.6628 30.5223 81.2696 30.5223 80.8005C30.5223 80.3314 30.3636 79.9382 30.0463 79.6209C29.729 79.3036 29.3358 79.1449 28.8667 79.1449H23.9C23.4309 79.1449 23.0377 79.3036 22.7204 79.6209C22.4031 79.9382 22.2444 80.3314 22.2444 80.8005C22.2444 81.2696 22.4031 81.6628 22.7204 81.9801C23.0377 82.2974 23.4309 82.4561 23.9 82.4561ZM18.9332 87.4228C18.0227 87.4228 17.2432 87.0986 16.5947 86.4502C15.9463 85.8018 15.6221 85.0222 15.6221 84.1117V57.6224C15.6221 56.7118 15.9463 55.9323 16.5947 55.2839C17.2432 54.6354 18.0227 54.3112 18.9332 54.3112H30.812C31.2535 54.3112 31.6743 54.394 32.0744 54.5596C32.4745 54.7251 32.8263 54.9597 33.1298 55.2632L41.1594 63.2927C41.4629 63.5963 41.6975 63.9481 41.863 64.3482C42.0286 64.7483 42.1114 65.1691 42.1114 65.6106V84.1117C42.1114 85.0222 41.7871 85.8018 41.1387 86.4502C40.4903 87.0986 39.7108 87.4228 38.8002 87.4228H18.9332ZM38.8002 65.9003H33.0057C32.3158 65.9003 31.7295 65.6588 31.2466 65.176C30.7637 64.6931 30.5223 64.1067 30.5223 63.4169V57.6224H18.9332V84.1117H38.8002V65.9003Z" fill="#08658C"/>
</g>
<g opacity="0.4">
<mask id="mask1_1863_7677" style="mask-type:alpha" maskUnits="userSpaceOnUse" x="76" y="16" width="13" height="13">
<rect x="76" y="16.0001" width="12.2661" height="12.2661" fill="#08658C"/>
</mask>
<g mask="url(#mask1_1863_7677)">
<path d="M79.0661 27.2439C78.785 27.2439 78.5444 27.1438 78.3442 26.9437C78.144 26.7435 78.0439 26.5029 78.0439 26.2218V18.0444C78.0439 17.7633 78.144 17.5227 78.3442 17.3225C78.5444 17.1223 78.785 17.0222 79.0661 17.0222H82.7332C82.8694 17.0222 82.9993 17.0478 83.1229 17.0989C83.2464 17.15 83.355 17.2224 83.4487 17.3161L85.9274 19.7949C86.0211 19.8886 86.0935 19.9972 86.1447 20.1207C86.1958 20.2442 86.2213 20.3741 86.2213 20.5104V26.2218C86.2213 26.5029 86.1212 26.7435 85.9211 26.9437C85.7209 27.1438 85.4802 27.2439 85.1991 27.2439H79.0661ZM85.1991 20.5998H83.4103C83.1974 20.5998 83.0164 20.5253 82.8673 20.3762C82.7182 20.2271 82.6437 20.0461 82.6437 19.8332V18.0444H79.0661V26.2218H85.1991V20.5998Z" fill="#08658C"/>
</g>
</g>
<g opacity="0.4">
<mask id="mask2_1863_7677" style="mask-type:alpha" maskUnits="userSpaceOnUse" x="76" y="47" width="13" height="13">
<rect x="76" y="47.0001" width="12.2661" height="12.2661" fill="#08658C"/>
</mask>
<g mask="url(#mask2_1863_7677)">
<path d="M79.0661 58.2439C78.785 58.2439 78.5444 58.1438 78.3442 57.9437C78.144 57.7435 78.0439 57.5029 78.0439 57.2218V49.0444C78.0439 48.7633 78.144 48.5227 78.3442 48.3225C78.5444 48.1223 78.785 48.0222 79.0661 48.0222H82.7332C82.8694 48.0222 82.9993 48.0478 83.1229 48.0989C83.2464 48.15 83.355 48.2224 83.4487 48.3161L85.9274 50.7949C86.0211 50.8886 86.0935 50.9972 86.1447 51.1207C86.1958 51.2442 86.2213 51.3741 86.2213 51.5104V57.2218C86.2213 57.5029 86.1212 57.7435 85.9211 57.9437C85.7209 58.1438 85.4802 58.2439 85.1991 58.2439H79.0661ZM85.1991 51.5998H83.4103C83.1974 51.5998 83.0164 51.5253 82.8673 51.3762C82.7182 51.2271 82.6437 51.0461 82.6437 50.8332V49.0444H79.0661V57.2218H85.1991V51.5998Z" fill="#08658C"/>
</g>
</g>
<rect x="71.5" y="10.5" width="88" height="23" rx="4.5" stroke="#DDDDDD"/>
<rect x="91.25" y="20.25" width="22.5" height="0.5" rx="0.25" stroke="#DDDDDD" stroke-width="0.5"/>
<rect x="91.25" y="51.25" width="22.5" height="0.5" rx="0.25" stroke="#DDDDDD" stroke-width="0.5"/>
<rect x="91.25" y="23.25" width="14.5" height="0.5" rx="0.25" stroke="#DDDDDD" stroke-width="0.5"/>
<rect x="91.25" y="54.25" width="14.5" height="0.5" rx="0.25" stroke="#DDDDDD" stroke-width="0.5"/>
<rect x="-0.5" y="0.5" width="11" height="11" rx="5.5" transform="matrix(-1 0 0 1 153 16)" stroke="#DDDDDD"/>
<rect x="-0.5" y="0.5" width="11" height="11" rx="5.5" transform="matrix(-1 0 0 1 153 47)" stroke="#DDDDDD"/>
<rect x="-0.5" y="0.5" width="11" height="11" rx="5.5" transform="matrix(-1 0 0 1 136 16)" stroke="#DDDDDD"/>
<rect x="-0.5" y="0.5" width="11" height="11" rx="5.5" transform="matrix(-1 0 0 1 136 47)" stroke="#DDDDDD"/>
<rect x="71.5" y="41.5" width="88" height="23" rx="4.5" stroke="#DDDDDD"/>
</svg>
