<svg width="170" height="100" viewBox="0 0 170 100" fill="none" xmlns="http://www.w3.org/2000/svg">
<mask id="mask0_1863_7676" style="mask-type:alpha" maskUnits="userSpaceOnUse" x="10" y="53" width="39" height="39">
<rect x="10" y="53" width="38.4312" height="38.4312" fill="#D9D9D9"/>
</mask>
<g mask="url(#mask0_1863_7676)">
<path d="M32.4177 64.2091H26.8132C26.146 64.2091 25.5789 63.9755 25.1118 63.5085C24.6448 63.0414 24.4112 62.4743 24.4112 61.8071C24.4112 61.1399 24.6448 60.5728 25.1118 60.1057C25.5789 59.6387 26.146 59.4052 26.8132 59.4052H42.8262C43.4934 59.4052 44.0605 59.6387 44.5276 60.1057C44.9946 60.5728 45.2281 61.1399 45.2281 61.8071C45.2281 62.4743 44.9946 63.0414 44.5276 63.5085C44.0605 63.9755 43.4934 64.2091 42.8262 64.2091H37.2216V82.624C37.2216 83.2912 36.9881 83.8583 36.5211 84.3254C36.054 84.7924 35.4869 85.0259 34.8197 85.0259C34.1525 85.0259 33.5854 84.7924 33.1183 84.3254C32.6513 83.8583 32.4177 83.2912 32.4177 82.624V64.2091ZM18.006 72.2155H15.6041C14.9369 72.2155 14.3698 71.982 13.9027 71.515C13.4357 71.0479 13.2021 70.4808 13.2021 69.8136C13.2021 69.1464 13.4357 68.5793 13.9027 68.1122C14.3698 67.6452 14.9369 67.4116 15.6041 67.4116H25.2119C25.8791 67.4116 26.4462 67.6452 26.9133 68.1122C27.3803 68.5793 27.6138 69.1464 27.6138 69.8136C27.6138 70.4808 27.3803 71.0479 26.9133 71.515C26.4462 71.982 25.8791 72.2155 25.2119 72.2155H22.8099V82.624C22.8099 83.2912 22.5764 83.8583 22.1094 84.3254C21.6423 84.7924 21.0752 85.0259 20.408 85.0259C19.7408 85.0259 19.1737 84.7924 18.7066 84.3254C18.2396 83.8583 18.006 83.2912 18.006 82.624V72.2155Z" fill="#08658C"/>
</g>
<rect x="71.5" y="10.5" width="88" height="8" rx="4" stroke="#DDDDDD"/>
<rect x="71.5" y="25.5" width="53" height="8" rx="4" stroke="#DDDDDD"/>
<rect x="-0.5" y="0.5" width="27" height="8" rx="4" transform="matrix(-1 0 0 1 158 25)" stroke="#DDDDDD"/>
<rect x="71.5" y="40.5" width="25" height="8" rx="4" stroke="#DDDDDD"/>
<rect x="103.5" y="40.5" width="56" height="8" rx="4" stroke="#DDDDDD"/>
<rect x="71.5" y="55.5" width="44" height="8" rx="4" stroke="#DDDDDD"/>
</svg>
