<svg width="170" height="100" viewBox="0 0 170 100" fill="none" xmlns="http://www.w3.org/2000/svg">
<mask id="mask0_1863_7683" style="mask-type:alpha" maskUnits="userSpaceOnUse" x="10" y="57" width="39" height="39">
<rect x="10" y="57" width="38.4312" height="38.4312" fill="#08658C"/>
</mask>
<g mask="url(#mask0_1863_7683)">
<path d="M16.405 84.2221C15.9513 84.2221 15.571 84.0686 15.2641 83.7617C14.9572 83.4548 14.8037 83.0745 14.8037 82.6208V69.8104C14.8037 69.3567 14.9572 68.9764 15.2641 68.6695C15.571 68.3626 15.9513 68.2091 16.405 68.2091H42.0258C42.4795 68.2091 42.8598 68.3626 43.1667 68.6695C43.4736 68.9764 43.6271 69.3567 43.6271 69.8104V71.4117C43.6271 71.8654 43.4736 72.2457 43.1667 72.5526C42.8598 72.8595 42.4795 73.013 42.0258 73.013C41.5721 73.013 41.1918 72.8595 40.8849 72.5526C40.578 72.2457 40.4245 71.8654 40.4245 71.4117H18.0063V81.0195H30.8167C31.2704 81.0195 31.6507 81.173 31.9576 81.4799C32.2646 81.7868 32.418 82.1671 32.418 82.6208C32.418 83.0745 32.2646 83.4548 31.9576 83.7617C31.6507 84.0686 31.2704 84.2221 30.8167 84.2221H16.405ZM40.4245 84.2221H37.2219C36.7682 84.2221 36.3879 84.0686 36.081 83.7617C35.7741 83.4548 35.6206 83.0745 35.6206 82.6208C35.6206 82.1671 35.7741 81.7868 36.081 81.4799C36.3879 81.173 36.7682 81.0195 37.2219 81.0195H40.4245V77.8169C40.4245 77.3632 40.578 76.9829 40.8849 76.676C41.1918 76.3691 41.5721 76.2156 42.0258 76.2156C42.4795 76.2156 42.8598 76.3691 43.1667 76.676C43.4736 76.9829 43.6271 77.3632 43.6271 77.8169V81.0195H46.8297C47.2834 81.0195 47.6637 81.173 47.9706 81.4799C48.2775 81.7868 48.431 82.1671 48.431 82.6208C48.431 83.0745 48.2775 83.4548 47.9706 83.7617C47.6637 84.0686 47.2834 84.2221 46.8297 84.2221H43.6271V87.4247C43.6271 87.8784 43.4736 88.2587 43.1667 88.5656C42.8598 88.8725 42.4795 89.026 42.0258 89.026C41.5721 89.026 41.1918 88.8725 40.8849 88.5656C40.578 88.2587 40.4245 87.8784 40.4245 87.4247V84.2221Z" fill="#08658C"/>
</g>
<rect x="71.5" y="10.5" width="40" height="23" rx="4.5" stroke="#DDDDDD"/>
<rect x="71.5" y="40.5" width="40" height="23" rx="4.5" stroke="#DDDDDD"/>
<rect x="119.5" y="10.5" width="40" height="23" rx="4.5" stroke="#DDDDDD"/>
<rect x="119.5" y="40.5" width="40" height="23" rx="4.5" stroke="#DDDDDD"/>
<rect x="88.249" y="16.25" width="18.5" height="0.5" rx="0.25" stroke="#AFAFAF" stroke-width="0.5"/>
<rect x="88.249" y="46.25" width="18.5" height="0.5" rx="0.25" stroke="#AFAFAF" stroke-width="0.5"/>
<rect x="136.249" y="16.25" width="18.5" height="0.5" rx="0.25" stroke="#AFAFAF" stroke-width="0.5"/>
<rect x="136.249" y="46.25" width="18.5" height="0.5" rx="0.25" stroke="#AFAFAF" stroke-width="0.5"/>
<rect x="88.249" y="23.25" width="18.5" height="0.5" rx="0.25" stroke="#DDDDDD" stroke-width="0.5"/>
<rect x="88.249" y="53.25" width="18.5" height="0.5" rx="0.25" stroke="#DDDDDD" stroke-width="0.5"/>
<rect x="136.249" y="23.25" width="18.5" height="0.5" rx="0.25" stroke="#DDDDDD" stroke-width="0.5"/>
<rect x="136.249" y="53.25" width="18.5" height="0.5" rx="0.25" stroke="#DDDDDD" stroke-width="0.5"/>
<rect x="88.249" y="19.25" width="11.5" height="0.5" rx="0.25" stroke="#AFAFAF" stroke-width="0.5"/>
<rect x="88.249" y="49.25" width="11.5" height="0.5" rx="0.25" stroke="#AFAFAF" stroke-width="0.5"/>
<rect x="136.249" y="19.25" width="11.5" height="0.5" rx="0.25" stroke="#AFAFAF" stroke-width="0.5"/>
<rect x="136.249" y="49.25" width="11.5" height="0.5" rx="0.25" stroke="#AFAFAF" stroke-width="0.5"/>
<rect x="88.249" y="26.25" width="11.5" height="0.5" rx="0.25" stroke="#DDDDDD" stroke-width="0.5"/>
<rect x="88.249" y="56.25" width="11.5" height="0.5" rx="0.25" stroke="#DDDDDD" stroke-width="0.5"/>
<rect x="136.249" y="26.25" width="11.5" height="0.5" rx="0.25" stroke="#DDDDDD" stroke-width="0.5"/>
<rect x="136.249" y="56.25" width="11.5" height="0.5" rx="0.25" stroke="#DDDDDD" stroke-width="0.5"/>
<rect x="80.1104" y="16.3745" width="7.64203" height="7.64203" rx="1.5" transform="rotate(45 80.1104 16.3745)" stroke="#B2CEDA"/>
<rect x="80.1104" y="46.3745" width="7.64203" height="7.64203" rx="1.5" transform="rotate(45 80.1104 46.3745)" stroke="#B2CEDA"/>
<rect x="128.11" y="16.3745" width="7.64203" height="7.64203" rx="1.5" transform="rotate(45 128.11 16.3745)" stroke="#B2CEDA"/>
<rect x="128.11" y="46.3745" width="7.64203" height="7.64203" rx="1.5" transform="rotate(45 128.11 46.3745)" stroke="#B2CEDA"/>
</svg>
