<svg width="170" height="100" viewBox="0 0 170 100" fill="none" xmlns="http://www.w3.org/2000/svg">
<mask id="mask0_1863_7680" style="mask-type:alpha" maskUnits="userSpaceOnUse" x="13" y="50" width="40" height="40">
<rect x="13" y="50" width="39.7339" height="39.7339" fill="#08658C"/>
</mask>
<g mask="url(#mask0_1863_7680)">
<path d="M29.5559 81.456C29.0868 81.456 28.6936 81.2974 28.3763 80.9801C28.0589 80.6627 27.9003 80.2695 27.9003 79.8004C27.9003 79.3314 28.0589 78.9382 28.3763 78.6208C28.6936 78.3035 29.0868 78.1449 29.5559 78.1449H46.1117C46.5808 78.1449 46.974 78.3035 47.2913 78.6208C47.6086 78.9382 47.7673 79.3314 47.7673 79.8004C47.7673 80.2695 47.6086 80.6627 47.2913 80.9801C46.974 81.2974 46.5808 81.456 46.1117 81.456H29.5559ZM29.5559 71.5225C29.0868 71.5225 28.6936 71.3639 28.3763 71.0466C28.0589 70.7292 27.9003 70.336 27.9003 69.867C27.9003 69.3979 28.0589 69.0047 28.3763 68.6874C28.6936 68.37 29.0868 68.2114 29.5559 68.2114H46.1117C46.5808 68.2114 46.974 68.37 47.2913 68.6874C47.6086 69.0047 47.7673 69.3979 47.7673 69.867C47.7673 70.336 47.6086 70.7292 47.2913 71.0466C46.974 71.3639 46.5808 71.5225 46.1117 71.5225H29.5559ZM29.5559 61.5891C29.0868 61.5891 28.6936 61.4304 28.3763 61.1131C28.0589 60.7958 27.9003 60.4026 27.9003 59.9335C27.9003 59.4644 28.0589 59.0712 28.3763 58.7539C28.6936 58.4366 29.0868 58.2779 29.5559 58.2779H46.1117C46.5808 58.2779 46.974 58.4366 47.2913 58.7539C47.6086 59.0712 47.7673 59.4644 47.7673 59.9335C47.7673 60.4026 47.6086 60.7958 47.2913 61.1131C46.974 61.4304 46.5808 61.5891 46.1117 61.5891H29.5559ZM21.278 83.1116C20.3674 83.1116 19.5879 82.7874 18.9395 82.139C18.291 81.4905 17.9668 80.711 17.9668 79.8004C17.9668 78.8899 18.291 78.1104 18.9395 77.4619C19.5879 76.8135 20.3674 76.4893 21.278 76.4893C22.1885 76.4893 22.968 76.8135 23.6165 77.4619C24.2649 78.1104 24.5891 78.8899 24.5891 79.8004C24.5891 80.711 24.2649 81.4905 23.6165 82.139C22.968 82.7874 22.1885 83.1116 21.278 83.1116ZM21.278 73.1781C20.3674 73.1781 19.5879 72.8539 18.9395 72.2055C18.291 71.557 17.9668 70.7775 17.9668 69.867C17.9668 68.9564 18.291 68.1769 18.9395 67.5285C19.5879 66.88 20.3674 66.5558 21.278 66.5558C22.1885 66.5558 22.968 66.88 23.6165 67.5285C24.2649 68.1769 24.5891 68.9564 24.5891 69.867C24.5891 70.7775 24.2649 71.557 23.6165 72.2055C22.968 72.8539 22.1885 73.1781 21.278 73.1781ZM21.278 63.2446C20.3674 63.2446 19.5879 62.9204 18.9395 62.272C18.291 61.6235 17.9668 60.844 17.9668 59.9335C17.9668 59.0229 18.291 58.2434 18.9395 57.595C19.5879 56.9465 20.3674 56.6223 21.278 56.6223C22.1885 56.6223 22.968 56.9465 23.6165 57.595C24.2649 58.2434 24.5891 59.0229 24.5891 59.9335C24.5891 60.844 24.2649 61.6235 23.6165 62.272C22.968 62.9204 22.1885 63.2446 21.278 63.2446Z" fill="#08658C"/>
</g>
<rect x="85.5" y="10.5" width="75" height="8" rx="4" stroke="#DDDDDD"/>
<rect x="85.5" y="25.5" width="45" height="8" rx="4" stroke="#DDDDDD"/>
<rect x="85.5" y="40.5" width="51" height="8" rx="4" stroke="#DDDDDD"/>
<path d="M77.4863 18.8789C75.9619 18.8789 74.6904 17.6074 74.6904 16.083C74.6904 14.5586 75.9619 13.2871 77.4863 13.2871C79.0107 13.2871 80.2822 14.5586 80.2822 16.083C80.2822 17.6074 79.0107 18.8789 77.4863 18.8789ZM77.4863 32.8789C75.9619 32.8789 74.6904 31.6074 74.6904 30.083C74.6904 28.5586 75.9619 27.2871 77.4863 27.2871C79.0107 27.2871 80.2822 28.5586 80.2822 30.083C80.2822 31.6074 79.0107 32.8789 77.4863 32.8789ZM77.4863 46.8789C75.9619 46.8789 74.6904 45.6074 74.6904 44.083C74.6904 42.5586 75.9619 41.2871 77.4863 41.2871C79.0107 41.2871 80.2822 42.5586 80.2822 44.083C80.2822 45.6074 79.0107 46.8789 77.4863 46.8789Z" fill="#B2CEDA"/>
</svg>
